*
*
G04 PADS 9.5 Build Number: 522968 generated Gerber (RS-274-X) file*
G04 PC Version=2.1*
*
%IN "3DP_V10-1116.pcb"*%
*
%MOIN*%
*
%FSLAX35Y35*%
*
*
*
*
G04 PC Standard Apertures*
*
*
G04 Thermal Relief Aperture macro.*
%AMTER*
1,1,$1,0,0*
1,0,$1-$2,0,0*
21,0,$3,$4,0,0,45*
21,0,$3,$4,0,0,135*
%
*
*
G04 Annular Aperture macro.*
%AMANN*
1,1,$1,0,0*
1,0,$2,0,0*
%
*
*
G04 Odd Aperture macro.*
%AMODD*
1,1,$1,0,0*
1,0,$1-0.005,0,0*
%
*
*
G04 PC Custom Aperture Macros*
*
*
*
*
*
*
G04 PC Aperture Table*
*
%ADD016C,0.01*%
%ADD044C,0.005*%
%ADD053C,0.001*%
%ADD083C,0.04*%
%ADD704R,0.02X0.02*%
%ADD707R,0.045X0.05*%
%ADD709R,0.07X0.085*%
%ADD710R,0.03543X0.01575*%
%ADD737R,0.11811X0.11024*%
%ADD759R,0.05X0.01*%
%ADD760R,0.045X0.075*%
%ADD761O,0.05906X0.012*%
%ADD762R,0.05X0.045*%
%ADD763R,0.09449X0.05906*%
%ADD764R,0.09449X0.14961*%
%ADD766R,0.11024X0.11811*%
%ADD767R,0.032X0.035*%
*
*
*
*
G04 PC Circuitry*
G04 Layer Name 3DP_V10-1116.pcb - circuitry*
%LPD*%
*
*
G04 PC Custom Flashes*
G04 Layer Name 3DP_V10-1116.pcb - flashes*
%LPD*%
*
*
G04 PC Circuitry*
G04 Layer Name 3DP_V10-1116.pcb - circuitry*
%LPD*%
*
G54D16*
G01X1910483Y1513822D02*
Y1511029D01*
X1909776Y1510322*
X1907190*
X1906483Y1511029*
Y1513822*
X1910483*
X1906983Y1510529D02*
Y1513822D01*
X1907483Y1510322D02*
Y1513822D01*
X1907983Y1510322D02*
Y1513822D01*
X1908483Y1510322D02*
Y1513822D01*
X1908983Y1510322D02*
Y1513822D01*
X1909483Y1510322D02*
Y1513822D01*
X1909983Y1510529D02*
Y1513822D01*
X1910483Y1511029D02*
Y1513822D01*
X1909776Y1521322D02*
X1910483Y1520615D01*
Y1517822*
X1906483*
Y1520615*
X1907190Y1521322*
X1909776*
X1906983Y1517822D02*
Y1521114D01*
X1907483Y1517822D02*
Y1521322D01*
X1907983Y1517822D02*
Y1521322D01*
X1908483Y1517822D02*
Y1521322D01*
X1908983Y1517822D02*
Y1521322D01*
X1909483Y1517822D02*
Y1521322D01*
X1909983Y1517822D02*
Y1521115D01*
X1910483Y1517822D02*
Y1520615D01*
X1794859Y1519286D02*
X1792066D01*
X1791359Y1519993*
Y1522579*
X1792066Y1523286*
X1794859*
Y1519286*
X1791363Y1519990D02*
Y1522583D01*
X1791863Y1519490D02*
Y1523083D01*
X1792363Y1519286D02*
Y1523286D01*
X1792863Y1519286D02*
Y1523286D01*
X1793363Y1519286D02*
Y1523286D01*
X1793863Y1519286D02*
Y1523286D01*
X1794363Y1519286D02*
Y1523286D01*
X1802359Y1519993D02*
X1801652Y1519286D01*
X1798859*
Y1523286*
X1801652*
X1802359Y1522579*
Y1519993*
X1798863Y1519286D02*
Y1523286D01*
X1799363Y1519286D02*
Y1523286D01*
X1799863Y1519286D02*
Y1523286D01*
X1800363Y1519286D02*
Y1523286D01*
X1800863Y1519286D02*
Y1523286D01*
X1801363Y1519286D02*
Y1523286D01*
X1801863Y1519497D02*
Y1523075D01*
X2043278Y1473443D02*
X2046070D01*
X2046778Y1472736*
Y1470150*
X2046070Y1469443*
X2043278*
Y1473443*
X2043774Y1469443D02*
Y1473443D01*
X2044274Y1469443D02*
Y1473443D01*
X2044774Y1469443D02*
Y1473443D01*
X2045274Y1469443D02*
Y1473443D01*
X2045774Y1469443D02*
Y1473443D01*
X2046274Y1469647D02*
Y1473240D01*
X2046774Y1470147D02*
Y1472740D01*
X2035778Y1472736D02*
X2036485Y1473443D01*
X2039278*
Y1469443*
X2036485*
X2035778Y1470150*
Y1472736*
X2036274Y1469654D02*
Y1473233D01*
X2036774Y1469443D02*
Y1473443D01*
X2037274Y1469443D02*
Y1473443D01*
X2037774Y1469443D02*
Y1473443D01*
X2038274Y1469443D02*
Y1473443D01*
X2038774Y1469443D02*
Y1473443D01*
X2039274Y1469443D02*
Y1473443D01*
X1913584Y1502818D02*
Y1505611D01*
X1914291Y1506318*
X1916877*
X1917584Y1505611*
Y1502818*
X1913584*
X1913584D02*
Y1505611D01*
X1914084Y1502818D02*
Y1506111D01*
X1914584Y1502818D02*
Y1506318D01*
X1915084Y1502818D02*
Y1506318D01*
X1915584Y1502818D02*
Y1506318D01*
X1916084Y1502818D02*
Y1506318D01*
X1916584Y1502818D02*
Y1506318D01*
X1917084Y1502818D02*
Y1506111D01*
X1914291Y1495318D02*
X1913584Y1496025D01*
Y1498818*
X1917584*
Y1496025*
X1916877Y1495318*
X1914291*
X1913584Y1496025D02*
Y1498818D01*
X1914084Y1495525D02*
Y1498818D01*
X1914584Y1495318D02*
Y1498818D01*
X1915084Y1495318D02*
Y1498818D01*
X1915584Y1495318D02*
Y1498818D01*
X1916084Y1495318D02*
Y1498818D01*
X1916584Y1495318D02*
Y1498818D01*
X1917084Y1495526D02*
Y1498818D01*
X1895295Y1499061D02*
Y1496268D01*
X1894588Y1495561*
X1892002*
X1891295Y1496268*
Y1499061*
X1895295*
X1891795Y1495768D02*
Y1499061D01*
X1892295Y1495561D02*
Y1499061D01*
X1892795Y1495561D02*
Y1499061D01*
X1893295Y1495561D02*
Y1499061D01*
X1893795Y1495561D02*
Y1499061D01*
X1894295Y1495561D02*
Y1499061D01*
X1894795Y1495768D02*
Y1499061D01*
X1895295Y1496268D02*
Y1499061D01*
X1894588Y1506561D02*
X1895295Y1505854D01*
Y1503061*
X1891295*
Y1505854*
X1892002Y1506561*
X1894588*
X1891795Y1503061D02*
Y1506353D01*
X1892295Y1503061D02*
Y1506561D01*
X1892795Y1503061D02*
Y1506561D01*
X1893295Y1503061D02*
Y1506561D01*
X1893795Y1503061D02*
Y1506561D01*
X1894295Y1503061D02*
Y1506561D01*
X1894795Y1503061D02*
Y1506354D01*
X1895295Y1503061D02*
Y1505854D01*
X2075866Y1504287D02*
X2078659D01*
X2079366Y1503580*
Y1500994*
X2078659Y1500287*
X2075866*
Y1504287*
X2076363Y1500287D02*
Y1504287D01*
X2076863Y1500287D02*
Y1504287D01*
X2077363Y1500287D02*
Y1504287D01*
X2077863Y1500287D02*
Y1504287D01*
X2078363Y1500287D02*
Y1504287D01*
X2078863Y1500490D02*
Y1504083D01*
X2079363Y1500990D02*
Y1503583D01*
X2068366Y1503580D02*
X2069073Y1504287D01*
X2071866*
Y1500287*
X2069073*
X2068366Y1500994*
Y1503580*
X2068863Y1500498D02*
Y1504076D01*
X2069363Y1500287D02*
Y1504287D01*
X2069863Y1500287D02*
Y1504287D01*
X2070363Y1500287D02*
Y1504287D01*
X2070863Y1500287D02*
Y1504287D01*
X2071363Y1500287D02*
Y1504287D01*
X2071863Y1500287D02*
Y1504287D01*
X1918316Y1513813D02*
Y1511020D01*
X1917609Y1510313*
X1915023*
X1914316Y1511020*
Y1513813*
X1918316*
X1914816Y1510520D02*
Y1513813D01*
X1915316Y1510313D02*
Y1513813D01*
X1915816Y1510313D02*
Y1513813D01*
X1916316Y1510313D02*
Y1513813D01*
X1916816Y1510313D02*
Y1513813D01*
X1917316Y1510313D02*
Y1513813D01*
X1917816Y1510520D02*
Y1513813D01*
X1918316Y1511020D02*
Y1513813D01*
X1917609Y1521313D02*
X1918316Y1520606D01*
Y1517813*
X1914316*
Y1520606*
X1915023Y1521313*
X1917609*
X1914816Y1517813D02*
Y1521105D01*
X1915316Y1517813D02*
Y1521313D01*
X1915816Y1517813D02*
Y1521313D01*
X1916316Y1517813D02*
Y1521313D01*
X1916816Y1517813D02*
Y1521313D01*
X1917316Y1517813D02*
Y1521313D01*
X1917816Y1517813D02*
Y1521106D01*
X1918316Y1517813D02*
Y1520606D01*
X2071838Y1590565D02*
X2074631D01*
X2075338Y1589858*
Y1587272*
X2074631Y1586565*
X2071838*
Y1590565*
X2072335Y1586565D02*
Y1590565D01*
X2072835Y1586565D02*
Y1590565D01*
X2073335Y1586565D02*
Y1590565D01*
X2073835Y1586565D02*
Y1590565D01*
X2074335Y1586565D02*
Y1590565D01*
X2074835Y1586768D02*
Y1590361D01*
X2075335Y1587268D02*
Y1589861D01*
X2064338Y1589858D02*
X2065045Y1590565D01*
X2067838*
Y1586565*
X2065045*
X2064338Y1587272*
Y1589858*
X2064835Y1586776D02*
Y1590354D01*
X2065335Y1586565D02*
Y1590565D01*
X2065835Y1586565D02*
Y1590565D01*
X2066335Y1586565D02*
Y1590565D01*
X2066835Y1586565D02*
Y1590565D01*
X2067335Y1586565D02*
Y1590565D01*
X2067835Y1586565D02*
Y1590565D01*
X2071838Y1528065D02*
X2074631D01*
X2075338Y1527358*
Y1524772*
X2074631Y1524065*
X2071838*
Y1528065*
X2072335Y1524065D02*
Y1528065D01*
X2072835Y1524065D02*
Y1528065D01*
X2073335Y1524065D02*
Y1528065D01*
X2073835Y1524065D02*
Y1528065D01*
X2074335Y1524065D02*
Y1528065D01*
X2074835Y1524268D02*
Y1527861D01*
X2075335Y1524768D02*
Y1527361D01*
X2064338Y1527358D02*
X2065045Y1528065D01*
X2067838*
Y1524065*
X2065045*
X2064338Y1524772*
Y1527358*
X2064835Y1524276D02*
Y1527854D01*
X2065335Y1524065D02*
Y1528065D01*
X2065835Y1524065D02*
Y1528065D01*
X2066335Y1524065D02*
Y1528065D01*
X2066835Y1524065D02*
Y1528065D01*
X2067335Y1524065D02*
Y1528065D01*
X2067835Y1524065D02*
Y1528065D01*
X2043278Y1480943D02*
X2046070D01*
X2046778Y1480236*
Y1477650*
X2046070Y1476943*
X2043278*
Y1480943*
X2043774Y1476943D02*
Y1480943D01*
X2044274Y1476943D02*
Y1480943D01*
X2044774Y1476943D02*
Y1480943D01*
X2045274Y1476943D02*
Y1480943D01*
X2045774Y1476943D02*
Y1480943D01*
X2046274Y1477147D02*
Y1480740D01*
X2046774Y1477647D02*
Y1480240D01*
X2035778Y1480236D02*
X2036485Y1480943D01*
X2039278*
Y1476943*
X2036485*
X2035778Y1477650*
Y1480236*
X2036274Y1477154D02*
Y1480733D01*
X2036774Y1476943D02*
Y1480943D01*
X2037274Y1476943D02*
Y1480943D01*
X2037774Y1476943D02*
Y1480943D01*
X2038274Y1476943D02*
Y1480943D01*
X2038774Y1476943D02*
Y1480943D01*
X2039274Y1476943D02*
Y1480943D01*
X1939338Y1608065D02*
X1942131D01*
X1942838Y1607358*
Y1604772*
X1942131Y1604065*
X1939338*
Y1608065*
X1939834Y1604065D02*
Y1608065D01*
X1940334Y1604065D02*
Y1608065D01*
X1940834Y1604065D02*
Y1608065D01*
X1941334Y1604065D02*
Y1608065D01*
X1941834Y1604065D02*
Y1608065D01*
X1942334Y1604268D02*
Y1607861D01*
X1942834Y1604768D02*
Y1607361D01*
X1931838Y1607358D02*
X1932545Y1608065D01*
X1935338*
Y1604065*
X1932545*
X1931838Y1604772*
Y1607358*
X1932334Y1604276D02*
Y1607854D01*
X1932834Y1604065D02*
Y1608065D01*
X1933334Y1604065D02*
Y1608065D01*
X1933834Y1604065D02*
Y1608065D01*
X1934334Y1604065D02*
Y1608065D01*
X1934834Y1604065D02*
Y1608065D01*
X1935334Y1604065D02*
Y1608065D01*
X1922460Y1502758D02*
Y1505551D01*
X1923167Y1506258*
X1925753*
X1926460Y1505551*
Y1502758*
X1922460*
X1922461D02*
Y1505551D01*
X1922961Y1502758D02*
Y1506051D01*
X1923461Y1502758D02*
Y1506258D01*
X1923961Y1502758D02*
Y1506258D01*
X1924461Y1502758D02*
Y1506258D01*
X1924961Y1502758D02*
Y1506258D01*
X1925461Y1502758D02*
Y1506258D01*
X1925961Y1502758D02*
Y1506051D01*
X1923167Y1495258D02*
X1922460Y1495965D01*
Y1498758*
X1926460*
Y1495965*
X1925753Y1495258*
X1923167*
X1922461Y1495965D02*
Y1498758D01*
X1922961Y1495465D02*
Y1498758D01*
X1923461Y1495258D02*
Y1498758D01*
X1923961Y1495258D02*
Y1498758D01*
X1924461Y1495258D02*
Y1498758D01*
X1924961Y1495258D02*
Y1498758D01*
X1925461Y1495258D02*
Y1498758D01*
X1925961Y1495466D02*
Y1498758D01*
X1935331Y1569814D02*
X1932538D01*
X1931831Y1570521*
Y1573107*
X1932538Y1573814*
X1935331*
Y1569814*
X1931834Y1570518D02*
Y1573111D01*
X1932334Y1570018D02*
Y1573611D01*
X1932834Y1569814D02*
Y1573814D01*
X1933334Y1569814D02*
Y1573814D01*
X1933834Y1569814D02*
Y1573814D01*
X1934334Y1569814D02*
Y1573814D01*
X1934834Y1569814D02*
Y1573814D01*
X1942831Y1570521D02*
X1942124Y1569814D01*
X1939331*
Y1573814*
X1942124*
X1942831Y1573107*
Y1570521*
X1939334Y1569814D02*
Y1573814D01*
X1939834Y1569814D02*
Y1573814D01*
X1940334Y1569814D02*
Y1573814D01*
X1940834Y1569814D02*
Y1573814D01*
X1941334Y1569814D02*
Y1573814D01*
X1941834Y1569814D02*
Y1573814D01*
X1942334Y1570025D02*
Y1573603D01*
X1935331Y1558314D02*
X1932538D01*
X1931831Y1559021*
Y1561607*
X1932538Y1562314*
X1935331*
Y1558314*
X1931834Y1559018D02*
Y1561611D01*
X1932334Y1558518D02*
Y1562111D01*
X1932834Y1558314D02*
Y1562314D01*
X1933334Y1558314D02*
Y1562314D01*
X1933834Y1558314D02*
Y1562314D01*
X1934334Y1558314D02*
Y1562314D01*
X1934834Y1558314D02*
Y1562314D01*
X1942831Y1559021D02*
X1942124Y1558314D01*
X1939331*
Y1562314*
X1942124*
X1942831Y1561607*
Y1559021*
X1939334Y1558314D02*
Y1562314D01*
X1939834Y1558314D02*
Y1562314D01*
X1940334Y1558314D02*
Y1562314D01*
X1940834Y1558314D02*
Y1562314D01*
X1941334Y1558314D02*
Y1562314D01*
X1941834Y1558314D02*
Y1562314D01*
X1942334Y1558525D02*
Y1562103D01*
X1929974Y1502729D02*
Y1505522D01*
X1930681Y1506229*
X1933267*
X1933974Y1505522*
Y1502729*
X1929974*
X1929975D02*
Y1505522D01*
X1930475Y1502729D02*
Y1506022D01*
X1930975Y1502729D02*
Y1506229D01*
X1931475Y1502729D02*
Y1506229D01*
X1931975Y1502729D02*
Y1506229D01*
X1932475Y1502729D02*
Y1506229D01*
X1932975Y1502729D02*
Y1506229D01*
X1933475Y1502729D02*
Y1506022D01*
X1930681Y1495229D02*
X1929974Y1495936D01*
Y1498729*
X1933974*
Y1495936*
X1933267Y1495229*
X1930681*
X1929975Y1495936D02*
Y1498729D01*
X1930475Y1495436D02*
Y1498729D01*
X1930975Y1495229D02*
Y1498729D01*
X1931475Y1495229D02*
Y1498729D01*
X1931975Y1495229D02*
Y1498729D01*
X1932475Y1495229D02*
Y1498729D01*
X1932975Y1495229D02*
Y1498729D01*
X1933475Y1495437D02*
Y1498729D01*
X1895085Y1513811D02*
Y1511018D01*
X1894378Y1510311*
X1891792*
X1891085Y1511018*
Y1513811*
X1895085*
X1891584Y1510518D02*
Y1513811D01*
X1892084Y1510311D02*
Y1513811D01*
X1892584Y1510311D02*
Y1513811D01*
X1893084Y1510311D02*
Y1513811D01*
X1893584Y1510311D02*
Y1513811D01*
X1894084Y1510311D02*
Y1513811D01*
X1894584Y1510518D02*
Y1513811D01*
X1895084Y1511018D02*
Y1513811D01*
X1894378Y1521311D02*
X1895085Y1520604D01*
Y1517811*
X1891085*
Y1520604*
X1891792Y1521311*
X1894378*
X1891584Y1517811D02*
Y1521103D01*
X1892084Y1517811D02*
Y1521311D01*
X1892584Y1517811D02*
Y1521311D01*
X1893084Y1517811D02*
Y1521311D01*
X1893584Y1517811D02*
Y1521311D01*
X1894084Y1517811D02*
Y1521311D01*
X1894584Y1517811D02*
Y1521104D01*
X1895084Y1517811D02*
Y1520604D01*
X1902585Y1513811D02*
Y1511018D01*
X1901878Y1510311*
X1899292*
X1898585Y1511018*
Y1513811*
X1902585*
X1899084Y1510518D02*
Y1513811D01*
X1899584Y1510311D02*
Y1513811D01*
X1900084Y1510311D02*
Y1513811D01*
X1900584Y1510311D02*
Y1513811D01*
X1901084Y1510311D02*
Y1513811D01*
X1901584Y1510311D02*
Y1513811D01*
X1902084Y1510518D02*
Y1513811D01*
X1902584Y1511018D02*
Y1513811D01*
X1901878Y1521311D02*
X1902585Y1520604D01*
Y1517811*
X1898585*
Y1520604*
X1899292Y1521311*
X1901878*
X1899084Y1517811D02*
Y1521103D01*
X1899584Y1517811D02*
Y1521311D01*
X1900084Y1517811D02*
Y1521311D01*
X1900584Y1517811D02*
Y1521311D01*
X1901084Y1517811D02*
Y1521311D01*
X1901584Y1517811D02*
Y1521311D01*
X1902084Y1517811D02*
Y1521104D01*
X1902584Y1517811D02*
Y1520604D01*
X1896838Y1593315D02*
X1899631D01*
X1900338Y1592608*
Y1590022*
X1899631Y1589315*
X1896838*
Y1593315*
X1897335Y1589315D02*
Y1593315D01*
X1897835Y1589315D02*
Y1593315D01*
X1898335Y1589315D02*
Y1593315D01*
X1898835Y1589315D02*
Y1593315D01*
X1899335Y1589315D02*
Y1593315D01*
X1899835Y1589518D02*
Y1593111D01*
X1900335Y1590018D02*
Y1592611D01*
X1889338Y1592608D02*
X1890045Y1593315D01*
X1892838*
Y1589315*
X1890045*
X1889338Y1590022*
Y1592608*
X1889835Y1589526D02*
Y1593104D01*
X1890335Y1589315D02*
Y1593315D01*
X1890835Y1589315D02*
Y1593315D01*
X1891335Y1589315D02*
Y1593315D01*
X1891835Y1589315D02*
Y1593315D01*
X1892335Y1589315D02*
Y1593315D01*
X1892835Y1589315D02*
Y1593315D01*
X1906084Y1502818D02*
Y1505611D01*
X1906791Y1506318*
X1909377*
X1910084Y1505611*
Y1502818*
X1906084*
X1906084D02*
Y1505611D01*
X1906584Y1502818D02*
Y1506111D01*
X1907084Y1502818D02*
Y1506318D01*
X1907584Y1502818D02*
Y1506318D01*
X1908084Y1502818D02*
Y1506318D01*
X1908584Y1502818D02*
Y1506318D01*
X1909084Y1502818D02*
Y1506318D01*
X1909584Y1502818D02*
Y1506111D01*
X1906791Y1495318D02*
X1906084Y1496025D01*
Y1498818*
X1910084*
Y1496025*
X1909377Y1495318*
X1906791*
X1906084Y1496025D02*
Y1498818D01*
X1906584Y1495525D02*
Y1498818D01*
X1907084Y1495318D02*
Y1498818D01*
X1907584Y1495318D02*
Y1498818D01*
X1908084Y1495318D02*
Y1498818D01*
X1908584Y1495318D02*
Y1498818D01*
X1909084Y1495318D02*
Y1498818D01*
X1909584Y1495526D02*
Y1498818D01*
X2016835Y1532811D02*
Y1530018D01*
X2016128Y1529311*
X2013542*
X2012835Y1530018*
Y1532811*
X2016835*
X2013335Y1529518D02*
Y1532811D01*
X2013835Y1529311D02*
Y1532811D01*
X2014335Y1529311D02*
Y1532811D01*
X2014835Y1529311D02*
Y1532811D01*
X2015335Y1529311D02*
Y1532811D01*
X2015835Y1529311D02*
Y1532811D01*
X2016335Y1529518D02*
Y1532811D01*
X2016835Y1530018D02*
Y1532811D01*
X2016128Y1540311D02*
X2016835Y1539604D01*
Y1536811*
X2012835*
Y1539604*
X2013542Y1540311*
X2016128*
X2013335Y1536811D02*
Y1540103D01*
X2013835Y1536811D02*
Y1540311D01*
X2014335Y1536811D02*
Y1540311D01*
X2014835Y1536811D02*
Y1540311D01*
X2015335Y1536811D02*
Y1540311D01*
X2015835Y1536811D02*
Y1540311D01*
X2016335Y1536811D02*
Y1540104D01*
X2016835Y1536811D02*
Y1539604D01*
X2028765Y1520655D02*
X2031558D01*
X2032265Y1519948*
Y1517362*
X2031558Y1516655*
X2028765*
Y1520655*
X2029262Y1516655D02*
Y1520655D01*
X2029762Y1516655D02*
Y1520655D01*
X2030262Y1516655D02*
Y1520655D01*
X2030762Y1516655D02*
Y1520655D01*
X2031262Y1516655D02*
Y1520655D01*
X2031762Y1516858D02*
Y1520451D01*
X2032262Y1517358D02*
Y1519951D01*
X2021265Y1519948D02*
X2021972Y1520655D01*
X2024765*
Y1516655*
X2021972*
X2021265Y1517362*
Y1519948*
X2021762Y1516866D02*
Y1520444D01*
X2022262Y1516655D02*
Y1520655D01*
X2022762Y1516655D02*
Y1520655D01*
X2023262Y1516655D02*
Y1520655D01*
X2023762Y1516655D02*
Y1520655D01*
X2024262Y1516655D02*
Y1520655D01*
X2024762Y1516655D02*
Y1520655D01*
X1906691Y1615110D02*
X1903898D01*
X1903191Y1615818*
Y1618403*
X1903898Y1619110*
X1906691*
Y1615110*
X1903195Y1615814D02*
Y1618407D01*
X1903695Y1615314D02*
Y1618907D01*
X1904195Y1615110D02*
Y1619110D01*
X1904695Y1615110D02*
Y1619110D01*
X1905195Y1615110D02*
Y1619110D01*
X1905695Y1615110D02*
Y1619110D01*
X1906195Y1615110D02*
Y1619110D01*
X1914191Y1615818D02*
X1913484Y1615110D01*
X1910691*
Y1619110*
X1913484*
X1914191Y1618403*
Y1615818*
X1910695Y1615110D02*
Y1619110D01*
X1911195Y1615110D02*
Y1619110D01*
X1911695Y1615110D02*
Y1619110D01*
X1912195Y1615110D02*
Y1619110D01*
X1912695Y1615110D02*
Y1619110D01*
X1913195Y1615110D02*
Y1619110D01*
X1913695Y1615321D02*
Y1618900D01*
X1910980Y1724530D02*
Y1727323D01*
X1911687Y1728030*
X1914273*
X1914980Y1727323*
Y1724530*
X1910980*
X1910980D02*
Y1727323D01*
X1911480Y1724530D02*
Y1727823D01*
X1911980Y1724530D02*
Y1728030D01*
X1912480Y1724530D02*
Y1728030D01*
X1912980Y1724530D02*
Y1728030D01*
X1913480Y1724530D02*
Y1728030D01*
X1913980Y1724530D02*
Y1728030D01*
X1914480Y1724530D02*
Y1727823D01*
X1911687Y1717030D02*
X1910980Y1717737D01*
Y1720530*
X1914980*
Y1717737*
X1914273Y1717030*
X1911687*
X1910980Y1717737D02*
Y1720530D01*
X1911480Y1717237D02*
Y1720530D01*
X1911980Y1717030D02*
Y1720530D01*
X1912480Y1717030D02*
Y1720530D01*
X1912980Y1717030D02*
Y1720530D01*
X1913480Y1717030D02*
Y1720530D01*
X1913980Y1717030D02*
Y1720530D01*
X1914480Y1717238D02*
Y1720530D01*
X2032374Y1724397D02*
Y1727190D01*
X2033081Y1727897*
X2035667*
X2036374Y1727190*
Y1724397*
X2032374*
X2032374D02*
Y1727190D01*
X2032874Y1724397D02*
Y1727690D01*
X2033374Y1724397D02*
Y1727897D01*
X2033874Y1724397D02*
Y1727897D01*
X2034374Y1724397D02*
Y1727897D01*
X2034874Y1724397D02*
Y1727897D01*
X2035374Y1724397D02*
Y1727897D01*
X2035874Y1724397D02*
Y1727690D01*
X2033081Y1716897D02*
X2032374Y1717604D01*
Y1720397*
X2036374*
Y1717604*
X2035667Y1716897*
X2033081*
X2032374Y1717604D02*
Y1720397D01*
X2032874Y1717104D02*
Y1720397D01*
X2033374Y1716897D02*
Y1720397D01*
X2033874Y1716897D02*
Y1720397D01*
X2034374Y1716897D02*
Y1720397D01*
X2034874Y1716897D02*
Y1720397D01*
X2035374Y1716897D02*
Y1720397D01*
X2035874Y1717105D02*
Y1720397D01*
X1951524Y1724436D02*
Y1727229D01*
X1952231Y1727936*
X1954817*
X1955524Y1727229*
Y1724436*
X1951524*
X1951524D02*
Y1727229D01*
X1952024Y1724436D02*
Y1727729D01*
X1952524Y1724436D02*
Y1727936D01*
X1953024Y1724436D02*
Y1727936D01*
X1953524Y1724436D02*
Y1727936D01*
X1954024Y1724436D02*
Y1727936D01*
X1954524Y1724436D02*
Y1727936D01*
X1955024Y1724436D02*
Y1727729D01*
X1952231Y1716936D02*
X1951524Y1717643D01*
Y1720436*
X1955524*
Y1717643*
X1954817Y1716936*
X1952231*
X1951524Y1717643D02*
Y1720436D01*
X1952024Y1717143D02*
Y1720436D01*
X1952524Y1716936D02*
Y1720436D01*
X1953024Y1716936D02*
Y1720436D01*
X1953524Y1716936D02*
Y1720436D01*
X1954024Y1716936D02*
Y1720436D01*
X1954524Y1716936D02*
Y1720436D01*
X1955024Y1717144D02*
Y1720436D01*
X2073197Y1724383D02*
Y1727176D01*
X2073904Y1727883*
X2076490*
X2077197Y1727176*
Y1724383*
X2073197*
X2073197D02*
Y1727176D01*
X2073697Y1724383D02*
Y1727676D01*
X2074197Y1724383D02*
Y1727883D01*
X2074697Y1724383D02*
Y1727883D01*
X2075197Y1724383D02*
Y1727883D01*
X2075697Y1724383D02*
Y1727883D01*
X2076197Y1724383D02*
Y1727883D01*
X2076697Y1724383D02*
Y1727676D01*
X2073904Y1716883D02*
X2073197Y1717590D01*
Y1720383*
X2077197*
Y1717590*
X2076490Y1716883*
X2073904*
X2073197Y1717590D02*
Y1720383D01*
X2073697Y1717090D02*
Y1720383D01*
X2074197Y1716883D02*
Y1720383D01*
X2074697Y1716883D02*
Y1720383D01*
X2075197Y1716883D02*
Y1720383D01*
X2075697Y1716883D02*
Y1720383D01*
X2076197Y1716883D02*
Y1720383D01*
X2076697Y1717091D02*
Y1720383D01*
X1991845Y1724353D02*
Y1727146D01*
X1992552Y1727853*
X1995138*
X1995845Y1727146*
Y1724353*
X1991845*
X1991845D02*
Y1727146D01*
X1992345Y1724353D02*
Y1727646D01*
X1992845Y1724353D02*
Y1727853D01*
X1993345Y1724353D02*
Y1727853D01*
X1993845Y1724353D02*
Y1727853D01*
X1994345Y1724353D02*
Y1727853D01*
X1994845Y1724353D02*
Y1727853D01*
X1995345Y1724353D02*
Y1727646D01*
X1992552Y1716853D02*
X1991845Y1717560D01*
Y1720353*
X1995845*
Y1717560*
X1995138Y1716853*
X1992552*
X1991845Y1717560D02*
Y1720353D01*
X1992345Y1717060D02*
Y1720353D01*
X1992845Y1716853D02*
Y1720353D01*
X1993345Y1716853D02*
Y1720353D01*
X1993845Y1716853D02*
Y1720353D01*
X1994345Y1716853D02*
Y1720353D01*
X1994845Y1716853D02*
Y1720353D01*
X1995345Y1717061D02*
Y1720353D01*
G54D44*
X1781961Y1418892D02*
X2218040D01*
X2218040D02*
Y1781108D01*
X2218040D02*
X1781961D01*
X1781961D02*
Y1418892D01*
G54D53*
G54D83*
X1908483Y1512322D03*
Y1519322D03*
X1793359Y1521286D03*
X1800359D03*
X2044778Y1471443D03*
X2037778D03*
X1915584Y1504318D03*
Y1497318D03*
X1893295Y1497561D03*
Y1504561D03*
X2077366Y1502287D03*
X2070366D03*
X1916316Y1512313D03*
Y1519313D03*
X2073338Y1588565D03*
X2066338D03*
X2073338Y1526065D03*
X2066338D03*
X2044778Y1478943D03*
X2037778D03*
X1940838Y1606065D03*
X1933838D03*
X1924460Y1504258D03*
Y1497258D03*
X1933831Y1571814D03*
X1940831D03*
X1933831Y1560314D03*
X1940831D03*
X1931974Y1504229D03*
Y1497229D03*
X1893085Y1512311D03*
Y1519311D03*
X1900585Y1512311D03*
Y1519311D03*
X1898338Y1591315D03*
X1891338D03*
X1908084Y1504318D03*
Y1497318D03*
X2014835Y1531311D03*
Y1538311D03*
X2030265Y1518655D03*
X2023265D03*
X1905191Y1617110D03*
X1912191D03*
X1912980Y1726030D03*
Y1719030D03*
X2034374Y1725897D03*
Y1718897D03*
X1953524Y1725936D03*
Y1718936D03*
X2075197Y1725883D03*
Y1718883D03*
X1993845Y1725853D03*
Y1718853D03*
G54D704*
X1982325Y1556095D03*
Y1552095D03*
X1939324Y1596058D03*
X1935324D03*
X2009822Y1525550D03*
Y1521550D03*
X1891893Y1559349D03*
Y1563349D03*
X1909323Y1576314D03*
X1905323D03*
X2050709Y1658230D03*
Y1662230D03*
X1969476Y1662169D03*
Y1658169D03*
X2001085Y1521576D03*
Y1525576D03*
X1908335Y1559326D03*
Y1563326D03*
X1866878Y1577133D03*
X1870878D03*
X1866830Y1602327D03*
X1870830D03*
X1973335Y1535326D03*
Y1539326D03*
X1996335Y1539302D03*
Y1535302D03*
X1999863Y1683740D03*
Y1687740D03*
X2054323Y1546289D03*
X2050323D03*
X1909323Y1572314D03*
X1905323D03*
X2050347Y1555739D03*
X2054347D03*
X1866878Y1587133D03*
X1870878D03*
X1930295Y1658164D03*
Y1662164D03*
X1866878Y1592633D03*
X1870878D03*
X1866830Y1597720D03*
X1870830D03*
X1892847Y1571814D03*
X1896847D03*
X1892847Y1575814D03*
X1896847D03*
X1791363Y1532274D03*
Y1528274D03*
X2070347Y1555739D03*
X2074347D03*
X2070347Y1560464D03*
X2074347D03*
X2070347Y1569914D03*
X2074347D03*
X2070347Y1576214D03*
X2074347D03*
X2070347Y1582514D03*
X2074347D03*
X2034323Y1535264D03*
X2030323D03*
X2034323Y1541564D03*
X2030323D03*
X2034323Y1560464D03*
X2030323D03*
X2034323Y1551014D03*
X2030323D03*
X2034323Y1566764D03*
X2030323D03*
X2034323Y1576214D03*
X2030323D03*
X2034323Y1582514D03*
X2030323D03*
X1998498Y1562214D03*
X1994498D03*
X1976035Y1587827D03*
Y1583827D03*
X1954397Y1569302D03*
X1950397D03*
X1980835Y1539302D03*
Y1535302D03*
X1992335Y1539302D03*
Y1535302D03*
X1998498Y1568514D03*
X1994498D03*
X1998498Y1581114D03*
X1994498D03*
X1998494Y1574814D03*
X1994494D03*
X2070342Y1541585D03*
X2074342D03*
X1966311Y1568512D03*
X1970311D03*
X1977335Y1539302D03*
Y1535302D03*
X1982335Y1564200D03*
Y1560200D03*
X1954397Y1581114D03*
X1950397D03*
X1954397Y1557314D03*
X1950397D03*
X1954397Y1598564D03*
X1950397D03*
X2094904Y1644820D03*
X2090904D03*
X1935305Y1592318D03*
X1939305D03*
X1954397Y1553552D03*
X1950397D03*
X1954397Y1587414D03*
X1950397D03*
X1954397Y1577177D03*
X1950397D03*
X1954397Y1565364D03*
X1950397D03*
X1988536Y1600358D03*
Y1604358D03*
X1964863Y1600298D03*
Y1604298D03*
X1954397Y1549814D03*
X1950397D03*
X1968030Y1521046D03*
Y1517046D03*
X2001235Y1606727D03*
Y1602727D03*
X1994522Y1587414D03*
X1998522D03*
X1954322Y1604814D03*
X1950322D03*
X1970147Y1562214D03*
X1966147D03*
X1966171Y1581114D03*
X1970171D03*
X1950421Y1573239D03*
X1954421D03*
X1995735Y1606727D03*
Y1602727D03*
X1935346Y1599814D03*
X1939346D03*
X1973529Y1600268D03*
Y1604268D03*
X1976035Y1561801D03*
Y1565801D03*
X1969608Y1604274D03*
Y1600274D03*
X1982765Y1600410D03*
Y1604410D03*
X1982335Y1589378D03*
Y1585378D03*
X1906905Y1528346D03*
X1902905D03*
X1978765Y1600410D03*
Y1604410D03*
X1939322Y1566064D03*
X1935322D03*
X1939322Y1577314D03*
X1935322D03*
X1988635Y1561801D03*
Y1565801D03*
X1982335Y1568101D03*
Y1572101D03*
X1986647Y1574814D03*
X1990647D03*
X1982335Y1581527D03*
Y1577527D03*
X1974116Y1574814D03*
X1978116D03*
X1988635Y1583851D03*
Y1587851D03*
X1970147Y1587414D03*
X1966147D03*
X1988835Y1539302D03*
Y1535302D03*
X2017335Y1521576D03*
Y1525576D03*
X2013585Y1521576D03*
Y1525576D03*
X2008159Y1539304D03*
Y1535304D03*
X1986934Y1613487D03*
X1990934D03*
X2005813Y1521576D03*
Y1525576D03*
X1926319Y1636273D03*
Y1632273D03*
X2020347Y1566764D03*
X2024347D03*
X1974047Y1613517D03*
X1970047D03*
X1950388Y1593572D03*
X1954388D03*
X1969060Y1535092D03*
Y1539092D03*
X1882823Y1586314D03*
X1878823D03*
X1882823Y1582314D03*
X1878823D03*
X1882823Y1578314D03*
X1878823D03*
X1882823Y1574314D03*
X1878823D03*
X1920347Y1572814D03*
X1924347D03*
X1920347Y1584314D03*
X1924347D03*
X1920347Y1592314D03*
X1924347D03*
X1920347Y1580314D03*
X1924347D03*
X1920347Y1576814D03*
X1924347D03*
X1909975Y1623582D03*
Y1627582D03*
X1915356Y1636183D03*
Y1632183D03*
X2024295Y1571649D03*
X2020295D03*
X1934363Y1623798D03*
Y1627798D03*
X1996860Y1525645D03*
Y1521645D03*
X1903041Y1623566D03*
Y1627566D03*
X1870851Y1606786D03*
X1866851D03*
X1870851Y1620286D03*
X1866851D03*
X1832863Y1532774D03*
Y1528774D03*
X1870851Y1624786D03*
X1866851D03*
X1832863Y1517298D03*
Y1521298D03*
X1870851Y1615786D03*
X1866851D03*
X1934363Y1632298D03*
Y1636298D03*
X1992581Y1521644D03*
Y1525644D03*
X2000159Y1535328D03*
Y1539328D03*
X1870851Y1611286D03*
X1866851D03*
X1888617Y1483729D03*
Y1479729D03*
X1892275Y1528557D03*
X1896275D03*
X1943893Y1517046D03*
Y1521046D03*
X1930363Y1627774D03*
Y1623774D03*
X1948363Y1632298D03*
Y1636298D03*
X1952863Y1632298D03*
Y1636298D03*
X1920347Y1596314D03*
X1924347D03*
X1895893Y1563325D03*
Y1559325D03*
X1904335Y1559326D03*
Y1563326D03*
X1900335Y1563302D03*
Y1559302D03*
X1924323Y1561314D03*
X1920323D03*
X1924323Y1588314D03*
X1920323D03*
X1866878Y1582133D03*
X1870878D03*
X1825251Y1576553D03*
X1821251D03*
X1825251Y1581553D03*
X1821251D03*
X2080765Y1661991D03*
Y1657991D03*
X2039209Y1662206D03*
Y1658206D03*
X1958476Y1662169D03*
Y1658169D03*
X1795863Y1528298D03*
Y1532298D03*
X1793363Y1493274D03*
Y1489274D03*
X1800363Y1528298D03*
Y1532298D03*
X1930363Y1632298D03*
Y1636298D03*
X1999402Y1661965D03*
Y1657965D03*
X1802363Y1493274D03*
Y1489274D03*
X1804863Y1528298D03*
Y1532298D03*
X1797863Y1493274D03*
Y1489274D03*
X1943863Y1627774D03*
Y1623774D03*
X1982487Y1613483D03*
X1978487D03*
X2091765Y1661991D03*
Y1657991D03*
X2005499Y1602771D03*
Y1606771D03*
X2009402Y1661965D03*
Y1657965D03*
X1930588Y1646019D03*
X1926588D03*
X1954397Y1561427D03*
X1950397D03*
X1939322Y1554814D03*
X1935322D03*
X1970147Y1574814D03*
X1966147D03*
X1984835Y1539302D03*
Y1535302D03*
X2070341Y1535273D03*
X2074341D03*
X1924323Y1600314D03*
X1920323D03*
X2074323Y1550814D03*
X2070323D03*
X2054319Y1534766D03*
X2050319D03*
X1917980Y1662014D03*
Y1658014D03*
X1924323Y1565314D03*
X1920323D03*
X1825251Y1586939D03*
X1821251D03*
X2004159Y1535328D03*
Y1539328D03*
X2054323Y1551014D03*
X2050323D03*
X2054341Y1560483D03*
X2050341D03*
X1948363Y1627774D03*
Y1623774D03*
X1920347Y1568814D03*
X1924347D03*
X2074324Y1546540D03*
X2070324D03*
X1921978Y1627885D03*
Y1623885D03*
X1903082Y1632287D03*
Y1636287D03*
X1917554Y1623749D03*
Y1627749D03*
X1909865Y1632207D03*
Y1636207D03*
X2085851Y1596286D03*
X2081851D03*
X2085851Y1632286D03*
X2081851D03*
X2094851Y1620286D03*
X2090851D03*
X2094851Y1591786D03*
X2090851D03*
X2085851Y1587286D03*
X2081851D03*
X1936802Y1658109D03*
Y1662109D03*
X1941284Y1658138D03*
Y1662138D03*
X1950296Y1658161D03*
Y1662161D03*
X1945796Y1658161D03*
Y1662161D03*
X2019902Y1657989D03*
Y1661989D03*
X2015402Y1657989D03*
Y1661989D03*
X2061209Y1658230D03*
Y1662230D03*
X2056709Y1658230D03*
Y1662230D03*
X2070265Y1658015D03*
Y1662015D03*
X2065765Y1658015D03*
Y1662015D03*
X2085851Y1583286D03*
X2081851D03*
X2094851Y1587286D03*
X2090851D03*
X2085851Y1579286D03*
X2081851D03*
X2085851Y1620286D03*
X2081851D03*
X2094851Y1616286D03*
X2090851D03*
X2094851Y1596286D03*
X2090851D03*
X2094851Y1612286D03*
X2090851D03*
X2094851Y1628286D03*
X2090851D03*
X2094851Y1583286D03*
X2090851D03*
X2094851Y1579286D03*
X2090851D03*
X2094851Y1608286D03*
X2090851D03*
X2094851Y1604286D03*
X2090851D03*
X2094851Y1600286D03*
X2090851D03*
X2085851Y1591786D03*
X2081851D03*
X2094851Y1640786D03*
X2090851D03*
X2094851Y1636286D03*
X2090851D03*
X2094851Y1632286D03*
X2090851D03*
X2085851Y1628286D03*
X2081851D03*
X2094851Y1624286D03*
X2090851D03*
X1954323Y1609108D03*
X1950323D03*
X2085851Y1624286D03*
X2081851D03*
X2085851Y1636286D03*
X2081851D03*
X2085851Y1640786D03*
X2081851D03*
X2085851Y1600286D03*
X2081851D03*
X2085851Y1604286D03*
X2081851D03*
X2085851Y1608286D03*
X2081851D03*
X2085851Y1616286D03*
X2081851D03*
X2085851Y1612286D03*
X2081851D03*
G54D707*
X1898585Y1600814D03*
X1891085D03*
X1933584Y1586064D03*
X1941084D03*
G54D709*
X1972855Y1622814D03*
X1987814D03*
G54D710*
X1944718Y1646814D03*
Y1644255D03*
Y1641696D03*
X1936057D03*
Y1646814D03*
G54D737*
X2178630Y1714555D03*
Y1694870D03*
Y1763701D03*
Y1744016D03*
Y1659571D03*
Y1639886D03*
G54D759*
X1949629Y1516083D03*
Y1518053D03*
Y1520013D03*
Y1521983D03*
X1961229D03*
Y1520013D03*
Y1518053D03*
Y1516083D03*
G54D760*
X1903584Y1482064D03*
X1894584D03*
X1910834D03*
X1919834D03*
G54D761*
X2008519Y1668042D03*
Y1670601D03*
Y1673160D03*
Y1675719D03*
Y1678278D03*
Y1680837D03*
Y1683396D03*
Y1685955D03*
X2034504D03*
Y1683396D03*
Y1680837D03*
Y1678278D03*
Y1675719D03*
Y1673160D03*
Y1670601D03*
Y1668042D03*
G54D762*
X1928980Y1726276D03*
Y1718776D03*
X1974835Y1527314D03*
Y1519814D03*
X1984835Y1527314D03*
Y1519814D03*
X1920980Y1726276D03*
Y1718776D03*
X1969524Y1726182D03*
Y1718682D03*
X1961524Y1726182D03*
Y1718682D03*
X2050374Y1726143D03*
Y1718643D03*
X2042374Y1726143D03*
Y1718643D03*
X2083197Y1726129D03*
Y1718629D03*
X2009845Y1726099D03*
Y1718599D03*
X2001845Y1726099D03*
Y1718599D03*
X2091197Y1726129D03*
Y1718629D03*
G54D763*
X2121812Y1463022D03*
Y1453966D03*
Y1444911D03*
X2121857Y1490253D03*
Y1481197D03*
Y1472142D03*
X2189446Y1462553D03*
Y1453497D03*
Y1444442D03*
Y1519119D03*
Y1510063D03*
Y1501008D03*
X2189457Y1491003D03*
Y1481948D03*
Y1472893D03*
G54D764*
X2097757Y1453966D03*
X2097802Y1481197D03*
X2165391Y1453497D03*
Y1510063D03*
X2165402Y1481948D03*
G54D766*
X2134916Y1568760D03*
X2154601D03*
X2134916Y1545885D03*
X2154601D03*
X2134813Y1594118D03*
X2154498D03*
G54D767*
X1941980Y1726126D03*
Y1719926D03*
X1935980Y1726126D03*
Y1719926D03*
X2063374Y1725993D03*
Y1719793D03*
X1982524Y1726032D03*
Y1719832D03*
X2057374Y1725993D03*
Y1719793D03*
X1976524Y1726032D03*
Y1719832D03*
X2104197Y1725979D03*
Y1719779D03*
X2022845Y1725949D03*
Y1719749D03*
X2098197Y1725979D03*
Y1719779D03*
X2016845Y1725949D03*
Y1719749D03*
X0Y0D02*
M02*
