*
*
G04 PADS 9.5 Build Number: 522968 generated Gerber (RS-274-X) file*
G04 PC Version=2.1*
*
%IN "3DP_V10-1116.pcb"*%
*
%MOIN*%
*
%FSLAX35Y35*%
*
*
*
*
G04 PC Standard Apertures*
*
*
G04 Thermal Relief Aperture macro.*
%AMTER*
1,1,$1,0,0*
1,0,$1-$2,0,0*
21,0,$3,$4,0,0,45*
21,0,$3,$4,0,0,135*
%
*
*
G04 Annular Aperture macro.*
%AMANN*
1,1,$1,0,0*
1,0,$2,0,0*
%
*
*
G04 Odd Aperture macro.*
%AMODD*
1,1,$1,0,0*
1,0,$1-0.005,0,0*
%
*
*
G04 PC Custom Aperture Macros*
*
*
*
*
*
*
G04 PC Aperture Table*
*
%ADD016C,0.01*%
%ADD035C,0.01181*%
%ADD037C,0.006*%
%ADD042C,0.01969*%
%ADD044C,0.005*%
%ADD053C,0.001*%
%ADD413C,0.004*%
%ADD770C,0.0028*%
*
*
*
*
G04 PC Circuitry*
G04 Layer Name 3DP_V10-1116.pcb - circuitry*
%LPD*%
*
*
G04 PC Custom Flashes*
G04 Layer Name 3DP_V10-1116.pcb - flashes*
%LPD*%
*
*
G04 PC Circuitry*
G04 Layer Name 3DP_V10-1116.pcb - circuitry*
%LPD*%
*
G54D16*
G01X1910483Y1515822D02*
X1906483D01*
X1796859Y1519286D02*
Y1523286D01*
X2041278Y1473443D02*
Y1469443D01*
X1913584Y1500818D02*
X1917584D01*
X1895295Y1501061D02*
X1891295D01*
X2073866Y1504287D02*
Y1500287D01*
X1918316Y1515813D02*
X1914316D01*
X2069838Y1590565D02*
Y1586565D01*
Y1528065D02*
Y1524065D01*
X2041278Y1480943D02*
Y1476943D01*
X1937338Y1608065D02*
Y1604065D01*
X1922460Y1500758D02*
X1926460D01*
X1937331Y1569814D02*
Y1573814D01*
Y1558314D02*
Y1562314D01*
X1929974Y1500729D02*
X1933974D01*
X1895085Y1515811D02*
X1891085D01*
X1902585D02*
X1898585D01*
X1894838Y1593315D02*
Y1589315D01*
X1906084Y1500818D02*
X1910084D01*
X2016835Y1534811D02*
X2012835D01*
X2026765Y1520655D02*
Y1516655D01*
X2115907Y1465022D02*
Y1443022D01*
X2104096*
Y1465022*
X2115907*
X2115952Y1492253D02*
Y1470253D01*
X2104141*
Y1492253*
X2115952*
X2183541Y1464553D02*
Y1442553D01*
X2171730*
Y1464553*
X2183541*
X1908691Y1615110D02*
Y1619110D01*
X2183541Y1521119D02*
Y1499119D01*
X2171730*
Y1521119*
X2183541*
X1910980Y1722530D02*
X1914980D01*
X2032374Y1722397D02*
X2036374D01*
X1951524Y1722436D02*
X1955524D01*
X2073197Y1722383D02*
X2077197D01*
X1991845Y1722353D02*
X1995845D01*
X2183551Y1493003D02*
Y1471003D01*
X2171740*
Y1493003*
X2183551*
G54D35*
X2185716Y1694870D02*
Y1714555D01*
X2171543*
Y1694870*
X2185716*
Y1744016D02*
Y1763701D01*
X2171543*
Y1744016*
X2185716*
Y1639886D02*
Y1659571D01*
X2171543*
Y1639886*
X2185716*
X2154601Y1575847D02*
X2134916D01*
Y1561674*
X2154601*
Y1575847*
Y1552972D02*
X2134916D01*
Y1538799*
X2154601*
Y1552972*
X2154498Y1601205D02*
X2134813D01*
Y1587032*
X2154498*
Y1601205*
G54D37*
X1900061Y1482064D02*
G75*
G03X1900061I-976J0D01*
G01X2012985Y1665542D02*
X2020324D01*
X2020324D02*
Y1666992D01*
X2020324D02*
X2022699D01*
X2022699D02*
Y1665542D01*
X2022699D02*
X2030136D01*
X2030136D02*
Y1688742D01*
X2030136D02*
X2012985D01*
X2012985D02*
Y1665542D01*
X2009981Y1665613D02*
G03X2009981I-946J0D01*
G01X1916309Y1482064D02*
G03X1916309I-976J0D01*
G01X1925480Y1729526D02*
Y1715526D01*
X1925480D02*
X1932480D01*
X1932480D02*
Y1729526D01*
X1932480D02*
X1925480D01*
X1901835Y1604314D02*
X1887835D01*
X1887835D02*
Y1597314D01*
X1887835D02*
X1901835D01*
X1901835D02*
Y1604314D01*
X1895520Y1600814D02*
G03X1895520I-685J0D01*
G01X1971335Y1530564D02*
Y1516564D01*
X1971335D02*
X1978335D01*
X1978335D02*
Y1530564D01*
X1978335D02*
X1971335D01*
X1975520Y1523564D02*
G03X1975520I-685J0D01*
G01X1981335Y1530564D02*
Y1516564D01*
X1981335D02*
X1988335D01*
X1988335D02*
Y1530564D01*
X1988335D02*
X1981335D01*
X1985520Y1523564D02*
G03X1985520I-685J0D01*
G01X1930334Y1582564D02*
X1944334D01*
X1944334D02*
Y1589564D01*
X1944334D02*
X1930334D01*
X1930334D02*
Y1582564D01*
X1938020Y1586064D02*
G03X1938020I-686J0D01*
G01X1917480Y1729526D02*
Y1715526D01*
X1917480D02*
X1924480D01*
X1924480D02*
Y1729526D01*
X1924480D02*
X1917480D01*
X1966024Y1729432D02*
Y1715432D01*
X1966024D02*
X1973024D01*
X1973024D02*
Y1729432D01*
X1973024D02*
X1966024D01*
X1958024D02*
Y1715432D01*
X1958024D02*
X1965024D01*
X1965024D02*
Y1729432D01*
X1965024D02*
X1958024D01*
X2046874Y1729393D02*
Y1715393D01*
X2046874D02*
X2053874D01*
X2053874D02*
Y1729393D01*
X2053874D02*
X2046874D01*
X2038874D02*
Y1715393D01*
X2038874D02*
X2045874D01*
X2045874D02*
Y1729393D01*
X2045874D02*
X2038874D01*
X2079697Y1729379D02*
Y1715379D01*
X2079697D02*
X2086697D01*
X2086697D02*
Y1729379D01*
X2086697D02*
X2079697D01*
X2006345Y1729349D02*
Y1715349D01*
X2006345D02*
X2013345D01*
X2013345D02*
Y1729349D01*
X2013345D02*
X2006345D01*
X1998345D02*
Y1715349D01*
X1998345D02*
X2005345D01*
X2005345D02*
Y1729349D01*
X2005345D02*
X1998345D01*
X2087697Y1729379D02*
Y1715379D01*
X2087697D02*
X2094697D01*
X2094697D02*
Y1729379D01*
X2094697D02*
X2087697D01*
X1803012Y1427579D02*
X1801102Y1423642D01*
Y1427579D02*
X1803012Y1423642D01*
X1799875Y1426829D02*
X1799602Y1427017D01*
X1799602D02*
X1799193Y1427579D01*
Y1423642*
X1837012Y1427579D02*
X1835921Y1425704D01*
Y1423642*
X1834830Y1427579D02*
X1835921Y1425704D01*
X1833602Y1426829D02*
X1833330Y1427017D01*
X1833330D02*
X1832921Y1427579D01*
Y1423642*
X1871012Y1427579D02*
X1869102Y1423642D01*
Y1427579D02*
X1871012Y1423642D01*
X1867739Y1426642D02*
Y1426829D01*
X1867602Y1427204*
X1867466Y1427392*
X1867466D02*
X1867193Y1427579D01*
X1866648*
X1866375Y1427392*
X1866375D02*
X1866239Y1427204D01*
X1866102Y1426829*
Y1426454*
X1866239Y1426079*
X1866512Y1425517*
X1866512D02*
X1867875Y1423642D01*
X1867875D02*
X1865966D01*
X1906012Y1427579D02*
X1904921Y1425704D01*
Y1423642*
X1903830Y1427579D02*
X1904921Y1425704D01*
X1902466Y1426642D02*
Y1426829D01*
X1902330Y1427204*
X1902193Y1427392*
X1902193D02*
X1901921Y1427579D01*
X1901375*
X1901102Y1427392*
X1901102D02*
X1900966Y1427204D01*
X1900830Y1426829*
Y1426454*
X1900966Y1426079*
X1901239Y1425517*
X1901239D02*
X1902602Y1423642D01*
X1902602D02*
X1900693D01*
X1937102Y1427579D02*
X1939012Y1423642D01*
Y1427579D02*
X1937102D01*
X1939012Y1423642D02*
X1937102D01*
X1935875Y1426829D02*
X1935602Y1427017D01*
X1935602D02*
X1935193Y1427579D01*
Y1423642*
X1971102Y1427579D02*
X1973012Y1423642D01*
Y1427579D02*
X1971102D01*
X1973012Y1423642D02*
X1971102D01*
X1969739Y1426642D02*
Y1426829D01*
X1969602Y1427204*
X1969466Y1427392*
X1969466D02*
X1969193Y1427579D01*
X1968648*
X1968375Y1427392*
X1968375D02*
X1968239Y1427204D01*
X1968102Y1426829*
Y1426454*
X1968239Y1426079*
X1968512Y1425517*
X1968512D02*
X1969875Y1423642D01*
X1969875D02*
X1967966D01*
X2017057Y1427579D02*
Y1423642D01*
X2018012Y1427579D02*
X2016102D01*
X2014875Y1422892D02*
X2012012D01*
X2011193Y1427579D02*
Y1423642D01*
Y1427579D02*
X2009421D01*
X2011193Y1425704D02*
X2010102D01*
X2011193Y1423642D02*
X2009421D01*
X2008193Y1427579D02*
X2006284Y1423642D01*
Y1427579D02*
X2008193Y1423642D01*
X2004102Y1427579D02*
Y1423642D01*
X2005057Y1427579D02*
X2003148D01*
X2001921Y1426829D02*
X2001648Y1427017D01*
X2001648D02*
X2001239Y1427579D01*
Y1423642*
X2063057Y1427579D02*
Y1423642D01*
X2064012Y1427579D02*
X2062102D01*
X2060875Y1422892D02*
X2058012D01*
X2057193Y1427579D02*
Y1423642D01*
Y1427579D02*
X2055421D01*
X2057193Y1425704D02*
X2056102D01*
X2057193Y1423642D02*
X2055421D01*
X2054193Y1427579D02*
X2052284Y1423642D01*
Y1427579D02*
X2054193Y1423642D01*
X2050102Y1427579D02*
Y1423642D01*
X2051057Y1427579D02*
X2049148D01*
X2047784Y1426642D02*
Y1426829D01*
X2047648Y1427204*
X2047512Y1427392*
X2047512D02*
X2047239Y1427579D01*
X2046693*
X2046421Y1427392*
X2046421D02*
X2046284Y1427204D01*
X2046148Y1426829*
Y1426454*
X2046284Y1426079*
X2046557Y1425517*
X2046557D02*
X2047921Y1423642D01*
X2047921D02*
X2046012D01*
X2104057Y1427579D02*
Y1423642D01*
X2105012Y1427579D02*
X2103102D01*
X2101875Y1422892D02*
X2099012D01*
X2098193Y1427579D02*
Y1423642D01*
X2096284Y1427579D02*
Y1423642D01*
X2098193Y1425704D02*
X2096284D01*
X2095057Y1427579D02*
Y1423642D01*
Y1427579D02*
X2093830D01*
X2093421Y1427392*
X2093421D02*
X2093284Y1427204D01*
X2093148Y1426829*
Y1426454*
X2093284Y1426079*
X2093421Y1425892*
X2093421D02*
X2093830Y1425704D01*
X2095057D02*
X2093830D01*
X2093421Y1425517*
X2093421D02*
X2093284Y1425329D01*
X2093148Y1424954*
Y1424392*
X2093148D02*
X2093284Y1424017D01*
X2093284D02*
X2093421Y1423829D01*
X2093830Y1423642*
X2093830D02*
X2095057D01*
X2091921Y1427579D02*
Y1423642D01*
Y1427579D02*
X2090693D01*
X2090284Y1427392*
X2090284D02*
X2090148Y1427204D01*
X2090012Y1426829*
X2090012D02*
Y1426267D01*
X2090012D02*
X2090148Y1425892D01*
X2090148D02*
X2090284Y1425704D01*
X2090693Y1425517*
X2090693D02*
X2091921D01*
X2143012Y1427579D02*
Y1423642D01*
Y1427579D02*
X2141239D01*
X2143012Y1425704D02*
X2141921D01*
X2138921Y1427579D02*
X2140012Y1423642D01*
X2138921Y1427579D02*
X2137830Y1423642D01*
X2139602Y1424954D02*
X2138239D01*
X2136602Y1427579D02*
Y1423642D01*
Y1427579D02*
X2134693Y1423642D01*
Y1427579D02*
Y1423642D01*
X2133466Y1426829D02*
X2133193Y1427017D01*
X2133193D02*
X2132784Y1427579D01*
Y1423642*
X2178012Y1426579D02*
Y1422642D01*
Y1426579D02*
X2176239D01*
X2178012Y1424704D02*
X2176921D01*
X2173921Y1426579D02*
X2175012Y1422642D01*
X2173921Y1426579D02*
X2172830Y1422642D01*
X2174602Y1423954D02*
X2173239D01*
X2171602Y1426579D02*
Y1422642D01*
Y1426579D02*
X2169693Y1422642D01*
Y1426579D02*
Y1422642D01*
X2168330Y1425642D02*
Y1425829D01*
X2168193Y1426204*
X2168057Y1426392*
X2168057D02*
X2167784Y1426579D01*
X2167239*
X2166966Y1426392*
X2166966D02*
X2166830Y1426204D01*
X2166693Y1425829*
Y1425454*
X2166830Y1425079*
X2167102Y1424517*
X2167102D02*
X2168466Y1422642D01*
X2168466D02*
X2166557D01*
X2209074Y1442642D02*
X2213012D01*
X2209074D02*
Y1440869D01*
X2210949Y1442642D02*
Y1441551D01*
X2209074Y1438551D02*
X2213012Y1439642D01*
X2209074Y1438551D02*
X2213012Y1437460D01*
X2211699Y1439232D02*
Y1437869D01*
X2209074Y1436232D02*
X2213012D01*
X2209074D02*
X2213012Y1434323D01*
X2209074D02*
X2213012D01*
X2209074Y1432823D02*
Y1431323D01*
X2210574Y1432142*
X2210574D02*
Y1431732D01*
X2210762Y1431460*
X2210762D02*
X2210949Y1431323D01*
X2211512Y1431187*
X2211512D02*
X2211887D01*
X2211887D02*
X2212449Y1431323D01*
X2212824Y1431596*
X2213012Y1432005*
X2213012D02*
Y1432414D01*
X2213012D02*
X2212824Y1432823D01*
X2212637Y1432960*
X2212637D02*
X2212262Y1433096D01*
X2209074Y1482642D02*
X2213012D01*
X2209074D02*
Y1480869D01*
X2210949Y1482642D02*
Y1481551D01*
X2209074Y1478551D02*
X2213012Y1479642D01*
X2209074Y1478551D02*
X2213012Y1477460D01*
X2211699Y1479232D02*
Y1477869D01*
X2209074Y1476232D02*
X2213012D01*
X2209074D02*
X2213012Y1474323D01*
X2209074D02*
X2213012D01*
X2209074Y1471732D02*
X2211699Y1473096D01*
Y1471051*
X2209074Y1471732D02*
X2213012D01*
X2209074Y1520642D02*
X2213012D01*
X2209074D02*
Y1518869D01*
X2210949Y1520642D02*
Y1519551D01*
X2209074Y1516551D02*
X2213012Y1517642D01*
X2209074Y1516551D02*
X2213012Y1515460D01*
X2211699Y1517232D02*
Y1515869D01*
X2209074Y1514232D02*
X2213012D01*
X2209074D02*
X2213012Y1512323D01*
X2209074D02*
X2213012D01*
X2209074Y1509323D02*
Y1510687D01*
X2210762Y1510823*
X2210762D02*
X2210574Y1510687D01*
X2210387Y1510278*
X2210387D02*
Y1509869D01*
X2210387D02*
X2210574Y1509460D01*
X2210949Y1509187*
X2211512Y1509051*
X2211512D02*
X2211887Y1509187D01*
X2211887D02*
X2212449Y1509323D01*
X2212824Y1509596*
X2213012Y1510005*
X2213012D02*
Y1510414D01*
X2213012D02*
X2212824Y1510823D01*
X2212637Y1510960*
X2212637D02*
X2212262Y1511096D01*
X2205074Y1583642D02*
X2209012D01*
X2205074D02*
Y1582414D01*
X2205262Y1582005*
X2205262D02*
X2205449Y1581869D01*
X2205824Y1581732*
X2206387*
X2206387D02*
X2206762Y1581869D01*
X2206762D02*
X2206949Y1582005D01*
X2207137Y1582414*
X2207137D02*
Y1583642D01*
X2205074Y1579687D02*
X2205262Y1579960D01*
X2205262D02*
X2205637Y1580232D01*
X2205637D02*
X2206012Y1580369D01*
X2206012D02*
X2206574Y1580505D01*
X2207512*
X2207512D02*
X2208074Y1580369D01*
X2208449Y1580232*
X2208824Y1579960*
X2209012Y1579687*
X2209012D02*
Y1579142D01*
X2209012D02*
X2208824Y1578869D01*
X2208449Y1578596*
X2208074Y1578460*
X2207512Y1578323*
X2207512D02*
X2206574D01*
X2206012Y1578460*
X2206012D02*
X2205637Y1578596D01*
X2205637D02*
X2205262Y1578869D01*
X2205262D02*
X2205074Y1579142D01*
X2205074D02*
Y1579687D01*
Y1577096D02*
X2209012Y1576414D01*
X2205074Y1575732D02*
X2209012Y1576414D01*
X2205074Y1575732D02*
X2209012Y1575051D01*
X2205074Y1574369D02*
X2209012Y1575051D01*
X2205074Y1573142D02*
X2209012D01*
X2205074D02*
Y1571369D01*
X2206949Y1573142D02*
Y1572051D01*
X2209012Y1573142D02*
Y1571369D01*
X2205074Y1570142D02*
X2209012D01*
X2205074D02*
Y1568914D01*
X2205262Y1568505*
X2205262D02*
X2205449Y1568369D01*
X2205824Y1568232*
X2206199*
X2206574Y1568369*
X2206762Y1568505*
X2206762D02*
X2206949Y1568914D01*
Y1570142*
Y1569187D02*
X2209012Y1568232D01*
X2208074Y1658642D02*
X2212012D01*
X2208074Y1656732D02*
X2212012D01*
X2209949Y1658642D02*
Y1656732D01*
X2212762Y1655505D02*
Y1652642D01*
X2208074Y1651823D02*
X2212012D01*
X2208074D02*
Y1650051D01*
X2209949Y1651823D02*
Y1650732D01*
X2212012Y1651823D02*
Y1650051D01*
X2208074Y1648823D02*
X2212012Y1646914D01*
X2208074D02*
X2212012Y1648823D01*
X2208074Y1644732D02*
X2212012D01*
X2208074Y1645687D02*
Y1643778D01*
X2208824Y1642551D02*
X2208637Y1642278D01*
X2208637D02*
X2208074Y1641869D01*
X2212012*
X2208074Y1713642D02*
X2212012D01*
X2208074Y1711732D02*
X2212012D01*
X2209949Y1713642D02*
Y1711732D01*
X2212762Y1710505D02*
Y1707642D01*
X2208074Y1706823D02*
X2212012D01*
X2208074D02*
Y1705051D01*
X2209949Y1706823D02*
Y1705732D01*
X2212012Y1706823D02*
Y1705051D01*
X2208074Y1703823D02*
X2212012Y1701914D01*
X2208074D02*
X2212012Y1703823D01*
X2208074Y1699732D02*
X2212012D01*
X2208074Y1700687D02*
Y1698778D01*
X2209012Y1697414D02*
X2208824D01*
X2208449Y1697278*
X2208262Y1697142*
X2208262D02*
X2208074Y1696869D01*
Y1696323*
X2208262Y1696051*
X2208262D02*
X2208449Y1695914D01*
X2208824Y1695778*
X2209199*
X2209574Y1695914*
X2210137Y1696187*
X2210137D02*
X2212012Y1697551D01*
X2212012D02*
Y1695642D01*
X2207074Y1763642D02*
X2211012D01*
X2207074Y1761732D02*
X2211012D01*
X2208949Y1763642D02*
Y1761732D01*
X2211762Y1760505D02*
Y1757642D01*
X2207074Y1756823D02*
X2211012D01*
X2207074Y1754914D02*
X2211012D01*
X2208949Y1756823D02*
Y1754914D01*
X2207074Y1753687D02*
X2211012D01*
X2207074D02*
Y1752460D01*
X2207262Y1752051*
X2207262D02*
X2207449Y1751914D01*
X2207824Y1751778*
X2208199*
X2208574Y1751914*
X2208762Y1752051*
X2208762D02*
X2208949Y1752460D01*
Y1753687D02*
Y1752460D01*
X2209137Y1752051*
X2209137D02*
X2209324Y1751914D01*
X2209699Y1751778*
X2210262*
X2210262D02*
X2210637Y1751914D01*
X2210637D02*
X2210824Y1752051D01*
X2211012Y1752460*
X2211012D02*
Y1753687D01*
X2207074Y1750551D02*
X2211012D01*
X2207074D02*
Y1749323D01*
X2207262Y1748914*
X2207262D02*
X2207449Y1748778D01*
X2207824Y1748642*
X2207824D02*
X2208387D01*
X2208387D02*
X2208762Y1748778D01*
X2208762D02*
X2208949Y1748914D01*
X2209137Y1749323*
X2209137D02*
Y1750551D01*
G54D42*
X2179632Y1701562D02*
X2184460Y1707207D01*
X2173094*
X2179416Y1701345*
X2179632Y1750708D02*
X2184460Y1756353D01*
X2173094*
X2179416Y1750491*
X2179632Y1646578D02*
X2184460Y1652223D01*
X2173094*
X2179416Y1646361*
X2147909Y1569763D02*
X2142264Y1574591D01*
Y1563225*
X2148126Y1569547*
X2147909Y1546888D02*
X2142264Y1551716D01*
Y1540350*
X2148126Y1546672*
X2147806Y1595121D02*
X2142161Y1599949D01*
Y1588583*
X2148023Y1594905*
G54D44*
X1950629Y1514833D02*
Y1523233D01*
X1950629D02*
X1960229D01*
X1960229D02*
Y1514833D01*
X1960229D02*
X1950629D01*
Y1522783D02*
Y1523233D01*
X1950629D02*
X1960229D01*
X1960229D02*
Y1514833D01*
X1960229D02*
X1950629D01*
X1950629D02*
Y1523233D01*
X1950629D02*
X1960229D01*
X1960229D02*
Y1522783D01*
Y1514833D02*
Y1523233D01*
X1960229D02*
X1950629D01*
X1950629D02*
Y1514833D01*
X1950629D02*
X1960229D01*
X1950629Y1515283D02*
Y1514833D01*
X1950629D02*
X1960229D01*
X1960229D02*
Y1515283D01*
X1950190Y1514185D02*
G03X1950190I-712J0D01*
G01X1943143Y1648487D02*
X1937632D01*
Y1640023*
X1937632D02*
X1943143D01*
X1943143D02*
Y1648487D01*
X1939138D02*
X1940388Y1647237D01*
X1940388D02*
X1941638Y1648487D01*
X1943143Y1647901D02*
Y1648487D01*
X1943143D02*
X1937632D01*
Y1647901*
Y1648487D02*
Y1640023D01*
X1937632D02*
X1943143D01*
X1943143D02*
Y1648487D01*
X1943143D02*
X1937632D01*
X1939795Y1647830D02*
X1939138Y1648487D01*
X1939138D02*
X1940388Y1647237D01*
X1940388D02*
X1941638Y1648487D01*
X1941638D02*
X1940939Y1647788D01*
X1981525Y1557895D02*
G03X1980525Y1556895I-0J-1000D01*
G01X1980525D02*
Y1551295D01*
X1980525D02*
G03X1981525Y1550295I1000J0D01*
G01X1981525D02*
X1983125D01*
X1983125D02*
G03X1984125Y1551295I-0J1000D01*
G01X1984125D02*
Y1556895D01*
X1984125D02*
G03X1983125Y1557895I-1000J0D01*
G01X1983125D02*
X1981525D01*
X1941124Y1596858D02*
G03X1940124Y1597858I-1000J0D01*
G01X1940124D02*
X1934524D01*
X1934524D02*
G03X1933524Y1596858I-0J-1000D01*
G01X1933524D02*
Y1595258D01*
X1933524D02*
G03X1934524Y1594258I1000J0D01*
G01X1934524D02*
X1940124D01*
X1940124D02*
G03X1941124Y1595258I-0J1000D01*
G01X1941124D02*
Y1596858D01*
X1904983Y1510822D02*
G03X1906983Y1508822I2000J-0D01*
G01X1904983Y1510822D02*
Y1520822D01*
X1906983Y1522822D02*
G03X1904983Y1520822I-0J-2000D01*
G01X1906983Y1522822D02*
X1909983D01*
X1911983Y1520822D02*
G03X1909983Y1522822I-2000J-0D01*
G01X1911983Y1520822D02*
Y1510822D01*
X1909983Y1508822D02*
G03X1911983Y1510822I-0J2000D01*
G01X1909983Y1508822D02*
X1906983D01*
X1907084Y1479064D02*
Y1485064D01*
Y1487064D02*
X1891084D01*
X1891084D02*
Y1477064D01*
X1891084D02*
X1907084D01*
X1905771D02*
X1907084D01*
X1897022D02*
X1901397D01*
X1892161Y1487064D02*
X1891084D01*
X1891084D02*
Y1477064D01*
X1891084D02*
X1892648D01*
X1894508Y1487064D02*
X1894661D01*
X1897008D02*
X1901160D01*
X1903508D02*
X1903660D01*
X1906008D02*
X1907084D01*
Y1479064D02*
Y1485064D01*
X2008022Y1527350D02*
Y1519750D01*
X2008022D02*
X2011622D01*
X2011622D02*
Y1527350D01*
X2011622D02*
X2008022D01*
X1892693Y1557549D02*
G03X1893693Y1558549I-0J1000D01*
G01X1893693D02*
Y1564149D01*
X1893693D02*
G03X1892693Y1565149I-1000J0D01*
G01X1892693D02*
X1891093D01*
X1891093D02*
G03X1890093Y1564149I-0J-1000D01*
G01X1890093D02*
Y1558549D01*
X1890093D02*
G03X1891093Y1557549I1000J0D01*
G01X1891093D02*
X1892693D01*
X1911123Y1577114D02*
G03X1910123Y1578114I-1000J0D01*
G01X1910123D02*
X1904523D01*
X1904523D02*
G03X1903523Y1577114I-0J-1000D01*
G01X1903523D02*
Y1575514D01*
X1903523D02*
G03X1904523Y1574514I1000J0D01*
G01X1904523D02*
X1910123D01*
X1910123D02*
G03X1911123Y1575514I-0J1000D01*
G01X1911123D02*
Y1577114D01*
X2051509Y1656430D02*
G03X2052509Y1657430I-0J1000D01*
G01X2052509D02*
Y1663030D01*
X2052509D02*
G03X2051509Y1664030I-1000J-0D01*
G01X2051509D02*
X2049909D01*
X2049909D02*
G03X2048909Y1663030I-0J-1000D01*
G01X2048909D02*
Y1657430D01*
X2048909D02*
G03X2049909Y1656430I1000J-0D01*
G01X2049909D02*
X2051509D01*
X1968676Y1663969D02*
G03X1967676Y1662969I-0J-1000D01*
G01X1967676D02*
Y1657369D01*
X1967676D02*
G03X1968676Y1656369I1000J-0D01*
G01X1968676D02*
X1970276D01*
X1970276D02*
G03X1971276Y1657369I-0J1000D01*
G01X1971276D02*
Y1662969D01*
X1971276D02*
G03X1970276Y1663969I-1000J-0D01*
G01X1970276D02*
X1968676D01*
X2001885Y1519776D02*
G03X2002885Y1520776I-0J1000D01*
G01X2002885D02*
Y1526376D01*
X2002885D02*
G03X2001885Y1527376I-1000J0D01*
G01X2001885D02*
X2000285D01*
X2000285D02*
G03X1999285Y1526376I-0J-1000D01*
G01X1999285D02*
Y1520776D01*
X1999285D02*
G03X2000285Y1519776I1000J0D01*
G01X2000285D02*
X2001885D01*
X1909135Y1557526D02*
G03X1910135Y1558526I-0J1000D01*
G01X1910135D02*
Y1564126D01*
X1910135D02*
G03X1909135Y1565126I-1000J0D01*
G01X1909135D02*
X1907535D01*
X1907535D02*
G03X1906535Y1564126I-0J-1000D01*
G01X1906535D02*
Y1558526D01*
X1906535D02*
G03X1907535Y1557526I1000J0D01*
G01X1907535D02*
X1909135D01*
X1865078Y1576333D02*
G03X1866078Y1575333I1000J0D01*
G01X1866078D02*
X1871678D01*
X1871678D02*
G03X1872678Y1576333I-0J1000D01*
G01X1872678D02*
Y1577933D01*
X1872678D02*
G03X1871678Y1578933I-1000J0D01*
G01X1871678D02*
X1866078D01*
X1866078D02*
G03X1865078Y1577933I-0J-1000D01*
G01X1865078D02*
Y1576333D01*
X1865030Y1601527D02*
G03X1866030Y1600527I1000J0D01*
G01X1871630*
G03X1872630Y1601527I-0J1000*
G01Y1603127*
G03X1871630Y1604127I-1000J0*
G01X1866030*
G03X1865030Y1603127I-0J-1000*
G01Y1601527*
X1974135Y1533526D02*
G03X1975135Y1534526I-0J1000D01*
G01X1975135D02*
Y1540126D01*
X1975135D02*
G03X1974135Y1541126I-1000J0D01*
G01X1974135D02*
X1972535D01*
X1972535D02*
G03X1971535Y1540126I-0J-1000D01*
G01X1971535D02*
Y1534526D01*
X1971535D02*
G03X1972535Y1533526I1000J0D01*
G01X1972535D02*
X1974135D01*
X1995535Y1541102D02*
G03X1994535Y1540102I-0J-1000D01*
G01X1994535D02*
Y1534502D01*
X1994535D02*
G03X1995535Y1533502I1000J0D01*
G01X1995535D02*
X1997135D01*
X1997135D02*
G03X1998135Y1534502I-0J1000D01*
G01X1998135D02*
Y1540102D01*
X1998135D02*
G03X1997135Y1541102I-1000J0D01*
G01X1997135D02*
X1995535D01*
X2000663Y1681940D02*
G03X2001663Y1682940I-0J1000D01*
G01X2001663D02*
Y1688540D01*
X2001663D02*
G03X2000663Y1689540I-1000J-0D01*
G01X2000663D02*
X1999063D01*
X1999063D02*
G03X1998063Y1688540I-0J-1000D01*
G01X1998063D02*
Y1682940D01*
X1998063D02*
G03X1999063Y1681940I1000J-0D01*
G01X1999063D02*
X2000663D01*
X2056123Y1547089D02*
G03X2055123Y1548089I-1000J0D01*
G01X2055123D02*
X2049523D01*
X2049523D02*
G03X2048523Y1547089I-0J-1000D01*
G01X2048523D02*
Y1545489D01*
X2048523D02*
G03X2049523Y1544489I1000J0D01*
G01X2049523D02*
X2055123D01*
X2055123D02*
G03X2056123Y1545489I-0J1000D01*
G01X2056123D02*
Y1547089D01*
X1911123Y1573114D02*
G03X1910123Y1574114I-1000J0D01*
G01X1910123D02*
X1904523D01*
X1904523D02*
G03X1903523Y1573114I-0J-1000D01*
G01X1903523D02*
Y1571514D01*
X1903523D02*
G03X1904523Y1570514I1000J0D01*
G01X1904523D02*
X1910123D01*
X1910123D02*
G03X1911123Y1571514I-0J1000D01*
G01X1911123D02*
Y1573114D01*
X2048547Y1554939D02*
G03X2049547Y1553939I1000J0D01*
G01X2049547D02*
X2055147D01*
X2055147D02*
G03X2056147Y1554939I-0J1000D01*
G01X2056147D02*
Y1556539D01*
X2056147D02*
G03X2055147Y1557539I-1000J0D01*
G01X2055147D02*
X2049547D01*
X2049547D02*
G03X2048547Y1556539I-0J-1000D01*
G01X2048547D02*
Y1554939D01*
X1865078Y1586333D02*
G03X1866078Y1585333I1000J0D01*
G01X1866078D02*
X1871678D01*
X1871678D02*
G03X1872678Y1586333I-0J1000D01*
G01X1872678D02*
Y1587933D01*
X1872678D02*
G03X1871678Y1588933I-1000J0D01*
G01X1871678D02*
X1866078D01*
X1866078D02*
G03X1865078Y1587933I-0J-1000D01*
G01X1865078D02*
Y1586333D01*
X1931095Y1656364D02*
G03X1932095Y1657364I-0J1000D01*
G01X1932095D02*
Y1662964D01*
X1932095D02*
G03X1931095Y1663964I-1000J-0D01*
G01X1931095D02*
X1929495D01*
X1929495D02*
G03X1928495Y1662964I-0J-1000D01*
G01X1928495D02*
Y1657364D01*
X1928495D02*
G03X1929495Y1656364I1000J-0D01*
G01X1929495D02*
X1931095D01*
X1865078Y1591833D02*
G03X1866078Y1590833I1000J0D01*
G01X1866078D02*
X1871678D01*
X1871678D02*
G03X1872678Y1591833I-0J1000D01*
G01X1872678D02*
Y1593433D01*
X1872678D02*
G03X1871678Y1594433I-1000J0D01*
G01X1871678D02*
X1866078D01*
X1866078D02*
G03X1865078Y1593433I-0J-1000D01*
G01X1865078D02*
Y1591833D01*
X1865030Y1596920D02*
G03X1866030Y1595920I1000J-0D01*
G01X1871630*
G03X1872630Y1596920I-0J1000*
G01Y1598520*
G03X1871630Y1599520I-1000J-0*
G01X1866030*
G03X1865030Y1598520I-0J-1000*
G01Y1596920*
X1891047Y1571014D02*
G03X1892047Y1570014I1000J0D01*
G01X1892047D02*
X1897647D01*
X1897647D02*
G03X1898647Y1571014I-0J1000D01*
G01X1898647D02*
Y1572614D01*
X1898647D02*
G03X1897647Y1573614I-1000J0D01*
G01X1897647D02*
X1892047D01*
X1892047D02*
G03X1891047Y1572614I-0J-1000D01*
G01X1891047D02*
Y1571014D01*
Y1575014D02*
G03X1892047Y1574014I1000J0D01*
G01X1892047D02*
X1897647D01*
X1897647D02*
G03X1898647Y1575014I-0J1000D01*
G01X1898647D02*
Y1576614D01*
X1898647D02*
G03X1897647Y1577614I-1000J0D01*
G01X1897647D02*
X1892047D01*
X1892047D02*
G03X1891047Y1576614I-0J-1000D01*
G01X1891047D02*
Y1575014D01*
X1790563Y1534074D02*
G03X1789563Y1533074I-0J-1000D01*
G01X1789563D02*
Y1527474D01*
X1789563D02*
G03X1790563Y1526474I1000J0D01*
G01X1790563D02*
X1792163D01*
X1792163D02*
G03X1793163Y1527474I-0J1000D01*
G01X1793163D02*
Y1533074D01*
X1793163D02*
G03X1792163Y1534074I-1000J0D01*
G01X1792163D02*
X1790563D01*
X2068547Y1554939D02*
G03X2069547Y1553939I1000J0D01*
G01X2069547D02*
X2075147D01*
X2075147D02*
G03X2076147Y1554939I-0J1000D01*
G01X2076147D02*
Y1556539D01*
X2076147D02*
G03X2075147Y1557539I-1000J0D01*
G01X2075147D02*
X2069547D01*
X2069547D02*
G03X2068547Y1556539I-0J-1000D01*
G01X2068547D02*
Y1554939D01*
Y1559664D02*
G03X2069547Y1558664I1000J0D01*
G01X2069547D02*
X2075147D01*
X2075147D02*
G03X2076147Y1559664I-0J1000D01*
G01X2076147D02*
Y1561264D01*
X2076147D02*
G03X2075147Y1562264I-1000J0D01*
G01X2075147D02*
X2069547D01*
X2069547D02*
G03X2068547Y1561264I-0J-1000D01*
G01X2068547D02*
Y1559664D01*
Y1569114D02*
G03X2069547Y1568114I1000J0D01*
G01X2069547D02*
X2075147D01*
X2075147D02*
G03X2076147Y1569114I-0J1000D01*
G01X2076147D02*
Y1570714D01*
X2076147D02*
G03X2075147Y1571714I-1000J0D01*
G01X2075147D02*
X2069547D01*
X2069547D02*
G03X2068547Y1570714I-0J-1000D01*
G01X2068547D02*
Y1569114D01*
Y1575414D02*
G03X2069547Y1574414I1000J0D01*
G01X2069547D02*
X2075147D01*
X2075147D02*
G03X2076147Y1575414I-0J1000D01*
G01X2076147D02*
Y1577014D01*
X2076147D02*
G03X2075147Y1578014I-1000J0D01*
G01X2075147D02*
X2069547D01*
X2069547D02*
G03X2068547Y1577014I-0J-1000D01*
G01X2068547D02*
Y1575414D01*
Y1581714D02*
G03X2069547Y1580714I1000J0D01*
G01X2069547D02*
X2075147D01*
X2075147D02*
G03X2076147Y1581714I-0J1000D01*
G01X2076147D02*
Y1583314D01*
X2076147D02*
G03X2075147Y1584314I-1000J0D01*
G01X2075147D02*
X2069547D01*
X2069547D02*
G03X2068547Y1583314I-0J-1000D01*
G01X2068547D02*
Y1581714D01*
X2036123Y1536064D02*
G03X2035123Y1537064I-1000J0D01*
G01X2035123D02*
X2029523D01*
X2029523D02*
G03X2028523Y1536064I-0J-1000D01*
G01X2028523D02*
Y1534464D01*
X2028523D02*
G03X2029523Y1533464I1000J0D01*
G01X2029523D02*
X2035123D01*
X2035123D02*
G03X2036123Y1534464I-0J1000D01*
G01X2036123D02*
Y1536064D01*
Y1542364D02*
G03X2035123Y1543364I-1000J0D01*
G01X2035123D02*
X2029523D01*
X2029523D02*
G03X2028523Y1542364I-0J-1000D01*
G01X2028523D02*
Y1540764D01*
X2028523D02*
G03X2029523Y1539764I1000J0D01*
G01X2029523D02*
X2035123D01*
X2035123D02*
G03X2036123Y1540764I-0J1000D01*
G01X2036123D02*
Y1542364D01*
Y1561264D02*
G03X2035123Y1562264I-1000J0D01*
G01X2035123D02*
X2029523D01*
X2029523D02*
G03X2028523Y1561264I-0J-1000D01*
G01X2028523D02*
Y1559664D01*
X2028523D02*
G03X2029523Y1558664I1000J0D01*
G01X2029523D02*
X2035123D01*
X2035123D02*
G03X2036123Y1559664I-0J1000D01*
G01X2036123D02*
Y1561264D01*
Y1551814D02*
G03X2035123Y1552814I-1000J0D01*
G01X2035123D02*
X2029523D01*
X2029523D02*
G03X2028523Y1551814I-0J-1000D01*
G01X2028523D02*
Y1550214D01*
X2028523D02*
G03X2029523Y1549214I1000J0D01*
G01X2029523D02*
X2035123D01*
X2035123D02*
G03X2036123Y1550214I-0J1000D01*
G01X2036123D02*
Y1551814D01*
Y1567564D02*
G03X2035123Y1568564I-1000J0D01*
G01X2035123D02*
X2029523D01*
X2029523D02*
G03X2028523Y1567564I-0J-1000D01*
G01X2028523D02*
Y1565964D01*
X2028523D02*
G03X2029523Y1564964I1000J0D01*
G01X2029523D02*
X2035123D01*
X2035123D02*
G03X2036123Y1565964I-0J1000D01*
G01X2036123D02*
Y1567564D01*
Y1577014D02*
G03X2035123Y1578014I-1000J0D01*
G01X2035123D02*
X2029523D01*
X2029523D02*
G03X2028523Y1577014I-0J-1000D01*
G01X2028523D02*
Y1575414D01*
X2028523D02*
G03X2029523Y1574414I1000J0D01*
G01X2029523D02*
X2035123D01*
X2035123D02*
G03X2036123Y1575414I-0J1000D01*
G01X2036123D02*
Y1577014D01*
Y1583314D02*
G03X2035123Y1584314I-1000J0D01*
G01X2035123D02*
X2029523D01*
X2029523D02*
G03X2028523Y1583314I-0J-1000D01*
G01X2028523D02*
Y1581714D01*
X2028523D02*
G03X2029523Y1580714I1000J0D01*
G01X2029523D02*
X2035123D01*
X2035123D02*
G03X2036123Y1581714I-0J1000D01*
G01X2036123D02*
Y1583314D01*
X2000298Y1563014D02*
G03X1999298Y1564014I-1000J0D01*
G01X1999298D02*
X1993698D01*
X1993698D02*
G03X1992698Y1563014I-0J-1000D01*
G01X1992698D02*
Y1561414D01*
X1992698D02*
G03X1993698Y1560414I1000J0D01*
G01X1993698D02*
X1999298D01*
X1999298D02*
G03X2000298Y1561414I-0J1000D01*
G01X2000298D02*
Y1563014D01*
X1975235Y1589627D02*
G03X1974235Y1588627I-0J-1000D01*
G01X1974235D02*
Y1583027D01*
X1974235D02*
G03X1975235Y1582027I1000J0D01*
G01X1975235D02*
X1976835D01*
X1976835D02*
G03X1977835Y1583027I-0J1000D01*
G01X1977835D02*
Y1588627D01*
X1977835D02*
G03X1976835Y1589627I-1000J0D01*
G01X1976835D02*
X1975235D01*
X1956197Y1570102D02*
G03X1955197Y1571102I-1000J0D01*
G01X1955197D02*
X1949597D01*
X1949597D02*
G03X1948597Y1570102I0J-1000D01*
G01X1948597D02*
Y1568502D01*
X1948597D02*
G03X1949597Y1567502I1000J0D01*
G01X1949597D02*
X1955197D01*
X1955197D02*
G03X1956197Y1568502I0J1000D01*
G01X1956197D02*
Y1570102D01*
X1980035Y1541102D02*
G03X1979035Y1540102I-0J-1000D01*
G01X1979035D02*
Y1534502D01*
X1979035D02*
G03X1980035Y1533502I1000J0D01*
G01X1980035D02*
X1981635D01*
X1981635D02*
G03X1982635Y1534502I-0J1000D01*
G01X1982635D02*
Y1540102D01*
X1982635D02*
G03X1981635Y1541102I-1000J0D01*
G01X1981635D02*
X1980035D01*
X1991535D02*
G03X1990535Y1540102I-0J-1000D01*
G01X1990535D02*
Y1534502D01*
X1990535D02*
G03X1991535Y1533502I1000J0D01*
G01X1991535D02*
X1993135D01*
X1993135D02*
G03X1994135Y1534502I-0J1000D01*
G01X1994135D02*
Y1540102D01*
X1994135D02*
G03X1993135Y1541102I-1000J0D01*
G01X1993135D02*
X1991535D01*
X2000298Y1569314D02*
G03X1999298Y1570314I-1000J0D01*
G01X1999298D02*
X1993698D01*
X1993698D02*
G03X1992698Y1569314I-0J-1000D01*
G01X1992698D02*
Y1567714D01*
X1992698D02*
G03X1993698Y1566714I1000J0D01*
G01X1993698D02*
X1999298D01*
X1999298D02*
G03X2000298Y1567714I-0J1000D01*
G01X2000298D02*
Y1569314D01*
Y1581914D02*
G03X1999298Y1582914I-1000J0D01*
G01X1999298D02*
X1993698D01*
X1993698D02*
G03X1992698Y1581914I-0J-1000D01*
G01X1992698D02*
Y1580314D01*
X1992698D02*
G03X1993698Y1579314I1000J0D01*
G01X1993698D02*
X1999298D01*
X1999298D02*
G03X2000298Y1580314I-0J1000D01*
G01X2000298D02*
Y1581914D01*
X2000294Y1575614D02*
G03X1999294Y1576614I-1000J0D01*
G01X1999294D02*
X1993694D01*
X1993694D02*
G03X1992694Y1575614I0J-1000D01*
G01X1992694D02*
Y1574014D01*
X1992694D02*
G03X1993694Y1573014I1000J0D01*
G01X1993694D02*
X1999294D01*
X1999294D02*
G03X2000294Y1574014I0J1000D01*
G01X2000294D02*
Y1575614D01*
X2068542Y1540785D02*
G03X2069542Y1539785I1000J0D01*
G01X2069542D02*
X2075142D01*
X2075142D02*
G03X2076142Y1540785I-0J1000D01*
G01X2076142D02*
Y1542385D01*
X2076142D02*
G03X2075142Y1543385I-1000J0D01*
G01X2075142D02*
X2069542D01*
X2069542D02*
G03X2068542Y1542385I-0J-1000D01*
G01X2068542D02*
Y1540785D01*
X1964511Y1567712D02*
G03X1965511Y1566712I1000J0D01*
G01X1965511D02*
X1971111D01*
X1971111D02*
G03X1972111Y1567712I-0J1000D01*
G01X1972111D02*
Y1569312D01*
X1972111D02*
G03X1971111Y1570312I-1000J0D01*
G01X1971111D02*
X1965511D01*
X1965511D02*
G03X1964511Y1569312I-0J-1000D01*
G01X1964511D02*
Y1567712D01*
X1976535Y1541102D02*
G03X1975535Y1540102I-0J-1000D01*
G01X1975535D02*
Y1534502D01*
X1975535D02*
G03X1976535Y1533502I1000J0D01*
G01X1976535D02*
X1978135D01*
X1978135D02*
G03X1979135Y1534502I-0J1000D01*
G01X1979135D02*
Y1540102D01*
X1979135D02*
G03X1978135Y1541102I-1000J0D01*
G01X1978135D02*
X1976535D01*
X1981535Y1566000D02*
G03X1980535Y1565000I-0J-1000D01*
G01X1980535D02*
Y1559400D01*
X1980535D02*
G03X1981535Y1558400I1000J0D01*
G01X1981535D02*
X1983135D01*
X1983135D02*
G03X1984135Y1559400I-0J1000D01*
G01X1984135D02*
Y1565000D01*
X1984135D02*
G03X1983135Y1566000I-1000J0D01*
G01X1983135D02*
X1981535D01*
X1956197Y1581914D02*
G03X1955197Y1582914I-1000J0D01*
G01X1955197D02*
X1949597D01*
X1949597D02*
G03X1948597Y1581914I0J-1000D01*
G01X1948597D02*
Y1580314D01*
X1948597D02*
G03X1949597Y1579314I1000J0D01*
G01X1949597D02*
X1955197D01*
X1955197D02*
G03X1956197Y1580314I0J1000D01*
G01X1956197D02*
Y1581914D01*
Y1558114D02*
G03X1955197Y1559114I-1000J0D01*
G01X1955197D02*
X1949597D01*
X1949597D02*
G03X1948597Y1558114I0J-1000D01*
G01X1948597D02*
Y1556514D01*
X1948597D02*
G03X1949597Y1555514I1000J0D01*
G01X1949597D02*
X1955197D01*
X1955197D02*
G03X1956197Y1556514I0J1000D01*
G01X1956197D02*
Y1558114D01*
Y1599364D02*
G03X1955197Y1600364I-1000J0D01*
G01X1955197D02*
X1949597D01*
X1949597D02*
G03X1948597Y1599364I0J-1000D01*
G01X1948597D02*
Y1597764D01*
X1948597D02*
G03X1949597Y1596764I1000J0D01*
G01X1949597D02*
X1955197D01*
X1955197D02*
G03X1956197Y1597764I0J1000D01*
G01X1956197D02*
Y1599364D01*
X2096704Y1645620D02*
G03X2095704Y1646620I-1000J-0D01*
G01X2095704D02*
X2090104D01*
X2090104D02*
G03X2089104Y1645620I-0J-1000D01*
G01X2089104D02*
Y1644020D01*
X2089104D02*
G03X2090104Y1643020I1000J-0D01*
G01X2090104D02*
X2095704D01*
X2095704D02*
G03X2096704Y1644020I-0J1000D01*
G01X2096704D02*
Y1645620D01*
X1933505Y1591518D02*
G03X1934505Y1590518I1000J0D01*
G01X1934505D02*
X1940105D01*
X1940105D02*
G03X1941105Y1591518I0J1000D01*
G01X1941105D02*
Y1593118D01*
X1941105D02*
G03X1940105Y1594118I-1000J0D01*
G01X1940105D02*
X1934505D01*
X1934505D02*
G03X1933505Y1593118I0J-1000D01*
G01X1933505D02*
Y1591518D01*
X1956197Y1554352D02*
G03X1955197Y1555352I-1000J0D01*
G01X1955197D02*
X1949597D01*
X1949597D02*
G03X1948597Y1554352I0J-1000D01*
G01X1948597D02*
Y1552752D01*
X1948597D02*
G03X1949597Y1551752I1000J0D01*
G01X1949597D02*
X1955197D01*
X1955197D02*
G03X1956197Y1552752I0J1000D01*
G01X1956197D02*
Y1554352D01*
Y1588214D02*
G03X1955197Y1589214I-1000J0D01*
G01X1955197D02*
X1949597D01*
X1949597D02*
G03X1948597Y1588214I0J-1000D01*
G01X1948597D02*
Y1586614D01*
X1948597D02*
G03X1949597Y1585614I1000J0D01*
G01X1949597D02*
X1955197D01*
X1955197D02*
G03X1956197Y1586614I0J1000D01*
G01X1956197D02*
Y1588214D01*
Y1577977D02*
G03X1955197Y1578977I-1000J0D01*
G01X1955197D02*
X1949597D01*
X1949597D02*
G03X1948597Y1577977I0J-1000D01*
G01X1948597D02*
Y1576377D01*
X1948597D02*
G03X1949597Y1575377I1000J0D01*
G01X1949597D02*
X1955197D01*
X1955197D02*
G03X1956197Y1576377I0J1000D01*
G01X1956197D02*
Y1577977D01*
Y1566164D02*
G03X1955197Y1567164I-1000J0D01*
G01X1955197D02*
X1949597D01*
X1949597D02*
G03X1948597Y1566164I0J-1000D01*
G01X1948597D02*
Y1564564D01*
X1948597D02*
G03X1949597Y1563564I1000J0D01*
G01X1949597D02*
X1955197D01*
X1955197D02*
G03X1956197Y1564564I0J1000D01*
G01X1956197D02*
Y1566164D01*
X1989336Y1598558D02*
G03X1990336Y1599558I-0J1000D01*
G01X1990336D02*
Y1605158D01*
X1990336D02*
G03X1989336Y1606158I-1000J-0D01*
G01X1989336D02*
X1987736D01*
X1987736D02*
G03X1986736Y1605158I-0J-1000D01*
G01X1986736D02*
Y1599558D01*
X1986736D02*
G03X1987736Y1598558I1000J-0D01*
G01X1987736D02*
X1989336D01*
X1965663Y1598498D02*
G03X1966663Y1599498I-0J1000D01*
G01X1966663D02*
Y1605098D01*
X1966663D02*
G03X1965663Y1606098I-1000J0D01*
G01X1965663D02*
X1964063D01*
X1964063D02*
G03X1963063Y1605098I-0J-1000D01*
G01X1963063D02*
Y1599498D01*
X1963063D02*
G03X1964063Y1598498I1000J0D01*
G01X1964063D02*
X1965663D01*
X1956197Y1550614D02*
G03X1955197Y1551614I-1000J0D01*
G01X1955197D02*
X1949597D01*
X1949597D02*
G03X1948597Y1550614I0J-1000D01*
G01X1948597D02*
Y1549014D01*
X1948597D02*
G03X1949597Y1548014I1000J0D01*
G01X1949597D02*
X1955197D01*
X1955197D02*
G03X1956197Y1549014I0J1000D01*
G01X1956197D02*
Y1550614D01*
X1967230Y1522846D02*
G03X1966230Y1521846I-0J-1000D01*
G01X1966230D02*
Y1516246D01*
X1966230D02*
G03X1967230Y1515246I1000J0D01*
G01X1967230D02*
X1968830D01*
X1968830D02*
G03X1969830Y1516246I-0J1000D01*
G01X1969830D02*
Y1521846D01*
X1969830D02*
G03X1968830Y1522846I-1000J0D01*
G01X1968830D02*
X1967230D01*
X2000435Y1608527D02*
G03X1999435Y1607527I-0J-1000D01*
G01X1999435D02*
Y1601927D01*
X1999435D02*
G03X2000435Y1600927I1000J0D01*
G01X2000435D02*
X2002035D01*
X2002035D02*
G03X2003035Y1601927I-0J1000D01*
G01X2003035D02*
Y1607527D01*
X2003035D02*
G03X2002035Y1608527I-1000J0D01*
G01X2002035D02*
X2000435D01*
X1992722Y1586614D02*
G03X1993722Y1585614I1000J0D01*
G01X1993722D02*
X1999322D01*
X1999322D02*
G03X2000322Y1586614I-0J1000D01*
G01X2000322D02*
Y1588214D01*
X2000322D02*
G03X1999322Y1589214I-1000J0D01*
G01X1999322D02*
X1993722D01*
X1993722D02*
G03X1992722Y1588214I-0J-1000D01*
G01X1992722D02*
Y1586614D01*
X1956122Y1605614D02*
G03X1955122Y1606614I-1000J0D01*
G01X1955122D02*
X1949522D01*
X1949522D02*
G03X1948522Y1605614I0J-1000D01*
G01X1948522D02*
Y1604014D01*
X1948522D02*
G03X1949522Y1603014I1000J0D01*
G01X1949522D02*
X1955122D01*
X1955122D02*
G03X1956122Y1604014I0J1000D01*
G01X1956122D02*
Y1605614D01*
X1971947Y1563014D02*
G03X1970947Y1564014I-1000J0D01*
G01X1970947D02*
X1965347D01*
X1965347D02*
G03X1964347Y1563014I0J-1000D01*
G01X1964347D02*
Y1561414D01*
X1964347D02*
G03X1965347Y1560414I1000J0D01*
G01X1965347D02*
X1970947D01*
X1970947D02*
G03X1971947Y1561414I0J1000D01*
G01X1971947D02*
Y1563014D01*
X1964371Y1580314D02*
G03X1965371Y1579314I1000J0D01*
G01X1965371D02*
X1970971D01*
X1970971D02*
G03X1971971Y1580314I0J1000D01*
G01X1971971D02*
Y1581914D01*
X1971971D02*
G03X1970971Y1582914I-1000J0D01*
G01X1970971D02*
X1965371D01*
X1965371D02*
G03X1964371Y1581914I0J-1000D01*
G01X1964371D02*
Y1580314D01*
X1948621Y1572439D02*
G03X1949621Y1571439I1000J0D01*
G01X1949621D02*
X1955221D01*
X1955221D02*
G03X1956221Y1572439I0J1000D01*
G01X1956221D02*
Y1574039D01*
X1956221D02*
G03X1955221Y1575039I-1000J0D01*
G01X1955221D02*
X1949621D01*
X1949621D02*
G03X1948621Y1574039I0J-1000D01*
G01X1948621D02*
Y1572439D01*
X1994935Y1608527D02*
G03X1993935Y1607527I-0J-1000D01*
G01X1993935D02*
Y1601927D01*
X1993935D02*
G03X1994935Y1600927I1000J0D01*
G01X1994935D02*
X1996535D01*
X1996535D02*
G03X1997535Y1601927I-0J1000D01*
G01X1997535D02*
Y1607527D01*
X1997535D02*
G03X1996535Y1608527I-1000J0D01*
G01X1996535D02*
X1994935D01*
X1933546Y1599014D02*
G03X1934546Y1598014I1000J0D01*
G01X1934546D02*
X1940146D01*
X1940146D02*
G03X1941146Y1599014I0J1000D01*
G01X1941146D02*
Y1600614D01*
X1941146D02*
G03X1940146Y1601614I-1000J0D01*
G01X1940146D02*
X1934546D01*
X1934546D02*
G03X1933546Y1600614I0J-1000D01*
G01X1933546D02*
Y1599014D01*
X1974329Y1598468D02*
G03X1975329Y1599468I-0J1000D01*
G01X1975329D02*
Y1605068D01*
X1975329D02*
G03X1974329Y1606068I-1000J0D01*
G01X1974329D02*
X1972729D01*
X1972729D02*
G03X1971729Y1605068I-0J-1000D01*
G01X1971729D02*
Y1599468D01*
X1971729D02*
G03X1972729Y1598468I1000J0D01*
G01X1972729D02*
X1974329D01*
X1976835Y1560001D02*
G03X1977835Y1561001I-0J1000D01*
G01X1977835D02*
Y1566601D01*
X1977835D02*
G03X1976835Y1567601I-1000J0D01*
G01X1976835D02*
X1975235D01*
X1975235D02*
G03X1974235Y1566601I-0J-1000D01*
G01X1974235D02*
Y1561001D01*
X1974235D02*
G03X1975235Y1560001I1000J0D01*
G01X1975235D02*
X1976835D01*
X1968808Y1606074D02*
G03X1967808Y1605074I-0J-1000D01*
G01X1967808D02*
Y1599474D01*
X1967808D02*
G03X1968808Y1598474I1000J0D01*
G01X1968808D02*
X1970408D01*
X1970408D02*
G03X1971408Y1599474I-0J1000D01*
G01X1971408D02*
Y1605074D01*
X1971408D02*
G03X1970408Y1606074I-1000J0D01*
G01X1970408D02*
X1968808D01*
X1983565Y1598610D02*
G03X1984565Y1599610I-0J1000D01*
G01X1984565D02*
Y1605210D01*
X1984565D02*
G03X1983565Y1606210I-1000J0D01*
G01X1983565D02*
X1981965D01*
X1981965D02*
G03X1980965Y1605210I-0J-1000D01*
G01X1980965D02*
Y1599610D01*
X1980965D02*
G03X1981965Y1598610I1000J0D01*
G01X1981965D02*
X1983565D01*
X1981535Y1591178D02*
G03X1980535Y1590178I-0J-1000D01*
G01X1980535D02*
Y1584578D01*
X1980535D02*
G03X1981535Y1583578I1000J0D01*
G01X1981535D02*
X1983135D01*
X1983135D02*
G03X1984135Y1584578I-0J1000D01*
G01X1984135D02*
Y1590178D01*
X1984135D02*
G03X1983135Y1591178I-1000J0D01*
G01X1983135D02*
X1981535D01*
X1908705Y1529146D02*
G03X1907705Y1530146I-1000J0D01*
G01X1907705D02*
X1902105D01*
X1902105D02*
G03X1901105Y1529146I-0J-1000D01*
G01X1901105D02*
Y1527546D01*
X1901105D02*
G03X1902105Y1526546I1000J0D01*
G01X1902105D02*
X1907705D01*
X1907705D02*
G03X1908705Y1527546I-0J1000D01*
G01X1908705D02*
Y1529146D01*
X1979565Y1598610D02*
G03X1980565Y1599610I-0J1000D01*
G01X1980565D02*
Y1605210D01*
X1980565D02*
G03X1979565Y1606210I-1000J0D01*
G01X1979565D02*
X1977965D01*
X1977965D02*
G03X1976965Y1605210I-0J-1000D01*
G01X1976965D02*
Y1599610D01*
X1976965D02*
G03X1977965Y1598610I1000J0D01*
G01X1977965D02*
X1979565D01*
X1941122Y1566864D02*
G03X1940122Y1567864I-1000J0D01*
G01X1940122D02*
X1934522D01*
X1934522D02*
G03X1933522Y1566864I0J-1000D01*
G01X1933522D02*
Y1565264D01*
X1933522D02*
G03X1934522Y1564264I1000J0D01*
G01X1934522D02*
X1940122D01*
X1940122D02*
G03X1941122Y1565264I0J1000D01*
G01X1941122D02*
Y1566864D01*
Y1578114D02*
G03X1940122Y1579114I-1000J0D01*
G01X1940122D02*
X1934522D01*
X1934522D02*
G03X1933522Y1578114I0J-1000D01*
G01X1933522D02*
Y1576514D01*
X1933522D02*
G03X1934522Y1575514I1000J0D01*
G01X1934522D02*
X1940122D01*
X1940122D02*
G03X1941122Y1576514I0J1000D01*
G01X1941122D02*
Y1578114D01*
X1989435Y1560001D02*
G03X1990435Y1561001I-0J1000D01*
G01X1990435D02*
Y1566601D01*
X1990435D02*
G03X1989435Y1567601I-1000J0D01*
G01X1989435D02*
X1987835D01*
X1987835D02*
G03X1986835Y1566601I-0J-1000D01*
G01X1986835D02*
Y1561001D01*
X1986835D02*
G03X1987835Y1560001I1000J0D01*
G01X1987835D02*
X1989435D01*
X1983135Y1566301D02*
G03X1984135Y1567301I-0J1000D01*
G01X1984135D02*
Y1572901D01*
X1984135D02*
G03X1983135Y1573901I-1000J0D01*
G01X1983135D02*
X1981535D01*
X1981535D02*
G03X1980535Y1572901I-0J-1000D01*
G01X1980535D02*
Y1567301D01*
X1980535D02*
G03X1981535Y1566301I1000J0D01*
G01X1981535D02*
X1983135D01*
X1984847Y1574014D02*
G03X1985847Y1573014I1000J0D01*
G01X1985847D02*
X1991447D01*
X1991447D02*
G03X1992447Y1574014I-0J1000D01*
G01X1992447D02*
Y1575614D01*
X1992447D02*
G03X1991447Y1576614I-1000J0D01*
G01X1991447D02*
X1985847D01*
X1985847D02*
G03X1984847Y1575614I-0J-1000D01*
G01X1984847D02*
Y1574014D01*
X1981535Y1583327D02*
G03X1980535Y1582327I-0J-1000D01*
G01X1980535D02*
Y1576727D01*
X1980535D02*
G03X1981535Y1575727I1000J0D01*
G01X1981535D02*
X1983135D01*
X1983135D02*
G03X1984135Y1576727I-0J1000D01*
G01X1984135D02*
Y1582327D01*
X1984135D02*
G03X1983135Y1583327I-1000J0D01*
G01X1983135D02*
X1981535D01*
X1972316Y1574014D02*
G03X1973316Y1573014I1000J0D01*
G01X1973316D02*
X1978916D01*
X1978916D02*
G03X1979916Y1574014I0J1000D01*
G01X1979916D02*
Y1575614D01*
X1979916D02*
G03X1978916Y1576614I-1000J0D01*
G01X1978916D02*
X1973316D01*
X1973316D02*
G03X1972316Y1575614I0J-1000D01*
G01X1972316D02*
Y1574014D01*
X1989435Y1582051D02*
G03X1990435Y1583051I-0J1000D01*
G01X1990435D02*
Y1588651D01*
X1990435D02*
G03X1989435Y1589651I-1000J0D01*
G01X1989435D02*
X1987835D01*
X1987835D02*
G03X1986835Y1588651I-0J-1000D01*
G01X1986835D02*
Y1583051D01*
X1986835D02*
G03X1987835Y1582051I1000J0D01*
G01X1987835D02*
X1989435D01*
X1971947Y1588214D02*
G03X1970947Y1589214I-1000J0D01*
G01X1970947D02*
X1965347D01*
X1965347D02*
G03X1964347Y1588214I0J-1000D01*
G01X1964347D02*
Y1586614D01*
X1964347D02*
G03X1965347Y1585614I1000J0D01*
G01X1965347D02*
X1970947D01*
X1970947D02*
G03X1971947Y1586614I0J1000D01*
G01X1971947D02*
Y1588214D01*
X1988035Y1541102D02*
G03X1987035Y1540102I-0J-1000D01*
G01X1987035D02*
Y1534502D01*
X1987035D02*
G03X1988035Y1533502I1000J0D01*
G01X1988035D02*
X1989635D01*
X1989635D02*
G03X1990635Y1534502I-0J1000D01*
G01X1990635D02*
Y1540102D01*
X1990635D02*
G03X1989635Y1541102I-1000J0D01*
G01X1989635D02*
X1988035D01*
X2018135Y1519776D02*
G03X2019135Y1520776I-0J1000D01*
G01X2019135D02*
Y1526376D01*
X2019135D02*
G03X2018135Y1527376I-1000J0D01*
G01X2018135D02*
X2016535D01*
X2016535D02*
G03X2015535Y1526376I-0J-1000D01*
G01X2015535D02*
Y1520776D01*
X2015535D02*
G03X2016535Y1519776I1000J0D01*
G01X2016535D02*
X2018135D01*
X2014385D02*
G03X2015385Y1520776I-0J1000D01*
G01X2015385D02*
Y1526376D01*
X2015385D02*
G03X2014385Y1527376I-1000J0D01*
G01X2014385D02*
X2012785D01*
X2012785D02*
G03X2011785Y1526376I-0J-1000D01*
G01X2011785D02*
Y1520776D01*
X2011785D02*
G03X2012785Y1519776I1000J0D01*
G01X2012785D02*
X2014385D01*
X2007359Y1541104D02*
G03X2006359Y1540104I0J-1000D01*
G01X2006359D02*
Y1534504D01*
X2006359D02*
G03X2007359Y1533504I1000J0D01*
G01X2007359D02*
X2008959D01*
X2008959D02*
G03X2009959Y1534504I0J1000D01*
G01X2009959D02*
Y1540104D01*
X2009959D02*
G03X2008959Y1541104I-1000J0D01*
G01X2008959D02*
X2007359D01*
X1985134Y1612687D02*
G03X1986134Y1611687I1000J0D01*
G01X1986134D02*
X1991734D01*
X1991734D02*
G03X1992734Y1612687I-0J1000D01*
G01X1992734D02*
Y1614287D01*
X1992734D02*
G03X1991734Y1615287I-1000J0D01*
G01X1991734D02*
X1986134D01*
X1986134D02*
G03X1985134Y1614287I-0J-1000D01*
G01X1985134D02*
Y1612687D01*
X2006613Y1519776D02*
G03X2007613Y1520776I-0J1000D01*
G01X2007613D02*
Y1526376D01*
X2007613D02*
G03X2006613Y1527376I-1000J0D01*
G01X2006613D02*
X2005013D01*
X2005013D02*
G03X2004013Y1526376I-0J-1000D01*
G01X2004013D02*
Y1520776D01*
X2004013D02*
G03X2005013Y1519776I1000J0D01*
G01X2005013D02*
X2006613D01*
X1925519Y1638073D02*
G03X1924519Y1637073I0J-1000D01*
G01Y1631473*
G03X1925519Y1630473I1000J0*
G01X1927119*
G03X1928119Y1631473I0J1000*
G01Y1637073*
G03X1927119Y1638073I-1000J0*
G01X1925519*
X2018547Y1565964D02*
G03X2019547Y1564964I1000J0D01*
G01X2019547D02*
X2025147D01*
X2025147D02*
G03X2026147Y1565964I-0J1000D01*
G01X2026147D02*
Y1567564D01*
X2026147D02*
G03X2025147Y1568564I-1000J0D01*
G01X2025147D02*
X2019547D01*
X2019547D02*
G03X2018547Y1567564I-0J-1000D01*
G01X2018547D02*
Y1565964D01*
X1791859Y1524786D02*
G03X1789859Y1522786I-0J-2000D01*
G01X1791859Y1524786D02*
X1801859D01*
X1803859Y1522786D02*
G03X1801859Y1524786I-2000J0D01*
G01X1803859Y1522786D02*
Y1519786D01*
X1801859Y1517786D02*
G03X1803859Y1519786I-0J2000D01*
G01X1801859Y1517786D02*
X1791859D01*
X1789859Y1519786D02*
G03X1791859Y1517786I2000J0D01*
G01X1789859Y1519786D02*
Y1522786D01*
X2046278Y1467943D02*
G03X2048278Y1469943I-0J2000D01*
G01X2046278Y1467943D02*
X2036278D01*
X2034278Y1469943D02*
G03X2036278Y1467943I2000J0D01*
G01X2034278Y1469943D02*
Y1472943D01*
X2036278Y1474943D02*
G03X2034278Y1472943I-0J-2000D01*
G01X2036278Y1474943D02*
X2046278D01*
X2048278Y1472943D02*
G03X2046278Y1474943I-2000J0D01*
G01X2048278Y1472943D02*
Y1469943D01*
X1919084Y1505818D02*
G03X1917084Y1507818I-2000J0D01*
G01X1919084Y1505818D02*
Y1495818D01*
X1917084Y1493818D02*
G03X1919084Y1495818I0J2000D01*
G01X1917084Y1493818D02*
X1914084D01*
X1912084Y1495818D02*
G03X1914084Y1493818I2000J0D01*
G01X1912084Y1495818D02*
Y1505818D01*
X1914084Y1507818D02*
G03X1912084Y1505818I0J-2000D01*
G01X1914084Y1507818D02*
X1917084D01*
X1889795Y1496061D02*
G03X1891795Y1494061I2000J-0D01*
G01X1889795Y1496061D02*
Y1506061D01*
X1891795Y1508061D02*
G03X1889795Y1506061I-0J-2000D01*
G01X1891795Y1508061D02*
X1894795D01*
X1896795Y1506061D02*
G03X1894795Y1508061I-2000J-0D01*
G01X1896795Y1506061D02*
Y1496061D01*
X1894795Y1494061D02*
G03X1896795Y1496061I-0J2000D01*
G01X1894795Y1494061D02*
X1891795D01*
X2078866Y1498787D02*
G03X2080866Y1500787I0J2000D01*
G01X2078866Y1498787D02*
X2068866D01*
X2066866Y1500787D02*
G03X2068866Y1498787I2000J-0D01*
G01X2066866Y1500787D02*
Y1503787D01*
X2068866Y1505787D02*
G03X2066866Y1503787I0J-2000D01*
G01X2068866Y1505787D02*
X2078866D01*
X2080866Y1503787D02*
G03X2078866Y1505787I-2000J-0D01*
G01X2080866Y1503787D02*
Y1500787D01*
X1912816Y1510813D02*
G03X1914816Y1508813I2000J-0D01*
G01X1912816Y1510813D02*
Y1520813D01*
X1914816Y1522813D02*
G03X1912816Y1520813I-0J-2000D01*
G01X1914816Y1522813D02*
X1917816D01*
X1919816Y1520813D02*
G03X1917816Y1522813I-2000J-0D01*
G01X1919816Y1520813D02*
Y1510813D01*
X1917816Y1508813D02*
G03X1919816Y1510813I-0J2000D01*
G01X1917816Y1508813D02*
X1914816D01*
X2074838Y1585065D02*
G03X2076838Y1587065I0J2000D01*
G01X2074838Y1585065D02*
X2064838D01*
X2062838Y1587065D02*
G03X2064838Y1585065I2000J-0D01*
G01X2062838Y1587065D02*
Y1590065D01*
X2064838Y1592065D02*
G03X2062838Y1590065I0J-2000D01*
G01X2064838Y1592065D02*
X2074838D01*
X2076838Y1590065D02*
G03X2074838Y1592065I-2000J-0D01*
G01X2076838Y1590065D02*
Y1587065D01*
X2074838Y1522565D02*
G03X2076838Y1524565I0J2000D01*
G01X2074838Y1522565D02*
X2064838D01*
X2062838Y1524565D02*
G03X2064838Y1522565I2000J-0D01*
G01X2062838Y1524565D02*
Y1527565D01*
X2064838Y1529565D02*
G03X2062838Y1527565I0J-2000D01*
G01X2064838Y1529565D02*
X2074838D01*
X2076838Y1527565D02*
G03X2074838Y1529565I-2000J-0D01*
G01X2076838Y1527565D02*
Y1524565D01*
X2046278Y1475443D02*
G03X2048278Y1477443I-0J2000D01*
G01X2046278Y1475443D02*
X2036278D01*
X2034278Y1477443D02*
G03X2036278Y1475443I2000J0D01*
G01X2034278Y1477443D02*
Y1480443D01*
X2036278Y1482443D02*
G03X2034278Y1480443I-0J-2000D01*
G01X2036278Y1482443D02*
X2046278D01*
X2048278Y1480443D02*
G03X2046278Y1482443I-2000J0D01*
G01X2048278Y1480443D02*
Y1477443D01*
X1942338Y1602565D02*
G03X1944338Y1604565I0J2000D01*
G01X1942338Y1602565D02*
X1932338D01*
X1930338Y1604565D02*
G03X1932338Y1602565I2000J-0D01*
G01X1930338Y1604565D02*
Y1607565D01*
X1932338Y1609565D02*
G03X1930338Y1607565I0J-2000D01*
G01X1932338Y1609565D02*
X1942338D01*
X1944338Y1607565D02*
G03X1942338Y1609565I-2000J-0D01*
G01X1944338Y1607565D02*
Y1604565D01*
X1927960Y1505758D02*
G03X1925960Y1507758I-2000J0D01*
G01X1927960Y1505758D02*
Y1495758D01*
X1925960Y1493758D02*
G03X1927960Y1495758I0J2000D01*
G01X1925960Y1493758D02*
X1922960D01*
X1920960Y1495758D02*
G03X1922960Y1493758I2000J0D01*
G01X1920960Y1495758D02*
Y1505758D01*
X1922960Y1507758D02*
G03X1920960Y1505758I0J-2000D01*
G01X1922960Y1507758D02*
X1925960D01*
X1932331Y1575314D02*
G03X1930331Y1573314I-0J-2000D01*
G01X1932331Y1575314D02*
X1942331D01*
X1944331Y1573314D02*
G03X1942331Y1575314I-2000J0D01*
G01X1944331Y1573314D02*
Y1570314D01*
X1942331Y1568314D02*
G03X1944331Y1570314I-0J2000D01*
G01X1942331Y1568314D02*
X1932331D01*
X1930331Y1570314D02*
G03X1932331Y1568314I2000J0D01*
G01X1930331Y1570314D02*
Y1573314D01*
X1932331Y1563814D02*
G03X1930331Y1561814I-0J-2000D01*
G01X1932331Y1563814D02*
X1942331D01*
X1944331Y1561814D02*
G03X1942331Y1563814I-2000J0D01*
G01X1944331Y1561814D02*
Y1558814D01*
X1942331Y1556814D02*
G03X1944331Y1558814I-0J2000D01*
G01X1942331Y1556814D02*
X1932331D01*
X1930331Y1558814D02*
G03X1932331Y1556814I2000J0D01*
G01X1930331Y1558814D02*
Y1561814D01*
X1935474Y1505729D02*
G03X1933474Y1507729I-2000J0D01*
G01X1935474Y1505729D02*
Y1495729D01*
X1933474Y1493729D02*
G03X1935474Y1495729I0J2000D01*
G01X1933474Y1493729D02*
X1930474D01*
X1928474Y1495729D02*
G03X1930474Y1493729I2000J0D01*
G01X1928474Y1495729D02*
Y1505729D01*
X1930474Y1507729D02*
G03X1928474Y1505729I0J-2000D01*
G01X1930474Y1507729D02*
X1933474D01*
X1889585Y1510811D02*
G03X1891585Y1508811I2000J-0D01*
G01X1889585Y1510811D02*
Y1520811D01*
X1891585Y1522811D02*
G03X1889585Y1520811I-0J-2000D01*
G01X1891585Y1522811D02*
X1894585D01*
X1896585Y1520811D02*
G03X1894585Y1522811I-2000J-0D01*
G01X1896585Y1520811D02*
Y1510811D01*
X1894585Y1508811D02*
G03X1896585Y1510811I-0J2000D01*
G01X1894585Y1508811D02*
X1891585D01*
X1897085Y1510811D02*
G03X1899085Y1508811I2000J-0D01*
G01X1897085Y1510811D02*
Y1520811D01*
X1899085Y1522811D02*
G03X1897085Y1520811I-0J-2000D01*
G01X1899085Y1522811D02*
X1902085D01*
X1904085Y1520811D02*
G03X1902085Y1522811I-2000J-0D01*
G01X1904085Y1520811D02*
Y1510811D01*
X1902085Y1508811D02*
G03X1904085Y1510811I-0J2000D01*
G01X1902085Y1508811D02*
X1899085D01*
X1899838Y1587815D02*
G03X1901838Y1589815I0J2000D01*
G01X1899838Y1587815D02*
X1889838D01*
X1887838Y1589815D02*
G03X1889838Y1587815I2000J-0D01*
G01X1887838Y1589815D02*
Y1592815D01*
X1889838Y1594815D02*
G03X1887838Y1592815I0J-2000D01*
G01X1889838Y1594815D02*
X1899838D01*
X1901838Y1592815D02*
G03X1899838Y1594815I-2000J-0D01*
G01X1901838Y1592815D02*
Y1589815D01*
X1911584Y1505818D02*
G03X1909584Y1507818I-2000J0D01*
G01X1911584Y1505818D02*
Y1495818D01*
X1909584Y1493818D02*
G03X1911584Y1495818I0J2000D01*
G01X1909584Y1493818D02*
X1906584D01*
X1904584Y1495818D02*
G03X1906584Y1493818I2000J0D01*
G01X1904584Y1495818D02*
Y1505818D01*
X1906584Y1507818D02*
G03X1904584Y1505818I0J-2000D01*
G01X1906584Y1507818D02*
X1909584D01*
X1907334Y1485064D02*
Y1479064D01*
Y1477064D02*
X1923334D01*
X1923334D02*
Y1487064D01*
X1923334D02*
X1907334D01*
X1908647D02*
X1907334D01*
X1917397D02*
X1913021D01*
X1922258Y1477064D02*
X1923334D01*
X1923334D02*
Y1487064D01*
X1923334D02*
X1921771D01*
X1919910Y1477064D02*
X1919758D01*
X1917410D02*
X1913258D01*
X1910911D02*
X1910758D01*
X1908411D02*
X1907334D01*
Y1485064D02*
Y1479064D01*
X1975847Y1614317D02*
G03X1974847Y1615317I-1000J0D01*
G01X1969247*
G03X1968247Y1614317I-0J-1000*
G01Y1612717*
G03X1969247Y1611717I1000J0*
G01X1974847*
G03X1975847Y1612717I-0J1000*
G01Y1614317*
X1948588Y1591772D02*
X1956188D01*
X1956188D02*
Y1595372D01*
X1956188D02*
X1948588D01*
X1948588D02*
Y1591772D01*
X1970860Y1533292D02*
Y1540892D01*
X1970860D02*
X1967260D01*
X1967260D02*
Y1533292D01*
X1967260D02*
X1970860D01*
X1884623Y1588114D02*
X1877023D01*
X1877023D02*
Y1584514D01*
X1877023D02*
X1884623D01*
X1884623D02*
Y1588114D01*
Y1584114D02*
X1877023D01*
X1877023D02*
Y1580514D01*
X1877023D02*
X1884623D01*
X1884623D02*
Y1584114D01*
Y1580114D02*
X1877023D01*
X1877023D02*
Y1576514D01*
X1877023D02*
X1884623D01*
X1884623D02*
Y1580114D01*
Y1576114D02*
X1877023D01*
X1877023D02*
Y1572514D01*
X1877023D02*
X1884623D01*
X1884623D02*
Y1576114D01*
X1918547Y1571014D02*
X1926147D01*
X1926147D02*
Y1574614D01*
X1926147D02*
X1918547D01*
X1918547D02*
Y1571014D01*
Y1582514D02*
X1926147D01*
X1926147D02*
Y1586114D01*
X1926147D02*
X1918547D01*
X1918547D02*
Y1582514D01*
Y1590514D02*
X1926147D01*
X1926147D02*
Y1594114D01*
X1926147D02*
X1918547D01*
X1918547D02*
Y1590514D01*
Y1578514D02*
X1926147D01*
X1926147D02*
Y1582114D01*
X1926147D02*
X1918547D01*
X1918547D02*
Y1578514D01*
Y1575014D02*
X1926147D01*
X1926147D02*
Y1578614D01*
X1926147D02*
X1918547D01*
X1918547D02*
Y1575014D01*
X1911775Y1621782D02*
Y1629382D01*
X1908175*
Y1621782*
X1911775*
X1913556Y1637983D02*
Y1630383D01*
X1917156*
Y1637983*
X1913556*
X2026095Y1573449D02*
X2018495D01*
X2018495D02*
Y1569849D01*
X2018495D02*
X2026095D01*
X2026095D02*
Y1573449D01*
X1936163Y1621998D02*
Y1629598D01*
X1936163D02*
X1932563D01*
X1932563D02*
Y1621998D01*
X1932563D02*
X1936163D01*
X1995060Y1527445D02*
Y1519845D01*
X1995060D02*
X1998660D01*
X1998660D02*
Y1527445D01*
X1998660D02*
X1995060D01*
X1904841Y1621766D02*
Y1629366D01*
X1904841D02*
X1901241D01*
X1901241D02*
Y1621766D01*
X1901241D02*
X1904841D01*
X1872651Y1608586D02*
X1865051D01*
X1865051D02*
Y1604986D01*
X1865051D02*
X1872651D01*
X1872651D02*
Y1608586D01*
Y1622086D02*
X1865051D01*
X1865051D02*
Y1618486D01*
X1865051D02*
X1872651D01*
X1872651D02*
Y1622086D01*
X1831063Y1534574D02*
Y1526974D01*
X1831063D02*
X1834663D01*
X1834663D02*
Y1534574D01*
X1834663D02*
X1831063D01*
X1872651Y1626586D02*
X1865051D01*
X1865051D02*
Y1622986D01*
X1865051D02*
X1872651D01*
X1872651D02*
Y1626586D01*
X1834663Y1515498D02*
Y1523098D01*
X1834663D02*
X1831063D01*
X1831063D02*
Y1515498D01*
X1831063D02*
X1834663D01*
X1872651Y1617586D02*
X1865051D01*
X1865051D02*
Y1613986D01*
X1865051D02*
X1872651D01*
X1872651D02*
Y1617586D01*
X1936163Y1630498D02*
Y1638098D01*
X1936163D02*
X1932563D01*
X1932563D02*
Y1630498D01*
X1932563D02*
X1936163D01*
X1994381Y1519844D02*
Y1527444D01*
X1994381D02*
X1990781D01*
X1990781D02*
Y1519844D01*
X1990781D02*
X1994381D01*
X2001959Y1533528D02*
Y1541128D01*
X2001959D02*
X1998359D01*
X1998359D02*
Y1533528D01*
X1998359D02*
X2001959D01*
X1872651Y1613086D02*
X1865051D01*
X1865051D02*
Y1609486D01*
X1865051D02*
X1872651D01*
X1872651D02*
Y1613086D01*
X1886817Y1485529D02*
Y1477929D01*
X1886817D02*
X1890417D01*
X1890417D02*
Y1485529D01*
X1890417D02*
X1886817D01*
X1890475Y1526757D02*
X1898075D01*
X1898075D02*
Y1530357D01*
X1898075D02*
X1890475D01*
X1890475D02*
Y1526757D01*
X1945693Y1515246D02*
Y1522846D01*
X1945693D02*
X1942093D01*
X1942093D02*
Y1515246D01*
X1942093D02*
X1945693D01*
X1928563Y1629574D02*
Y1621974D01*
X1928563D02*
X1932163D01*
X1932163D02*
Y1629574D01*
X1932163D02*
X1928563D01*
X1950163Y1630498D02*
Y1638098D01*
X1950163D02*
X1946563D01*
X1946563D02*
Y1630498D01*
X1946563D02*
X1950163D01*
X1954663D02*
Y1638098D01*
X1954663D02*
X1951063D01*
X1951063D02*
Y1630498D01*
X1951063D02*
X1954663D01*
X1918547Y1594514D02*
X1926147D01*
X1926147D02*
Y1598114D01*
X1926147D02*
X1918547D01*
X1918547D02*
Y1594514D01*
X1894093Y1565125D02*
Y1557525D01*
X1894093D02*
X1897693D01*
X1897693D02*
Y1565125D01*
X1897693D02*
X1894093D01*
X1906135Y1557526D02*
Y1565126D01*
X1906135D02*
X1902535D01*
X1902535D02*
Y1557526D01*
X1902535D02*
X1906135D01*
X1898535Y1565102D02*
Y1557502D01*
X1898535D02*
X1902135D01*
X1902135D02*
Y1565102D01*
X1902135D02*
X1898535D01*
X1926123Y1563114D02*
X1918523D01*
X1918523D02*
Y1559514D01*
X1918523D02*
X1926123D01*
X1926123D02*
Y1563114D01*
Y1590114D02*
X1918523D01*
X1918523D02*
Y1586514D01*
X1918523D02*
X1926123D01*
X1926123D02*
Y1590114D01*
X1865078Y1580333D02*
X1872678D01*
X1872678D02*
Y1583933D01*
X1872678D02*
X1865078D01*
X1865078D02*
Y1580333D01*
X1827051Y1578353D02*
X1819451D01*
Y1574753*
X1827051*
Y1578353*
Y1583353D02*
X1819451D01*
Y1579753*
X1827051*
Y1583353*
X2078965Y1663791D02*
Y1656191D01*
X2078965D02*
X2082565D01*
X2082565D02*
Y1663791D01*
X2082565D02*
X2078965D01*
X2037409Y1664006D02*
Y1656406D01*
X2037409D02*
X2041009D01*
X2041009D02*
Y1664006D01*
X2041009D02*
X2037409D01*
X1956676Y1663969D02*
Y1656369D01*
X1956676D02*
X1960276D01*
X1960276D02*
Y1663969D01*
X1960276D02*
X1956676D01*
X1797663Y1526498D02*
Y1534098D01*
X1797663D02*
X1794063D01*
X1794063D02*
Y1526498D01*
X1794063D02*
X1797663D01*
X1791563Y1495074D02*
Y1487474D01*
X1791563D02*
X1795163D01*
X1795163D02*
Y1495074D01*
X1795163D02*
X1791563D01*
X1802163Y1526498D02*
Y1534098D01*
X1802163D02*
X1798563D01*
X1798563D02*
Y1526498D01*
X1798563D02*
X1802163D01*
X1932163Y1630498D02*
Y1638098D01*
X1932163D02*
X1928563D01*
X1928563D02*
Y1630498D01*
X1928563D02*
X1932163D01*
X1997602Y1663765D02*
Y1656165D01*
X1997602D02*
X2001202D01*
X2001202D02*
Y1663765D01*
X2001202D02*
X1997602D01*
X1800563Y1495074D02*
Y1487474D01*
X1800563D02*
X1804163D01*
X1804163D02*
Y1495074D01*
X1804163D02*
X1800563D01*
X1806663Y1526498D02*
Y1534098D01*
X1806663D02*
X1803063D01*
X1803063D02*
Y1526498D01*
X1803063D02*
X1806663D01*
X1796063Y1495074D02*
Y1487474D01*
X1796063D02*
X1799663D01*
X1799663D02*
Y1495074D01*
X1799663D02*
X1796063D01*
X1942063Y1629574D02*
Y1621974D01*
X1942063D02*
X1945663D01*
X1945663D02*
Y1629574D01*
X1945663D02*
X1942063D01*
X1984287Y1615283D02*
X1976687D01*
X1976687D02*
Y1611683D01*
X1976687D02*
X1984287D01*
X1984287D02*
Y1615283D01*
X1980335Y1629113D02*
X1970492D01*
X1970492D02*
Y1616516D01*
X1970492D02*
X1990178D01*
X1990178D02*
Y1629113D01*
X1990178D02*
X1980335D01*
X2090965Y1663791D02*
G03X2089965Y1662791I-0J-1000D01*
G01X2089965D02*
Y1657191D01*
X2089965D02*
G03X2090965Y1656191I1000J-0D01*
G01X2090965D02*
X2092565D01*
X2092565D02*
G03X2093565Y1657191I-0J1000D01*
G01X2093565D02*
Y1662791D01*
X2093565D02*
G03X2092565Y1663791I-1000J-0D01*
G01X2092565D02*
X2090965D01*
X2006299Y1600971D02*
G03X2007299Y1601971I-0J1000D01*
G01X2007299D02*
Y1607571D01*
X2007299D02*
G03X2006299Y1608571I-1000J0D01*
G01X2006299D02*
X2004699D01*
X2004699D02*
G03X2003699Y1607571I-0J-1000D01*
G01X2003699D02*
Y1601971D01*
X2003699D02*
G03X2004699Y1600971I1000J0D01*
G01X2004699D02*
X2006299D01*
X2008602Y1663765D02*
G03X2007602Y1662765I-0J-1000D01*
G01X2007602D02*
Y1657165D01*
X2007602D02*
G03X2008602Y1656165I1000J-0D01*
G01X2008602D02*
X2010202D01*
X2010202D02*
G03X2011202Y1657165I-0J1000D01*
G01X2011202D02*
Y1662765D01*
X2011202D02*
G03X2010202Y1663765I-1000J-0D01*
G01X2010202D02*
X2008602D01*
X1932388Y1646819D02*
G03X1931388Y1647819I-1000J0D01*
G01X1931388D02*
X1925788D01*
X1925788D02*
G03X1924788Y1646819I-0J-1000D01*
G01X1924788D02*
Y1645219D01*
X1924788D02*
G03X1925788Y1644219I1000J0D01*
G01X1925788D02*
X1931388D01*
X1931388D02*
G03X1932388Y1645219I-0J1000D01*
G01X1932388D02*
Y1646819D01*
X1956197Y1562227D02*
G03X1955197Y1563227I-1000J0D01*
G01X1955197D02*
X1949597D01*
X1949597D02*
G03X1948597Y1562227I0J-1000D01*
G01X1948597D02*
Y1560627D01*
X1948597D02*
G03X1949597Y1559627I1000J0D01*
G01X1949597D02*
X1955197D01*
X1955197D02*
G03X1956197Y1560627I0J1000D01*
G01X1956197D02*
Y1562227D01*
X1941122Y1555614D02*
G03X1940122Y1556614I-1000J0D01*
G01X1940122D02*
X1934522D01*
X1934522D02*
G03X1933522Y1555614I0J-1000D01*
G01X1933522D02*
Y1554014D01*
X1933522D02*
G03X1934522Y1553014I1000J0D01*
G01X1934522D02*
X1940122D01*
X1940122D02*
G03X1941122Y1554014I0J1000D01*
G01X1941122D02*
Y1555614D01*
X1971947Y1575614D02*
G03X1970947Y1576614I-1000J0D01*
G01X1970947D02*
X1965347D01*
X1965347D02*
G03X1964347Y1575614I0J-1000D01*
G01X1964347D02*
Y1574014D01*
X1964347D02*
G03X1965347Y1573014I1000J0D01*
G01X1965347D02*
X1970947D01*
X1970947D02*
G03X1971947Y1574014I0J1000D01*
G01X1971947D02*
Y1575614D01*
X1984035Y1541102D02*
G03X1983035Y1540102I-0J-1000D01*
G01X1983035D02*
Y1534502D01*
X1983035D02*
G03X1984035Y1533502I1000J0D01*
G01X1984035D02*
X1985635D01*
X1985635D02*
G03X1986635Y1534502I-0J1000D01*
G01X1986635D02*
Y1540102D01*
X1986635D02*
G03X1985635Y1541102I-1000J0D01*
G01X1985635D02*
X1984035D01*
X2068541Y1534473D02*
G03X2069541Y1533473I1000J0D01*
G01X2069541D02*
X2075141D01*
X2075141D02*
G03X2076141Y1534473I-0J1000D01*
G01X2076141D02*
Y1536073D01*
X2076141D02*
G03X2075141Y1537073I-1000J0D01*
G01X2075141D02*
X2069541D01*
X2069541D02*
G03X2068541Y1536073I-0J-1000D01*
G01X2068541D02*
Y1534473D01*
X2011335Y1529811D02*
G03X2013335Y1527811I2000J-0D01*
G01X2011335Y1529811D02*
Y1539811D01*
X2013335Y1541811D02*
G03X2011335Y1539811I-0J-2000D01*
G01X2013335Y1541811D02*
X2016335D01*
X2018335Y1539811D02*
G03X2016335Y1541811I-2000J-0D01*
G01X2018335Y1539811D02*
Y1529811D01*
X2016335Y1527811D02*
G03X2018335Y1529811I-0J2000D01*
G01X2016335Y1527811D02*
X2013335D01*
X2031765Y1515155D02*
G03X2033765Y1517155I0J2000D01*
G01X2031765Y1515155D02*
X2021765D01*
X2019765Y1517155D02*
G03X2021765Y1515155I2000J-0D01*
G01X2019765Y1517155D02*
Y1520155D01*
X2021765Y1522155D02*
G03X2019765Y1520155I0J-2000D01*
G01X2021765Y1522155D02*
X2031765D01*
X2033765Y1520155D02*
G03X2031765Y1522155I-2000J-0D01*
G01X2033765Y1520155D02*
Y1517155D01*
X1926123Y1602114D02*
X1918523D01*
X1918523D02*
Y1598514D01*
X1918523D02*
X1926123D01*
X1926123D02*
Y1602114D01*
X2076123Y1552614D02*
X2068523D01*
X2068523D02*
Y1549014D01*
X2068523D02*
X2076123D01*
X2076123D02*
Y1552614D01*
X2056119Y1536566D02*
X2048519D01*
X2048519D02*
Y1532966D01*
X2048519D02*
X2056119D01*
X2056119D02*
Y1536566D01*
X1916180Y1663814D02*
Y1656214D01*
X1916180D02*
X1919780D01*
X1919780D02*
Y1663814D01*
X1919780D02*
X1916180D01*
X1926123Y1567114D02*
X1918523D01*
X1918523D02*
Y1563514D01*
X1918523D02*
X1926123D01*
X1926123D02*
Y1567114D01*
X1827051Y1588739D02*
X1819451D01*
Y1585139*
X1827051*
Y1588739*
X2005959Y1533528D02*
Y1541128D01*
X2005959D02*
X2002359D01*
X2002359D02*
Y1533528D01*
X2002359D02*
X2005959D01*
X2056123Y1552814D02*
X2048523D01*
X2048523D02*
Y1549214D01*
X2048523D02*
X2056123D01*
X2056123D02*
Y1552814D01*
X2056141Y1562283D02*
X2048541D01*
X2048541D02*
Y1558683D01*
X2048541D02*
X2056141D01*
X2056141D02*
Y1562283D01*
X1946563Y1629574D02*
Y1621974D01*
X1946563D02*
X1950163D01*
X1950163D02*
Y1629574D01*
X1950163D02*
X1946563D01*
X1918547Y1567014D02*
X1926147D01*
X1926147D02*
Y1570614D01*
X1926147D02*
X1918547D01*
X1918547D02*
Y1567014D01*
X2076124Y1548340D02*
X2068524D01*
X2068524D02*
Y1544740D01*
X2068524D02*
X2076124D01*
X2076124D02*
Y1548340D01*
X1921178Y1629685D02*
G03X1920178Y1628685I-0J-1000D01*
G01Y1623085*
G03X1921178Y1622085I1000J-0*
G01X1922778*
G03X1923778Y1623085I-0J1000*
G01Y1628685*
G03X1922778Y1629685I-1000J-0*
G01X1921178*
X1903882Y1630487D02*
G03X1904882Y1631487I-0J1000D01*
G01Y1637087*
G03X1903882Y1638087I-1000J-0*
G01X1902282*
G03X1901282Y1637087I-0J-1000*
G01Y1631487*
G03X1902282Y1630487I1000J-0*
G01X1903882*
X1918354Y1621949D02*
G03X1919354Y1622949I0J1000D01*
G01Y1628549*
G03X1918354Y1629549I-1000J-0*
G01X1916754*
G03X1915754Y1628549I0J-1000*
G01Y1622949*
G03X1916754Y1621949I1000J-0*
G01X1918354*
X1910665Y1630407D02*
G03X1911665Y1631407I0J1000D01*
G01Y1637007*
G03X1910665Y1638007I-1000J-0*
G01X1909065*
G03X1908065Y1637007I0J-1000*
G01Y1631407*
G03X1909065Y1630407I1000J-0*
G01X1910665*
X1903691Y1620610D02*
G03X1901691Y1618610I-0J-2000D01*
G01X1903691Y1620610D02*
X1913691D01*
X1915691Y1618610D02*
G03X1913691Y1620610I-2000J0D01*
G01X1915691Y1618610D02*
Y1615610D01*
X1913691Y1613610D02*
G03X1915691Y1615610I-0J2000D01*
G01X1913691Y1613610D02*
X1903691D01*
X1901691Y1615610D02*
G03X1903691Y1613610I2000J0D01*
G01X1901691Y1615610D02*
Y1618610D01*
X2087651Y1598086D02*
X2080051D01*
X2080051D02*
Y1594486D01*
X2080051D02*
X2087651D01*
X2087651D02*
Y1598086D01*
Y1634086D02*
X2080051D01*
X2080051D02*
Y1630486D01*
X2080051D02*
X2087651D01*
X2087651D02*
Y1634086D01*
X2096651Y1622086D02*
X2089051D01*
X2089051D02*
Y1618486D01*
X2089051D02*
X2096651D01*
X2096651D02*
Y1622086D01*
Y1593586D02*
X2089051D01*
X2089051D02*
Y1589986D01*
X2089051D02*
X2096651D01*
X2096651D02*
Y1593586D01*
X2087651Y1589086D02*
X2080051D01*
X2080051D02*
Y1585486D01*
X2080051D02*
X2087651D01*
X2087651D02*
Y1589086D01*
X1938602Y1656309D02*
Y1663909D01*
X1938602D02*
X1935002D01*
X1935002D02*
Y1656309D01*
X1935002D02*
X1938602D01*
X1943084Y1656338D02*
Y1663938D01*
X1943084D02*
X1939484D01*
X1939484D02*
Y1656338D01*
X1939484D02*
X1943084D01*
X1952096Y1656361D02*
Y1663961D01*
X1952096D02*
X1948496D01*
X1948496D02*
Y1656361D01*
X1948496D02*
X1952096D01*
X1947596D02*
Y1663961D01*
X1947596D02*
X1943996D01*
X1943996D02*
Y1656361D01*
X1943996D02*
X1947596D01*
X2021702Y1656189D02*
Y1663789D01*
X2021702D02*
X2018102D01*
X2018102D02*
Y1656189D01*
X2018102D02*
X2021702D01*
X2017202D02*
Y1663789D01*
X2017202D02*
X2013602D01*
X2013602D02*
Y1656189D01*
X2013602D02*
X2017202D01*
X2063009Y1656430D02*
Y1664030D01*
X2063009D02*
X2059409D01*
X2059409D02*
Y1656430D01*
X2059409D02*
X2063009D01*
X2058509D02*
Y1664030D01*
X2058509D02*
X2054909D01*
X2054909D02*
Y1656430D01*
X2054909D02*
X2058509D01*
X2072065Y1656215D02*
Y1663815D01*
X2072065D02*
X2068465D01*
X2068465D02*
Y1656215D01*
X2068465D02*
X2072065D01*
X2067565D02*
Y1663815D01*
X2067565D02*
X2063965D01*
X2063965D02*
Y1656215D01*
X2063965D02*
X2067565D01*
X2087651Y1585086D02*
X2080051D01*
X2080051D02*
Y1581486D01*
X2080051D02*
X2087651D01*
X2087651D02*
Y1585086D01*
X2096651Y1589086D02*
X2089051D01*
X2089051D02*
Y1585486D01*
X2089051D02*
X2096651D01*
X2096651D02*
Y1589086D01*
X2087651Y1581086D02*
X2080051D01*
X2080051D02*
Y1577486D01*
X2080051D02*
X2087651D01*
X2087651D02*
Y1581086D01*
Y1622086D02*
X2080051D01*
X2080051D02*
Y1618486D01*
X2080051D02*
X2087651D01*
X2087651D02*
Y1622086D01*
X2096651Y1618086D02*
X2089051D01*
X2089051D02*
Y1614486D01*
X2089051D02*
X2096651D01*
X2096651D02*
Y1618086D01*
Y1598086D02*
X2089051D01*
X2089051D02*
Y1594486D01*
X2089051D02*
X2096651D01*
X2096651D02*
Y1598086D01*
Y1614086D02*
X2089051D01*
X2089051D02*
Y1610486D01*
X2089051D02*
X2096651D01*
X2096651D02*
Y1614086D01*
Y1630086D02*
X2089051D01*
X2089051D02*
Y1626486D01*
X2089051D02*
X2096651D01*
X2096651D02*
Y1630086D01*
Y1585086D02*
X2089051D01*
X2089051D02*
Y1581486D01*
X2089051D02*
X2096651D01*
X2096651D02*
Y1585086D01*
Y1581086D02*
X2089051D01*
X2089051D02*
Y1577486D01*
X2089051D02*
X2096651D01*
X2096651D02*
Y1581086D01*
Y1610086D02*
X2089051D01*
X2089051D02*
Y1606486D01*
X2089051D02*
X2096651D01*
X2096651D02*
Y1610086D01*
Y1606086D02*
X2089051D01*
X2089051D02*
Y1602486D01*
X2089051D02*
X2096651D01*
X2096651D02*
Y1606086D01*
Y1602086D02*
X2089051D01*
X2089051D02*
Y1598486D01*
X2089051D02*
X2096651D01*
X2096651D02*
Y1602086D01*
X2087651Y1593586D02*
X2080051D01*
X2080051D02*
Y1589986D01*
X2080051D02*
X2087651D01*
X2087651D02*
Y1593586D01*
X2096651Y1642586D02*
X2089051D01*
X2089051D02*
Y1638986D01*
X2089051D02*
X2096651D01*
X2096651D02*
Y1642586D01*
Y1638086D02*
X2089051D01*
X2089051D02*
Y1634486D01*
X2089051D02*
X2096651D01*
X2096651D02*
Y1638086D01*
Y1634086D02*
X2089051D01*
X2089051D02*
Y1630486D01*
X2089051D02*
X2096651D01*
X2096651D02*
Y1634086D01*
X2087651Y1630086D02*
X2080051D01*
X2080051D02*
Y1626486D01*
X2080051D02*
X2087651D01*
X2087651D02*
Y1630086D01*
X2096651Y1626086D02*
X2089051D01*
X2089051D02*
Y1622486D01*
X2089051D02*
X2096651D01*
X2096651D02*
Y1626086D01*
X1956123Y1610908D02*
X1948523D01*
X1948523D02*
Y1607308D01*
X1948523D02*
X1956123D01*
X1956123D02*
Y1610908D01*
X2087651Y1626086D02*
X2080051D01*
X2080051D02*
Y1622486D01*
X2080051D02*
X2087651D01*
X2087651D02*
Y1626086D01*
Y1638086D02*
X2080051D01*
X2080051D02*
Y1634486D01*
X2080051D02*
X2087651D01*
X2087651D02*
Y1638086D01*
Y1642586D02*
X2080051D01*
X2080051D02*
Y1638986D01*
X2080051D02*
X2087651D01*
X2087651D02*
Y1642586D01*
Y1602086D02*
X2080051D01*
X2080051D02*
Y1598486D01*
X2080051D02*
X2087651D01*
X2087651D02*
Y1602086D01*
Y1606086D02*
X2080051D01*
X2080051D02*
Y1602486D01*
X2080051D02*
X2087651D01*
X2087651D02*
Y1606086D01*
Y1610086D02*
X2080051D01*
X2080051D02*
Y1606486D01*
X2080051D02*
X2087651D01*
X2087651D02*
Y1610086D01*
Y1618086D02*
X2080051D01*
X2080051D02*
Y1614486D01*
X2080051D02*
X2087651D01*
X2087651D02*
Y1618086D01*
Y1614086D02*
X2080051D01*
X2080051D02*
Y1610486D01*
X2080051D02*
X2087651D01*
X2087651D02*
Y1614086D01*
X1939480Y1727872D02*
Y1718402D01*
X1939483Y1718400D02*
G03X1944483Y1718405I2497J2717D01*
G01X1944480Y1718402D02*
Y1727872D01*
X1944481Y1727871D02*
G03X1939480I-2501J-3763D01*
G01X1933480Y1727872D02*
Y1718402D01*
X1933483Y1718400D02*
G03X1938483Y1718405I2497J2717D01*
G01X1938480Y1718402D02*
Y1727872D01*
X1938481Y1727871D02*
G03X1933480I-2501J-3763D01*
G01X1916480Y1727530D02*
G03X1914480Y1729530I-2000J0D01*
G01X1916480Y1727530D02*
Y1717530D01*
X1914480Y1715530D02*
G03X1916480Y1717530I0J2000D01*
G01X1914480Y1715530D02*
X1911480D01*
X1909480Y1717530D02*
G03X1911480Y1715530I2000J0D01*
G01X1909480Y1717530D02*
Y1727530D01*
X1911480Y1729530D02*
G03X1909480Y1727530I0J-2000D01*
G01X1911480Y1729530D02*
X1914480D01*
X2060874Y1727739D02*
Y1718269D01*
X2060877Y1718267D02*
G03X2065877Y1718272I2497J2717D01*
G01X2065874Y1718269D02*
Y1727739D01*
X2065875Y1727738D02*
G03X2060874I-2501J-3763D01*
G01X1980024Y1727778D02*
Y1718308D01*
X1980027Y1718306D02*
G03X1985027Y1718311I2497J2717D01*
G01X1985024Y1718308D02*
Y1727778D01*
X1985025Y1727777D02*
G03X1980024I-2501J-3763D01*
G01X2054874Y1727739D02*
Y1718269D01*
X2054877Y1718267D02*
G03X2059877Y1718272I2497J2717D01*
G01X2059874Y1718269D02*
Y1727739D01*
X2059875Y1727738D02*
G03X2054874I-2501J-3763D01*
G01X1974024Y1727778D02*
Y1718308D01*
X1974027Y1718306D02*
G03X1979027Y1718311I2497J2717D01*
G01X1979024Y1718308D02*
Y1727778D01*
X1979025Y1727777D02*
G03X1974024I-2501J-3763D01*
G01X2037874Y1727397D02*
G03X2035874Y1729397I-2000J0D01*
G01X2037874Y1727397D02*
Y1717397D01*
X2035874Y1715397D02*
G03X2037874Y1717397I0J2000D01*
G01X2035874Y1715397D02*
X2032874D01*
X2030874Y1717397D02*
G03X2032874Y1715397I2000J0D01*
G01X2030874Y1717397D02*
Y1727397D01*
X2032874Y1729397D02*
G03X2030874Y1727397I0J-2000D01*
G01X2032874Y1729397D02*
X2035874D01*
X1957024Y1727436D02*
G03X1955024Y1729436I-2000J0D01*
G01X1957024Y1727436D02*
Y1717436D01*
X1955024Y1715436D02*
G03X1957024Y1717436I0J2000D01*
G01X1955024Y1715436D02*
X1952024D01*
X1950024Y1717436D02*
G03X1952024Y1715436I2000J0D01*
G01X1950024Y1717436D02*
Y1727436D01*
X1952024Y1729436D02*
G03X1950024Y1727436I0J-2000D01*
G01X1952024Y1729436D02*
X1955024D01*
X2101697Y1727725D02*
Y1718255D01*
X2101700Y1718253D02*
G03X2106700Y1718258I2497J2717D01*
G01X2106697Y1718255D02*
Y1727725D01*
X2106698Y1727724D02*
G03X2101697I-2501J-3763D01*
G01X2020345Y1727695D02*
Y1718225D01*
X2020348Y1718223D02*
G03X2025348Y1718228I2497J2717D01*
G01X2025345Y1718225D02*
Y1727695D01*
X2025346Y1727694D02*
G03X2020345I-2501J-3763D01*
G01X2095697Y1727725D02*
Y1718255D01*
X2095700Y1718253D02*
G03X2100700Y1718258I2497J2717D01*
G01X2100697Y1718255D02*
Y1727725D01*
X2100698Y1727724D02*
G03X2095697I-2501J-3763D01*
G01X2014345Y1727695D02*
Y1718225D01*
X2014348Y1718223D02*
G03X2019348Y1718228I2497J2717D01*
G01X2019345Y1718225D02*
Y1727695D01*
X2019346Y1727694D02*
G03X2014345I-2501J-3763D01*
G01X2078697Y1727383D02*
G03X2076697Y1729383I-2000J0D01*
G01X2078697Y1727383D02*
Y1717383D01*
X2076697Y1715383D02*
G03X2078697Y1717383I0J2000D01*
G01X2076697Y1715383D02*
X2073697D01*
X2071697Y1717383D02*
G03X2073697Y1715383I2000J0D01*
G01X2071697Y1717383D02*
Y1727383D01*
X2073697Y1729383D02*
G03X2071697Y1727383I0J-2000D01*
G01X2073697Y1729383D02*
X2076697D01*
X1997345Y1727353D02*
G03X1995345Y1729353I-2000J0D01*
G01X1997345Y1727353D02*
Y1717353D01*
X1995345Y1715353D02*
G03X1997345Y1717353I0J2000D01*
G01X1995345Y1715353D02*
X1992345D01*
X1990345Y1717353D02*
G03X1992345Y1715353I2000J0D01*
G01X1990345Y1717353D02*
Y1727353D01*
X1992345Y1729353D02*
G03X1990345Y1727353I0J-2000D01*
G01X1992345Y1729353D02*
X1995345D01*
X1781961Y1418892D02*
X2218040D01*
X2218040D02*
Y1781108D01*
X2218040D02*
X1781961D01*
X1781961D02*
Y1418892D01*
X1927835Y1660439D02*
Y1664189D01*
X2027835Y1660439D02*
Y1664189D01*
X2059032Y1660515D02*
Y1664265D01*
G54D53*
G54D413*
X1964512Y1591142D02*
X2002012D01*
X2002012D02*
Y1549142D01*
X2002012D02*
X1964512D01*
X1964512D02*
Y1591142D01*
X2017512Y1635142D02*
X2058012D01*
X2058012D02*
Y1593142D01*
X2058012D02*
X2017512D01*
X2017512D02*
Y1635142D01*
X2017012Y1592642D02*
X2004262Y1579892D01*
X2079012Y1593642D02*
Y1576642D01*
X2079012D02*
X2083512D01*
X2083512D02*
Y1561642D01*
G54D770*
X1874492Y1648032D02*
X1874499D01*
X1874478Y1648011D02*
X1874513D01*
X1817848Y1615101D02*
X1817876D01*
X1819465Y1616011D02*
X1818408Y1616060D01*
X1818408D02*
X1819549D01*
G74*
X0Y0D02*
M02*
