*
*
G04 PADS 9.5 Build Number: 522968 generated Gerber (RS-274-X) file*
G04 PC Version=2.1*
*
%IN "3DP_V10-1116.pcb"*%
*
%MOIN*%
*
%FSLAX35Y35*%
*
*
*
*
G04 PC Standard Apertures*
*
*
G04 Thermal Relief Aperture macro.*
%AMTER*
1,1,$1,0,0*
1,0,$1-$2,0,0*
21,0,$3,$4,0,0,45*
21,0,$3,$4,0,0,135*
%
*
*
G04 Annular Aperture macro.*
%AMANN*
1,1,$1,0,0*
1,0,$2,0,0*
%
*
*
G04 Odd Aperture macro.*
%AMODD*
1,1,$1,0,0*
1,0,$1-0.005,0,0*
%
*
*
G04 PC Custom Aperture Macros*
*
*
*
*
*
*
G04 PC Aperture Table*
*
%ADD016C,0.01*%
%ADD033C,0.05*%
%ADD044C,0.005*%
%ADD052C,0.015*%
%ADD053C,0.001*%
%ADD076R,0.07X0.07*%
%ADD080C,0.07*%
%ADD477C,0.075*%
%ADD508C,0.10843*%
%ADD513C,0.12811*%
%ADD526C,0.1*%
%ADD555C,0.12*%
%ADD822R,0.06X0.02*%
%ADD823R,0.04543X0.02575*%
%ADD824R,0.03X0.03*%
%ADD825O,0.145X0.09*%
%ADD826C,0.185*%
%ADD827R,0.07X0.07*%
%ADD828R,0.055X0.085*%
%ADD829O,0.06906X0.022*%
%ADD830R,0.12811X0.12024*%
%ADD831R,0.06X0.055*%
%ADD832R,0.055X0.06*%
%ADD833R,0.08X0.095*%
%ADD834R,0.10449X0.06906*%
%ADD835R,0.10449X0.15961*%
%ADD836O,0.0474X0.05528*%
%ADD837O,0.09268X0.0474*%
%ADD838R,0.12024X0.12811*%
%ADD839R,0.042X0.045*%
%ADD840R,0.12811X0.12811*%
*
*
*
*
G04 PC Circuitry*
G04 Layer Name 3DP_V10-1116.pcb - circuitry*
%LPD*%
*
*
G04 PC Custom Flashes*
G04 Layer Name 3DP_V10-1116.pcb - flashes*
%LPD*%
*
*
G04 PC Circuitry*
G04 Layer Name 3DP_V10-1116.pcb - circuitry*
%LPD*%
*
G54D16*
G01X1910983Y1514322D02*
Y1510822D01*
X1909983Y1509822*
X1906983*
X1905983Y1510822*
Y1514322*
X1910983*
X1906483Y1510322D02*
Y1514322D01*
X1906983Y1509822D02*
Y1514322D01*
X1907483Y1509822D02*
Y1514322D01*
X1907983Y1509822D02*
Y1514322D01*
X1908483Y1509822D02*
Y1514322D01*
X1908983Y1509822D02*
Y1514322D01*
X1909483Y1509822D02*
Y1514322D01*
X1909983Y1509822D02*
Y1514322D01*
X1910483Y1510322D02*
Y1514322D01*
X1910983Y1510822D02*
Y1514322D01*
Y1517322D02*
X1905983D01*
Y1520822*
X1906983Y1521822*
X1909983*
X1910983Y1520822*
Y1517322*
X1906483D02*
Y1521322D01*
X1906983Y1517322D02*
Y1521822D01*
X1907483Y1517322D02*
Y1521822D01*
X1907983Y1517322D02*
Y1521822D01*
X1908483Y1517322D02*
Y1521822D01*
X1908983Y1517322D02*
Y1521822D01*
X1909483Y1517322D02*
Y1521822D01*
X1909983Y1517322D02*
Y1521822D01*
X1910483Y1517322D02*
Y1521322D01*
X1910983Y1517322D02*
Y1520822D01*
X1795359Y1518786D02*
X1791859D01*
X1790859Y1519786*
Y1522786*
X1791859Y1523786*
X1795359*
Y1518786*
X1790863Y1519783D02*
Y1522790D01*
X1791363Y1519283D02*
Y1523290D01*
X1791863Y1518786D02*
Y1523786D01*
X1792363Y1518786D02*
Y1523786D01*
X1792863Y1518786D02*
Y1523786D01*
X1793363Y1518786D02*
Y1523786D01*
X1793863Y1518786D02*
Y1523786D01*
X1794363Y1518786D02*
Y1523786D01*
X1794863Y1518786D02*
Y1523786D01*
X1798359Y1518786D02*
Y1523786D01*
X1801859*
X1802859Y1522786*
Y1519786*
X1801859Y1518786*
X1798359*
X1798363D02*
Y1523786D01*
X1798863Y1518786D02*
Y1523786D01*
X1799363Y1518786D02*
Y1523786D01*
X1799863Y1518786D02*
Y1523786D01*
X1800363Y1518786D02*
Y1523786D01*
X1800863Y1518786D02*
Y1523786D01*
X1801363Y1518786D02*
Y1523786D01*
X1801863Y1518790D02*
Y1523783D01*
X1802363Y1519290D02*
Y1523283D01*
X2042778Y1473943D02*
X2046278D01*
X2047278Y1472943*
Y1469943*
X2046278Y1468943*
X2042778*
Y1473943*
X2043274Y1468943D02*
Y1473943D01*
X2043774Y1468943D02*
Y1473943D01*
X2044274Y1468943D02*
Y1473943D01*
X2044774Y1468943D02*
Y1473943D01*
X2045274Y1468943D02*
Y1473943D01*
X2045774Y1468943D02*
Y1473943D01*
X2046274Y1468943D02*
Y1473943D01*
X2046774Y1469440D02*
Y1473447D01*
X2047274Y1469940D02*
Y1472947D01*
X2039778Y1473943D02*
Y1468943D01*
X2036278*
X2035278Y1469943*
Y1472943*
X2036278Y1473943*
X2039778*
X2035774Y1469447D02*
Y1473440D01*
X2036274Y1468947D02*
Y1473940D01*
X2036774Y1468943D02*
Y1473943D01*
X2037274Y1468943D02*
Y1473943D01*
X2037774Y1468943D02*
Y1473943D01*
X2038274Y1468943D02*
Y1473943D01*
X2038774Y1468943D02*
Y1473943D01*
X2039274Y1468943D02*
Y1473943D01*
X2039774Y1468943D02*
Y1473943D01*
X1913084Y1502318D02*
Y1505818D01*
X1914084Y1506818*
X1917084*
X1918084Y1505818*
Y1502318*
X1913084*
X1913084D02*
Y1505818D01*
X1913584Y1502318D02*
Y1506318D01*
X1914084Y1502318D02*
Y1506818D01*
X1914584Y1502318D02*
Y1506818D01*
X1915084Y1502318D02*
Y1506818D01*
X1915584Y1502318D02*
Y1506818D01*
X1916084Y1502318D02*
Y1506818D01*
X1916584Y1502318D02*
Y1506818D01*
X1917084Y1502318D02*
Y1506818D01*
X1917584Y1502318D02*
Y1506318D01*
X1913084Y1499318D02*
X1918084D01*
Y1495818*
X1917084Y1494818*
X1914084*
X1913084Y1495818*
Y1499318*
Y1495818D02*
Y1499318D01*
X1913584Y1495318D02*
Y1499318D01*
X1914084Y1494818D02*
Y1499318D01*
X1914584Y1494818D02*
Y1499318D01*
X1915084Y1494818D02*
Y1499318D01*
X1915584Y1494818D02*
Y1499318D01*
X1916084Y1494818D02*
Y1499318D01*
X1916584Y1494818D02*
Y1499318D01*
X1917084Y1494818D02*
Y1499318D01*
X1917584Y1495318D02*
Y1499318D01*
X1895795Y1499561D02*
Y1496061D01*
X1894795Y1495061*
X1891795*
X1890795Y1496061*
Y1499561*
X1895795*
X1891295Y1495561D02*
Y1499561D01*
X1891795Y1495061D02*
Y1499561D01*
X1892295Y1495061D02*
Y1499561D01*
X1892795Y1495061D02*
Y1499561D01*
X1893295Y1495061D02*
Y1499561D01*
X1893795Y1495061D02*
Y1499561D01*
X1894295Y1495061D02*
Y1499561D01*
X1894795Y1495061D02*
Y1499561D01*
X1895295Y1495561D02*
Y1499561D01*
X1895795Y1496061D02*
Y1499561D01*
Y1502561D02*
X1890795D01*
Y1506061*
X1891795Y1507061*
X1894795*
X1895795Y1506061*
Y1502561*
X1891295D02*
Y1506561D01*
X1891795Y1502561D02*
Y1507061D01*
X1892295Y1502561D02*
Y1507061D01*
X1892795Y1502561D02*
Y1507061D01*
X1893295Y1502561D02*
Y1507061D01*
X1893795Y1502561D02*
Y1507061D01*
X1894295Y1502561D02*
Y1507061D01*
X1894795Y1502561D02*
Y1507061D01*
X1895295Y1502561D02*
Y1506561D01*
X1895795Y1502561D02*
Y1506061D01*
X2075366Y1504787D02*
X2078866D01*
X2079866Y1503787*
Y1500787*
X2078866Y1499787*
X2075366*
Y1504787*
X2075863Y1499787D02*
Y1504787D01*
X2076363Y1499787D02*
Y1504787D01*
X2076863Y1499787D02*
Y1504787D01*
X2077363Y1499787D02*
Y1504787D01*
X2077863Y1499787D02*
Y1504787D01*
X2078363Y1499787D02*
Y1504787D01*
X2078863Y1499787D02*
Y1504787D01*
X2079363Y1500283D02*
Y1504290D01*
X2079863Y1500783D02*
Y1503790D01*
X2072366Y1504787D02*
Y1499787D01*
X2068866*
X2067866Y1500787*
Y1503787*
X2068866Y1504787*
X2072366*
X2068363Y1500290D02*
Y1504283D01*
X2068863Y1499790D02*
Y1504783D01*
X2069363Y1499787D02*
Y1504787D01*
X2069863Y1499787D02*
Y1504787D01*
X2070363Y1499787D02*
Y1504787D01*
X2070863Y1499787D02*
Y1504787D01*
X2071363Y1499787D02*
Y1504787D01*
X2071863Y1499787D02*
Y1504787D01*
X2072363Y1499787D02*
Y1504787D01*
X1918816Y1514313D02*
Y1510813D01*
X1917816Y1509813*
X1914816*
X1913816Y1510813*
Y1514313*
X1918816*
X1914316Y1510313D02*
Y1514313D01*
X1914816Y1509813D02*
Y1514313D01*
X1915316Y1509813D02*
Y1514313D01*
X1915816Y1509813D02*
Y1514313D01*
X1916316Y1509813D02*
Y1514313D01*
X1916816Y1509813D02*
Y1514313D01*
X1917316Y1509813D02*
Y1514313D01*
X1917816Y1509813D02*
Y1514313D01*
X1918316Y1510313D02*
Y1514313D01*
X1918816Y1510813D02*
Y1514313D01*
Y1517313D02*
X1913816D01*
Y1520813*
X1914816Y1521813*
X1917816*
X1918816Y1520813*
Y1517313*
X1914316D02*
Y1521313D01*
X1914816Y1517313D02*
Y1521813D01*
X1915316Y1517313D02*
Y1521813D01*
X1915816Y1517313D02*
Y1521813D01*
X1916316Y1517313D02*
Y1521813D01*
X1916816Y1517313D02*
Y1521813D01*
X1917316Y1517313D02*
Y1521813D01*
X1917816Y1517313D02*
Y1521813D01*
X1918316Y1517313D02*
Y1521313D01*
X1918816Y1517313D02*
Y1520813D01*
X2071338Y1591065D02*
X2074838D01*
X2075838Y1590065*
Y1587065*
X2074838Y1586065*
X2071338*
Y1591065*
X2071835Y1586065D02*
Y1591065D01*
X2072335Y1586065D02*
Y1591065D01*
X2072835Y1586065D02*
Y1591065D01*
X2073335Y1586065D02*
Y1591065D01*
X2073835Y1586065D02*
Y1591065D01*
X2074335Y1586065D02*
Y1591065D01*
X2074835Y1586065D02*
Y1591065D01*
X2075335Y1586561D02*
Y1590568D01*
X2075835Y1587061D02*
Y1590068D01*
X2068338Y1591065D02*
Y1586065D01*
X2064838*
X2063838Y1587065*
Y1590065*
X2064838Y1591065*
X2068338*
X2064335Y1586568D02*
Y1590561D01*
X2064835Y1586068D02*
Y1591061D01*
X2065335Y1586065D02*
Y1591065D01*
X2065835Y1586065D02*
Y1591065D01*
X2066335Y1586065D02*
Y1591065D01*
X2066835Y1586065D02*
Y1591065D01*
X2067335Y1586065D02*
Y1591065D01*
X2067835Y1586065D02*
Y1591065D01*
X2068335Y1586065D02*
Y1591065D01*
X2071338Y1528565D02*
X2074838D01*
X2075838Y1527565*
Y1524565*
X2074838Y1523565*
X2071338*
Y1528565*
X2071835Y1523565D02*
Y1528565D01*
X2072335Y1523565D02*
Y1528565D01*
X2072835Y1523565D02*
Y1528565D01*
X2073335Y1523565D02*
Y1528565D01*
X2073835Y1523565D02*
Y1528565D01*
X2074335Y1523565D02*
Y1528565D01*
X2074835Y1523565D02*
Y1528565D01*
X2075335Y1524061D02*
Y1528068D01*
X2075835Y1524561D02*
Y1527568D01*
X2068338Y1528565D02*
Y1523565D01*
X2064838*
X2063838Y1524565*
Y1527565*
X2064838Y1528565*
X2068338*
X2064335Y1524068D02*
Y1528061D01*
X2064835Y1523568D02*
Y1528561D01*
X2065335Y1523565D02*
Y1528565D01*
X2065835Y1523565D02*
Y1528565D01*
X2066335Y1523565D02*
Y1528565D01*
X2066835Y1523565D02*
Y1528565D01*
X2067335Y1523565D02*
Y1528565D01*
X2067835Y1523565D02*
Y1528565D01*
X2068335Y1523565D02*
Y1528565D01*
X2042778Y1481443D02*
X2046278D01*
X2047278Y1480443*
Y1477443*
X2046278Y1476443*
X2042778*
Y1481443*
X2043274Y1476443D02*
Y1481443D01*
X2043774Y1476443D02*
Y1481443D01*
X2044274Y1476443D02*
Y1481443D01*
X2044774Y1476443D02*
Y1481443D01*
X2045274Y1476443D02*
Y1481443D01*
X2045774Y1476443D02*
Y1481443D01*
X2046274Y1476443D02*
Y1481443D01*
X2046774Y1476940D02*
Y1480947D01*
X2047274Y1477440D02*
Y1480447D01*
X2039778Y1481443D02*
Y1476443D01*
X2036278*
X2035278Y1477443*
Y1480443*
X2036278Y1481443*
X2039778*
X2035774Y1476947D02*
Y1480940D01*
X2036274Y1476447D02*
Y1481440D01*
X2036774Y1476443D02*
Y1481443D01*
X2037274Y1476443D02*
Y1481443D01*
X2037774Y1476443D02*
Y1481443D01*
X2038274Y1476443D02*
Y1481443D01*
X2038774Y1476443D02*
Y1481443D01*
X2039274Y1476443D02*
Y1481443D01*
X2039774Y1476443D02*
Y1481443D01*
X1938838Y1608565D02*
X1942338D01*
X1943338Y1607565*
Y1604565*
X1942338Y1603565*
X1938838*
Y1608565*
X1939334Y1603565D02*
Y1608565D01*
X1939834Y1603565D02*
Y1608565D01*
X1940334Y1603565D02*
Y1608565D01*
X1940834Y1603565D02*
Y1608565D01*
X1941334Y1603565D02*
Y1608565D01*
X1941834Y1603565D02*
Y1608565D01*
X1942334Y1603565D02*
Y1608565D01*
X1942834Y1604061D02*
Y1608068D01*
X1943334Y1604561D02*
Y1607568D01*
X1935838Y1608565D02*
Y1603565D01*
X1932338*
X1931338Y1604565*
Y1607565*
X1932338Y1608565*
X1935838*
X1931834Y1604068D02*
Y1608061D01*
X1932334Y1603568D02*
Y1608561D01*
X1932834Y1603565D02*
Y1608565D01*
X1933334Y1603565D02*
Y1608565D01*
X1933834Y1603565D02*
Y1608565D01*
X1934334Y1603565D02*
Y1608565D01*
X1934834Y1603565D02*
Y1608565D01*
X1935334Y1603565D02*
Y1608565D01*
X1935834Y1603565D02*
Y1608565D01*
X1921960Y1502258D02*
Y1505758D01*
X1922960Y1506758*
X1925960*
X1926960Y1505758*
Y1502258*
X1921960*
X1921961D02*
Y1505758D01*
X1922461Y1502258D02*
Y1506258D01*
X1922961Y1502258D02*
Y1506758D01*
X1923461Y1502258D02*
Y1506758D01*
X1923961Y1502258D02*
Y1506758D01*
X1924461Y1502258D02*
Y1506758D01*
X1924961Y1502258D02*
Y1506758D01*
X1925461Y1502258D02*
Y1506758D01*
X1925961Y1502258D02*
Y1506758D01*
X1926461Y1502258D02*
Y1506258D01*
X1921960Y1499258D02*
X1926960D01*
Y1495758*
X1925960Y1494758*
X1922960*
X1921960Y1495758*
Y1499258*
X1921961Y1495758D02*
Y1499258D01*
X1922461Y1495258D02*
Y1499258D01*
X1922961Y1494758D02*
Y1499258D01*
X1923461Y1494758D02*
Y1499258D01*
X1923961Y1494758D02*
Y1499258D01*
X1924461Y1494758D02*
Y1499258D01*
X1924961Y1494758D02*
Y1499258D01*
X1925461Y1494758D02*
Y1499258D01*
X1925961Y1494758D02*
Y1499258D01*
X1926461Y1495258D02*
Y1499258D01*
X1935831Y1569314D02*
X1932331D01*
X1931331Y1570314*
Y1573314*
X1932331Y1574314*
X1935831*
Y1569314*
X1931334Y1570311D02*
Y1573318D01*
X1931834Y1569811D02*
Y1573818D01*
X1932334Y1569314D02*
Y1574314D01*
X1932834Y1569314D02*
Y1574314D01*
X1933334Y1569314D02*
Y1574314D01*
X1933834Y1569314D02*
Y1574314D01*
X1934334Y1569314D02*
Y1574314D01*
X1934834Y1569314D02*
Y1574314D01*
X1935334Y1569314D02*
Y1574314D01*
X1938831Y1569314D02*
Y1574314D01*
X1942331*
X1943331Y1573314*
Y1570314*
X1942331Y1569314*
X1938831*
X1938834D02*
Y1574314D01*
X1939334Y1569314D02*
Y1574314D01*
X1939834Y1569314D02*
Y1574314D01*
X1940334Y1569314D02*
Y1574314D01*
X1940834Y1569314D02*
Y1574314D01*
X1941334Y1569314D02*
Y1574314D01*
X1941834Y1569314D02*
Y1574314D01*
X1942334Y1569318D02*
Y1574311D01*
X1942834Y1569818D02*
Y1573811D01*
X1935831Y1557814D02*
X1932331D01*
X1931331Y1558814*
Y1561814*
X1932331Y1562814*
X1935831*
Y1557814*
X1931334Y1558811D02*
Y1561818D01*
X1931834Y1558311D02*
Y1562318D01*
X1932334Y1557814D02*
Y1562814D01*
X1932834Y1557814D02*
Y1562814D01*
X1933334Y1557814D02*
Y1562814D01*
X1933834Y1557814D02*
Y1562814D01*
X1934334Y1557814D02*
Y1562814D01*
X1934834Y1557814D02*
Y1562814D01*
X1935334Y1557814D02*
Y1562814D01*
X1938831Y1557814D02*
Y1562814D01*
X1942331*
X1943331Y1561814*
Y1558814*
X1942331Y1557814*
X1938831*
X1938834D02*
Y1562814D01*
X1939334Y1557814D02*
Y1562814D01*
X1939834Y1557814D02*
Y1562814D01*
X1940334Y1557814D02*
Y1562814D01*
X1940834Y1557814D02*
Y1562814D01*
X1941334Y1557814D02*
Y1562814D01*
X1941834Y1557814D02*
Y1562814D01*
X1942334Y1557818D02*
Y1562811D01*
X1942834Y1558318D02*
Y1562311D01*
X1929474Y1502229D02*
Y1505729D01*
X1930474Y1506729*
X1933474*
X1934474Y1505729*
Y1502229*
X1929474*
X1929475D02*
Y1505729D01*
X1929975Y1502229D02*
Y1506229D01*
X1930475Y1502229D02*
Y1506729D01*
X1930975Y1502229D02*
Y1506729D01*
X1931475Y1502229D02*
Y1506729D01*
X1931975Y1502229D02*
Y1506729D01*
X1932475Y1502229D02*
Y1506729D01*
X1932975Y1502229D02*
Y1506729D01*
X1933475Y1502229D02*
Y1506729D01*
X1933975Y1502229D02*
Y1506229D01*
X1929474Y1499229D02*
X1934474D01*
Y1495729*
X1933474Y1494729*
X1930474*
X1929474Y1495729*
Y1499229*
X1929475Y1495729D02*
Y1499229D01*
X1929975Y1495229D02*
Y1499229D01*
X1930475Y1494729D02*
Y1499229D01*
X1930975Y1494729D02*
Y1499229D01*
X1931475Y1494729D02*
Y1499229D01*
X1931975Y1494729D02*
Y1499229D01*
X1932475Y1494729D02*
Y1499229D01*
X1932975Y1494729D02*
Y1499229D01*
X1933475Y1494729D02*
Y1499229D01*
X1933975Y1495229D02*
Y1499229D01*
X1895585Y1514311D02*
Y1510811D01*
X1894585Y1509811*
X1891585*
X1890585Y1510811*
Y1514311*
X1895585*
X1891084Y1510311D02*
Y1514311D01*
X1891584Y1509811D02*
Y1514311D01*
X1892084Y1509811D02*
Y1514311D01*
X1892584Y1509811D02*
Y1514311D01*
X1893084Y1509811D02*
Y1514311D01*
X1893584Y1509811D02*
Y1514311D01*
X1894084Y1509811D02*
Y1514311D01*
X1894584Y1509811D02*
Y1514311D01*
X1895084Y1510311D02*
Y1514311D01*
X1895584Y1510811D02*
Y1514311D01*
X1895585Y1517311D02*
X1890585D01*
Y1520811*
X1891585Y1521811*
X1894585*
X1895585Y1520811*
Y1517311*
X1891084D02*
Y1521311D01*
X1891584Y1517311D02*
Y1521811D01*
X1892084Y1517311D02*
Y1521811D01*
X1892584Y1517311D02*
Y1521811D01*
X1893084Y1517311D02*
Y1521811D01*
X1893584Y1517311D02*
Y1521811D01*
X1894084Y1517311D02*
Y1521811D01*
X1894584Y1517311D02*
Y1521811D01*
X1895084Y1517311D02*
Y1521311D01*
X1895584Y1517311D02*
Y1520811D01*
X1903085Y1514311D02*
Y1510811D01*
X1902085Y1509811*
X1899085*
X1898085Y1510811*
Y1514311*
X1903085*
X1898584Y1510311D02*
Y1514311D01*
X1899084Y1509811D02*
Y1514311D01*
X1899584Y1509811D02*
Y1514311D01*
X1900084Y1509811D02*
Y1514311D01*
X1900584Y1509811D02*
Y1514311D01*
X1901084Y1509811D02*
Y1514311D01*
X1901584Y1509811D02*
Y1514311D01*
X1902084Y1509811D02*
Y1514311D01*
X1902584Y1510311D02*
Y1514311D01*
X1903084Y1510811D02*
Y1514311D01*
X1903085Y1517311D02*
X1898085D01*
Y1520811*
X1899085Y1521811*
X1902085*
X1903085Y1520811*
Y1517311*
X1898584D02*
Y1521311D01*
X1899084Y1517311D02*
Y1521811D01*
X1899584Y1517311D02*
Y1521811D01*
X1900084Y1517311D02*
Y1521811D01*
X1900584Y1517311D02*
Y1521811D01*
X1901084Y1517311D02*
Y1521811D01*
X1901584Y1517311D02*
Y1521811D01*
X1902084Y1517311D02*
Y1521811D01*
X1902584Y1517311D02*
Y1521311D01*
X1903084Y1517311D02*
Y1520811D01*
X1896338Y1593815D02*
X1899838D01*
X1900838Y1592815*
Y1589815*
X1899838Y1588815*
X1896338*
Y1593815*
X1896835Y1588815D02*
Y1593815D01*
X1897335Y1588815D02*
Y1593815D01*
X1897835Y1588815D02*
Y1593815D01*
X1898335Y1588815D02*
Y1593815D01*
X1898835Y1588815D02*
Y1593815D01*
X1899335Y1588815D02*
Y1593815D01*
X1899835Y1588815D02*
Y1593815D01*
X1900335Y1589311D02*
Y1593318D01*
X1900835Y1589811D02*
Y1592818D01*
X1893338Y1593815D02*
Y1588815D01*
X1889838*
X1888838Y1589815*
Y1592815*
X1889838Y1593815*
X1893338*
X1889335Y1589318D02*
Y1593311D01*
X1889835Y1588818D02*
Y1593811D01*
X1890335Y1588815D02*
Y1593815D01*
X1890835Y1588815D02*
Y1593815D01*
X1891335Y1588815D02*
Y1593815D01*
X1891835Y1588815D02*
Y1593815D01*
X1892335Y1588815D02*
Y1593815D01*
X1892835Y1588815D02*
Y1593815D01*
X1893335Y1588815D02*
Y1593815D01*
X1905584Y1502318D02*
Y1505818D01*
X1906584Y1506818*
X1909584*
X1910584Y1505818*
Y1502318*
X1905584*
X1905584D02*
Y1505818D01*
X1906084Y1502318D02*
Y1506318D01*
X1906584Y1502318D02*
Y1506818D01*
X1907084Y1502318D02*
Y1506818D01*
X1907584Y1502318D02*
Y1506818D01*
X1908084Y1502318D02*
Y1506818D01*
X1908584Y1502318D02*
Y1506818D01*
X1909084Y1502318D02*
Y1506818D01*
X1909584Y1502318D02*
Y1506818D01*
X1910084Y1502318D02*
Y1506318D01*
X1905584Y1499318D02*
X1910584D01*
Y1495818*
X1909584Y1494818*
X1906584*
X1905584Y1495818*
Y1499318*
Y1495818D02*
Y1499318D01*
X1906084Y1495318D02*
Y1499318D01*
X1906584Y1494818D02*
Y1499318D01*
X1907084Y1494818D02*
Y1499318D01*
X1907584Y1494818D02*
Y1499318D01*
X1908084Y1494818D02*
Y1499318D01*
X1908584Y1494818D02*
Y1499318D01*
X1909084Y1494818D02*
Y1499318D01*
X1909584Y1494818D02*
Y1499318D01*
X1910084Y1495318D02*
Y1499318D01*
X2017335Y1533311D02*
Y1529811D01*
X2016335Y1528811*
X2013335*
X2012335Y1529811*
Y1533311*
X2017335*
X2012835Y1529311D02*
Y1533311D01*
X2013335Y1528811D02*
Y1533311D01*
X2013835Y1528811D02*
Y1533311D01*
X2014335Y1528811D02*
Y1533311D01*
X2014835Y1528811D02*
Y1533311D01*
X2015335Y1528811D02*
Y1533311D01*
X2015835Y1528811D02*
Y1533311D01*
X2016335Y1528811D02*
Y1533311D01*
X2016835Y1529311D02*
Y1533311D01*
X2017335Y1529811D02*
Y1533311D01*
Y1536311D02*
X2012335D01*
Y1539811*
X2013335Y1540811*
X2016335*
X2017335Y1539811*
Y1536311*
X2012835D02*
Y1540311D01*
X2013335Y1536311D02*
Y1540811D01*
X2013835Y1536311D02*
Y1540811D01*
X2014335Y1536311D02*
Y1540811D01*
X2014835Y1536311D02*
Y1540811D01*
X2015335Y1536311D02*
Y1540811D01*
X2015835Y1536311D02*
Y1540811D01*
X2016335Y1536311D02*
Y1540811D01*
X2016835Y1536311D02*
Y1540311D01*
X2017335Y1536311D02*
Y1539811D01*
X2028265Y1521155D02*
X2031765D01*
X2032765Y1520155*
Y1517155*
X2031765Y1516155*
X2028265*
Y1521155*
X2028762Y1516155D02*
Y1521155D01*
X2029262Y1516155D02*
Y1521155D01*
X2029762Y1516155D02*
Y1521155D01*
X2030262Y1516155D02*
Y1521155D01*
X2030762Y1516155D02*
Y1521155D01*
X2031262Y1516155D02*
Y1521155D01*
X2031762Y1516155D02*
Y1521155D01*
X2032262Y1516651D02*
Y1520658D01*
X2032762Y1517151D02*
Y1520158D01*
X2025265Y1521155D02*
Y1516155D01*
X2021765*
X2020765Y1517155*
Y1520155*
X2021765Y1521155*
X2025265*
X2021262Y1516658D02*
Y1520651D01*
X2021762Y1516158D02*
Y1521151D01*
X2022262Y1516155D02*
Y1521155D01*
X2022762Y1516155D02*
Y1521155D01*
X2023262Y1516155D02*
Y1521155D01*
X2023762Y1516155D02*
Y1521155D01*
X2024262Y1516155D02*
Y1521155D01*
X2024762Y1516155D02*
Y1521155D01*
X2025262Y1516155D02*
Y1521155D01*
X1907191Y1614610D02*
X1903691D01*
X1902691Y1615610*
Y1618610*
X1903691Y1619610*
X1907191*
Y1614610*
X1902695Y1615607D02*
Y1618614D01*
X1903195Y1615107D02*
Y1619114D01*
X1903695Y1614610D02*
Y1619610D01*
X1904195Y1614610D02*
Y1619610D01*
X1904695Y1614610D02*
Y1619610D01*
X1905195Y1614610D02*
Y1619610D01*
X1905695Y1614610D02*
Y1619610D01*
X1906195Y1614610D02*
Y1619610D01*
X1906695Y1614610D02*
Y1619610D01*
X1910191Y1614610D02*
Y1619610D01*
X1913691*
X1914691Y1618610*
Y1615610*
X1913691Y1614610*
X1910191*
X1910195D02*
Y1619610D01*
X1910695Y1614610D02*
Y1619610D01*
X1911195Y1614610D02*
Y1619610D01*
X1911695Y1614610D02*
Y1619610D01*
X1912195Y1614610D02*
Y1619610D01*
X1912695Y1614610D02*
Y1619610D01*
X1913195Y1614610D02*
Y1619610D01*
X1913695Y1614614D02*
Y1619607D01*
X1914195Y1615114D02*
Y1619107D01*
X1910480Y1724030D02*
Y1727530D01*
X1911480Y1728530*
X1914480*
X1915480Y1727530*
Y1724030*
X1910480*
X1910480D02*
Y1727530D01*
X1910980Y1724030D02*
Y1728030D01*
X1911480Y1724030D02*
Y1728530D01*
X1911980Y1724030D02*
Y1728530D01*
X1912480Y1724030D02*
Y1728530D01*
X1912980Y1724030D02*
Y1728530D01*
X1913480Y1724030D02*
Y1728530D01*
X1913980Y1724030D02*
Y1728530D01*
X1914480Y1724030D02*
Y1728530D01*
X1914980Y1724030D02*
Y1728030D01*
X1910480Y1721030D02*
X1915480D01*
Y1717530*
X1914480Y1716530*
X1911480*
X1910480Y1717530*
Y1721030*
Y1717530D02*
Y1721030D01*
X1910980Y1717030D02*
Y1721030D01*
X1911480Y1716530D02*
Y1721030D01*
X1911980Y1716530D02*
Y1721030D01*
X1912480Y1716530D02*
Y1721030D01*
X1912980Y1716530D02*
Y1721030D01*
X1913480Y1716530D02*
Y1721030D01*
X1913980Y1716530D02*
Y1721030D01*
X1914480Y1716530D02*
Y1721030D01*
X1914980Y1717030D02*
Y1721030D01*
X2031874Y1723897D02*
Y1727397D01*
X2032874Y1728397*
X2035874*
X2036874Y1727397*
Y1723897*
X2031874*
X2031874D02*
Y1727397D01*
X2032374Y1723897D02*
Y1727897D01*
X2032874Y1723897D02*
Y1728397D01*
X2033374Y1723897D02*
Y1728397D01*
X2033874Y1723897D02*
Y1728397D01*
X2034374Y1723897D02*
Y1728397D01*
X2034874Y1723897D02*
Y1728397D01*
X2035374Y1723897D02*
Y1728397D01*
X2035874Y1723897D02*
Y1728397D01*
X2036374Y1723897D02*
Y1727897D01*
X2031874Y1720897D02*
X2036874D01*
Y1717397*
X2035874Y1716397*
X2032874*
X2031874Y1717397*
Y1720897*
Y1717397D02*
Y1720897D01*
X2032374Y1716897D02*
Y1720897D01*
X2032874Y1716397D02*
Y1720897D01*
X2033374Y1716397D02*
Y1720897D01*
X2033874Y1716397D02*
Y1720897D01*
X2034374Y1716397D02*
Y1720897D01*
X2034874Y1716397D02*
Y1720897D01*
X2035374Y1716397D02*
Y1720897D01*
X2035874Y1716397D02*
Y1720897D01*
X2036374Y1716897D02*
Y1720897D01*
X1951024Y1723936D02*
Y1727436D01*
X1952024Y1728436*
X1955024*
X1956024Y1727436*
Y1723936*
X1951024*
X1951024D02*
Y1727436D01*
X1951524Y1723936D02*
Y1727936D01*
X1952024Y1723936D02*
Y1728436D01*
X1952524Y1723936D02*
Y1728436D01*
X1953024Y1723936D02*
Y1728436D01*
X1953524Y1723936D02*
Y1728436D01*
X1954024Y1723936D02*
Y1728436D01*
X1954524Y1723936D02*
Y1728436D01*
X1955024Y1723936D02*
Y1728436D01*
X1955524Y1723936D02*
Y1727936D01*
X1951024Y1720936D02*
X1956024D01*
Y1717436*
X1955024Y1716436*
X1952024*
X1951024Y1717436*
Y1720936*
Y1717436D02*
Y1720936D01*
X1951524Y1716936D02*
Y1720936D01*
X1952024Y1716436D02*
Y1720936D01*
X1952524Y1716436D02*
Y1720936D01*
X1953024Y1716436D02*
Y1720936D01*
X1953524Y1716436D02*
Y1720936D01*
X1954024Y1716436D02*
Y1720936D01*
X1954524Y1716436D02*
Y1720936D01*
X1955024Y1716436D02*
Y1720936D01*
X1955524Y1716936D02*
Y1720936D01*
X2072697Y1723883D02*
Y1727383D01*
X2073697Y1728383*
X2076697*
X2077697Y1727383*
Y1723883*
X2072697*
X2072697D02*
Y1727383D01*
X2073197Y1723883D02*
Y1727883D01*
X2073697Y1723883D02*
Y1728383D01*
X2074197Y1723883D02*
Y1728383D01*
X2074697Y1723883D02*
Y1728383D01*
X2075197Y1723883D02*
Y1728383D01*
X2075697Y1723883D02*
Y1728383D01*
X2076197Y1723883D02*
Y1728383D01*
X2076697Y1723883D02*
Y1728383D01*
X2077197Y1723883D02*
Y1727883D01*
X2072697Y1720883D02*
X2077697D01*
Y1717383*
X2076697Y1716383*
X2073697*
X2072697Y1717383*
Y1720883*
Y1717383D02*
Y1720883D01*
X2073197Y1716883D02*
Y1720883D01*
X2073697Y1716383D02*
Y1720883D01*
X2074197Y1716383D02*
Y1720883D01*
X2074697Y1716383D02*
Y1720883D01*
X2075197Y1716383D02*
Y1720883D01*
X2075697Y1716383D02*
Y1720883D01*
X2076197Y1716383D02*
Y1720883D01*
X2076697Y1716383D02*
Y1720883D01*
X2077197Y1716883D02*
Y1720883D01*
X1991345Y1723853D02*
Y1727353D01*
X1992345Y1728353*
X1995345*
X1996345Y1727353*
Y1723853*
X1991345*
X1991345D02*
Y1727353D01*
X1991845Y1723853D02*
Y1727853D01*
X1992345Y1723853D02*
Y1728353D01*
X1992845Y1723853D02*
Y1728353D01*
X1993345Y1723853D02*
Y1728353D01*
X1993845Y1723853D02*
Y1728353D01*
X1994345Y1723853D02*
Y1728353D01*
X1994845Y1723853D02*
Y1728353D01*
X1995345Y1723853D02*
Y1728353D01*
X1995845Y1723853D02*
Y1727853D01*
X1991345Y1720853D02*
X1996345D01*
Y1717353*
X1995345Y1716353*
X1992345*
X1991345Y1717353*
Y1720853*
Y1717353D02*
Y1720853D01*
X1991845Y1716853D02*
Y1720853D01*
X1992345Y1716353D02*
Y1720853D01*
X1992845Y1716353D02*
Y1720853D01*
X1993345Y1716353D02*
Y1720853D01*
X1993845Y1716353D02*
Y1720853D01*
X1994345Y1716353D02*
Y1720853D01*
X1994845Y1716353D02*
Y1720853D01*
X1995345Y1716353D02*
Y1720853D01*
X1995845Y1716853D02*
Y1720853D01*
G54D33*
X1908483Y1512322D03*
Y1519322D03*
X1822902Y1561649D03*
Y1606649D03*
X1793359Y1521286D03*
X1800359D03*
X2044778Y1471443D03*
X2037778D03*
X1915584Y1504318D03*
Y1497318D03*
X1893295Y1497561D03*
Y1504561D03*
X2077366Y1502287D03*
X2070366D03*
X1916316Y1512313D03*
Y1519313D03*
X2073338Y1588565D03*
X2066338D03*
X2073338Y1526065D03*
X2066338D03*
X2044778Y1478943D03*
X2037778D03*
X1940838Y1606065D03*
X1933838D03*
X1924460Y1504258D03*
Y1497258D03*
X1933831Y1571814D03*
X1940831D03*
X1933831Y1560314D03*
X1940831D03*
X1931974Y1504229D03*
Y1497229D03*
X1893085Y1512311D03*
Y1519311D03*
X1900585Y1512311D03*
Y1519311D03*
X1898338Y1591315D03*
X1891338D03*
X1908084Y1504318D03*
Y1497318D03*
X2014835Y1531311D03*
Y1538311D03*
X2030265Y1518655D03*
X2023265D03*
X1905191Y1617110D03*
X1912191D03*
X1912980Y1726030D03*
Y1719030D03*
X2034374Y1725897D03*
Y1718897D03*
X1953524Y1725936D03*
Y1718936D03*
X2075197Y1725883D03*
Y1718883D03*
X1993845Y1725853D03*
Y1718853D03*
G54D44*
X1781961Y1418892D02*
X2218040D01*
X2218040D02*
Y1781108D01*
X2218040D02*
X1781961D01*
X1781961D02*
Y1418892D01*
G54D52*
X1783012Y1779642D02*
X2216612D01*
X2216612D02*
Y1420342D01*
X2216612D02*
X1783312D01*
X1783312D02*
Y1778642D01*
G54D53*
G54D76*
X2149863Y1487286D03*
X1968537Y1465175D03*
X1847863Y1766286D03*
X1874863D03*
X2044717Y1766322D03*
X1931738Y1766295D03*
X1987893Y1766311D03*
X2100863Y1766286D03*
X2107863Y1432286D03*
X2063863D03*
X2019863D03*
G54D80*
X1857902Y1596649D03*
X1847902Y1591649D03*
X1857902Y1586649D03*
X1847902Y1581649D03*
X1857902Y1576649D03*
X1847902Y1571649D03*
X1857902Y1566649D03*
X1803602Y1609049D03*
X1809602Y1599049D03*
X1803602Y1569249D03*
X1809602Y1559249D03*
X1843696Y1465573D03*
X2141988Y1487286D03*
X1978537Y1465175D03*
X1988537D03*
X1837863Y1766286D03*
X1884863D03*
X1894863D03*
X1904863D03*
X2054717Y1766322D03*
X2064717D03*
X2074717D03*
X1941738Y1766295D03*
X1951738D03*
X1961738D03*
X1997893Y1766311D03*
X2007893D03*
X2017893D03*
X2110863Y1766286D03*
X2120863D03*
X2130863D03*
X2204470Y1520995D03*
Y1510995D03*
Y1481625D03*
Y1471625D03*
Y1442255D03*
Y1432255D03*
X2142863Y1432286D03*
X2132863D03*
X2177863D03*
X2167863D03*
X1907863D03*
X1897863D03*
X1975863D03*
X1965863D03*
X1941863D03*
X1931863D03*
X1873863D03*
X1863863D03*
X1839863D03*
X1829863D03*
X1805863D03*
X1795863D03*
X2097863D03*
X2087863D03*
X2053863D03*
X2043863D03*
X2009863D03*
X1999863D03*
G54D477*
X1832432Y1673996D03*
Y1664156D03*
Y1656276D03*
Y1646436D03*
G54D508*
X2198083Y1695523D03*
Y1715523D03*
Y1640405D03*
Y1660405D03*
Y1745286D03*
Y1765286D03*
G54D513*
X2174488Y1567178D03*
Y1587178D03*
Y1607178D03*
G54D526*
X1834902Y1615149D03*
Y1553149D03*
G54D555*
X2121834Y1529802D03*
X1885614Y1726652D03*
G54D822*
X1949629Y1516083D03*
Y1518053D03*
Y1520013D03*
Y1521983D03*
X1961229D03*
Y1520013D03*
Y1518053D03*
Y1516083D03*
G54D823*
X1944718Y1646814D03*
Y1644255D03*
Y1641696D03*
X1936057D03*
Y1646814D03*
G54D824*
X1982325Y1556095D03*
Y1552095D03*
X1939324Y1596058D03*
X1935324D03*
X2009822Y1525550D03*
Y1521550D03*
X1891893Y1559349D03*
Y1563349D03*
X1909323Y1576314D03*
X1905323D03*
X2050709Y1658230D03*
Y1662230D03*
X1969476Y1662169D03*
Y1658169D03*
X2001085Y1521576D03*
Y1525576D03*
X1908335Y1559326D03*
Y1563326D03*
X1866878Y1577133D03*
X1870878D03*
X1866830Y1602327D03*
X1870830D03*
X1973335Y1535326D03*
Y1539326D03*
X1996335Y1539302D03*
Y1535302D03*
X1999863Y1683740D03*
Y1687740D03*
X2054323Y1546289D03*
X2050323D03*
X1909323Y1572314D03*
X1905323D03*
X2050347Y1555739D03*
X2054347D03*
X1866878Y1587133D03*
X1870878D03*
X1930295Y1658164D03*
Y1662164D03*
X1866878Y1592633D03*
X1870878D03*
X1866830Y1597720D03*
X1870830D03*
X1892847Y1571814D03*
X1896847D03*
X1892847Y1575814D03*
X1896847D03*
X1791363Y1532274D03*
Y1528274D03*
X2070347Y1555739D03*
X2074347D03*
X2070347Y1560464D03*
X2074347D03*
X2070347Y1569914D03*
X2074347D03*
X2070347Y1576214D03*
X2074347D03*
X2070347Y1582514D03*
X2074347D03*
X2034323Y1535264D03*
X2030323D03*
X2034323Y1541564D03*
X2030323D03*
X2034323Y1560464D03*
X2030323D03*
X2034323Y1551014D03*
X2030323D03*
X2034323Y1566764D03*
X2030323D03*
X2034323Y1576214D03*
X2030323D03*
X2034323Y1582514D03*
X2030323D03*
X1998498Y1562214D03*
X1994498D03*
X1976035Y1587827D03*
Y1583827D03*
X1954397Y1569302D03*
X1950397D03*
X1980835Y1539302D03*
Y1535302D03*
X1992335Y1539302D03*
Y1535302D03*
X1998498Y1568514D03*
X1994498D03*
X1998498Y1581114D03*
X1994498D03*
X1998494Y1574814D03*
X1994494D03*
X2070342Y1541585D03*
X2074342D03*
X1966311Y1568512D03*
X1970311D03*
X1977335Y1539302D03*
Y1535302D03*
X1982335Y1564200D03*
Y1560200D03*
X1954397Y1581114D03*
X1950397D03*
X1954397Y1557314D03*
X1950397D03*
X1954397Y1598564D03*
X1950397D03*
X2094904Y1644820D03*
X2090904D03*
X1935305Y1592318D03*
X1939305D03*
X1954397Y1553552D03*
X1950397D03*
X1954397Y1587414D03*
X1950397D03*
X1954397Y1577177D03*
X1950397D03*
X1954397Y1565364D03*
X1950397D03*
X1988536Y1600358D03*
Y1604358D03*
X1964863Y1600298D03*
Y1604298D03*
X1954397Y1549814D03*
X1950397D03*
X1968030Y1521046D03*
Y1517046D03*
X2001235Y1606727D03*
Y1602727D03*
X1994522Y1587414D03*
X1998522D03*
X1954322Y1604814D03*
X1950322D03*
X1970147Y1562214D03*
X1966147D03*
X1966171Y1581114D03*
X1970171D03*
X1950421Y1573239D03*
X1954421D03*
X1995735Y1606727D03*
Y1602727D03*
X1935346Y1599814D03*
X1939346D03*
X1973529Y1600268D03*
Y1604268D03*
X1976035Y1561801D03*
Y1565801D03*
X1969608Y1604274D03*
Y1600274D03*
X1982765Y1600410D03*
Y1604410D03*
X1982335Y1589378D03*
Y1585378D03*
X1906905Y1528346D03*
X1902905D03*
X1978765Y1600410D03*
Y1604410D03*
X1939322Y1566064D03*
X1935322D03*
X1939322Y1577314D03*
X1935322D03*
X1988635Y1561801D03*
Y1565801D03*
X1982335Y1568101D03*
Y1572101D03*
X1986647Y1574814D03*
X1990647D03*
X1982335Y1581527D03*
Y1577527D03*
X1974116Y1574814D03*
X1978116D03*
X1988635Y1583851D03*
Y1587851D03*
X1970147Y1587414D03*
X1966147D03*
X1988835Y1539302D03*
Y1535302D03*
X2017335Y1521576D03*
Y1525576D03*
X2013585Y1521576D03*
Y1525576D03*
X2008159Y1539304D03*
Y1535304D03*
X1986934Y1613487D03*
X1990934D03*
X2005813Y1521576D03*
Y1525576D03*
X1926319Y1636273D03*
Y1632273D03*
X2020347Y1566764D03*
X2024347D03*
X1974047Y1613517D03*
X1970047D03*
X1950388Y1593572D03*
X1954388D03*
X1969060Y1535092D03*
Y1539092D03*
X1882823Y1586314D03*
X1878823D03*
X1882823Y1582314D03*
X1878823D03*
X1882823Y1578314D03*
X1878823D03*
X1882823Y1574314D03*
X1878823D03*
X1920347Y1572814D03*
X1924347D03*
X1920347Y1584314D03*
X1924347D03*
X1920347Y1592314D03*
X1924347D03*
X1920347Y1580314D03*
X1924347D03*
X1920347Y1576814D03*
X1924347D03*
X1909975Y1623582D03*
Y1627582D03*
X1915356Y1636183D03*
Y1632183D03*
X2024295Y1571649D03*
X2020295D03*
X1934363Y1623798D03*
Y1627798D03*
X1996860Y1525645D03*
Y1521645D03*
X1903041Y1623566D03*
Y1627566D03*
X1870851Y1606786D03*
X1866851D03*
X1870851Y1620286D03*
X1866851D03*
X1832863Y1532774D03*
Y1528774D03*
X1870851Y1624786D03*
X1866851D03*
X1832863Y1517298D03*
Y1521298D03*
X1870851Y1615786D03*
X1866851D03*
X1934363Y1632298D03*
Y1636298D03*
X1992581Y1521644D03*
Y1525644D03*
X2000159Y1535328D03*
Y1539328D03*
X1870851Y1611286D03*
X1866851D03*
X1888617Y1483729D03*
Y1479729D03*
X1892275Y1528557D03*
X1896275D03*
X1943893Y1517046D03*
Y1521046D03*
X1930363Y1627774D03*
Y1623774D03*
X1948363Y1632298D03*
Y1636298D03*
X1952863Y1632298D03*
Y1636298D03*
X1920347Y1596314D03*
X1924347D03*
X1895893Y1563325D03*
Y1559325D03*
X1904335Y1559326D03*
Y1563326D03*
X1900335Y1563302D03*
Y1559302D03*
X1924323Y1561314D03*
X1920323D03*
X1924323Y1588314D03*
X1920323D03*
X1866878Y1582133D03*
X1870878D03*
X1825251Y1576553D03*
X1821251D03*
X1825251Y1581553D03*
X1821251D03*
X2080765Y1661991D03*
Y1657991D03*
X2039209Y1662206D03*
Y1658206D03*
X1958476Y1662169D03*
Y1658169D03*
X1795863Y1528298D03*
Y1532298D03*
X1793363Y1493274D03*
Y1489274D03*
X1800363Y1528298D03*
Y1532298D03*
X1930363Y1632298D03*
Y1636298D03*
X1999402Y1661965D03*
Y1657965D03*
X1802363Y1493274D03*
Y1489274D03*
X1804863Y1528298D03*
Y1532298D03*
X1797863Y1493274D03*
Y1489274D03*
X1943863Y1627774D03*
Y1623774D03*
X1982487Y1613483D03*
X1978487D03*
X2091765Y1661991D03*
Y1657991D03*
X2005499Y1602771D03*
Y1606771D03*
X2009402Y1661965D03*
Y1657965D03*
X1930588Y1646019D03*
X1926588D03*
X1954397Y1561427D03*
X1950397D03*
X1939322Y1554814D03*
X1935322D03*
X1970147Y1574814D03*
X1966147D03*
X1984835Y1539302D03*
Y1535302D03*
X2070341Y1535273D03*
X2074341D03*
X1924323Y1600314D03*
X1920323D03*
X2074323Y1550814D03*
X2070323D03*
X2054319Y1534766D03*
X2050319D03*
X1917980Y1662014D03*
Y1658014D03*
X1924323Y1565314D03*
X1920323D03*
X1825251Y1586939D03*
X1821251D03*
X2004159Y1535328D03*
Y1539328D03*
X2054323Y1551014D03*
X2050323D03*
X2054341Y1560483D03*
X2050341D03*
X1948363Y1627774D03*
Y1623774D03*
X1920347Y1568814D03*
X1924347D03*
X2074324Y1546540D03*
X2070324D03*
X1921978Y1627885D03*
Y1623885D03*
X1903082Y1632287D03*
Y1636287D03*
X1917554Y1623749D03*
Y1627749D03*
X1909865Y1632207D03*
Y1636207D03*
X2085851Y1596286D03*
X2081851D03*
X2085851Y1632286D03*
X2081851D03*
X2094851Y1620286D03*
X2090851D03*
X2094851Y1591786D03*
X2090851D03*
X2085851Y1587286D03*
X2081851D03*
X1936802Y1658109D03*
Y1662109D03*
X1941284Y1658138D03*
Y1662138D03*
X1950296Y1658161D03*
Y1662161D03*
X1945796Y1658161D03*
Y1662161D03*
X2019902Y1657989D03*
Y1661989D03*
X2015402Y1657989D03*
Y1661989D03*
X2061209Y1658230D03*
Y1662230D03*
X2056709Y1658230D03*
Y1662230D03*
X2070265Y1658015D03*
Y1662015D03*
X2065765Y1658015D03*
Y1662015D03*
X2085851Y1583286D03*
X2081851D03*
X2094851Y1587286D03*
X2090851D03*
X2085851Y1579286D03*
X2081851D03*
X2085851Y1620286D03*
X2081851D03*
X2094851Y1616286D03*
X2090851D03*
X2094851Y1596286D03*
X2090851D03*
X2094851Y1612286D03*
X2090851D03*
X2094851Y1628286D03*
X2090851D03*
X2094851Y1583286D03*
X2090851D03*
X2094851Y1579286D03*
X2090851D03*
X2094851Y1608286D03*
X2090851D03*
X2094851Y1604286D03*
X2090851D03*
X2094851Y1600286D03*
X2090851D03*
X2085851Y1591786D03*
X2081851D03*
X2094851Y1640786D03*
X2090851D03*
X2094851Y1636286D03*
X2090851D03*
X2094851Y1632286D03*
X2090851D03*
X2085851Y1628286D03*
X2081851D03*
X2094851Y1624286D03*
X2090851D03*
X1954323Y1609108D03*
X1950323D03*
X2085851Y1624286D03*
X2081851D03*
X2085851Y1636286D03*
X2081851D03*
X2085851Y1640786D03*
X2081851D03*
X2085851Y1600286D03*
X2081851D03*
X2085851Y1604286D03*
X2081851D03*
X2085851Y1608286D03*
X2081851D03*
X2085851Y1616286D03*
X2081851D03*
X2085851Y1612286D03*
X2081851D03*
G54D825*
X1821763Y1686086D03*
Y1634346D03*
G54D826*
X1826100Y1459104D03*
X2146914D03*
X2153863Y1761286D03*
X1826100Y1740262D03*
G54D827*
X1847902Y1601649D03*
G54D828*
X1903584Y1482064D03*
X1894584D03*
X1910834D03*
X1919834D03*
G54D829*
X2008519Y1668042D03*
Y1670601D03*
Y1673160D03*
Y1675719D03*
Y1678278D03*
Y1680837D03*
Y1683396D03*
Y1685955D03*
X2034504D03*
Y1683396D03*
Y1680837D03*
Y1678278D03*
Y1675719D03*
Y1673160D03*
Y1670601D03*
Y1668042D03*
G54D830*
X2178630Y1714555D03*
Y1694870D03*
Y1763701D03*
Y1744016D03*
Y1659571D03*
Y1639886D03*
G54D831*
X1928980Y1726276D03*
Y1718776D03*
X1974835Y1527314D03*
Y1519814D03*
X1984835Y1527314D03*
Y1519814D03*
X1920980Y1726276D03*
Y1718776D03*
X1969524Y1726182D03*
Y1718682D03*
X1961524Y1726182D03*
Y1718682D03*
X2050374Y1726143D03*
Y1718643D03*
X2042374Y1726143D03*
Y1718643D03*
X2083197Y1726129D03*
Y1718629D03*
X2009845Y1726099D03*
Y1718599D03*
X2001845Y1726099D03*
Y1718599D03*
X2091197Y1726129D03*
Y1718629D03*
G54D832*
X1898585Y1600814D03*
X1891085D03*
X1933584Y1586064D03*
X1941084D03*
G54D833*
X1972855Y1622814D03*
X1987814D03*
G54D834*
X2121812Y1463022D03*
Y1453966D03*
Y1444911D03*
X2121857Y1490253D03*
Y1481197D03*
Y1472142D03*
X2189446Y1462553D03*
Y1453497D03*
Y1444442D03*
Y1519119D03*
Y1510063D03*
Y1501008D03*
X2189457Y1491003D03*
Y1481948D03*
Y1472893D03*
G54D835*
X2097757Y1453966D03*
X2097802Y1481197D03*
X2165391Y1453497D03*
Y1510063D03*
X2165402Y1481948D03*
G54D836*
X1802096Y1707455D03*
Y1726549D03*
G54D837*
X1791663Y1702927D03*
Y1731077D03*
G54D838*
X2134916Y1568760D03*
X2154601D03*
X2134916Y1545885D03*
X2154601D03*
X2134813Y1594118D03*
X2154498D03*
G54D839*
X1941980Y1726126D03*
Y1719926D03*
X1935980Y1726126D03*
Y1719926D03*
X2063374Y1725993D03*
Y1719793D03*
X1982524Y1726032D03*
Y1719832D03*
X2057374Y1725993D03*
Y1719793D03*
X1976524Y1726032D03*
Y1719832D03*
X2104197Y1725979D03*
Y1719779D03*
X2022845Y1725949D03*
Y1719749D03*
X2098197Y1725979D03*
Y1719779D03*
X2016845Y1725949D03*
Y1719749D03*
G54D840*
X2174488Y1547178D03*
X0Y0D02*
M02*
