%
T1C.006F0S0
X017539Y034646
X017539Y034461
X017169Y03984
X017169Y039655
T2C.008F0S0
X010209Y012205
X010246Y010288
X010925Y010875
X010945Y011855
X011264Y010233
X014072Y010298
X017085Y010231
X018034Y012485
X018288Y012483
X018775Y012485
X020065Y010273
X022875Y010268
X025218Y010247
X028032Y010258
X030944Y010279
X033397Y010225
X035083Y010851
X036199Y010266
X038569Y010214
X040795Y010214
X042575Y010293
X043719Y012182
X043776Y010712
X043985Y012175
X044272Y012128
X044573Y012602
X044766Y010257
X047296Y010275
X049185Y01024
X050552Y01215
X050799Y01215
X05093Y011871
X050945Y01086
X051093Y01214
X051198Y010257
X053318Y010275
X05339Y011879
X053354Y014926
X052602Y013842
X051399Y015035
X051035Y01495
X05075Y014934
X050494Y014933
X044697Y014268
X044697Y013967
X044697Y014542
X044693Y014827
X044414Y014901
X043534Y014098
X043456Y014876
X040511Y013451
X039521Y015156
X039499Y014812
X038101Y015156
X038067Y014812
X037546Y014607
X036964Y015061
X036807Y014898
X03679Y015206
X036324Y013451
X035731Y013732
X035176Y012737
X034024Y013723
X033517Y015208
X033356Y013696
X033356Y014302
X032483Y013943
X03179Y013451
X029205Y012975
X029205Y013475
X027333Y013032
X027276Y014259
X02544Y014463
X024713Y014195
X024486Y014462
X024077Y013135
X022332Y013242
X016305Y012975
X016305Y013475
X015805Y013475
X015805Y012975
X013147Y015067
X013143Y014354
X013137Y013638
X0102Y013921
X010296Y017015
X01114Y016839
X01138Y016029
X01159Y016789
X01204Y016789
X01229Y017439
X013705Y016975
X013705Y017475
X014205Y017475
X014205Y016975
X014954Y016368
X015541Y017713
X01625Y01548
X018851Y017562
X018996Y016516
X01908Y017556
X019306Y016516
X019521Y017651
X019792Y01764
X020664Y015754
X020889Y015736
X021123Y016838
X021162Y015742
X021346Y016831
X021412Y015742
X021577Y01683
X021674Y01743
X021918Y017315
X022037Y015742
X022037Y016842
X022287Y015742
X022287Y016842
X022485Y016842
X022685Y017478
X022737Y017297
X022748Y016815
X022762Y015742
X022938Y016815
X023012Y015742
X023187Y016815
X023517Y016842
X023695Y016842
X023736Y017566
X023912Y016842
X024017Y017299
X024195Y016441
X024286Y017284
X024409Y016587
X024713Y017287
X02495Y016662
X025571Y015624
X02576Y017078
X026904Y017142
X026923Y016772
X026981Y017609
X027136Y01609
X027221Y016788
X02748Y016783
X028205Y016075
X028205Y016575
X028705Y016575
X028705Y016075
X030105Y016075
X030105Y016575
X030605Y016075
X030605Y016575
X030658Y01543
X032804Y016306
X034483Y016732
X034534Y016482
X034762Y016344
X035036Y015657
X03526Y015673
X035485Y01567
X035542Y016806
X035708Y016976
X036051Y016393
X036051Y01564
X036794Y015445
X036881Y01635
X037015Y015336
X037117Y016363
X037573Y016339
X037573Y015599
X037865Y016465
X037941Y01596
X037963Y016758
X038805Y015482
X044724Y017217
X051422Y0154
X053372Y017456
X052536Y017884
X051338Y018212
X051068Y017801
X050749Y017798
X050466Y017801
X047345Y018038
X045805Y019975
X045805Y019475
X045305Y019975
X045305Y019475
X043246Y017939
X042989Y018215
X0424Y018298
X042351Y018839
X042303Y019397
X042207Y020056
X041879Y019811
X041134Y019286
X040718Y019599
X040462Y018569
X040397Y018113
X040355Y019311
X040304Y018339
X040147Y01801
X040125Y018581
X040048Y019272
X039998Y018339
X039955Y020012
X03987Y01801
X039762Y017784
X039541Y01795
X039104Y019992
X038761Y019974
X038583Y01795
X038448Y018116
X038437Y02009
X038314Y017947
X03816Y018063
X037658Y018222
X037655Y017778
X035184Y020098
X034578Y019645
X03444Y019359
X034415Y019976
X034237Y019154
X034158Y019404
X033914Y019661
X033503Y019701
X032993Y019903
X032826Y019351
X032605Y019886
X032291Y019361
X032212Y019911
X031912Y019942
X031837Y019384
X03149Y019725
X030145Y019639
X029954Y018966
X029925Y019639
X029921Y020054
X0297Y018905
X029551Y018745
X029437Y019743
X029362Y018615
X029101Y019743
X028826Y018506
X028632Y018387
X028386Y0184
X028145Y01812
X028048Y018462
X027993Y01936
X027985Y019122
X027905Y018111
X027639Y017879
X027615Y018151
X02735Y017902
X026973Y017842
X026766Y019442
X026364Y018104
X026351Y018358
X024926Y01816
X024732Y019156
X024642Y018141
X024584Y019005
X02441Y01814
X024346Y018993
X023837Y019417
X023836Y019902
X023836Y020074
X023045Y019342
X022984Y018518
X022652Y019648
X022265Y019343
X021908Y018135
X021862Y01966
X021512Y018166
X021489Y019342
X020782Y017787
X020659Y019791
X020637Y018767
X020595Y019182
X020511Y018894
X020457Y019734
X020322Y018674
X02021Y019906
X019985Y017774
X019787Y017903
X019532Y01792
X019094Y019744
X018995Y017906
X018777Y017906
X017549Y01989
X017504Y018842
X016951Y019841
X01668Y019155
X016478Y020192
X014205Y018675
X014205Y018175
X013705Y018175
X013705Y018675
X010748Y018982
X010228Y019283
X010224Y021576
X010717Y020938
X011101Y021589
X011101Y020629
X01113Y021317
X01139Y021539
X011651Y020629
X01184Y021539
X012232Y020239
X01224Y021539
X012921Y020862
X01549Y021539
X016344Y02054
X016354Y022055
X017536Y020334
X019167Y020567
X020141Y020283
X020723Y021488
X020809Y020955
X021001Y021488
X021112Y020467
X021437Y020667
X021561Y021646
X021737Y020667
X022034Y020482
X022039Y022455
X02204Y020703
X022255Y022337
X022287Y020467
X022474Y020667
X022496Y022332
X022789Y020467
X02307Y022144
X023518Y022233
X023519Y021979
X023836Y020252
X024018Y022437
X024018Y022121
X02462Y022155
X024937Y022587
X025024Y022197
X02553Y022229
X025679Y020726
X025682Y020319
X02571Y022439
X0258Y022669
X026231Y02082
X026388Y021017
X026418Y020309
X026678Y020621
X02683Y021929
X027518Y020827
X02823Y02172
X028395Y02192
X028583Y020599
X028723Y022242
X028733Y020407
X02916Y022323
X029768Y02087
X029787Y020592
X030087Y022342
X030136Y021318
X030333Y022371
X030365Y021394
X03071Y022252
X031003Y02259
X031024Y021425
X031084Y021098
X031382Y022378
X031787Y021092
X032139Y021092
X032385Y02109
X032715Y022642
X032784Y02094
X032837Y021342
X032839Y021852
X032839Y022092
X032904Y021632
X033237Y022542
X033439Y020885
X033837Y020992
X033916Y020687
X033966Y020322
X034137Y020492
X034537Y021932
X034537Y022267
X034537Y021637
X03562Y021637
X03562Y022267
X03562Y021322
X03562Y021952
X03562Y022582
X035935Y022582
X035935Y021637
X035935Y021952
X035935Y021322
X035935Y022267
X03625Y021322
X03625Y021637
X03625Y021952
X03625Y022267
X03625Y022582
X036837Y022442
X037236Y021254
X037825Y021322
X037825Y021637
X037825Y021952
X037825Y022267
X037964Y020717
X03814Y021637
X03814Y021952
X03814Y021322
X03814Y022267
X03814Y022582
X038438Y02106
X038451Y022271
X038455Y021322
X038455Y021952
X038455Y022582
X038635Y021644
X039212Y021435
X039247Y021973
X039247Y02113
X039255Y022525
X03949Y020717
X039644Y020948
X040119Y022221
X041688Y020389
X0423Y02103
X042336Y020384
X04271Y021113
X044559Y022362
X044564Y022699
X045296Y021939
X045805Y021175
X049705Y020875
X049705Y021375
X050205Y021375
X050205Y020875
X051405Y022375
X051905Y022375
X05339Y020324
X053318Y023206
X051905Y024375
X051905Y022875
X051905Y024875
X051405Y024375
X051405Y022875
X051405Y024875
X046198Y023541
X045296Y023531
X044594Y024987
X044581Y024682
X044568Y023058
X043537Y024449
X043537Y02497
X040621Y024067
X040597Y024264
X040475Y02328
X040455Y023476
X040453Y023673
X040382Y024461
X040374Y024131
X040244Y023083
X040132Y022886
X039239Y024829
X039239Y024413
X039137Y023448
X038455Y023212
X038455Y024157
X038455Y024472
X038455Y025102
X03814Y024157
X03814Y024787
X03814Y023212
X03814Y023527
X03814Y024472
X03814Y025102
X038133Y022905
X037825Y022897
X037825Y024157
X037825Y024787
X037825Y024472
X037825Y025102
X036565Y025102
X03625Y022897
X03625Y023212
X03625Y023527
X03625Y025102
X035935Y023212
X035935Y024157
X035935Y023527
X035935Y024787
X035935Y025102
X03562Y023212
X03562Y024787
X03562Y024157
X035237Y023492
X034837Y023492
X034537Y024787
X034537Y023212
X034537Y024157
X034537Y022942
X033237Y022792
X033237Y024175
X033237Y024647
X033237Y023192
X032242Y023072
X032242Y024017
X032242Y024332
X032242Y024962
X032242Y023387
X032242Y024647
X031927Y023072
X031927Y023387
X031927Y023702
X031927Y024332
X031927Y024962
X031927Y024647
X031927Y024017
X031612Y024017
X031612Y024647
X031612Y023702
X031612Y023072
X031612Y023387
X031297Y024017
X031297Y024647
X031297Y023387
X031297Y023703
X030982Y024332
X030982Y024647
X030982Y024962
X030982Y024017
X030982Y023703
X030667Y023702
X030667Y024017
X030667Y024962
X030357Y023698
X030352Y024332
X030352Y024647
X030352Y024962
X030352Y023388
X029723Y023388
X029723Y024018
X029722Y023702
X029722Y024962
X029722Y024332
X029408Y023703
X029407Y024017
X029407Y024962
X029092Y024332
X029092Y024647
X029092Y023702
X029092Y023387
X029092Y024962
X029092Y024017
X028778Y023703
X028778Y023388
X028777Y024647
X028463Y023388
X028463Y023703
X028462Y024647
X028462Y024017
X028148Y023703
X028148Y023388
X028147Y024647
X028147Y024332
X028147Y024962
X028147Y024017
X027833Y023703
X027833Y024962
X027832Y023387
X027832Y024647
X027832Y024332
X027832Y024017
X027517Y024647
X027202Y022757
X026563Y024421
X026537Y024647
X026314Y023705
X026099Y023466
X026038Y024781
X026037Y024567
X025639Y022812
X025037Y024867
X025037Y024542
X024647Y023795
X024537Y024317
X024537Y024717
X024536Y025073
X024018Y022729
X023758Y023729
X023537Y025092
X023537Y024717
X023536Y024242
X023518Y022874
X023237Y025092
X023051Y024297
X022497Y023231
X022299Y025033
X022072Y022792
X022044Y024009
X022036Y025021
X021849Y024777
X021573Y024168
X020601Y025142
X020584Y024884
X020521Y024446
X020393Y023941
X020028Y024552
X019186Y023181
X018334Y02302
X018071Y023015
X017105Y023075
X017105Y023575
X016605Y023575
X016605Y023075
X010261Y023174
X010256Y02471
X010267Y026733
X01371Y025766
X014565Y026266
X014567Y026805
X014629Y025748
X014847Y025546
X01931Y026824
X019332Y027461
X019353Y025824
X019818Y027501
X019872Y026976
X020309Y026723
X020332Y026344
X020412Y025592
X020412Y025967
X020877Y025259
X021355Y026775
X021455Y025975
X021605Y026725
X022302Y027713
X022405Y026025
X023185Y027385
X023237Y025467
X023237Y026244
X023238Y02695
X023241Y026639
X023508Y026175
X023536Y025463
X023537Y026592
X023537Y025842
X023542Y026952
X024532Y026966
X024537Y027342
X024537Y025842
X024537Y026217
X024537Y026592
X025037Y027442
X025037Y027192
X025037Y025842
X026037Y027442
X026037Y025842
X026037Y027192
X026039Y026219
X026537Y025277
X026537Y026222
X026537Y025542
X026843Y027142
X027112Y027159
X027202Y026537
X027517Y026537
X027832Y026852
X027832Y026222
X027832Y027167
X027832Y025277
X027832Y027482
X027832Y025907
X027833Y025592
X028147Y027482
X028147Y026852
X028147Y025907
X028148Y027167
X028148Y025592
X028148Y026222
X028462Y025277
X028462Y026537
X028462Y025907
X028462Y027482
X028462Y027167
X028777Y025907
X028777Y027167
X028777Y026537
X028777Y025277
X029092Y027167
X029092Y025907
X029092Y026222
X029092Y026537
X029092Y025277
X029093Y027482
X029407Y026222
X029407Y025277
X029407Y025907
X029407Y027167
X029722Y026852
X029722Y025907
X029722Y025277
X029722Y026537
X029722Y026222
X029722Y027482
X029722Y027167
X030037Y025592
X030352Y025907
X030352Y025277
X030352Y026852
X030352Y026222
X030352Y026537
X030352Y027482
X030352Y027167
X030667Y025277
X030667Y027482
X030667Y025907
X030667Y026222
X030982Y027167
X030982Y025277
X030982Y026852
X030982Y026537
X030982Y026222
X030983Y027482
X031297Y027167
X031297Y025277
X031297Y025907
X031298Y027482
X031612Y027167
X031612Y026537
X031612Y025277
X031612Y025907
X031613Y027482
X031927Y027167
X031927Y026537
X031927Y026852
X031927Y025907
X031927Y025277
X031927Y026222
X031928Y027482
X032239Y02528
X032242Y025907
X032242Y026222
X032242Y026537
X032242Y026852
X032242Y027167
X032243Y027482
X032937Y026222
X033237Y025907
X033237Y026222
X034137Y025892
X034137Y026742
X034137Y026362
X034537Y026362
X034537Y025732
X034537Y025277
X03562Y025732
X03562Y026362
X03562Y026047
X035935Y026047
X035935Y026362
X035935Y025732
X03625Y025732
X03625Y026047
X036587Y026942
X036837Y026742
X037825Y026362
X037825Y025732
X037825Y026047
X037987Y026972
X03814Y026362
X03814Y025417
X03814Y026047
X03814Y025732
X038442Y026577
X038455Y025417
X038455Y026047
X038455Y025732
X03899Y026043
X039223Y02545
X039319Y026035
X039348Y027275
X040169Y026232
X040646Y026433
X04065Y026039
X040654Y027289
X040671Y026835
X041289Y02702
X043689Y026011
X043689Y026532
X044571Y027523
X044586Y02533
X044593Y027149
X045285Y026686
X045977Y027523
X053359Y026294
X053359Y029972
X048301Y029934
X047649Y029629
X045605Y028775
X045605Y029275
X045285Y02826
X045105Y028775
X045105Y029275
X044593Y02785
X041282Y029131
X040655Y029735
X040654Y027739
X040642Y028539
X040642Y028139
X040641Y030131
X04064Y029439
X040631Y028932
X039322Y028988
X03845Y030115
X037438Y030195
X037262Y027866
X037179Y030076
X037179Y029188
X036869Y03006
X036869Y029355
X036533Y027989
X036373Y029905
X036371Y029274
X036212Y027927
X036022Y030047
X035821Y027847
X035577Y027848
X035574Y02908
X035268Y028544
X035065Y028383
X034883Y028212
X034852Y028734
X034673Y028488
X03466Y029109
X034634Y02814
X034109Y029427
X033889Y028411
X033073Y028653
X032839Y028451
X032517Y029336
X03243Y029554
X031928Y027797
X031829Y029027
X031613Y027797
X031479Y028976
X031298Y027797
X031259Y029203
X030983Y027797
X030674Y028837
X030667Y027797
X030352Y027797
X030149Y029152
X030038Y028747
X029907Y029275
X02975Y029124
X029715Y027805
X029412Y029792
X02941Y028109
X029408Y027797
X029177Y029144
X029157Y028728
X029093Y027797
X028778Y027797
X028619Y029127
X028463Y027797
X028369Y029273
X028307Y028781
X028304Y029025
X027832Y027797
X027339Y029767
X027235Y028404
X027216Y030118
X026977Y029292
X026964Y030123
X026506Y029216
X026486Y02849
X026288Y028638
X026242Y028892
X026195Y027968
X026071Y030089
X025783Y030136
X025037Y028092
X024968Y028369
X024587Y028098
X024521Y027728
X02363Y027746
X023593Y028102
X023237Y028092
X02286Y02817
X022349Y028192
X022217Y030183
X022123Y028184
X021914Y030148
X02184Y029607
X021814Y027717
X021542Y029415
X021537Y027717
X021287Y027717
X021285Y029431
X019847Y028344
X019669Y02871
X019657Y02895
X019566Y029148
X019535Y029517
X019337Y02783
X019247Y02962
X017505Y029175
X017505Y029675
X017005Y029175
X017005Y029675
X010267Y029238
X010249Y031611
X01814Y031879
X018312Y031683
X018313Y030785
X018324Y03131
X018458Y031049
X018753Y031107
X019151Y031121
X019406Y030462
X019466Y032708
X01965Y032269
X019777Y032572
X01982Y031549
X020854Y030738
X020855Y030951
X02086Y031463
X020879Y031683
X021566Y03053
X021783Y031226
X021826Y030892
X022038Y032403
X022123Y031156
X022306Y03151
X022314Y031773
X022803Y032052
X023061Y031281
X023109Y030801
X023111Y031034
X023117Y030297
X023128Y030536
X023502Y030265
X023551Y031281
X023813Y030276
X023874Y031258
X024105Y032675
X024125Y031256
X024478Y030624
X024484Y03086
X024484Y031092
X024563Y032076
X025079Y032713
X025452Y031672
X025459Y03111
X025591Y031883
X025816Y032145
X025893Y030889
X025906Y030493
X026181Y032015
X026278Y031481
X026352Y031799
X027168Y032686
X02826Y03217
X028581Y032358
X029387Y031126
X029641Y031134
X029921Y031137
X030208Y031135
X030483Y031134
X03074Y031135
X031051Y031129
X031295Y031117
X031598Y032019
X031795Y030314
X031994Y031268
X032047Y030758
X032256Y03128
X032675Y031634
X032929Y03237
X032943Y031627
X03317Y032369
X033909Y032683
X034189Y032672
X034362Y031857
X034767Y032052
X034851Y031411
X035341Y031064
X035574Y031403
X035773Y030965
X036008Y030967
X036196Y031244
X03684Y031238
X036929Y032591
X037443Y030954
X037694Y031299
X037695Y030249
X038053Y031442
X038056Y030266
X038383Y032077
X038522Y031463
X038886Y03253
X039131Y032531
X040152Y03076
X040626Y031339
X040636Y030939
X040638Y031743
X040646Y032201
X040651Y030537
X041289Y031967
X041289Y030725
X04256Y03124
X043639Y03178
X044905Y032675
X044905Y032175
X045405Y032175
X045405Y032675
X047089Y032487
X047649Y031678
X048223Y032487
X048276Y030437
X048294Y030808
X053379Y033589
X047649Y033335
X044913Y034895
X044881Y034384
X044749Y033939
X044115Y032835
X043748Y034236
X04374Y033667
X04256Y03272
X041351Y033913
X041297Y034304
X040847Y03472
X040699Y035137
X040141Y034652
X040115Y033165
X039629Y035125
X039598Y033719
X03932Y034942
X039183Y035127
X039087Y034102
X038269Y032836
X037923Y032843
X03769Y033218
X037597Y032856
X037222Y034488
X037201Y033957
X036553Y033388
X03654Y033743
X036284Y033743
X035942Y034942
X035779Y034701
X035516Y03375
X035289Y033038
X034867Y033826
X034703Y034155
X034523Y033044
X034205Y033875
X034167Y034284
X033129Y035071
X032999Y033732
X032491Y033203
X032487Y033729
X032231Y033736
X031812Y035112
X031463Y03374
X031207Y033388
X031207Y033729
X031089Y034903
X0303Y034159
X02918Y034275
X029173Y034024
X028455Y033352
X028455Y033753
X028199Y033749
X027431Y033755
X027405Y033219
X027186Y033759
X025845Y033165
X025198Y03312
X025165Y033791
X025142Y034164
X024403Y034536
X024403Y035112
X024139Y034535
X023888Y033699
X023377Y033697
X023305Y035075
X022831Y033776
X022505Y032875
X022461Y034574
X021525Y033439
X0199Y035061
X019693Y034757
X019685Y035048
X019381Y035073
X019374Y034762
X019094Y035068
X01909Y034762
X018962Y033304
X018957Y032961
X018765Y033126
X018761Y032813
X018751Y034704
X018724Y033442
X018644Y035154
X018084Y03288
X017884Y033603
X017444Y034854
X01703Y032793
X016597Y03359
X013505Y034075
X013505Y033575
X013005Y033575
X013005Y034075
X010249Y033443
X010247Y035722
X010259Y037631
X019097Y035354
X019387Y035363
X019693Y035361
X020078Y036875
X02225Y037136
X02312Y036279
X023456Y037594
X023968Y037552
X02448Y03755
X024605Y035975
X025918Y036191
X026015Y037399
X027012Y036749
X027569Y036053
X028005Y037556
X028535Y037601
X029832Y03637
X03007Y037562
X030349Y035948
X030969Y03687
X031235Y03545
X031518Y036165
X031564Y035282
X03179Y036174
X032055Y037534
X032152Y036195
X032567Y037532
X033932Y036212
X034104Y037483
X034703Y035265
X034759Y036209
X034776Y036447
X034777Y036706
X035596Y037581
X036028Y035933
X036116Y037559
X036619Y037536
X036774Y036138
X038155Y037564
X038209Y036769
X038475Y035952
X039342Y036219
X04019Y037537
X040702Y037535
X040704Y035758
X041052Y036064
X04203Y036261
X042161Y035288
X042558Y037149
X043539Y03556
X043539Y036391
X044834Y035407
X044922Y037584
X04539Y035818
X045491Y036439
X046619Y036001
X047622Y036439
X04903Y035441
X049083Y036421
X051405Y036175
X051405Y035675
X051905Y035675
X051905Y036175
X053298Y036556
X053414Y040016
X047838Y040039
X045872Y040039
X045236Y039493
X045236Y040014
X044945Y038095
X04491Y038607
X04444Y038887
X043747Y037999
X04374Y038779
X043439Y039066
X042516Y038126
X042216Y039526
X042216Y039226
X042216Y039826
X042216Y038626
X042216Y038926
X041816Y039826
X041816Y039526
X041816Y039226
X041816Y038626
X041816Y038926
X041416Y039226
X041416Y039526
X041416Y038926
X041416Y038626
X041316Y040026
X041016Y039226
X041016Y039526
X041016Y038626
X041016Y038926
X040616Y038926
X040616Y038626
X040616Y039226
X040616Y039526
X040516Y040026
X040216Y039526
X040216Y039226
X040216Y038626
X040216Y038926
X039816Y039526
X039816Y038926
X039816Y039226
X039816Y038626
X039716Y040026
X039416Y039226
X039416Y039526
X039416Y038926
X039416Y038626
X039016Y038626
X039016Y039226
X039016Y039526
X039016Y038926
X038915Y039995
X03811Y038847
X03811Y038547
X03811Y039447
X03811Y039747
X03811Y039147
X03771Y038547
X03771Y038847
X03771Y039147
X03771Y039447
X03771Y039747
X03731Y038547
X03731Y039147
X03731Y038847
X03731Y039447
X03721Y039947
X03691Y038547
X03691Y038847
X03691Y039147
X03691Y039447
X03651Y038847
X03651Y038547
X03651Y039147
X03651Y039447
X03641Y039947
X03611Y038847
X03611Y038547
X03611Y039447
X03611Y039147
X03571Y038847
X03571Y038547
X03571Y039447
X03571Y039147
X03561Y039947
X03531Y038847
X03531Y038547
X03531Y039447
X03531Y039147
X03491Y038547
X03491Y038847
X03491Y039447
X03491Y039147
X03491Y039847
X034079Y039723
X034079Y039123
X034079Y038523
X034079Y038823
X034079Y039423
X033679Y039123
X033679Y039723
X033679Y038523
X033679Y038823
X033679Y039423
X033279Y038523
X033279Y038823
X033279Y039123
X033279Y039423
X033179Y040023
X032879Y038523
X032879Y039423
X032879Y038823
X032879Y039123
X032479Y038523
X032479Y039423
X032479Y038823
X032479Y039123
X032379Y040023
X032079Y039123
X032079Y039423
X032079Y038823
X032079Y038523
X031679Y038823
X031679Y038523
X031679Y039423
X031679Y039123
X031579Y040023
X031279Y039423
X031279Y039123
X031279Y038823
X031079Y038631
X030879Y038823
X030879Y039123
X030879Y039423
X030779Y039923
X030637Y038602
X030037Y038943
X030037Y039243
X030037Y038643
X030037Y039543
X030037Y039843
X029851Y038668
X029637Y039543
X029637Y039843
X029637Y038943
X029637Y038643
X029637Y039243
X029237Y039543
X029237Y038643
X029237Y039243
X029237Y038943
X029137Y040043
X028837Y038643
X028837Y039243
X028837Y038943
X028837Y039543
X028437Y038643
X028437Y039543
X028437Y039243
X028437Y038943
X028337Y040043
X028037Y038643
X028037Y039543
X028037Y038943
X028037Y039243
X027637Y039243
X027637Y039543
X027637Y038943
X027637Y038643
X027537Y040043
X027237Y038643
X027237Y038943
X027237Y039543
X027237Y039243
X026837Y039543
X026837Y038643
X026837Y039243
X026837Y038943
X026737Y039943
X02599Y039439
X02599Y039139
X02599Y038839
X02599Y039739
X02599Y038539
X02559Y039139
X02559Y039439
X02559Y038839
X02559Y038539
X02559Y039739
X02519Y039139
X02519Y039439
X02519Y038839
X02519Y038539
X025149Y039834
X02479Y038839
X02479Y038539
X02479Y039139
X02479Y039439
X02439Y038539
X02439Y039139
X02439Y039439
X02439Y038839
X02433Y039931
X02399Y039439
X02399Y039139
X02399Y038839
X02399Y038539
X02359Y039439
X02359Y039139
X02359Y038839
X02359Y038539
X023528Y040017
X02319Y039139
X02319Y038539
X02319Y038839
X02319Y039439
X02279Y038839
X02279Y038539
X02279Y039439
X02279Y039739
X02279Y039139
X022203Y039863
X018218Y038721
X017663Y038721
X015046Y038172
X015046Y039159
X014739Y038178
X014448Y03818
X013946Y039742
X010247Y040054
X010247Y041787
X011505Y042375
X012005Y042375
X013793Y040707
X014188Y040253
X014452Y040249
X016687Y042339
X016687Y04145
X017062Y041879
X018005Y041775
X018005Y041275
X018505Y041775
X018505Y041275
X019666Y042678
X021871Y040576
X021871Y041098
X022875Y041252
X02309Y041252
X023321Y041157
X023783Y041404
X023968Y041258
X024733Y041205
X024739Y041443
X025236Y041071
X025392Y041286
X025992Y042024
X025992Y042546
X027115Y041196
X027349Y041196
X027487Y041036
X028022Y041401
X028025Y041187
X028786Y041197
X028787Y041403
X029318Y041059
X029408Y041264
X030779Y042585
X030779Y042063
X031115Y041241
X031364Y041169
X031515Y041011
X032041Y041174
X032053Y041402
X032818Y041189
X032824Y041379
X033348Y041084
X03344Y041256
X033635Y041825
X033935Y042689
X033935Y042167
X035052Y041191
X035251Y0412
X035477Y041159
X036108Y041476
X036119Y041195
X036871Y041193
X036875Y041438
X0374Y041081
X037493Y04126
X037685Y041825
X038591Y04265
X038591Y042128
X03928Y041331
X039477Y041294
X039604Y041124
X04019Y041448
X040197Y041167
X040953Y041192
X040953Y041446
X041474Y041097
X041575Y041259
X042986Y041881
X042986Y042402
X04374Y042204
X0444Y04223
X044939Y041484
X044951Y041995
X044951Y042507
X051705Y041575
X051705Y041075
X052205Y041575
X052205Y041075
X053324Y042558
X053358Y044192
X045517Y044111
X045517Y043589
X043865Y042993
X040194Y044311
X040194Y044833
X034757Y044646
X034757Y045167
X034404Y04342
X034404Y042898
X030009Y043276
X030009Y043798
X025066Y04308
X025066Y043602
X023762Y04518
X023762Y044659
X019666Y0432
X018245Y045051
X018245Y04453
X01413Y045159
X012005Y042875
X011505Y042875
X010262Y043938
X010283Y045912
X012816Y045998
X0158Y045998
X019127Y045998
X022369Y045998
X025671Y045988
X028163Y045988
X031334Y045988
X034022Y046003
X036302Y046003
X039674Y04595
X043044Y04595
X0454Y04595
X047657Y04595
X050506Y045264
X05106Y04595
X053351Y04595
T3C.012F095S3
X051625Y017085
X051808Y016744
X051996Y017085
X052188Y016775
X052354Y017085
X052642Y016897
X052712Y016531
X022637Y018942
X022287Y026342
X022137Y018942
X022137Y018442
X021912Y026342
X021912Y026717
X021912Y025967
X021637Y018442
X021637Y018942
X021537Y026342
X017948Y038725
X01844Y038725
T4C.017F095S3
X011135Y038404G85X010805Y038404
X011135Y041219G85X010805Y041219
T5C.01772F095S3
X012014Y038856
X012014Y040766
T6C.037F197S55
X01139Y011339
X01239Y011339
X01479Y011339
X01579Y011339
X01819Y011339
X01919Y011339
X02159Y011339
X02259Y011339
X02499Y011339
X02599Y011339
X02839Y011339
X02939Y011339
X03179Y011339
X03279Y011339
X03379Y011339
X03619Y011339
X03719Y011339
X03819Y011339
X04059Y011339
X04159Y011339
X04259Y011339
X04509Y011339
X04609Y011339
X04859Y011339
X04959Y011339
X052251Y012336
X052251Y011336
X052251Y015273
X052251Y016273
X052251Y01921
X052251Y02021
X04679Y016839
X046003Y016839
X030658Y014628
X029658Y014628
X028658Y014628
X01559Y044739
X01659Y044739
X01929Y044739
X02029Y044739
X02129Y044739
X02229Y044739
X024978Y04474
X025978Y04474
X026978Y04474
X027978Y04474
X030593Y044742
X031593Y044742
X032593Y044742
X033593Y044742
X036276Y044743
X037276Y044743
X038276Y044743
X039276Y044743
X04189Y044739
X04289Y044739
X04389Y044739
X04489Y044739
T7C.04F139S55
X012164Y025036
X012764Y024036
X016174Y014668
X017594Y024776
X017594Y026776
X017594Y025776
X017594Y027776
X016594Y027276
X016594Y025276
X016594Y026276
X016594Y028276
X012764Y028016
X012164Y029016
X015047Y034526
X015047Y033738
X015047Y032754
X015047Y03551
X01374Y036719G85X01422Y036719
X01374Y031545G85X01422Y031545
T8C.04724F139S55
X049253Y022829
X049253Y024829
X049253Y026829
X049253Y028829
T9C.05906F107S55
X051612Y032151
X051612Y034151
X051612Y037663
X051612Y039663
X051612Y042639
X051612Y044639
T10C.063F089S55
X015294Y023426
X015294Y029626
T11C.1063F069S658
X020365Y040776
X043987Y021091
T12C.125F035S794
X014414Y014021
X046495Y014021
X04719Y044239
X014414Y042137
T13C.128F035S794
X014094Y024276
X014094Y028776
M30
