*
*
G04 PADS 9.5 Build Number: 522968 generated Gerber (RS-274-X) file*
G04 PC Version=2.1*
*
%IN "3DP_V10-1116.pcb"*%
*
%MOIN*%
*
%FSLAX35Y35*%
*
*
*
*
G04 PC Standard Apertures*
*
*
G04 Thermal Relief Aperture macro.*
%AMTER*
1,1,$1,0,0*
1,0,$1-$2,0,0*
21,0,$3,$4,0,0,45*
21,0,$3,$4,0,0,135*
%
*
*
G04 Annular Aperture macro.*
%AMANN*
1,1,$1,0,0*
1,0,$2,0,0*
%
*
*
G04 Odd Aperture macro.*
%AMODD*
1,1,$1,0,0*
1,0,$1-0.005,0,0*
%
*
*
G04 PC Custom Aperture Macros*
*
*
*
*
*
*
G04 PC Aperture Table*
*
%ADD016C,0.01*%
%ADD018R,0.06X0.06*%
%ADD025C,0.03*%
%ADD035C,0.01181*%
%ADD044C,0.005*%
%ADD053C,0.001*%
%ADD055R,0.04724X0.04724*%
%ADD083C,0.04*%
%ADD306R,0.0315X0.0315*%
%ADD381R,0.11811X0.07874*%
%ADD525C,0.014*%
%ADD704R,0.02X0.02*%
%ADD705R,0.075X0.045*%
%ADD707R,0.045X0.05*%
%ADD708R,0.05X0.075*%
%ADD709R,0.07X0.085*%
%ADD710R,0.03543X0.01575*%
%ADD711O,0.01X0.033*%
%ADD712R,0.01X0.033*%
%ADD713O,0.033X0.01*%
%ADD714R,0.033X0.01*%
%ADD715R,0.134X0.134*%
%ADD716R,0.0315X0.00787*%
%ADD717R,0.00787X0.0315*%
%ADD718R,0.15945X0.15945*%
%ADD721R,0.018X0.036*%
%ADD722R,0.035X0.02*%
%ADD723R,0.079X0.035*%
%ADD724R,0.06X0.044*%
%ADD725R,0.043X0.047*%
%ADD726O,0.016X0.06*%
%ADD727R,0.08X0.08*%
%ADD728R,0.03937X0.011*%
%ADD729R,0.07874X0.06693*%
%ADD730O,0.01181X0.03937*%
%ADD731O,0.03937X0.01181*%
%ADD732O,0.012X0.05906*%
%ADD733R,0.19685X0.12205*%
%ADD734R,0.11811X0.22835*%
%ADD735O,0.08X0.11811*%
%ADD736R,0.05512X0.01181*%
%ADD737R,0.11811X0.11024*%
%ADD738R,0.027X0.008*%
%ADD739R,0.027X0.0157*%
%ADD740R,0.065X0.12*%
%ADD741R,0.035X0.032*%
%ADD742R,0.12X0.065*%
%ADD743R,0.025X0.04*%
%ADD744R,0.05512X0.02756*%
%ADD745R,0.04X0.025*%
%ADD746O,0.05512X0.14567*%
%ADD747R,0.05315X0.01575*%
%ADD750O,0.065X0.012*%
%ADD753R,0.071X0.05*%
*
*
*
*
G04 PC Circuitry*
G04 Layer Name 3DP_V10-1116.pcb - circuitry*
%LPD*%
*
*
G04 PC Custom Flashes*
G04 Layer Name 3DP_V10-1116.pcb - flashes*
%LPD*%
*
*
G04 PC Circuitry*
G04 Layer Name 3DP_V10-1116.pcb - circuitry*
%LPD*%
*
G54D16*
G01X1932630Y1637609D03*
Y1635641D03*
Y1633672D03*
Y1631704D03*
Y1629735D03*
Y1627767D03*
Y1625798D03*
Y1623830D03*
Y1621861D03*
Y1619893D03*
Y1617924D03*
Y1615956D03*
Y1613987D03*
Y1612019D03*
X1930662Y1637609D03*
Y1635641D03*
Y1633672D03*
Y1631704D03*
Y1629735D03*
Y1627767D03*
Y1625798D03*
Y1623830D03*
Y1621861D03*
Y1619893D03*
Y1617924D03*
Y1615956D03*
Y1613987D03*
Y1612019D03*
X1928692Y1637609D03*
Y1635641D03*
Y1633672D03*
Y1631704D03*
Y1629735D03*
Y1627767D03*
Y1625798D03*
Y1623830D03*
Y1621861D03*
Y1619893D03*
Y1617924D03*
Y1615956D03*
Y1613987D03*
Y1612019D03*
X1926724Y1637609D03*
Y1635641D03*
Y1633672D03*
Y1631704D03*
Y1615956D03*
Y1613987D03*
Y1612019D03*
X1924756Y1637609D03*
Y1635641D03*
Y1633672D03*
Y1629735D03*
Y1627767D03*
Y1625798D03*
Y1623830D03*
Y1621861D03*
Y1619893D03*
Y1615956D03*
Y1613987D03*
Y1612019D03*
X1922788Y1637609D03*
Y1635641D03*
Y1633672D03*
Y1629735D03*
Y1619893D03*
Y1615956D03*
Y1613987D03*
Y1612019D03*
X1920819Y1637609D03*
Y1635641D03*
Y1633672D03*
Y1629735D03*
Y1619893D03*
Y1615956D03*
Y1613987D03*
Y1612019D03*
X1918851Y1637609D03*
Y1635641D03*
Y1633672D03*
Y1629735D03*
Y1619893D03*
Y1615956D03*
Y1613987D03*
Y1612019D03*
X1916882Y1637609D03*
Y1635641D03*
Y1633672D03*
Y1629735D03*
Y1619893D03*
Y1615956D03*
Y1613987D03*
Y1612019D03*
X1914914Y1637609D03*
Y1635641D03*
Y1633672D03*
Y1629735D03*
Y1627767D03*
Y1625798D03*
Y1623830D03*
Y1621861D03*
Y1619893D03*
Y1615956D03*
Y1613987D03*
Y1612019D03*
X1912945Y1637609D03*
Y1635641D03*
Y1633672D03*
Y1615956D03*
Y1613987D03*
Y1612019D03*
X1910977Y1637609D03*
Y1635641D03*
Y1633672D03*
Y1631704D03*
Y1629735D03*
Y1627767D03*
Y1625798D03*
Y1623830D03*
Y1621861D03*
Y1619893D03*
Y1617924D03*
Y1615956D03*
Y1613987D03*
Y1612019D03*
X1909008Y1637609D03*
Y1635641D03*
Y1633672D03*
Y1631704D03*
Y1629735D03*
Y1627767D03*
Y1625798D03*
Y1623830D03*
Y1621861D03*
Y1619893D03*
Y1617924D03*
Y1615956D03*
Y1613987D03*
Y1612019D03*
X1907040Y1637609D03*
Y1635641D03*
Y1633672D03*
Y1631704D03*
Y1629735D03*
Y1627767D03*
Y1625798D03*
Y1623830D03*
Y1621861D03*
Y1619893D03*
Y1617924D03*
Y1615956D03*
Y1613987D03*
Y1612019D03*
X1873468Y1492478D02*
X1870675D01*
X1869968Y1491771*
Y1489185*
X1870675Y1488478*
X1873468*
Y1492478*
X1869972Y1489181D02*
Y1491774D01*
X1870472Y1488681D02*
Y1492274D01*
X1870972Y1488478D02*
Y1492478D01*
X1871472Y1488478D02*
Y1492478D01*
X1871972Y1488478D02*
Y1492478D01*
X1872472Y1488478D02*
Y1492478D01*
X1872972Y1488478D02*
Y1492478D01*
X1880968Y1491771D02*
X1880261Y1492478D01*
X1877468*
Y1488478*
X1880261*
X1880968Y1489185*
Y1491771*
X1877472Y1488478D02*
Y1492478D01*
X1877972Y1488478D02*
Y1492478D01*
X1878472Y1488478D02*
Y1492478D01*
X1878972Y1488478D02*
Y1492478D01*
X1879472Y1488478D02*
Y1492478D01*
X1879972Y1488478D02*
Y1492478D01*
X1880472Y1488689D02*
Y1492267D01*
X1900855Y1479858D02*
X1903648D01*
X1904355Y1480565*
Y1483151*
X1903648Y1483858*
X1900855*
Y1479858*
X1901352D02*
Y1483858D01*
X1901852Y1479858D02*
Y1483858D01*
X1902352Y1479858D02*
Y1483858D01*
X1902852Y1479858D02*
Y1483858D01*
X1903352Y1479858D02*
Y1483858D01*
X1903852Y1480062D02*
Y1483655D01*
X1904352Y1480562D02*
Y1483155D01*
X1893355Y1480565D02*
X1894062Y1479858D01*
X1896855*
Y1483858*
X1894062*
X1893355Y1483151*
Y1480565*
X1893852Y1480069D02*
Y1483647D01*
X1894352Y1479858D02*
Y1483858D01*
X1894852Y1479858D02*
Y1483858D01*
X1895352Y1479858D02*
Y1483858D01*
X1895852Y1479858D02*
Y1483858D01*
X1896352Y1479858D02*
Y1483858D01*
X1896852Y1479858D02*
Y1483858D01*
X2124866Y1700786D02*
X2127659D01*
X2128366Y1701493*
Y1704079*
X2127659Y1704786*
X2124866*
Y1700786*
X2125363D02*
Y1704786D01*
X2125863Y1700786D02*
Y1704786D01*
X2126363Y1700786D02*
Y1704786D01*
X2126863Y1700786D02*
Y1704786D01*
X2127363Y1700786D02*
Y1704786D01*
X2127863Y1700990D02*
Y1704583D01*
X2128363Y1701490D02*
Y1704083D01*
X2117366Y1701493D02*
X2118073Y1700786D01*
X2120866*
Y1704786*
X2118073*
X2117366Y1704079*
Y1701493*
X2117863Y1700997D02*
Y1704575D01*
X2118363Y1700786D02*
Y1704786D01*
X2118863Y1700786D02*
Y1704786D01*
X2119363Y1700786D02*
Y1704786D01*
X2119863Y1700786D02*
Y1704786D01*
X2120363Y1700786D02*
Y1704786D01*
X2120863Y1700786D02*
Y1704786D01*
X2124866Y1663286D02*
X2127659D01*
X2128366Y1663993*
Y1666579*
X2127659Y1667286*
X2124866*
Y1663286*
X2125363D02*
Y1667286D01*
X2125863Y1663286D02*
Y1667286D01*
X2126363Y1663286D02*
Y1667286D01*
X2126863Y1663286D02*
Y1667286D01*
X2127363Y1663286D02*
Y1667286D01*
X2127863Y1663490D02*
Y1667083D01*
X2128363Y1663990D02*
Y1666583D01*
X2117366Y1663993D02*
X2118073Y1663286D01*
X2120866*
Y1667286*
X2118073*
X2117366Y1666579*
Y1663993*
X2117863Y1663497D02*
Y1667075D01*
X2118363Y1663286D02*
Y1667286D01*
X2118863Y1663286D02*
Y1667286D01*
X2119363Y1663286D02*
Y1667286D01*
X2119863Y1663286D02*
Y1667286D01*
X2120363Y1663286D02*
Y1667286D01*
X2120863Y1663286D02*
Y1667286D01*
X2056173Y1484476D02*
X2058966D01*
X2059673Y1485183*
Y1487769*
X2058966Y1488476*
X2056173*
Y1484476*
X2056670D02*
Y1488476D01*
X2057170Y1484476D02*
Y1488476D01*
X2057670Y1484476D02*
Y1488476D01*
X2058170Y1484476D02*
Y1488476D01*
X2058670Y1484476D02*
Y1488476D01*
X2059170Y1484680D02*
Y1488273D01*
X2059670Y1485180D02*
Y1487773D01*
X2048673Y1485183D02*
X2049380Y1484476D01*
X2052173*
Y1488476*
X2049380*
X2048673Y1487769*
Y1485183*
X2049170Y1484687D02*
Y1488265D01*
X2049670Y1484476D02*
Y1488476D01*
X2050170Y1484476D02*
Y1488476D01*
X2050670Y1484476D02*
Y1488476D01*
X2051170Y1484476D02*
Y1488476D01*
X2051670Y1484476D02*
Y1488476D01*
X2052170Y1484476D02*
Y1488476D01*
X2056190Y1476492D02*
X2058983D01*
X2059690Y1477199*
Y1479785*
X2058983Y1480492*
X2056190*
Y1476492*
X2056687D02*
Y1480492D01*
X2057187Y1476492D02*
Y1480492D01*
X2057687Y1476492D02*
Y1480492D01*
X2058187Y1476492D02*
Y1480492D01*
X2058687Y1476492D02*
Y1480492D01*
X2059187Y1476696D02*
Y1480289D01*
X2059687Y1477196D02*
Y1479789D01*
X2048690Y1477199D02*
X2049397Y1476492D01*
X2052190*
Y1480492*
X2049397*
X2048690Y1479785*
Y1477199*
X2049187Y1476703D02*
Y1480281D01*
X2049687Y1476492D02*
Y1480492D01*
X2050187Y1476492D02*
Y1480492D01*
X2050687Y1476492D02*
Y1480492D01*
X2051187Y1476492D02*
Y1480492D01*
X2051687Y1476492D02*
Y1480492D01*
X2052187Y1476492D02*
Y1480492D01*
X2124890Y1742639D02*
X2127683D01*
X2128390Y1743346*
Y1745932*
X2127683Y1746639*
X2124890*
Y1742639*
X2125387D02*
Y1746639D01*
X2125887Y1742639D02*
Y1746639D01*
X2126387Y1742639D02*
Y1746639D01*
X2126887Y1742639D02*
Y1746639D01*
X2127387Y1742639D02*
Y1746639D01*
X2127887Y1742843D02*
Y1746436D01*
X2128387Y1743343D02*
Y1745936D01*
X2117390Y1743346D02*
X2118097Y1742639D01*
X2120890*
Y1746639*
X2118097*
X2117390Y1745932*
Y1743346*
X2117887Y1742850D02*
Y1746428D01*
X2118387Y1742639D02*
Y1746639D01*
X2118887Y1742639D02*
Y1746639D01*
X2119387Y1742639D02*
Y1746639D01*
X2119887Y1742639D02*
Y1746639D01*
X2120387Y1742639D02*
Y1746639D01*
X2120887Y1742639D02*
Y1746639D01*
X1873411Y1504474D02*
X1870618D01*
X1869911Y1503767*
Y1501181*
X1870618Y1500474*
X1873411*
Y1504474*
X1869915Y1501177D02*
Y1503770D01*
X1870415Y1500677D02*
Y1504270D01*
X1870915Y1500474D02*
Y1504474D01*
X1871415Y1500474D02*
Y1504474D01*
X1871915Y1500474D02*
Y1504474D01*
X1872415Y1500474D02*
Y1504474D01*
X1872915Y1500474D02*
Y1504474D01*
X1880911Y1503767D02*
X1880204Y1504474D01*
X1877411*
Y1500474*
X1880204*
X1880911Y1501181*
Y1503767*
X1877415Y1500474D02*
Y1504474D01*
X1877915Y1500474D02*
Y1504474D01*
X1878415Y1500474D02*
Y1504474D01*
X1878915Y1500474D02*
Y1504474D01*
X1879415Y1500474D02*
Y1504474D01*
X1879915Y1500474D02*
Y1504474D01*
X1880415Y1500685D02*
Y1504263D01*
X1929659Y1546687D02*
X1926866D01*
X1926159Y1545980*
Y1543394*
X1926866Y1542687*
X1929659*
Y1546687*
X1926163Y1543390D02*
Y1545983D01*
X1926663Y1542890D02*
Y1546483D01*
X1927163Y1542687D02*
Y1546687D01*
X1927663Y1542687D02*
Y1546687D01*
X1928163Y1542687D02*
Y1546687D01*
X1928663Y1542687D02*
Y1546687D01*
X1929163Y1542687D02*
Y1546687D01*
X1937159Y1545980D02*
X1936452Y1546687D01*
X1933659*
Y1542687*
X1936452*
X1937159Y1543394*
Y1545980*
X1933663Y1542687D02*
Y1546687D01*
X1934163Y1542687D02*
Y1546687D01*
X1934663Y1542687D02*
Y1546687D01*
X1935163Y1542687D02*
Y1546687D01*
X1935663Y1542687D02*
Y1546687D01*
X1936163Y1542687D02*
Y1546687D01*
X1936663Y1542898D02*
Y1546476D01*
X1913331Y1483815D02*
X1910538D01*
X1909831Y1483108*
Y1480522*
X1910538Y1479815*
X1913331*
Y1483815*
X1909835Y1480518D02*
Y1483111D01*
X1910335Y1480018D02*
Y1483611D01*
X1910835Y1479815D02*
Y1483815D01*
X1911335Y1479815D02*
Y1483815D01*
X1911835Y1479815D02*
Y1483815D01*
X1912335Y1479815D02*
Y1483815D01*
X1912835Y1479815D02*
Y1483815D01*
X1920831Y1483108D02*
X1920124Y1483815D01*
X1917331*
Y1479815*
X1920124*
X1920831Y1480522*
Y1483108*
X1917335Y1479815D02*
Y1483815D01*
X1917835Y1479815D02*
Y1483815D01*
X1918335Y1479815D02*
Y1483815D01*
X1918835Y1479815D02*
Y1483815D01*
X1919335Y1479815D02*
Y1483815D01*
X1919835Y1479815D02*
Y1483815D01*
X1920335Y1480026D02*
Y1483604D01*
X1870807Y1636429D02*
X1868014D01*
X1867307Y1635722*
Y1633136*
X1868014Y1632429*
X1870807*
Y1636429*
X1867311Y1633132D02*
Y1635725D01*
X1867811Y1632632D02*
Y1636225D01*
X1868311Y1632429D02*
Y1636429D01*
X1868811Y1632429D02*
Y1636429D01*
X1869311Y1632429D02*
Y1636429D01*
X1869811Y1632429D02*
Y1636429D01*
X1870311Y1632429D02*
Y1636429D01*
X1878307Y1635722D02*
X1877600Y1636429D01*
X1874807*
Y1632429*
X1877600*
X1878307Y1633136*
Y1635722*
X1874811Y1632429D02*
Y1636429D01*
X1875311Y1632429D02*
Y1636429D01*
X1875811Y1632429D02*
Y1636429D01*
X1876311Y1632429D02*
Y1636429D01*
X1876811Y1632429D02*
Y1636429D01*
X1877311Y1632429D02*
Y1636429D01*
X1877811Y1632640D02*
Y1636218D01*
G54D18*
X2120926Y1474491D03*
Y1464491D03*
G54D25*
X2004316Y1536526D03*
X2003263Y1540786D03*
X1888601Y1481322D03*
X1919178Y1490203D03*
X1929091Y1497533D03*
X1918459Y1529001D03*
X1887538Y1528038D03*
X1883585Y1516385D03*
G54D35*
X2157866Y1727809D02*
Y1744783D01*
X2142839*
Y1727809*
X2157866*
X2142949D02*
Y1744783D01*
X2143540Y1727809D02*
Y1744783D01*
X2144130Y1727809D02*
Y1744783D01*
X2144721Y1727809D02*
Y1744783D01*
X2145311Y1727809D02*
Y1744783D01*
X2145902Y1727809D02*
Y1744783D01*
X2146492Y1727809D02*
Y1744783D01*
X2147083Y1727809D02*
Y1744783D01*
X2147674Y1727809D02*
Y1744783D01*
X2148264Y1727809D02*
Y1744783D01*
X2148855Y1727809D02*
Y1744783D01*
X2149445Y1727809D02*
Y1744783D01*
X2150036Y1727809D02*
Y1744783D01*
X2150626Y1727809D02*
Y1744783D01*
X2151217Y1727809D02*
Y1744783D01*
X2151807Y1727809D02*
Y1744783D01*
X2152398Y1727809D02*
Y1744783D01*
X2152988Y1727809D02*
Y1744783D01*
X2153579Y1727809D02*
Y1744783D01*
X2154170Y1727809D02*
Y1744783D01*
X2154760Y1727809D02*
Y1744783D01*
X2155351Y1727809D02*
Y1744783D01*
X2155941Y1727809D02*
Y1744783D01*
X2156532Y1727809D02*
Y1744783D01*
X2157122Y1727809D02*
Y1744783D01*
X2157713Y1727809D02*
Y1744783D01*
X2157866Y1688809D02*
Y1705783D01*
X2142839*
Y1688809*
X2157866*
X2142949D02*
Y1705783D01*
X2143540Y1688809D02*
Y1705783D01*
X2144130Y1688809D02*
Y1705783D01*
X2144721Y1688809D02*
Y1705783D01*
X2145311Y1688809D02*
Y1705783D01*
X2145902Y1688809D02*
Y1705783D01*
X2146492Y1688809D02*
Y1705783D01*
X2147083Y1688809D02*
Y1705783D01*
X2147674Y1688809D02*
Y1705783D01*
X2148264Y1688809D02*
Y1705783D01*
X2148855Y1688809D02*
Y1705783D01*
X2149445Y1688809D02*
Y1705783D01*
X2150036Y1688809D02*
Y1705783D01*
X2150626Y1688809D02*
Y1705783D01*
X2151217Y1688809D02*
Y1705783D01*
X2151807Y1688809D02*
Y1705783D01*
X2152398Y1688809D02*
Y1705783D01*
X2152988Y1688809D02*
Y1705783D01*
X2153579Y1688809D02*
Y1705783D01*
X2154170Y1688809D02*
Y1705783D01*
X2154760Y1688809D02*
Y1705783D01*
X2155351Y1688809D02*
Y1705783D01*
X2155941Y1688809D02*
Y1705783D01*
X2156532Y1688809D02*
Y1705783D01*
X2157122Y1688809D02*
Y1705783D01*
X2157713Y1688809D02*
Y1705783D01*
X2157866Y1656809D02*
Y1673783D01*
X2142839*
Y1656809*
X2157866*
X2142949D02*
Y1673783D01*
X2143540Y1656809D02*
Y1673783D01*
X2144130Y1656809D02*
Y1673783D01*
X2144721Y1656809D02*
Y1673783D01*
X2145311Y1656809D02*
Y1673783D01*
X2145902Y1656809D02*
Y1673783D01*
X2146492Y1656809D02*
Y1673783D01*
X2147083Y1656809D02*
Y1673783D01*
X2147674Y1656809D02*
Y1673783D01*
X2148264Y1656809D02*
Y1673783D01*
X2148855Y1656809D02*
Y1673783D01*
X2149445Y1656809D02*
Y1673783D01*
X2150036Y1656809D02*
Y1673783D01*
X2150626Y1656809D02*
Y1673783D01*
X2151217Y1656809D02*
Y1673783D01*
X2151807Y1656809D02*
Y1673783D01*
X2152398Y1656809D02*
Y1673783D01*
X2152988Y1656809D02*
Y1673783D01*
X2153579Y1656809D02*
Y1673783D01*
X2154170Y1656809D02*
Y1673783D01*
X2154760Y1656809D02*
Y1673783D01*
X2155351Y1656809D02*
Y1673783D01*
X2155941Y1656809D02*
Y1673783D01*
X2156532Y1656809D02*
Y1673783D01*
X2157122Y1656809D02*
Y1673783D01*
X2157713Y1656809D02*
Y1673783D01*
G54D44*
X1781961Y1418892D02*
X2218040D01*
X2218040D02*
Y1781108D01*
X2218040D02*
X1781961D01*
X1781961D02*
Y1418892D01*
G54D53*
G54D55*
X2036748Y1489270D03*
G54D83*
X1871968Y1490478D03*
X1878968D03*
X1902355Y1481858D03*
X1895355D03*
X2126366Y1702786D03*
X2119366D03*
X2126366Y1665286D03*
X2119366D03*
X2057673Y1486476D03*
X2050673D03*
X2057690Y1478492D03*
X2050690D03*
X2126390Y1744639D03*
X2119390D03*
X1871911Y1502474D03*
X1878911D03*
X1928159Y1544687D03*
X1935159D03*
X1911831Y1481815D03*
X1918831D03*
X1869307Y1634429D03*
X1876307D03*
G54D306*
X2164197Y1445993D03*
X2170693D03*
X2131275D03*
X2137771D03*
X2169863Y1704038D03*
Y1710535D03*
X1801154Y1462434D03*
X1794657D03*
X2169782Y1656075D03*
Y1662572D03*
X2169863Y1754038D03*
Y1760535D03*
X2157863Y1569038D03*
Y1575535D03*
X1801054Y1455271D03*
X1794557D03*
X1801147Y1469559D03*
X1794650D03*
X2121012Y1489890D03*
Y1483393D03*
G54D381*
X2090169Y1650545D03*
Y1541096D03*
G54D525*
X2039735Y1580939D03*
X2042885D03*
X2046035D03*
X2058635D03*
X2061785D03*
X2064935D03*
X2039735Y1577789D03*
X2042885D03*
X2046035D03*
X2058635D03*
X2061785D03*
X2064935D03*
X2039735Y1574639D03*
X2042885D03*
X2046035D03*
X2058635D03*
X2061785D03*
X2064935D03*
X2039735Y1571489D03*
X2042885D03*
X2046035D03*
X2058635D03*
X2061785D03*
X2064935D03*
X2039735Y1568339D03*
X2042885D03*
X2046035D03*
X2058635D03*
X2061785D03*
X2064935D03*
X2039735Y1565189D03*
X2042885D03*
X2046035D03*
X2058635D03*
X2061785D03*
X2064935D03*
X2039735Y1562039D03*
X2042885D03*
X2046035D03*
X2058635D03*
X2061785D03*
X2064935D03*
X2039735Y1558889D03*
X2042885D03*
X2046035D03*
X2058635D03*
X2061785D03*
X2064935D03*
X2039735Y1555739D03*
X2042885D03*
X2046035D03*
X2058635D03*
X2061785D03*
X2064935D03*
X2039735Y1552589D03*
X2042885D03*
X2046035D03*
X2058635D03*
X2061785D03*
X2064935D03*
X2039735Y1549439D03*
X2042885D03*
X2046035D03*
X2058635D03*
X2061785D03*
X2064935D03*
X2039735Y1546289D03*
X2042885D03*
X2046035D03*
X2058635D03*
X2061785D03*
X2064935D03*
X2039735Y1543139D03*
X2042885D03*
X2046035D03*
X2058635D03*
X2061785D03*
X2064935D03*
X2039735Y1539989D03*
X2042885D03*
X2046035D03*
X2058635D03*
X2061785D03*
X2064935D03*
X2039735Y1536839D03*
X2042885D03*
X2046035D03*
X2058635D03*
X2061785D03*
X2064935D03*
X2039735Y1533689D03*
X2042885D03*
X2046035D03*
X2058635D03*
X2061785D03*
X2064935D03*
X2009106Y1548042D03*
X2005956D03*
X2002806D03*
X1999657D03*
X1996507D03*
X1993358D03*
X1990208D03*
X1987058D03*
X1983910D03*
X1980760D03*
X1977611D03*
X1974461D03*
X1971311D03*
X1968162D03*
X1965012D03*
X1961863D03*
X1958713D03*
X1955563D03*
X2009106Y1551192D03*
X2005956D03*
X2002806D03*
X1999657D03*
X1996507D03*
X1993358D03*
X1990208D03*
X1987058D03*
X1983910D03*
X1980760D03*
X1977611D03*
X1974461D03*
X1971311D03*
X1968162D03*
X1965012D03*
X1961863D03*
X1958713D03*
X1955563D03*
X2009106Y1554342D03*
X2005956D03*
X2002806D03*
X1999657D03*
X1996507D03*
X1993358D03*
X1990208D03*
X1987058D03*
X1983910D03*
X1980760D03*
X1977611D03*
X1974461D03*
X1971311D03*
X1968162D03*
X1965012D03*
X1961863D03*
X1958713D03*
X1955563D03*
X2009106Y1557492D03*
X2005956D03*
X2002806D03*
X1999657D03*
X1996507D03*
X1993358D03*
X1990208D03*
X1987058D03*
X1983910D03*
X1980760D03*
X1977611D03*
X1974461D03*
X1971311D03*
X1968162D03*
X1965012D03*
X1961863D03*
X1958713D03*
X1955563D03*
X2009106Y1560642D03*
X2005956D03*
X2002806D03*
X1999657D03*
X1996507D03*
X1993358D03*
X1990208D03*
X1987058D03*
X1983910D03*
X1980760D03*
X1977611D03*
X1974461D03*
X1971311D03*
X1968162D03*
X1965012D03*
X1961863D03*
X1958713D03*
X1955563D03*
X2009106Y1563791D03*
X2005956D03*
X2002806D03*
X1999657D03*
X1996507D03*
X1993358D03*
X1990208D03*
X1987058D03*
X1983910D03*
X1980760D03*
X1977611D03*
X1974461D03*
X1971311D03*
X1968162D03*
X1965012D03*
X1961863D03*
X1958713D03*
X1955563D03*
X2009106Y1566941D03*
X2005956D03*
X2002806D03*
X1999657D03*
X1996507D03*
X1993358D03*
X1990208D03*
X1987058D03*
X1983910D03*
X1980760D03*
X1977611D03*
X1974461D03*
X1971311D03*
X1968162D03*
X1965012D03*
X1961863D03*
X1958713D03*
X1955563D03*
X2009106Y1570091D03*
X2005956D03*
X2002806D03*
X1999657D03*
X1996507D03*
X1993358D03*
X1990208D03*
X1987058D03*
X1983910D03*
X1980760D03*
X1977611D03*
X1974461D03*
X1971311D03*
X1968162D03*
X1965012D03*
X1961863D03*
X1958713D03*
X1955563D03*
X2009106Y1573239D03*
X2005956D03*
X2002806D03*
X1999657D03*
X1996507D03*
X1993358D03*
X1990208D03*
X1987058D03*
X1983910D03*
X1980760D03*
X1977611D03*
X1974461D03*
X1971311D03*
X1968162D03*
X1965012D03*
X1961863D03*
X1958713D03*
X1955563D03*
X2009106Y1576389D03*
X2005956D03*
X2002806D03*
X1999657D03*
X1996507D03*
X1993358D03*
X1990208D03*
X1987058D03*
X1983910D03*
X1980760D03*
X1977611D03*
X1974461D03*
X1971311D03*
X1968162D03*
X1965012D03*
X1961863D03*
X1958713D03*
X1955563D03*
X2009106Y1579538D03*
X2005956D03*
X2002806D03*
X1999657D03*
X1996507D03*
X1993358D03*
X1990208D03*
X1987058D03*
X1983910D03*
X1980760D03*
X1977611D03*
X1974461D03*
X1971311D03*
X1968162D03*
X1965012D03*
X1961863D03*
X1958713D03*
X1955563D03*
X2009106Y1582688D03*
X2005956D03*
X2002806D03*
X1999657D03*
X1996507D03*
X1993358D03*
X1990208D03*
X1987058D03*
X1983910D03*
X1980760D03*
X1977611D03*
X1974461D03*
X1971311D03*
X1968162D03*
X1965012D03*
X1961863D03*
X1958713D03*
X1955563D03*
X2009106Y1585838D03*
X2005956D03*
X2002806D03*
X1999657D03*
X1996507D03*
X1993358D03*
X1990208D03*
X1987058D03*
X1983910D03*
X1980760D03*
X1977611D03*
X1974461D03*
X1971311D03*
X1968162D03*
X1965012D03*
X1961863D03*
X1958713D03*
X1955563D03*
X2009106Y1588987D03*
X2005956D03*
X2002806D03*
X1999657D03*
X1996507D03*
X1993358D03*
X1990208D03*
X1987058D03*
X1983910D03*
X1980760D03*
X1977611D03*
X1974461D03*
X1971311D03*
X1968162D03*
X1965012D03*
X1961863D03*
X1958713D03*
X1955563D03*
X2009106Y1592137D03*
X2005956D03*
X2002806D03*
X1999657D03*
X1996507D03*
X1993358D03*
X1990208D03*
X1987058D03*
X1983910D03*
X1980760D03*
X1977611D03*
X1974461D03*
X1971311D03*
X1968162D03*
X1965012D03*
X1961863D03*
X1958713D03*
X1955563D03*
X2009106Y1595286D03*
X2005956D03*
X2002806D03*
X1999657D03*
X1996507D03*
X1993358D03*
X1990208D03*
X1987058D03*
X1983910D03*
X1980760D03*
X1977611D03*
X1974461D03*
X1971311D03*
X1968162D03*
X1965012D03*
X1961863D03*
X1958713D03*
X1955563D03*
X2009106Y1598436D03*
X2005956D03*
X2002806D03*
X1999657D03*
X1996507D03*
X1993358D03*
X1990208D03*
X1987058D03*
X1983910D03*
X1980760D03*
X1977611D03*
X1974461D03*
X1971311D03*
X1968162D03*
X1965012D03*
X1961863D03*
X1958713D03*
X1955563D03*
X2009106Y1601586D03*
X2005956D03*
X2002806D03*
X1999657D03*
X1996507D03*
X1993358D03*
X1990208D03*
X1987058D03*
X1983910D03*
X1980760D03*
X1977611D03*
X1974461D03*
X1971311D03*
X1968162D03*
X1965012D03*
X1961863D03*
X1958713D03*
X1955563D03*
G54D704*
X1912125Y1451309D03*
X1908125D03*
X1880075Y1516336D03*
X1876075D03*
X1948466Y1475499D03*
X1952466D03*
X1948522Y1449216D03*
X1952522D03*
X1876096Y1524564D03*
X1880096D03*
X1865359Y1674430D03*
Y1670430D03*
X1880182Y1520440D03*
X1876182D03*
X2065851Y1503286D03*
X2061851D03*
X2154942Y1678899D03*
X2150942D03*
X1869492Y1623513D03*
X1873492D03*
X1873468Y1627513D03*
X1869468D03*
X1981471Y1531717D03*
Y1527717D03*
X1936333Y1538773D03*
X1932333D03*
X1973471Y1531717D03*
Y1527717D03*
X2098875Y1507286D03*
X2102875D03*
X2098875Y1498286D03*
X2102875D03*
X2143851Y1683286D03*
X2139851D03*
X2019662Y1481739D03*
X2023662D03*
X2147851Y1719286D03*
X2143851D03*
X1828894Y1723605D03*
X1832894D03*
X1945841Y1531128D03*
Y1535128D03*
X1879795Y1651130D03*
Y1647130D03*
X1924323Y1569814D03*
X1920323D03*
X1924323Y1565814D03*
X1920323D03*
X1924323Y1592314D03*
X1920323D03*
X1920347Y1562314D03*
X1924347D03*
X1952565Y1457314D03*
X1948565D03*
X1851929Y1657507D03*
X1847929D03*
X2056527Y1591455D03*
X2060527D03*
X2111851Y1493286D03*
X2107851D03*
X2117351Y1671786D03*
X2113351D03*
X2098875Y1502786D03*
X2102875D03*
X2023638Y1486239D03*
X2019638D03*
X1939322Y1569314D03*
X1935322D03*
X2118351Y1633786D03*
X2114351D03*
X2100771Y1453401D03*
X2104771D03*
X2055599D03*
X2059599D03*
X2006493D03*
X2002493D03*
X2095747D03*
X2091747D03*
X2169989Y1767492D03*
Y1771492D03*
X2050644Y1492200D03*
X2054644D03*
X2050858Y1501114D03*
X2054858D03*
X2152875Y1719286D03*
X2156875D03*
X1908022Y1459716D03*
X1912022D03*
X1952480Y1465708D03*
X1948480D03*
X1979948Y1536064D03*
X1975948D03*
X2011517Y1453401D03*
X2015517D03*
X2169857Y1679098D03*
Y1683098D03*
X2169863Y1669298D03*
Y1673298D03*
X2144623Y1445993D03*
X2148623D03*
X2157863Y1554298D03*
Y1558298D03*
X2111851Y1498286D03*
X2107851D03*
X2125851Y1671786D03*
X2121851D03*
X2051575Y1453401D03*
X2047575D03*
X1856799Y1657507D03*
X1860799D03*
X1861322Y1515814D03*
X1857322D03*
X1880128Y1510806D03*
X1876128D03*
X1857314Y1520191D03*
X1861314D03*
X1882899Y1569836D03*
X1878899D03*
X1924323Y1588314D03*
X1920323D03*
X2126851Y1633786D03*
X2122851D03*
X2150875Y1683286D03*
X2154875D03*
X2102851Y1493286D03*
X2098851D03*
X2178349Y1445992D03*
X2182349D03*
X1810896Y1462434D03*
X1806896D03*
X1952506Y1471332D03*
X1948506D03*
X1908022Y1455716D03*
X1912022D03*
X2116351Y1713286D03*
X2112351D03*
X2125851D03*
X2121851D03*
X1943492Y1734026D03*
X1947492D03*
X1939468D03*
X1935468D03*
X2064886Y1733893D03*
X2068886D03*
X1984036Y1733932D03*
X1988036D03*
X2060862Y1733893D03*
X2056862D03*
X2105709Y1733879D03*
X2109709D03*
X2024357Y1733849D03*
X2028357D03*
X2101685Y1733879D03*
X2097685D03*
X2020333Y1733849D03*
X2016333D03*
X1815894Y1723634D03*
X1819894D03*
X1980012Y1733932D03*
X1976012D03*
X1977471Y1531717D03*
Y1527717D03*
X1906798Y1528255D03*
X1902798D03*
X2156851Y1714286D03*
X2152851D03*
X1952559Y1453138D03*
X1948559D03*
X1924323Y1573314D03*
X1920323D03*
X1878747Y1591739D03*
X1882747D03*
X1924323Y1584814D03*
X1920323D03*
X1969471Y1531717D03*
Y1527717D03*
X1861119Y1511216D03*
X1857119D03*
X1908022Y1463716D03*
X1912022D03*
X1924323Y1577314D03*
X1920323D03*
X1924323Y1580814D03*
X1920323D03*
X1979293Y1616945D03*
Y1620945D03*
X2056495Y1595870D03*
X2060495D03*
X2065566Y1595822D03*
X2069566D03*
X2065584Y1591370D03*
X2069584D03*
X2145103Y1499202D03*
X2149103D03*
X1810796Y1455271D03*
X1806796D03*
X1948512Y1461484D03*
X1952512D03*
X2116875Y1498286D03*
X2120875D03*
X1810889Y1469559D03*
X1806889D03*
X2054686Y1496669D03*
X2050686D03*
G54D705*
X1925939Y1514125D03*
Y1505125D03*
G54D707*
X1857838Y1679057D03*
X1850338D03*
X1871213Y1687428D03*
X1878713D03*
X1848833Y1737682D03*
X1841333D03*
X1858099Y1687656D03*
X1850599D03*
G54D708*
X1995441Y1509644D03*
X2017091D03*
Y1522244D03*
X1995441D03*
G54D709*
X1907544Y1561108D03*
X1892584D03*
G54D710*
X1934809Y1470031D03*
Y1472590D03*
Y1475149D03*
X1926148D03*
Y1470031D03*
G54D711*
X1894175Y1572371D03*
X1907965D03*
Y1592171D03*
X1894175D03*
G54D712*
X1896145Y1572371D03*
X1898115D03*
X1900085D03*
X1902055D03*
X1904025D03*
X1905995D03*
Y1592171D03*
X1904025D03*
X1902055D03*
X1900085D03*
X1898115D03*
X1896145D03*
G54D713*
X1910970Y1575376D03*
Y1589166D03*
X1891170D03*
Y1575376D03*
G54D714*
X1910970Y1577346D03*
Y1579316D03*
Y1581286D03*
Y1583256D03*
Y1585226D03*
Y1587196D03*
X1891170D03*
Y1585226D03*
Y1583256D03*
Y1581286D03*
Y1579316D03*
Y1577346D03*
G54D715*
X1901070Y1582271D03*
G54D716*
X1892229Y1516975D03*
Y1515401D03*
Y1513826D03*
Y1512251D03*
Y1510676D03*
Y1509101D03*
Y1507527D03*
Y1505952D03*
Y1504377D03*
Y1502802D03*
Y1501227D03*
Y1499653D03*
X1916440D03*
Y1501227D03*
Y1502802D03*
Y1504377D03*
Y1505952D03*
Y1507527D03*
Y1509101D03*
Y1510676D03*
Y1512251D03*
Y1513826D03*
Y1515401D03*
Y1516975D03*
G54D717*
X1895674Y1496209D03*
X1897248D03*
X1898823D03*
X1900398D03*
X1901973D03*
X1903548D03*
X1905121D03*
X1906696D03*
X1908271D03*
X1909846D03*
X1911421D03*
X1912995D03*
Y1520420D03*
X1911421D03*
X1909846D03*
X1908271D03*
X1906696D03*
X1905121D03*
X1903548D03*
X1901973D03*
X1900398D03*
X1898823D03*
X1897248D03*
X1895674D03*
G54D718*
X1904334Y1508314D03*
G54D721*
X1801236Y1539453D03*
X1798480D03*
X1795724D03*
X1792968D03*
Y1482309D03*
X1795724D03*
X1798480D03*
X1801236D03*
G54D722*
X1840564Y1496019D03*
Y1534405D03*
G54D723*
X1831295Y1539424D03*
X1826176Y1482338D03*
G54D724*
X1787988Y1539213D03*
Y1482549D03*
G54D725*
X1842526Y1524365D03*
Y1500744D03*
G54D726*
X1871890Y1660402D03*
X1874450D03*
X1877009D03*
X1879569D03*
Y1678602D03*
X1877009D03*
X1874450D03*
X1871890D03*
G54D727*
X1875730Y1669502D03*
G54D728*
X2072112Y1503958D03*
Y1501990D03*
Y1500021D03*
Y1498052D03*
Y1496084D03*
X2091797D03*
Y1498052D03*
Y1500021D03*
Y1501990D03*
Y1503958D03*
G54D729*
X2081954Y1500021D03*
G54D730*
X2033795Y1483365D03*
X2035764D03*
X2037732D03*
X2039701D03*
Y1495176D03*
X2037732D03*
X2035764D03*
X2033795D03*
G54D731*
X2042653Y1486317D03*
Y1488286D03*
Y1490254D03*
Y1492223D03*
X2030842D03*
Y1490254D03*
Y1488286D03*
Y1486317D03*
G54D732*
X2052474Y1686386D03*
X2049915D03*
X2047356D03*
X2044797D03*
X2042238D03*
X2039679D03*
X2037120D03*
X2034561D03*
Y1660401D03*
X2037120D03*
X2039679D03*
X2042238D03*
X2044797D03*
X2047356D03*
X2049915D03*
X2052474D03*
X2063508Y1724886D03*
X2060949D03*
X2058390D03*
X2055831D03*
X2053272D03*
X2050713D03*
X2048154D03*
X2045595D03*
X2043036D03*
X2040477D03*
X2037918D03*
X2035359D03*
X2032800D03*
X2030241D03*
Y1698901D03*
X2032800D03*
X2035359D03*
X2037918D03*
X2040477D03*
X2043036D03*
X2045595D03*
X2048154D03*
X2050713D03*
X2053272D03*
X2055831D03*
X2058390D03*
X2060949D03*
X2063508D03*
X1942114Y1725019D03*
X1939555D03*
X1936996D03*
X1934437D03*
X1931878D03*
X1929319D03*
X1926760D03*
X1924201D03*
X1921642D03*
X1919083D03*
X1916524D03*
X1913965D03*
X1911406D03*
X1908847D03*
Y1699034D03*
X1911406D03*
X1913965D03*
X1916524D03*
X1919083D03*
X1921642D03*
X1924201D03*
X1926760D03*
X1929319D03*
X1931878D03*
X1934437D03*
X1936996D03*
X1939555D03*
X1942114D03*
X1931080Y1686519D03*
X1928521D03*
X1925962D03*
X1923403D03*
X1920844D03*
X1918285D03*
X1915726D03*
X1913167D03*
Y1660534D03*
X1915726D03*
X1918285D03*
X1920844D03*
X1923403D03*
X1925962D03*
X1928521D03*
X1931080D03*
X1982658Y1724925D03*
X1980099D03*
X1977540D03*
X1974981D03*
X1972422D03*
X1969863D03*
X1967304D03*
X1964745D03*
X1962186D03*
X1959627D03*
X1957068D03*
X1954509D03*
X1951950D03*
X1949391D03*
Y1698940D03*
X1951950D03*
X1954509D03*
X1957068D03*
X1959627D03*
X1962186D03*
X1964745D03*
X1967304D03*
X1969863D03*
X1972422D03*
X1974981D03*
X1977540D03*
X1980099D03*
X1982658D03*
X1971624Y1686425D03*
X1969065D03*
X1966506D03*
X1963947D03*
X1961388D03*
X1958829D03*
X1956270D03*
X1953711D03*
Y1660440D03*
X1956270D03*
X1958829D03*
X1961388D03*
X1963947D03*
X1966506D03*
X1969065D03*
X1971624D03*
X2104331Y1724872D03*
X2101772D03*
X2099213D03*
X2096654D03*
X2094095D03*
X2091536D03*
X2088977D03*
X2086418D03*
X2083859D03*
X2081300D03*
X2078741D03*
X2076182D03*
X2073623D03*
X2071064D03*
Y1698887D03*
X2073623D03*
X2076182D03*
X2078741D03*
X2081300D03*
X2083859D03*
X2086418D03*
X2088977D03*
X2091536D03*
X2094095D03*
X2096654D03*
X2099213D03*
X2101772D03*
X2104331D03*
X2022979Y1724842D03*
X2020420D03*
X2017861D03*
X2015302D03*
X2012743D03*
X2010184D03*
X2007625D03*
X2005066D03*
X2002507D03*
X1999948D03*
X1997389D03*
X1994830D03*
X1992271D03*
X1989712D03*
Y1698857D03*
X1992271D03*
X1994830D03*
X1997389D03*
X1999948D03*
X2002507D03*
X2005066D03*
X2007625D03*
X2010184D03*
X2012743D03*
X2015302D03*
X2017861D03*
X2020420D03*
X2022979D03*
X2011945Y1686342D03*
X2009386D03*
X2006827D03*
X2004268D03*
X2001709D03*
X1999150D03*
X1996591D03*
X1994032D03*
Y1660357D03*
X1996591D03*
X1999150D03*
X2001709D03*
X2004268D03*
X2006827D03*
X2009386D03*
X2011945D03*
X2093297Y1686372D03*
X2090738D03*
X2088179D03*
X2085620D03*
X2083061D03*
X2080502D03*
X2077943D03*
X2075384D03*
Y1660387D03*
X2077943D03*
X2080502D03*
X2083061D03*
X2085620D03*
X2088179D03*
X2090738D03*
X2093297D03*
G54D733*
X2046874Y1711893D03*
X1925480Y1712026D03*
X1966024Y1711932D03*
X2087697Y1711879D03*
X2006345Y1711849D03*
G54D734*
X2085792Y1474825D03*
X2105477D03*
G54D735*
X2023618Y1467785D03*
X2044878D03*
G54D736*
X2079540Y1644206D03*
Y1642238D03*
Y1640269D03*
Y1638301D03*
Y1636332D03*
Y1634364D03*
Y1632395D03*
Y1630427D03*
Y1628458D03*
Y1626490D03*
Y1624521D03*
Y1622553D03*
Y1620584D03*
Y1618616D03*
Y1616647D03*
Y1614679D03*
Y1612710D03*
Y1610742D03*
Y1608773D03*
Y1606805D03*
Y1604836D03*
Y1602868D03*
Y1600899D03*
Y1598931D03*
Y1596962D03*
Y1594994D03*
Y1593025D03*
Y1591057D03*
Y1589088D03*
Y1587120D03*
Y1585151D03*
Y1583183D03*
Y1581214D03*
Y1579246D03*
Y1577277D03*
Y1575309D03*
Y1573340D03*
Y1571372D03*
Y1569403D03*
Y1567435D03*
Y1565466D03*
Y1563498D03*
Y1561529D03*
Y1559561D03*
Y1557592D03*
Y1555624D03*
Y1553655D03*
Y1551687D03*
Y1549718D03*
Y1547750D03*
G54D737*
X2070006Y1467012D03*
Y1486697D03*
G54D738*
X1850401Y1671431D03*
Y1669464D03*
Y1665525D03*
Y1663557D03*
X1853844D03*
Y1665525D03*
Y1669464D03*
Y1671431D03*
X1815524Y1720301D03*
Y1718333D03*
Y1714395D03*
Y1712427D03*
X1818968D03*
Y1714395D03*
Y1718333D03*
Y1720301D03*
G54D739*
X1850401Y1667435D03*
X1853844D03*
X1815524Y1716305D03*
X1818968D03*
G54D740*
X2158455Y1623261D03*
Y1643761D03*
G54D741*
X2043994Y1447642D03*
X2050194D03*
X2063194D03*
X2056994D03*
X2088166D03*
X2094366D03*
X2107366D03*
X2101166D03*
X1999912D03*
X2006112D03*
X2019112D03*
X2012912D03*
X1868817Y1641614D03*
X1875017D03*
X2119763Y1658286D03*
X2125963D03*
X2119763Y1737786D03*
X2125963D03*
X2119763Y1695786D03*
X2125963D03*
G54D742*
X1849848Y1706138D03*
X1829348D03*
G54D743*
X2123113Y1650886D03*
X2119363D03*
X2115613D03*
Y1640686D03*
X2123113D03*
Y1688386D03*
X2119363D03*
X2115613D03*
Y1678186D03*
X2123113D03*
Y1730386D03*
X2119363D03*
X2115613D03*
Y1720186D03*
X2123113D03*
G54D744*
X2135863Y1743964D03*
Y1738846D03*
Y1733727D03*
Y1728609D03*
X2160666D03*
Y1733727D03*
Y1738846D03*
Y1743964D03*
X2135863Y1704964D03*
Y1699846D03*
Y1694727D03*
Y1689609D03*
X2160666D03*
Y1694727D03*
Y1699846D03*
Y1704964D03*
X2135863Y1672964D03*
Y1667846D03*
Y1662727D03*
Y1657609D03*
X2160666D03*
Y1662727D03*
Y1667846D03*
Y1672964D03*
G54D745*
X1848997Y1650571D03*
Y1646821D03*
Y1643071D03*
X1859197D03*
Y1650571D03*
G54D746*
X1860491Y1629378D03*
X1849862D03*
G54D747*
X1802194Y1722120D03*
Y1719561D03*
Y1717002D03*
Y1714443D03*
Y1711884D03*
G54D750*
X1941573Y1455847D03*
Y1458406D03*
Y1460965D03*
Y1463524D03*
X1919526D03*
Y1460965D03*
Y1458406D03*
Y1455847D03*
G54D753*
X1899647Y1464929D03*
Y1450363D03*
X1875237D03*
Y1464929D03*
X1793423Y1755887D03*
Y1770453D03*
X1817833D03*
Y1755887D03*
X0Y0D02*
M02*
