*
*
G04 PADS 9.5 Build Number: 522968 generated Gerber (RS-274-X) file*
G04 PC Version=2.1*
*
%IN "3DP_V10-1116.pcb"*%
*
%MOIN*%
*
%FSLAX35Y35*%
*
*
*
*
G04 PC Standard Apertures*
*
*
G04 Thermal Relief Aperture macro.*
%AMTER*
1,1,$1,0,0*
1,0,$1-$2,0,0*
21,0,$3,$4,0,0,45*
21,0,$3,$4,0,0,135*
%
*
*
G04 Annular Aperture macro.*
%AMANN*
1,1,$1,0,0*
1,0,$2,0,0*
%
*
*
G04 Odd Aperture macro.*
%AMODD*
1,1,$1,0,0*
1,0,$1-0.005,0,0*
%
*
*
G04 PC Custom Aperture Macros*
*
*
*
*
*
*
G04 PC Aperture Table*
*
%ADD016C,0.01*%
%ADD035C,0.01181*%
%ADD037C,0.006*%
%ADD038C,0.00787*%
%ADD042C,0.01969*%
%ADD044C,0.005*%
%ADD053C,0.001*%
%ADD064C,0.002*%
%ADD065C,0.007*%
%ADD066C,0.008*%
%ADD341C,0.003*%
%ADD413C,0.004*%
%ADD768C,0.0075*%
%ADD769C,0.0033*%
%ADD770C,0.0028*%
*
*
*
*
G04 PC Circuitry*
G04 Layer Name 3DP_V10-1116.pcb - circuitry*
%LPD*%
*
*
G04 PC Custom Flashes*
G04 Layer Name 3DP_V10-1116.pcb - flashes*
%LPD*%
*
*
G04 PC Circuitry*
G04 Layer Name 3DP_V10-1116.pcb - circuitry*
%LPD*%
*
G54D16*
G01X1893578Y1520897D02*
G75*
G03X1893578I-917J0D01*
G01X1780626Y1615470D02*
X1866626D01*
Y1552870*
X1780626*
Y1615470*
X1830635Y1552870D02*
X1780626D01*
Y1615470*
X1866626*
Y1552870*
X1780626*
Y1615470*
X1830635*
X1875993Y1492498D02*
Y1488498D01*
X1899380Y1479879D02*
Y1483879D01*
X2029273Y1467830D02*
X2032254D01*
X2034754D02*
G03X2032254I-1250J250D01*
G01X2037254D02*
G03X2034754I-1250J250D01*
G01X2037254D02*
X2039773D01*
X2045379Y1467800D02*
G03X2045379I-10630J0D01*
G01X2123391Y1700807D02*
Y1704807D01*
Y1663307D02*
Y1667307D01*
X2054698Y1484497D02*
Y1488497D01*
X2054715Y1476513D02*
Y1480513D01*
X2123415Y1742660D02*
Y1746660D01*
X1875936Y1504494D02*
Y1500494D01*
X1932184Y1546707D02*
Y1542707D01*
X1915856Y1483835D02*
Y1479835D01*
X1873332Y1636449D02*
Y1632449D01*
X1937404Y1465592D02*
Y1453903D01*
X1932720*
G03X1929164I-1778J-0*
G01X1924515*
Y1465592*
X1937404*
X1942438Y1453550D02*
G03X1942438I-1067J0D01*
G54D35*
G01X2077617Y1486718D02*
Y1467032D01*
X2063444*
Y1486718*
X2077617*
X2161228Y1746543D02*
Y1726071D01*
X2136352*
Y1746543*
X2161228*
Y1707543D02*
Y1687071D01*
X2136352*
Y1707543*
X2161228*
Y1675543D02*
Y1655071D01*
X2136352*
Y1675543*
X2161228*
G54D37*
X1861612Y1675578D02*
X1847612D01*
Y1682578*
X1861612*
Y1675578*
X1855297Y1679078D02*
G03X1855297I-685J0D01*
G01X1868487Y1690949D02*
X1882487D01*
Y1683949*
X1868487*
Y1690949*
X1876172Y1687449D02*
G03X1876172I-685J0D01*
G01X1948585Y1649092D02*
G03X1948585I-1161J0D01*
G01X1892742Y1572155D02*
G03X1892742I-1159J0D01*
G01X2014563Y1544270D02*
G03X2014563I-996J0D01*
G01X2075046Y1493743D02*
Y1506341D01*
X2089751*
Y1493743*
X2075046*
X2073700Y1506147D02*
G03X2073700I-830J0D01*
G01X2055499Y1681940D02*
Y1674602D01*
X2055499D02*
X2054049D01*
X2054049D02*
Y1672227D01*
X2054049D02*
X2055499D01*
X2055499D02*
Y1664789D01*
X2032299*
Y1681940*
X2055499*
X2056374Y1685890D02*
G03X2056374I-946J0D01*
G01X2066691Y1720440D02*
Y1713101D01*
X2065083Y1713102*
X2065083D02*
Y1710727D01*
X2065083D02*
X2066691Y1710726D01*
Y1703289*
X2028108*
Y1720440*
X2066691*
X2067407Y1724390D02*
G03X2067407I-945J0D01*
G01X2093403Y1465397D02*
G03X2098915I2756J9424D01*
G01Y1484294D02*
G03X2093403I-2756J-9424D01*
G01X2079624Y1458310D02*
X2112694D01*
Y1491381*
X2079624*
Y1458310*
X2098915Y1474845D02*
G03X2098915I-2756J0D01*
G01X2086699Y1462255D02*
G03X2105597Y1462239I9460J12600D01*
G01X2105608Y1487444D02*
G03X2086710I-9449J-12585D01*
G01X2173403Y1443613D02*
Y1448413D01*
X2162537*
Y1443613*
X2173403*
X2140480D02*
Y1448413D01*
X2129614*
Y1443613*
X2140480*
X1945297Y1720573D02*
Y1713234D01*
X1943689Y1713235*
X1943689D02*
Y1710860D01*
X1943689D02*
X1945297Y1710859D01*
Y1703422*
X1906714*
Y1720573*
X1945297*
X1946013Y1724523D02*
G03X1946013I-945J0D01*
G01X1934105Y1682073D02*
Y1674735D01*
X1934105D02*
X1932655D01*
X1932655D02*
Y1672360D01*
X1932655D02*
X1934105D01*
X1934105D02*
Y1664922D01*
X1910905*
Y1682073*
X1934105*
X1934980Y1686023D02*
G03X1934980I-946J0D01*
G01X1985841Y1720479D02*
Y1713140D01*
X1984233Y1713141*
X1984233D02*
Y1710766D01*
X1984233D02*
X1985841Y1710765D01*
Y1703328*
X1947258*
Y1720479*
X1985841*
X1986557Y1724429D02*
G03X1986557I-945J0D01*
G01X1974649Y1681979D02*
Y1674641D01*
X1974649D02*
X1973199D01*
X1973199D02*
Y1672266D01*
X1973199D02*
X1974649D01*
X1974649D02*
Y1664828D01*
X1951449*
Y1681979*
X1974649*
X1975524Y1685929D02*
G03X1975524I-946J0D01*
G01X2107514Y1720426D02*
Y1713087D01*
X2105906Y1713088*
X2105906D02*
Y1710713D01*
X2105906D02*
X2107514Y1710712D01*
Y1703275*
X2068931*
Y1720426*
X2107514*
X2108230Y1724376D02*
G03X2108230I-945J0D01*
G01X2026162Y1720396D02*
Y1713057D01*
X2024554Y1713058*
X2024554D02*
Y1710683D01*
X2024554D02*
X2026162Y1710682D01*
Y1703245*
X1987579*
Y1720396*
X2026162*
X2026878Y1724346D02*
G03X2026878I-945J0D01*
G01X2014970Y1681896D02*
Y1674558D01*
X2014970D02*
X2013520D01*
X2013520D02*
Y1672183D01*
X2013520D02*
X2014970D01*
X2014970D02*
Y1664745D01*
X1991770*
Y1681896*
X2014970*
X2015845Y1685846D02*
G03X2015845I-946J0D01*
G01X2096322Y1681926D02*
Y1674588D01*
X2096322D02*
X2094872D01*
X2094872D02*
Y1672213D01*
X2094872D02*
X2096322D01*
X2096322D02*
Y1664775D01*
X2073122*
Y1681926*
X2096322*
X2097197Y1685876D02*
G03X2097197I-946J0D01*
G01X2172787Y1712740D02*
X2167987D01*
Y1701874*
X2172787*
Y1712740*
X1854616Y1662594D02*
X1850678D01*
X1854616Y1672436D02*
X1850678D01*
X1792997Y1464855D02*
Y1460055D01*
X1803863*
Y1464855*
X1792997*
X1819739Y1711463D02*
X1815801D01*
X1819739Y1721305D02*
X1815801D01*
X2172706Y1664777D02*
X2167906D01*
Y1653911*
X2172706*
Y1664777*
X2172787Y1762740D02*
X2167987D01*
Y1751874*
X2172787*
Y1762740*
X2160787Y1577740D02*
X2155987D01*
Y1566874*
X2160787*
Y1577740*
X1792897Y1457692D02*
Y1452892D01*
X1803763*
Y1457692*
X1792897*
X1792990Y1471980D02*
Y1467180D01*
X1803856*
Y1471980*
X1792990*
X2119136Y1481229D02*
X2123936D01*
Y1492095*
X2119136*
Y1481229*
X1958431Y1474251D02*
Y1451810D01*
X1999691*
Y1474251*
X1958431*
X1967061Y1474084D02*
X1958503D01*
Y1471196*
X1967061*
Y1474084*
X1987126Y1474208D02*
X1971061D01*
Y1471495*
X1987126*
Y1474208*
X1999643Y1474231D02*
X1990036D01*
Y1471600*
X1999643*
Y1474231*
X1958626Y1468717D02*
X1961121D01*
Y1455192*
X1996724*
Y1468726*
X1999502*
X1859017Y1757252D02*
Y1779693D01*
X1827757*
Y1757252*
X1859017*
X1850387Y1757419D02*
X1858945D01*
Y1760307*
X1850387*
Y1757419*
X1840341Y1757295D02*
X1846387D01*
Y1760008*
X1840341*
Y1757295*
X1827780Y1757377D02*
X1837387D01*
Y1760008*
X1827780*
Y1757377*
X1858822Y1762786D02*
X1856327D01*
Y1776311*
X1831103*
Y1762777*
X1827967*
X1916017Y1757252D02*
Y1779693D01*
X1864757*
Y1757252*
X1916017*
X1907387Y1757419D02*
X1915945D01*
Y1760307*
X1907387*
Y1757419*
X1876854Y1757295D02*
X1903387D01*
Y1760008*
X1876854*
Y1757295*
X1864829Y1762807D02*
X1867731D01*
Y1776307*
X1913387*
Y1762807*
X1916033*
Y1779609*
X1864829*
Y1762807*
Y1757377D02*
X1873465D01*
Y1760008*
X1864829*
Y1757377*
X2085871Y1757287D02*
Y1779728D01*
X2034611*
Y1757287*
X2085871*
X2077241Y1757454D02*
X2085799D01*
Y1760342*
X2077241*
Y1757454*
X2046708Y1757330D02*
X2073241D01*
Y1760043*
X2046708*
Y1757330*
X2034683Y1762842D02*
X2037585D01*
Y1776342*
X2083241*
Y1762842*
X2085887*
Y1779644*
X2034683*
Y1762842*
Y1757412D02*
X2043319D01*
Y1760043*
X2034683*
Y1757412*
X1972892Y1757260D02*
Y1779701D01*
X1921632*
Y1757260*
X1972892*
X1964262Y1757427D02*
X1972820D01*
Y1760315*
X1964262*
Y1757427*
X1933729Y1757303D02*
X1960262D01*
Y1760016*
X1933729*
Y1757303*
X1921704Y1762815D02*
X1924606D01*
Y1776315*
X1970262*
Y1762815*
X1972908*
Y1779617*
X1921704*
Y1762815*
Y1757385D02*
X1930340D01*
Y1760016*
X1921704*
Y1757385*
X2029047Y1757276D02*
Y1779717D01*
X1977787*
Y1757276*
X2029047*
X2020417Y1757443D02*
X2028975D01*
Y1760331*
X2020417*
Y1757443*
X1989884Y1757319D02*
X2016417D01*
Y1760032*
X1989884*
Y1757319*
X1977859Y1762831D02*
X1980761D01*
Y1776331*
X2026417*
Y1762831*
X2029063*
Y1779633*
X1977859*
Y1762831*
Y1757401D02*
X1986495D01*
Y1760032*
X1977859*
Y1757401*
X2142017Y1757252D02*
Y1779693D01*
X2090757*
Y1757252*
X2142017*
X2133387Y1757419D02*
X2141945D01*
Y1760307*
X2133387*
Y1757419*
X2102854Y1757295D02*
X2129387D01*
Y1760008*
X2102854*
Y1757295*
X2090829Y1762807D02*
X2093731D01*
Y1776307*
X2139387*
Y1762807*
X2142033*
Y1779609*
X2090829*
Y1762807*
Y1757377D02*
X2099465D01*
Y1760008*
X2090829*
Y1757377*
X2195940Y1500386D02*
X2218381D01*
Y1531616*
X2195940*
Y1500386*
X2196107Y1509016D02*
Y1500458D01*
X2198995*
Y1509016*
X2196107*
X2195983Y1519116D02*
Y1513016D01*
X2198696*
Y1519117*
X2195983Y1519116*
X2201495Y1531616D02*
Y1528183D01*
X2214995*
Y1503016*
X2201495*
Y1500370*
X2218297*
Y1531616*
X2201495*
X2196065Y1522224D02*
Y1531656D01*
X2198696*
X2198695Y1522224*
X2196065*
X2195940Y1461016D02*
X2218381D01*
Y1492246*
X2195940*
Y1461016*
X2196107Y1469646D02*
Y1461088D01*
X2198995*
Y1469646*
X2196107*
X2195983Y1479746D02*
Y1473646D01*
X2198696*
Y1479747*
X2195983Y1479746*
X2201495Y1492246D02*
Y1488813D01*
X2214995*
Y1463646*
X2201495*
Y1461000*
X2218297*
Y1492246*
X2201495*
X2196065Y1482854D02*
Y1492286D01*
X2198696*
X2198695Y1482854*
X2196065*
X2195940Y1421646D02*
X2218381D01*
Y1452876*
X2195940*
Y1421646*
X2196107Y1430276D02*
Y1421718D01*
X2198995*
Y1430276*
X2196107*
X2195983Y1440376D02*
Y1434276D01*
X2198696*
Y1440377*
X2195983Y1440376*
X2201495Y1452876D02*
Y1449443D01*
X2214995*
Y1424276*
X2201495*
Y1421630*
X2218297*
Y1452876*
X2201495*
X2196065Y1443484D02*
Y1452916D01*
X2198696*
X2198695Y1443484*
X2196065*
X2122757Y1441362D02*
Y1418921D01*
X2153987*
Y1441362*
X2122757*
X2131387Y1441195D02*
X2122829D01*
Y1438307*
X2131387*
Y1441195*
X2141488Y1441319D02*
X2135387D01*
Y1438606*
X2141488*
Y1441319*
X2153987Y1435807D02*
X2150554D01*
Y1422307*
X2125387*
Y1435807*
X2122741*
Y1419005*
X2153987*
Y1435807*
X2144595Y1441237D02*
X2154027D01*
Y1438606*
X2144595*
Y1441237*
X2157757Y1441362D02*
Y1418921D01*
X2188987*
Y1441362*
X2157757*
X2166387Y1441195D02*
X2157829D01*
Y1438307*
X2166387*
Y1441195*
X2176488Y1441319D02*
X2170387D01*
Y1438606*
X2176488*
Y1441319*
X2188987Y1435807D02*
X2185554D01*
Y1422307*
X2160387*
Y1435807*
X2157741*
Y1419005*
X2188987*
Y1435807*
X2179595Y1441237D02*
X2189027D01*
Y1438606*
X2179595*
Y1441237*
X1887757Y1441362D02*
Y1418921D01*
X1918987*
Y1441362*
X1887757*
X1896387Y1441195D02*
X1887829D01*
Y1438307*
X1896387*
Y1441195*
X1906488Y1441319D02*
X1900387D01*
Y1438606*
X1906488*
Y1441319*
X1918987Y1435807D02*
X1915554D01*
Y1422307*
X1890387*
Y1435807*
X1887741*
Y1419005*
X1918987*
Y1435807*
X1909595Y1441237D02*
X1919027D01*
Y1438606*
X1909595*
Y1441237*
X1955757Y1441362D02*
Y1418921D01*
X1986987*
Y1441362*
X1955757*
X1964387Y1441195D02*
X1955829D01*
Y1438307*
X1964387*
Y1441195*
X1974488Y1441319D02*
X1968387D01*
Y1438606*
X1974488*
Y1441319*
X1986987Y1435807D02*
X1983554D01*
Y1422307*
X1958387*
Y1435807*
X1955741*
Y1419005*
X1986987*
Y1435807*
X1977595Y1441237D02*
X1987027D01*
Y1438606*
X1977595*
Y1441237*
X1921757Y1441362D02*
Y1418921D01*
X1952987*
Y1441362*
X1921757*
X1930387Y1441195D02*
X1921829D01*
Y1438307*
X1930387*
Y1441195*
X1940488Y1441319D02*
X1934387D01*
Y1438606*
X1940488*
Y1441319*
X1952987Y1435807D02*
X1949554D01*
Y1422307*
X1924387*
Y1435807*
X1921741*
Y1419005*
X1952987*
Y1435807*
X1943595Y1441237D02*
X1953027D01*
Y1438606*
X1943595*
Y1441237*
X1853757Y1441362D02*
Y1418921D01*
X1884987*
Y1441362*
X1853757*
X1862387Y1441195D02*
X1853829D01*
Y1438307*
X1862387*
Y1441195*
X1872488Y1441319D02*
X1866387D01*
Y1438606*
X1872488*
Y1441319*
X1884987Y1435807D02*
X1881554D01*
Y1422307*
X1856387*
Y1435807*
X1853741*
Y1419005*
X1884987*
Y1435807*
X1875595Y1441237D02*
X1885027D01*
Y1438606*
X1875595*
Y1441237*
X1819757Y1441362D02*
Y1418921D01*
X1850987*
Y1441362*
X1819757*
X1828387Y1441195D02*
X1819829D01*
Y1438307*
X1828387*
Y1441195*
X1838488Y1441319D02*
X1832387D01*
Y1438606*
X1838488*
Y1441319*
X1850987Y1435807D02*
X1847554D01*
Y1422307*
X1822387*
Y1435807*
X1819741*
Y1419005*
X1850987*
Y1435807*
X1841595Y1441237D02*
X1851027D01*
Y1438606*
X1841595*
Y1441237*
X1785757Y1441362D02*
Y1418921D01*
X1816987*
Y1441362*
X1785757*
X1794387Y1441195D02*
X1785829D01*
Y1438307*
X1794387*
Y1441195*
X1804488Y1441319D02*
X1798387D01*
Y1438606*
X1804488*
Y1441319*
X1816987Y1435807D02*
X1813554D01*
Y1422307*
X1788387*
Y1435807*
X1785741*
Y1419005*
X1816987*
Y1435807*
X1807595Y1441237D02*
X1817027D01*
Y1438606*
X1807595*
Y1441237*
X2077757Y1441362D02*
Y1418921D01*
X2119017*
Y1441362*
X2077757*
X2086387Y1441195D02*
X2077829D01*
Y1438307*
X2086387*
Y1441195*
X2106452Y1441319D02*
X2090387D01*
Y1438606*
X2106452*
Y1441319*
X2118969Y1441342D02*
X2109362D01*
Y1438711*
X2118969*
Y1441342*
X2077952Y1435828D02*
X2080447D01*
Y1422303*
X2116050*
Y1435837*
X2118828*
X2033757Y1441362D02*
Y1418921D01*
X2075017*
Y1441362*
X2033757*
X2042387Y1441195D02*
X2033829D01*
Y1438307*
X2042387*
Y1441195*
X2062452Y1441319D02*
X2046387D01*
Y1438606*
X2062452*
Y1441319*
X2074969Y1441342D02*
X2065362D01*
Y1438711*
X2074969*
Y1441342*
X2033952Y1435828D02*
X2036447D01*
Y1422303*
X2072050*
Y1435837*
X2074828*
X1989757Y1441362D02*
Y1418921D01*
X2031017*
Y1441362*
X1989757*
X1998387Y1441195D02*
X1989829D01*
Y1438307*
X1998387*
Y1441195*
X2018452Y1441319D02*
X2002387D01*
Y1438606*
X2018452*
Y1441319*
X2030969Y1441342D02*
X2021362D01*
Y1438711*
X2030969*
Y1441342*
X1989952Y1435828D02*
X1992447D01*
Y1422303*
X2028050*
Y1435837*
X2030828*
X1852607Y1734203D02*
X1838607D01*
Y1741203*
X1852607*
Y1734203*
X1861873Y1684177D02*
X1847873D01*
Y1691177*
X1861873*
Y1684177*
X1892470Y1457667D02*
G03X1892470I-4504J0D01*
G01X1898366Y1447867D02*
Y1447267D01*
X1877566*
Y1448067*
X1898366Y1452967D02*
Y1462467D01*
X1877566Y1452867D02*
Y1462367D01*
X1898366Y1467367D02*
Y1468067D01*
X1877566*
Y1467367*
X1810656Y1763191D02*
G03X1810656I-4504J0D01*
G01X1795752Y1772991D02*
Y1773591D01*
X1816552*
Y1772791*
X1795752Y1767891D02*
Y1758391D01*
X1816552Y1767991D02*
Y1758491D01*
X1795752Y1753491D02*
Y1752791D01*
X1816552*
Y1753491*
X2102536Y1753600D02*
X2103627Y1749662D01*
X2104718Y1753600D02*
X2103627Y1749662D01*
X2105945Y1753600D02*
Y1749662D01*
Y1753600D02*
X2107173D01*
X2107582Y1753412*
X2107718Y1753225*
X2107854Y1752850*
Y1752475*
X2107718Y1752100*
X2107582Y1751912*
X2107173Y1751725*
X2105945*
X2106900D02*
X2107854Y1749662D01*
X2109082Y1753600D02*
Y1749662D01*
Y1753600D02*
X2110854D01*
X2109082Y1751725D02*
X2110173D01*
X2109082Y1749662D02*
X2110854D01*
X2112082Y1753600D02*
Y1749662D01*
Y1753600D02*
X2113854D01*
X2112082Y1751725D02*
X2113173D01*
X2115082Y1748912D02*
X2117945D01*
X2118763Y1753600D02*
Y1749662D01*
Y1753600D02*
X2120536D01*
X2118763Y1751725D02*
X2119854D01*
X2118763Y1749662D02*
X2120536D01*
X2121763Y1753600D02*
X2123673Y1749662D01*
Y1753600D02*
X2121763Y1749662D01*
X2125854Y1753600D02*
Y1749662D01*
X2124900Y1753600D02*
X2126809D01*
X2128173Y1752662D02*
Y1752850D01*
X2128309Y1753225*
X2128445Y1753412*
X2128718Y1753600*
X2129263*
X2129536Y1753412*
X2129673Y1753225*
X2129809Y1752850*
Y1752475*
X2129673Y1752100*
X2129400Y1751537*
X2128036Y1749662*
X2129945*
X1995536Y1750600D02*
X1996627Y1746662D01*
X1997718Y1750600D02*
X1996627Y1746662D01*
X1998945Y1750600D02*
Y1746662D01*
Y1750600D02*
X2000173D01*
X2000582Y1750412*
X2000718Y1750225*
X2000854Y1749850*
Y1749475*
X2000718Y1749100*
X2000582Y1748912*
X2000173Y1748725*
X1998945*
X1999900D02*
X2000854Y1746662D01*
X2002082Y1750600D02*
Y1746662D01*
Y1750600D02*
X2003854D01*
X2002082Y1748725D02*
X2003173D01*
X2002082Y1746662D02*
X2003854D01*
X2005082Y1750600D02*
Y1746662D01*
Y1750600D02*
X2006854D01*
X2005082Y1748725D02*
X2006173D01*
X2008082Y1745912D02*
X2010945D01*
X2013673Y1750600D02*
X2011763Y1746662D01*
Y1750600D02*
X2013673D01*
X2011763Y1746662D02*
X2013673D01*
X1939536Y1751600D02*
X1940627Y1747662D01*
X1941718Y1751600D02*
X1940627Y1747662D01*
X1942945Y1751600D02*
Y1747662D01*
Y1751600D02*
X1944173D01*
X1944582Y1751412*
X1944718Y1751225*
X1944854Y1750850*
Y1750475*
X1944718Y1750100*
X1944582Y1749912*
X1944173Y1749725*
X1942945*
X1943900D02*
X1944854Y1747662D01*
X1946082Y1751600D02*
Y1747662D01*
Y1751600D02*
X1947854D01*
X1946082Y1749725D02*
X1947173D01*
X1946082Y1747662D02*
X1947854D01*
X1949082Y1751600D02*
Y1747662D01*
Y1751600D02*
X1950854D01*
X1949082Y1749725D02*
X1950173D01*
X1952082Y1746912D02*
X1954945D01*
X1955763Y1751600D02*
X1956854Y1749725D01*
Y1747662*
X1957945Y1751600D02*
X1956854Y1749725D01*
X2048536Y1750600D02*
X2049627Y1746662D01*
X2050718Y1750600D02*
X2049627Y1746662D01*
X2051945Y1750600D02*
Y1746662D01*
Y1750600D02*
X2053173D01*
X2053582Y1750412*
X2053718Y1750225*
X2053854Y1749850*
Y1749475*
X2053718Y1749100*
X2053582Y1748912*
X2053173Y1748725*
X2051945*
X2052900D02*
X2053854Y1746662D01*
X2055082Y1750600D02*
Y1746662D01*
Y1750600D02*
X2056854D01*
X2055082Y1748725D02*
X2056173D01*
X2055082Y1746662D02*
X2056854D01*
X2058082Y1750600D02*
Y1746662D01*
Y1750600D02*
X2059854D01*
X2058082Y1748725D02*
X2059173D01*
X2061082Y1745912D02*
X2063945D01*
X2064763Y1750600D02*
Y1746662D01*
Y1750600D02*
X2066536D01*
X2064763Y1748725D02*
X2065854D01*
X2064763Y1746662D02*
X2066536D01*
X2067763Y1750600D02*
X2069673Y1746662D01*
Y1750600D02*
X2067763Y1746662D01*
X2071854Y1750600D02*
Y1746662D01*
X2070900Y1750600D02*
X2072809D01*
X2074036Y1749850D02*
X2074309Y1750037D01*
X2074718Y1750600*
Y1746662*
X1877536Y1751600D02*
X1878627Y1747662D01*
X1879718Y1751600D02*
X1878627Y1747662D01*
X1880945Y1751600D02*
Y1747662D01*
Y1751600D02*
X1882173D01*
X1882582Y1751412*
X1882718Y1751225*
X1882854Y1750850*
Y1750475*
X1882718Y1750100*
X1882582Y1749912*
X1882173Y1749725*
X1880945*
X1881900D02*
X1882854Y1747662D01*
X1884082Y1751600D02*
Y1747662D01*
Y1751600D02*
X1885854D01*
X1884082Y1749725D02*
X1885173D01*
X1884082Y1747662D02*
X1885854D01*
X1887082Y1751600D02*
Y1747662D01*
Y1751600D02*
X1888854D01*
X1887082Y1749725D02*
X1888173D01*
X1890082Y1746912D02*
X1892945D01*
X1893763Y1751600D02*
X1895673Y1747662D01*
Y1751600D02*
X1893763Y1747662D01*
G54D38*
X1802321Y1683069D02*
Y1679742D01*
Y1674429D02*
Y1670352D01*
X1802269Y1665094D02*
Y1656241D01*
X1802321Y1650662D02*
Y1646637D01*
X1802269Y1640897D02*
Y1637999D01*
X1816244Y1684286D02*
Y1636214D01*
X2173798Y1444125D02*
Y1447727D01*
X2174190Y1445017D02*
Y1446947D01*
X2140875Y1444125D02*
Y1447727D01*
X2141268Y1445017D02*
Y1446947D01*
X2172276Y1713135D02*
X2168673D01*
X2171383Y1713527D02*
X2169453D01*
X1792602Y1464343D02*
Y1460741D01*
X1792210Y1463451D02*
Y1461521D01*
X2172195Y1665172D02*
X2168592D01*
X2171302Y1665564D02*
X2169372D01*
X2172276Y1763135D02*
X2168673D01*
X2171383Y1763527D02*
X2169453D01*
X2160276Y1578135D02*
X2156673D01*
X2159383Y1578527D02*
X2157453D01*
X1792502Y1457180D02*
Y1453578D01*
X1792110Y1456288D02*
Y1454358D01*
X1792595Y1471468D02*
Y1467866D01*
X1792203Y1470576D02*
Y1468646D01*
X2119648Y1480834D02*
X2123250D01*
X2120540Y1480442D02*
X2122471D01*
G54D42*
X2071533Y1480026D02*
X2076361Y1474380D01*
X2064995*
X2071316Y1480242*
G54D44*
X1913449Y1449530D02*
G03X1914449Y1450530I0J1000D01*
G01X1913449Y1449530D02*
X1907849D01*
X1906849Y1450530D02*
G03X1907849Y1449530I1000J0D01*
G01X1906849Y1450530D02*
Y1452130D01*
X1907849Y1453130D02*
G03X1906849Y1452130I0J-1000D01*
G01X1907849Y1453130D02*
X1913449D01*
X1914449Y1452130D02*
G03X1913449Y1453130I-1000J0D01*
G01X1914449Y1452130D02*
Y1450530D01*
X1929463Y1517645D02*
X1923463D01*
X1931463D02*
Y1501645D01*
X1921463*
Y1517645*
X1931463D02*
Y1501645D01*
X1928804*
X1929463Y1517645D02*
X1928804D01*
X1795059Y1634527D02*
X1781817D01*
Y1686107*
X1836937*
Y1634527*
X1781817*
Y1686107*
X1815237*
X1809509Y1634527D02*
X1796355D01*
X1881399Y1514557D02*
G03X1882399Y1515557I0J1000D01*
G01X1881399Y1514557D02*
X1875799D01*
X1874799Y1515557D02*
G03X1875799Y1514557I1000J0D01*
G01X1874799Y1515557D02*
Y1517157D01*
X1875799Y1518157D02*
G03X1874799Y1517157I0J-1000D01*
G01X1875799Y1518157D02*
X1881399D01*
X1882399Y1517157D02*
G03X1881399Y1518157I-1000J0D01*
G01X1882399Y1517157D02*
Y1515557D01*
X1948190Y1477319D02*
G03X1947190Y1476319I0J-1000D01*
G01X1948190Y1477319D02*
X1953790D01*
X1954790Y1476319D02*
G03X1953790Y1477319I-1000J0D01*
G01X1954790Y1476319D02*
Y1474719D01*
X1953790Y1473719D02*
G03X1954790Y1474719I0J1000D01*
G01X1953790Y1473719D02*
X1948190D01*
X1947190Y1474719D02*
G03X1948190Y1473719I1000J0D01*
G01X1947190Y1474719D02*
Y1476319D01*
X1947246Y1451037D02*
X1954846D01*
Y1447437*
X1947246*
Y1451037*
X1894768Y1647473D02*
X1945950D01*
Y1602197*
X1894768*
Y1647473*
X2023035Y1524715D02*
X1990535D01*
Y1507215*
X2023035*
Y1524715*
X1990535Y1512215D02*
X1994285Y1515965D01*
X1990535Y1519715*
X1991035Y1510965D02*
X1996035Y1515965D01*
X1991035Y1520965*
X1991734Y1513414D02*
X1994285Y1515965D01*
X1991734Y1518516*
X2014815Y1524715D02*
X1998765D01*
X2035159Y1529785D02*
Y1584885D01*
X2070559*
Y1529785*
X2035159*
Y1554996D02*
Y1584885D01*
X2070559*
Y1529785*
X2035159*
Y1584885*
X2070559*
Y1529785*
X2035159*
Y1552674*
X1900588Y1567428D02*
X1910431D01*
Y1554830*
X1890745*
Y1567428*
X1900588*
X1928247Y1468378D02*
X1933759D01*
Y1476842*
X1928247*
Y1468378*
X1929753D02*
X1931003Y1469628D01*
X1932253Y1468378*
X1928247D02*
X1933759D01*
Y1476842*
X1928247*
Y1468378*
X1931003Y1469628D02*
X1929753Y1468378D01*
X1931003Y1469628*
X1932253Y1468378*
X1931003Y1469628*
X1933759Y1468964D02*
Y1468378D01*
X1928247*
Y1468964*
X1911723Y1574192D02*
Y1572163D01*
X1909644*
X1909544Y1592421D02*
X1911723D01*
Y1590392*
X1891465Y1590542D02*
Y1592421D01*
X1893644*
X1895699Y1520505D02*
X1894319D01*
X1892740Y1518926*
Y1517689*
X1917000Y1517845D02*
Y1520434D01*
X1914248*
X1916974Y1498933D02*
Y1496246D01*
X1914323*
X1895314Y1496224D02*
X1892735D01*
Y1498831*
X1840217Y1615470D02*
X1866626D01*
Y1552870*
X1840217*
X2012387Y1545307D02*
Y1604363D01*
X1953331*
Y1545307*
X2012387*
Y1604363*
X1953331*
Y1545307*
X2012387*
X1953331Y1589232D02*
Y1545307D01*
X2012387*
Y1580057*
X1831460Y1482152D02*
X1843510D01*
Y1497652*
X1822010Y1482152D02*
X1803555D01*
X1827060Y1539652D02*
X1803460D01*
X1843510Y1527452D02*
Y1539652D01*
X1836310*
X1843510Y1503902D02*
Y1521352D01*
X1784810Y1482152D02*
X1783260D01*
X1784810Y1539652D02*
X1783260D01*
X1870254Y1668023D02*
G03Y1671023I0J1500D01*
G01Y1675523*
X1882254*
Y1663523*
X1870254*
Y1668023*
X1871314Y1663523D02*
X1870254D01*
Y1668023*
G03Y1671023I0J1500*
G01Y1675523*
X1871314*
X1870254Y1666223D02*
Y1668023D01*
G03Y1671023I0J1500*
G01Y1672823*
Y1666523D02*
Y1666223D01*
Y1663523*
X1876254*
X1882254*
Y1675523*
X1881194*
X1871007Y1660329D02*
G03X1871007I-1155J0D01*
G01X1875821Y1526385D02*
G03X1874821Y1525385I0J-1000D01*
G01X1875821Y1526385D02*
X1881421D01*
X1882421Y1525385D02*
G03X1881421Y1526385I-1000J0D01*
G01X1882421Y1525385D02*
Y1523785D01*
X1881421Y1522785D02*
G03X1882421Y1523785I0J1000D01*
G01X1881421Y1522785D02*
X1875821D01*
X1874821Y1523785D02*
G03X1875821Y1522785I1000J0D01*
G01X1874821Y1523785D02*
Y1525385D01*
X1867683Y1675251D02*
G03X1866683Y1676251I-1000J-0D01*
G01X1867683Y1675251D02*
Y1669651D01*
X1866683Y1668651D02*
G03X1867683Y1669651I0J1000D01*
G01X1866683Y1668651D02*
X1865083D01*
X1864083Y1669651D02*
G03X1865083Y1668651I1000J-0D01*
G01X1864083Y1669651D02*
Y1675251D01*
X1865083Y1676251D02*
G03X1864083Y1675251I0J-1000D01*
G01X1865083Y1676251D02*
X1866683D01*
X1881506Y1518661D02*
G03X1882506Y1519661I0J1000D01*
G01X1881506Y1518661D02*
X1875906D01*
X1874906Y1519661D02*
G03X1875906Y1518661I1000J0D01*
G01X1874906Y1519661D02*
Y1521261D01*
X1875906Y1522261D02*
G03X1874906Y1521261I0J-1000D01*
G01X1875906Y1522261D02*
X1881506D01*
X1882506Y1521261D02*
G03X1881506Y1522261I-1000J0D01*
G01X1882506Y1521261D02*
Y1519661D01*
X2067175Y1501507D02*
G03X2068175Y1502507I0J1000D01*
G01X2067175Y1501507D02*
X2061575D01*
X2060575Y1502507D02*
G03X2061575Y1501507I1000J0D01*
G01X2060575Y1502507D02*
Y1504107D01*
X2061575Y1505107D02*
G03X2060575Y1504107I0J-1000D01*
G01X2061575Y1505107D02*
X2067175D01*
X2068175Y1504107D02*
G03X2067175Y1505107I-1000J0D01*
G01X2068175Y1504107D02*
Y1502507D01*
X2156266Y1677120D02*
G03X2157266Y1678120I0J1000D01*
G01X2156266Y1677120D02*
X2150666D01*
X2149666Y1678120D02*
G03X2150666Y1677120I1000J0D01*
G01X2149666Y1678120D02*
Y1679720D01*
X2150666Y1680720D02*
G03X2149666Y1679720I0J-1000D01*
G01X2150666Y1680720D02*
X2156266D01*
X2157266Y1679720D02*
G03X2156266Y1680720I-1000J0D01*
G01X2157266Y1679720D02*
Y1678120D01*
X1869216Y1625334D02*
G03X1868216Y1624334I0J-1000D01*
G01X1869216Y1625334D02*
X1874816D01*
X1875816Y1624334D02*
G03X1874816Y1625334I-1000J0D01*
G01X1875816Y1624334D02*
Y1622734D01*
X1874816Y1621734D02*
G03X1875816Y1622734I0J1000D01*
G01X1874816Y1621734D02*
X1869216D01*
X1868216Y1622734D02*
G03X1869216Y1621734I1000J0D01*
G01X1868216Y1622734D02*
Y1624334D01*
X1874792Y1625734D02*
G03X1875792Y1626734I0J1000D01*
G01X1874792Y1625734D02*
X1869192D01*
X1868192Y1626734D02*
G03X1869192Y1625734I1000J0D01*
G01X1868192Y1626734D02*
Y1628334D01*
X1869192Y1629334D02*
G03X1868192Y1628334I0J-1000D01*
G01X1869192Y1629334D02*
X1874792D01*
X1875792Y1628334D02*
G03X1874792Y1629334I-1000J0D01*
G01X1875792Y1628334D02*
Y1626734D01*
X1983795Y1532538D02*
G03X1982795Y1533538I-1000J0D01*
G01X1983795Y1532538D02*
Y1526938D01*
X1982795Y1525938D02*
G03X1983795Y1526938I0J1000D01*
G01X1982795Y1525938D02*
X1981195D01*
X1980195Y1526938D02*
G03X1981195Y1525938I1000J0D01*
G01X1980195Y1526938D02*
Y1532538D01*
X1981195Y1533538D02*
G03X1980195Y1532538I0J-1000D01*
G01X1981195Y1533538D02*
X1982795D01*
X1937657Y1536994D02*
G03X1938657Y1537994I0J1000D01*
G01X1937657Y1536994D02*
X1932057D01*
X1931057Y1537994D02*
G03X1932057Y1536994I1000J0D01*
G01X1931057Y1537994D02*
Y1539594D01*
X1932057Y1540594D02*
G03X1931057Y1539594I0J-1000D01*
G01X1932057Y1540594D02*
X1937657D01*
X1938657Y1539594D02*
G03X1937657Y1540594I-1000J0D01*
G01X1938657Y1539594D02*
Y1537994D01*
X1975795Y1532538D02*
G03X1974795Y1533538I-1000J0D01*
G01X1975795Y1532538D02*
Y1526938D01*
X1974795Y1525938D02*
G03X1975795Y1526938I0J1000D01*
G01X1974795Y1525938D02*
X1973195D01*
X1972195Y1526938D02*
G03X1973195Y1525938I1000J0D01*
G01X1972195Y1526938D02*
Y1532538D01*
X1973195Y1533538D02*
G03X1972195Y1532538I0J-1000D01*
G01X1973195Y1533538D02*
X1974795D01*
X1868993Y1488998D02*
G03X1870993Y1486998I2000J0D01*
G01X1870993D02*
X1880993D01*
X1880992D02*
G03X1882992Y1488998I0J2000D01*
G01X1882993D02*
Y1491998D01*
X1882992D02*
G03X1880992Y1493998I-2000J0D01*
G01X1880993D02*
X1870993D01*
G03X1868993Y1491998I-0J-2000*
G01X1868993D02*
Y1488998D01*
X1906380Y1483379D02*
G03X1904380Y1485379I-2000J-0D01*
G01X1894380*
G03X1892380Y1483379I-0J-2000*
G01Y1480379*
G03X1894380Y1478379I2000J-0*
G01X1904380*
G03X1906380Y1480379I-0J2000*
G01Y1483379*
X2082820Y1535605D02*
Y1656471D01*
X2102505*
Y1535605*
X2082820*
X2077596Y1647882D02*
G03X2077596I-1265J0D01*
G01X2098599Y1509107D02*
G03X2097599Y1508107I0J-1000D01*
G01X2098599Y1509107D02*
X2104199D01*
X2105199Y1508107D02*
G03X2104199Y1509107I-1000J0D01*
G01X2105199Y1508107D02*
Y1506507D01*
X2104199Y1505507D02*
G03X2105199Y1506507I0J1000D01*
G01X2104199Y1505507D02*
X2098599D01*
X2097599Y1506507D02*
G03X2098599Y1505507I1000J0D01*
G01X2097599Y1506507D02*
Y1508107D01*
X2098599Y1500107D02*
G03X2097599Y1499107I0J-1000D01*
G01X2098599Y1500107D02*
X2104199D01*
X2105199Y1499107D02*
G03X2104199Y1500107I-1000J0D01*
G01X2105199Y1499107D02*
Y1497507D01*
X2104199Y1496507D02*
G03X2105199Y1497507I0J1000D01*
G01X2104199Y1496507D02*
X2098599D01*
X2097599Y1497507D02*
G03X2098599Y1496507I1000J0D01*
G01X2097599Y1497507D02*
Y1499107D01*
X2130391Y1704307D02*
G03X2128391Y1706307I-2000J-0D01*
G01X2118391*
G03X2116391Y1704307I-0J-2000*
G01Y1701307*
G03X2118391Y1699307I2000J-0*
G01X2128391*
G03X2130391Y1701307I-0J2000*
G01Y1704307*
X2145175Y1681507D02*
G03X2146175Y1682507I0J1000D01*
G01X2145175Y1681507D02*
X2139575D01*
X2138575Y1682507D02*
G03X2139575Y1681507I1000J0D01*
G01X2138575Y1682507D02*
Y1684107D01*
X2139575Y1685107D02*
G03X2138575Y1684107I0J-1000D01*
G01X2139575Y1685107D02*
X2145175D01*
X2146175Y1684107D02*
G03X2145175Y1685107I-1000J0D01*
G01X2146175Y1684107D02*
Y1682507D01*
X2019386Y1483560D02*
G03X2018386Y1482560I0J-1000D01*
G01X2019386Y1483560D02*
X2024986D01*
X2025986Y1482560D02*
G03X2024986Y1483560I-1000J0D01*
G01X2025986Y1482560D02*
Y1480960D01*
X2024986Y1479960D02*
G03X2025986Y1480960I0J1000D01*
G01X2024986Y1479960D02*
X2019386D01*
X2018386Y1480960D02*
G03X2019386Y1479960I1000J0D01*
G01X2018386Y1480960D02*
Y1482560D01*
X2130391Y1666807D02*
G03X2128391Y1668807I-2000J-0D01*
G01X2118391*
G03X2116391Y1666807I-0J-2000*
G01Y1663807*
G03X2118391Y1661807I2000J-0*
G01X2128391*
G03X2130391Y1663807I-0J2000*
G01Y1666807*
X2061698Y1487997D02*
G03X2059698Y1489997I-2000J-0D01*
G01X2049698*
G03X2047698Y1487997I-0J-2000*
G01Y1484997*
G03X2049698Y1482997I2000J-0*
G01X2059698*
G03X2061698Y1484997I-0J2000*
G01Y1487997*
X2061715Y1480013D02*
G03X2059715Y1482013I-2000J-0D01*
G01X2049715*
G03X2047715Y1480013I-0J-2000*
G01Y1477013*
G03X2049715Y1475013I2000J-0*
G01X2059715*
G03X2061715Y1477013I-0J2000*
G01Y1480013*
X2130415Y1746160D02*
G03X2128415Y1748160I-2000J-0D01*
G01X2118415*
G03X2116415Y1746160I-0J-2000*
G01Y1743160*
G03X2118415Y1741160I2000J-0*
G01X2128415*
G03X2130415Y1743160I-0J2000*
G01Y1746160*
X2149175Y1717507D02*
G03X2150175Y1718507I0J1000D01*
G01X2149175Y1717507D02*
X2143575D01*
X2142575Y1718507D02*
G03X2143575Y1717507I1000J0D01*
G01X2142575Y1718507D02*
Y1720107D01*
X2143575Y1721107D02*
G03X2142575Y1720107I0J-1000D01*
G01X2143575Y1721107D02*
X2149175D01*
X2150175Y1720107D02*
G03X2149175Y1721107I-1000J0D01*
G01X2150175Y1720107D02*
Y1718507D01*
X2168757Y1447391D02*
Y1444635D01*
X2168585Y1446006D02*
X2167197Y1447394D01*
Y1444632*
X2168585Y1445888*
X2135835Y1447391D02*
Y1444635D01*
X2135662Y1446006D02*
X2134275Y1447394D01*
Y1444632*
X2135662Y1445888*
X1827619Y1725426D02*
X1835219D01*
Y1721826*
X1827619*
Y1725426*
X1944565Y1529349D02*
Y1536949D01*
X1948165*
Y1529349*
X1944565*
X1882119Y1652951D02*
Y1645351D01*
X1878519*
Y1652951*
X1882119*
X1926647Y1568035D02*
X1919047D01*
Y1571635*
X1926647*
Y1568035*
Y1564035D02*
X1919047D01*
Y1567635*
X1926647*
Y1564035*
Y1590535D02*
X1919047D01*
Y1594135*
X1926647*
Y1590535*
X1919071Y1564135D02*
X1926671D01*
Y1560535*
X1919071*
Y1564135*
X1954890Y1455534D02*
X1947290D01*
Y1459134*
X1954890*
Y1455534*
X1854253Y1655728D02*
X1846653D01*
Y1659328*
X1854253*
Y1655728*
X2055252Y1593276D02*
X2062852D01*
Y1589676*
X2055252*
Y1593276*
X2114175Y1491507D02*
X2106575D01*
Y1495107*
X2114175*
Y1491507*
X2119675Y1670007D02*
X2112075D01*
Y1673607*
X2119675*
Y1670007*
X2097599Y1504607D02*
X2105199D01*
Y1501007*
X2097599*
Y1504607*
X2025962Y1484460D02*
X2018362D01*
Y1488060*
X2025962*
Y1484460*
X1941647Y1567535D02*
X1934047D01*
Y1571135*
X1941647*
Y1567535*
X2120675Y1632007D02*
X2113075D01*
Y1635607*
X2120675*
Y1632007*
X2099495Y1455222D02*
X2107095D01*
Y1451622*
X2099495*
Y1455222*
X2054323D02*
X2061923D01*
Y1451622*
X2054323*
Y1455222*
X2008817Y1451622D02*
X2001217D01*
Y1455222*
X2008817*
Y1451622*
X2098071D02*
X2090471D01*
Y1455222*
X2098071*
Y1451622*
X2168713Y1765713D02*
Y1773313D01*
X2172313*
Y1765713*
X2168713*
X2049368Y1494021D02*
X2056968D01*
Y1490421*
X2049368*
Y1494021*
X2049582Y1502935D02*
X2057182D01*
Y1499335*
X2049582*
Y1502935*
X2151599Y1721107D02*
X2159199D01*
Y1717507*
X2151599*
Y1721107*
X1906746Y1461537D02*
X1914346D01*
Y1457937*
X1906746*
Y1461537*
X1954804Y1463929D02*
X1947204D01*
Y1467529*
X1954804*
Y1463929*
X1982272Y1534285D02*
X1974672D01*
Y1537885*
X1982272*
Y1534285*
X2010241Y1455222D02*
X2017841D01*
Y1451622*
X2010241*
Y1455222*
X2168581Y1677319D02*
Y1684919D01*
X2172181*
Y1677319*
X2168581*
X2168587Y1667519D02*
Y1675119D01*
X2172187*
Y1667519*
X2168587*
X2143347Y1447813D02*
X2150947D01*
Y1444213*
X2143347*
Y1447813*
X2156587Y1552519D02*
Y1560119D01*
X2160187*
Y1552519*
X2156587*
X2114175Y1496507D02*
X2106575D01*
Y1500107*
X2114175*
Y1496507*
X2128175Y1670007D02*
X2120575D01*
Y1673607*
X2128175*
Y1670007*
X2053899Y1451622D02*
X2046299D01*
Y1455222*
X2053899*
Y1451622*
X1855523Y1659328D02*
X1863123D01*
Y1655728*
X1855523*
Y1659328*
X1863647Y1514035D02*
X1856047D01*
Y1517635*
X1863647*
Y1514035*
X1882452Y1509027D02*
X1874852D01*
Y1512627*
X1882452*
Y1509027*
X1856038Y1522012D02*
X1863638D01*
Y1518412*
X1856038*
Y1522012*
X1885224Y1568057D02*
X1877624D01*
Y1571657*
X1885224*
Y1568057*
X1926647Y1586535D02*
X1919047D01*
Y1590135*
X1926647*
Y1586535*
X2129175Y1632007D02*
X2121575D01*
Y1635607*
X2129175*
Y1632007*
X2149599Y1685107D02*
X2157199D01*
Y1681507*
X2149599*
Y1685107*
X2105175Y1491507D02*
X2097575D01*
Y1495107*
X2105175*
Y1491507*
X2177073Y1447813D02*
X2184673D01*
Y1444213*
X2177073*
Y1447813*
X1813220Y1460655D02*
X1805620D01*
Y1464255*
X1813220*
Y1460655*
X1954830Y1469552D02*
X1947230D01*
Y1473152*
X1954830*
Y1469552*
X1906746Y1457537D02*
X1914346D01*
Y1453937*
X1906746*
Y1457537*
X2118675Y1711507D02*
X2111075D01*
Y1715107*
X2118675*
Y1711507*
X2128175D02*
X2120575D01*
Y1715107*
X2128175*
Y1711507*
X2169009Y1708094D02*
X2171765D01*
X2170394Y1707922D02*
X2169006Y1706534D01*
X2171768*
X2170512Y1707922*
X1797643Y1461077D02*
Y1463833D01*
X1797815Y1462462D02*
X1799203Y1461074D01*
Y1463836*
X1797815Y1462580*
X2171479Y1626032D02*
Y1646032D01*
X2146479*
Y1626032*
X2151479Y1621032*
X2166479*
X2171479Y1626032*
X2148979Y1617282D02*
X2153979D01*
X2151479Y1614782D02*
Y1619782D01*
Y1614782D02*
Y1619782D01*
X2148979Y1617282D02*
X2153979D01*
X2146479Y1641231D02*
Y1646032D01*
X2155430*
X2168928Y1660131D02*
X2171684D01*
X2170313Y1659959D02*
X2168925Y1658571D01*
X2171687*
X2170431Y1659959*
X1943217Y1735847D02*
G03X1942217Y1734847I0J-1000D01*
G01X1943217Y1735847D02*
X1948817D01*
X1949817Y1734847D02*
G03X1948817Y1735847I-1000J0D01*
G01X1949817Y1734847D02*
Y1733247D01*
X1948817Y1732247D02*
G03X1949817Y1733247I0J1000D01*
G01X1948817Y1732247D02*
X1943217D01*
X1942217Y1733247D02*
G03X1943217Y1732247I1000J0D01*
G01X1942217Y1733247D02*
Y1734847D01*
X1940793Y1732247D02*
G03X1941793Y1733247I0J1000D01*
G01X1940793Y1732247D02*
X1935193D01*
X1934193Y1733247D02*
G03X1935193Y1732247I1000J0D01*
G01X1934193Y1733247D02*
Y1734847D01*
X1935193Y1735847D02*
G03X1934193Y1734847I0J-1000D01*
G01X1935193Y1735847D02*
X1940793D01*
X1941793Y1734847D02*
G03X1940793Y1735847I-1000J0D01*
G01X1941793Y1734847D02*
Y1733247D01*
X2064611Y1735714D02*
G03X2063611Y1734714I0J-1000D01*
G01X2064611Y1735714D02*
X2070211D01*
X2071211Y1734714D02*
G03X2070211Y1735714I-1000J0D01*
G01X2071211Y1734714D02*
Y1733114D01*
X2070211Y1732114D02*
G03X2071211Y1733114I0J1000D01*
G01X2070211Y1732114D02*
X2064611D01*
X2063611Y1733114D02*
G03X2064611Y1732114I1000J0D01*
G01X2063611Y1733114D02*
Y1734714D01*
X1983761Y1735753D02*
G03X1982761Y1734753I0J-1000D01*
G01X1983761Y1735753D02*
X1989361D01*
X1990361Y1734753D02*
G03X1989361Y1735753I-1000J0D01*
G01X1990361Y1734753D02*
Y1733153D01*
X1989361Y1732153D02*
G03X1990361Y1733153I0J1000D01*
G01X1989361Y1732153D02*
X1983761D01*
X1982761Y1733153D02*
G03X1983761Y1732153I1000J0D01*
G01X1982761Y1733153D02*
Y1734753D01*
X2062187Y1732114D02*
G03X2063187Y1733114I0J1000D01*
G01X2062187Y1732114D02*
X2056587D01*
X2055587Y1733114D02*
G03X2056587Y1732114I1000J0D01*
G01X2055587Y1733114D02*
Y1734714D01*
X2056587Y1735714D02*
G03X2055587Y1734714I0J-1000D01*
G01X2056587Y1735714D02*
X2062187D01*
X2063187Y1734714D02*
G03X2062187Y1735714I-1000J0D01*
G01X2063187Y1734714D02*
Y1733114D01*
X2105434Y1735700D02*
G03X2104434Y1734700I0J-1000D01*
G01X2105434Y1735700D02*
X2111034D01*
X2112034Y1734700D02*
G03X2111034Y1735700I-1000J0D01*
G01X2112034Y1734700D02*
Y1733100D01*
X2111034Y1732100D02*
G03X2112034Y1733100I0J1000D01*
G01X2111034Y1732100D02*
X2105434D01*
X2104434Y1733100D02*
G03X2105434Y1732100I1000J0D01*
G01X2104434Y1733100D02*
Y1734700D01*
X2024082Y1735670D02*
G03X2023082Y1734670I0J-1000D01*
G01X2024082Y1735670D02*
X2029682D01*
X2030682Y1734670D02*
G03X2029682Y1735670I-1000J0D01*
G01X2030682Y1734670D02*
Y1733070D01*
X2029682Y1732070D02*
G03X2030682Y1733070I0J1000D01*
G01X2029682Y1732070D02*
X2024082D01*
X2023082Y1733070D02*
G03X2024082Y1732070I1000J0D01*
G01X2023082Y1733070D02*
Y1734670D01*
X2103010Y1732100D02*
G03X2104010Y1733100I0J1000D01*
G01X2103010Y1732100D02*
X2097410D01*
X2096410Y1733100D02*
G03X2097410Y1732100I1000J0D01*
G01X2096410Y1733100D02*
Y1734700D01*
X2097410Y1735700D02*
G03X2096410Y1734700I0J-1000D01*
G01X2097410Y1735700D02*
X2103010D01*
X2104010Y1734700D02*
G03X2103010Y1735700I-1000J0D01*
G01X2104010Y1734700D02*
Y1733100D01*
X2021658Y1732070D02*
G03X2022658Y1733070I0J1000D01*
G01X2021658Y1732070D02*
X2016058D01*
X2015058Y1733070D02*
G03X2016058Y1732070I1000J0D01*
G01X2015058Y1733070D02*
Y1734670D01*
X2016058Y1735670D02*
G03X2015058Y1734670I0J-1000D01*
G01X2016058Y1735670D02*
X2021658D01*
X2022658Y1734670D02*
G03X2021658Y1735670I-1000J0D01*
G01X2022658Y1734670D02*
Y1733070D01*
X1815618Y1725454D02*
G03X1814618Y1724454I0J-1000D01*
G01X1815618Y1725454D02*
X1821218D01*
X1822218Y1724454D02*
G03X1821218Y1725454I-1000J0D01*
G01X1822218Y1724454D02*
Y1722854D01*
X1821218Y1721854D02*
G03X1822218Y1722854I0J1000D01*
G01X1821218Y1721854D02*
X1815618D01*
X1814618Y1722854D02*
G03X1815618Y1721854I1000J0D01*
G01X1814618Y1722854D02*
Y1724454D01*
X2169009Y1758094D02*
X2171765D01*
X2170394Y1757922D02*
X2169006Y1756534D01*
X2171768*
X2170512Y1757922*
X1868936Y1500994D02*
G03X1870936Y1498994I2000J0D01*
G01X1870936D02*
X1880936D01*
X1880935D02*
G03X1882935Y1500994I0J2000D01*
G01X1882936D02*
Y1503994D01*
X1882935D02*
G03X1880935Y1505994I-2000J0D01*
G01X1880936D02*
X1870936D01*
G03X1868936Y1503994I-0J-2000*
G01X1868936D02*
Y1500994D01*
X1981337Y1732153D02*
G03X1982337Y1733153I0J1000D01*
G01X1981337Y1732153D02*
X1975737D01*
X1974737Y1733153D02*
G03X1975737Y1732153I1000J0D01*
G01X1974737Y1733153D02*
Y1734753D01*
X1975737Y1735753D02*
G03X1974737Y1734753I0J-1000D01*
G01X1975737Y1735753D02*
X1981337D01*
X1982337Y1734753D02*
G03X1981337Y1735753I-1000J0D01*
G01X1982337Y1734753D02*
Y1733153D01*
X1979795Y1532538D02*
G03X1978795Y1533538I-1000J0D01*
G01X1979795Y1532538D02*
Y1526938D01*
X1978795Y1525938D02*
G03X1979795Y1526938I0J1000D01*
G01X1978795Y1525938D02*
X1977195D01*
X1976195Y1526938D02*
G03X1977195Y1525938I1000J0D01*
G01X1976195Y1526938D02*
Y1532538D01*
X1977195Y1533538D02*
G03X1976195Y1532538I0J-1000D01*
G01X1977195Y1533538D02*
X1978795D01*
X1908122Y1526476D02*
G03X1909122Y1527476I0J1000D01*
G01X1908122Y1526476D02*
X1902522D01*
X1901522Y1527476D02*
G03X1902522Y1526476I1000J0D01*
G01X1901522Y1527476D02*
Y1529076D01*
X1902522Y1530076D02*
G03X1901522Y1529076I0J-1000D01*
G01X1902522Y1530076D02*
X1908122D01*
X1909122Y1529076D02*
G03X1908122Y1530076I-1000J0D01*
G01X1909122Y1529076D02*
Y1527476D01*
X2042773Y1450162D02*
X2052242D01*
X2052240Y1445159D02*
G03X2052244Y1450160I-2712J2503D01*
G01X2052242Y1445162D02*
X2042773D01*
Y1450163D02*
G03Y1445161I3764J-2501D01*
G01X2065464Y1445162D02*
X2055994D01*
X2055996Y1450165D02*
G03X2055992Y1445164I2712J-2503D01*
G01X2055994Y1450162D02*
X2065464D01*
X2065463Y1445161D02*
G03Y1450163I-3764J2501D01*
G01X2086945Y1450162D02*
X2096414D01*
X2096412Y1445159D02*
G03X2096416Y1450160I-2712J2503D01*
G01X2096414Y1445162D02*
X2086945D01*
Y1450163D02*
G03Y1445161I3764J-2501D01*
G01X2109636Y1445162D02*
X2100166D01*
X2100168Y1450165D02*
G03X2100164Y1445164I2712J-2503D01*
G01X2100166Y1450162D02*
X2109636D01*
X2109635Y1445161D02*
G03Y1450163I-3764J2501D01*
G01X1998691Y1450162D02*
X2008160D01*
X2008158Y1445159D02*
G03X2008162Y1450160I-2712J2503D01*
G01X2008160Y1445162D02*
X1998691D01*
Y1450163D02*
G03Y1445161I3764J-2501D01*
G01X2021382Y1445162D02*
X2011912D01*
X2011914Y1450165D02*
G03X2011910Y1445164I2712J-2503D01*
G01X2011912Y1450162D02*
X2021382D01*
X2021381Y1445161D02*
G03Y1450163I-3764J2501D01*
G01X1925184Y1543207D02*
G03X1927184Y1541207I2000J0D01*
G01X1927184D02*
X1937184D01*
X1937183D02*
G03X1939183Y1543207I0J2000D01*
G01X1939184D02*
Y1546207D01*
X1939183D02*
G03X1937183Y1548207I-2000J0D01*
G01X1937184D02*
X1927184D01*
G03X1925184Y1546207I-0J-2000*
G01X1925184D02*
Y1543207D01*
X1908856Y1480335D02*
G03X1910856Y1478335I2000J0D01*
G01X1910856D02*
X1920856D01*
X1920855D02*
G03X1922855Y1480335I0J2000D01*
G01X1922856D02*
Y1483335D01*
X1922855D02*
G03X1920855Y1485335I-2000J0D01*
G01X1920856D02*
X1910856D01*
G03X1908856Y1483335I-0J-2000*
G01X1908856D02*
Y1480335D01*
X2159175Y1712507D02*
X2151575D01*
Y1716107*
X2159175*
Y1712507*
X1954884Y1451358D02*
X1947284D01*
Y1454958*
X1954884*
Y1451358*
X1926647Y1571535D02*
X1919047D01*
Y1575135*
X1926647*
Y1571535*
X1877471Y1593560D02*
X1885071D01*
Y1589960*
X1877471*
Y1593560*
X1926647Y1583035D02*
X1919047D01*
Y1586635*
X1926647*
Y1583035*
X2157009Y1573094D02*
X2159765D01*
X2158394Y1572922D02*
X2157006Y1571534D01*
X2159768*
X2158512Y1572922*
X1971795Y1532538D02*
G03X1970795Y1533538I-1000J0D01*
G01X1971795Y1532538D02*
Y1526938D01*
X1970795Y1525938D02*
G03X1971795Y1526938I0J1000D01*
G01X1970795Y1525938D02*
X1969195D01*
X1968195Y1526938D02*
G03X1969195Y1525938I1000J0D01*
G01X1968195Y1526938D02*
Y1532538D01*
X1969195Y1533538D02*
G03X1968195Y1532538I0J-1000D01*
G01X1969195Y1533538D02*
X1970795D01*
X1863443Y1509437D02*
X1855843D01*
Y1513037*
X1863443*
Y1509437*
X1906746Y1465537D02*
X1914346D01*
Y1461937*
X1906746*
Y1465537*
X1926647Y1575535D02*
X1919047D01*
Y1579135*
X1926647*
Y1575535*
Y1579035D02*
X1919047D01*
Y1582635*
X1926647*
Y1579035*
X1978017Y1615166D02*
Y1622766D01*
X1981617*
Y1615166*
X1978017*
X1847622Y1718659D02*
X1827622D01*
Y1693659*
X1847622*
X1852622Y1698659*
Y1713659*
X1847622Y1718659*
X1856372Y1696159D02*
Y1701159D01*
X1858872Y1698659D02*
X1853872D01*
X1858872D02*
X1853872D01*
X1856372Y1696159D02*
Y1701159D01*
X1832423Y1693659D02*
X1827622D01*
Y1702610*
X2127387Y1649557D02*
X2123637Y1645807D01*
X2127387Y1642057*
Y1649557D02*
X2123637Y1645807D01*
X2127387Y1642057*
X2112438Y1654557D02*
X2112387D01*
Y1637057*
X2127387*
Y1654557*
X2125836*
X2114836D02*
X2118688D01*
X2121086D02*
X2123438D01*
X2127387Y1687057D02*
X2123637Y1683307D01*
X2127387Y1679557*
Y1687057D02*
X2123637Y1683307D01*
X2127387Y1679557*
X2112438Y1692057D02*
X2112387D01*
Y1674557*
X2127387*
Y1692057*
X2125836*
X2114836D02*
X2118688D01*
X2121086D02*
X2123438D01*
X2127387Y1729057D02*
X2123637Y1725307D01*
X2127387Y1721557*
Y1729057D02*
X2123637Y1725307D01*
X2127387Y1721557*
X2112438Y1734057D02*
X2112387D01*
Y1716557*
X2127387*
Y1734057*
X2125836*
X2114836D02*
X2118688D01*
X2121086D02*
X2123438D01*
X1850871Y1654342D02*
X1854621Y1650592D01*
X1858371Y1654342*
X1850871D02*
X1854621Y1650592D01*
X1858371Y1654342*
X1845871Y1639393D02*
Y1639342D01*
X1863371*
Y1654342*
X1845871*
Y1652791*
Y1641791D02*
Y1645643D01*
Y1648041D02*
Y1650393D01*
X1866332Y1632949D02*
G03X1868332Y1630949I2000J0D01*
G01X1868332D02*
X1878332D01*
X1878331D02*
G03X1880331Y1632949I0J2000D01*
G01X1880332D02*
Y1635949D01*
X1880331D02*
G03X1878331Y1637949I-2000J0D01*
G01X1878332D02*
X1868332D01*
G03X1866332Y1635949I-0J-2000*
G01X1866332D02*
Y1632949D01*
X1864796Y1637332D02*
X1846818D01*
Y1621496*
X1864796*
Y1637332*
X1867596Y1644135D02*
X1877065D01*
X1877063Y1639132D02*
G03X1877067Y1644133I-2712J2503D01*
G01X1877065Y1639135D02*
X1867596D01*
Y1644136D02*
G03Y1639134I3764J-2501D01*
G01X2055220Y1597691D02*
X2062820D01*
Y1594091*
X2055220*
Y1597691*
X2064291Y1597642D02*
X2071891D01*
Y1594042*
X2064291*
Y1597642*
X2064309Y1593191D02*
X2071909D01*
Y1589591*
X2064309*
Y1593191*
X1783160Y1730787D02*
G03X1783723Y1730605I570J805D01*
G01X1783160Y1730786D02*
X1781192Y1732164D01*
X1781754Y1732967*
X1783723Y1731589*
X1787660*
X1783723Y1703439D02*
G03X1783160Y1703262I0J-984D01*
G01X1781192Y1701884*
X1781754Y1701077*
X1783723Y1702455*
X1787266*
X1808779Y1722376D02*
G03X1808779I-1276J0D01*
G01X1803113Y1704817D02*
Y1702455D01*
X1796715*
Y1731589D02*
X1803113D01*
Y1729227*
X1782432Y1704030D02*
X1782282Y1704050D01*
X1782136Y1704109*
X1782010Y1704203*
X1781904Y1704325*
X1781821Y1704479*
X1781770Y1704644*
X1781754Y1704817*
Y1729227*
X1781770Y1729400*
X1781821Y1729569*
X1781904Y1729719*
X1782010Y1729845*
X1782136Y1729939*
X1782282Y1729994*
X1782432Y1730014*
X1783723Y1704030D02*
X1781924D01*
X1781774Y1704050*
X1781632Y1704109*
X1781503Y1704203*
X1781396Y1704325*
X1781317Y1704479*
X1781266Y1704644*
X1781251Y1704817*
Y1729227*
X1781266Y1729400*
X1781317Y1729569*
X1781396Y1729719*
X1781503Y1729845*
X1781632Y1729939*
X1781774Y1729994*
X1781924Y1730014*
X1783723*
Y1702455D02*
Y1731589D01*
X1781192Y1732164D02*
X1781754Y1732967D01*
X1797543Y1453914D02*
Y1456670D01*
X1797715Y1455299D02*
X1799103Y1453911D01*
Y1456673*
X1797715Y1455417*
X1797636Y1468202D02*
Y1470958D01*
X1797808Y1469587D02*
X1799196Y1468199D01*
Y1470961*
X1797808Y1469705*
X2122914Y1485875D02*
X2120158D01*
X2121529Y1486047D02*
X2122917Y1487435D01*
X2120155*
X2121411Y1486047*
X2143827Y1501023D02*
X2151427D01*
Y1497423*
X2143827*
Y1501023*
X1813120Y1453492D02*
X1805520D01*
Y1457092*
X1813120*
Y1453492*
X1947237Y1463304D02*
X1954837D01*
Y1459704*
X1947237*
Y1463304*
X2115599Y1500107D02*
X2123199D01*
Y1496507*
X2115599*
Y1500107*
X1813213Y1467780D02*
X1805613D01*
Y1471380*
X1813213*
Y1467780*
X2057010Y1494890D02*
X2049410D01*
Y1498490*
X2057010*
Y1494890*
X1891865Y1449754D02*
X1883991D01*
X1879975Y1453769*
Y1461565*
X1883892Y1465482*
X1891865*
X1895831Y1461515*
Y1453691*
X1891880Y1449739*
X1802254Y1771104D02*
X1810128D01*
X1814143Y1767089*
Y1759293*
X1810226Y1755376*
X1802254*
X1798287Y1759343*
Y1767167*
X1802239Y1771119*
X2118542Y1660807D02*
X2128011D01*
X2128009Y1655804D02*
G03X2128013Y1660805I-2712J2503D01*
G01X2128011Y1655807D02*
X2118542D01*
Y1660808D02*
G03Y1655806I3764J-2501D01*
G01Y1740307D02*
X2128011D01*
X2128009Y1735304D02*
G03X2128013Y1740305I-2712J2503D01*
G01X2128011Y1735307D02*
X2118542D01*
Y1740308D02*
G03Y1735306I3764J-2501D01*
G01Y1698307D02*
X2128011D01*
X2128009Y1693304D02*
G03X2128013Y1698305I-2712J2503D01*
G01X2128011Y1693307D02*
X2118542D01*
Y1698308D02*
G03Y1693306I3764J-2501D01*
G01X1788736Y1750043D02*
Y1746762D01*
Y1750043D02*
X1789759D01*
X1790100Y1749887*
X1790213Y1749731*
X1790327Y1749418*
Y1748950*
X1790213Y1748637*
X1790100Y1748481*
X1789759Y1748325*
X1788736*
X1792032Y1750043D02*
X1791804Y1749887D01*
X1791577Y1749575*
X1791463Y1749262*
X1791350Y1748793*
Y1748012*
X1791463Y1747543*
X1791577Y1747231*
X1791804Y1746918*
X1792032Y1746762*
X1792486*
X1792713Y1746918*
X1792941Y1747231*
X1793054Y1747543*
X1793168Y1748012*
Y1748793*
X1793054Y1749262*
X1792941Y1749575*
X1792713Y1749887*
X1792486Y1750043*
X1792032*
X1794191D02*
X1794759Y1746762D01*
X1795327Y1750043D02*
X1794759Y1746762D01*
X1795327Y1750043D02*
X1795895Y1746762D01*
X1796463Y1750043D02*
X1795895Y1746762D01*
X1797486Y1750043D02*
Y1746762D01*
Y1750043D02*
X1798963D01*
X1797486Y1748481D02*
X1798395D01*
X1797486Y1746762D02*
X1798963D01*
X1799986Y1750043D02*
Y1746762D01*
Y1750043D02*
X1801009D01*
X1801350Y1749887*
X1801463Y1749731*
X1801577Y1749418*
Y1749106*
X1801463Y1748793*
X1801350Y1748637*
X1801009Y1748481*
X1799986*
X1800782D02*
X1801577Y1746762D01*
X1805213Y1750043D02*
Y1746762D01*
Y1750043D02*
X1806236D01*
X1806577Y1749887*
X1806691Y1749731*
X1806804Y1749418*
Y1749106*
X1806691Y1748793*
X1806577Y1748637*
X1806236Y1748481*
X1805213D02*
X1806236D01*
X1806577Y1748325*
X1806691Y1748168*
X1806804Y1747856*
Y1747387*
X1806691Y1747075*
X1806577Y1746918*
X1806236Y1746762*
X1805213*
X1807827Y1750043D02*
Y1747700D01*
X1807941Y1747231*
X1808168Y1746918*
X1808509Y1746762*
X1808736*
X1809077Y1746918*
X1809304Y1747231*
X1809418Y1747700*
Y1750043*
X1811236D02*
Y1746762D01*
X1810441Y1750043D02*
X1812032D01*
X1813850D02*
Y1746762D01*
X1813054Y1750043D02*
X1814645D01*
X1816350D02*
X1816123Y1749887D01*
X1815895Y1749575*
X1815782Y1749262*
X1815668Y1748793*
Y1748012*
X1815782Y1747543*
X1815895Y1747231*
X1816123Y1746918*
X1816350Y1746762*
X1816804*
X1817032Y1746918*
X1817259Y1747231*
X1817373Y1747543*
X1817486Y1748012*
Y1748793*
X1817373Y1749262*
X1817259Y1749575*
X1817032Y1749887*
X1816804Y1750043*
X1816350*
X1818509D02*
Y1746762D01*
Y1750043D02*
X1820100Y1746762D01*
Y1750043D02*
Y1746762D01*
X1782485Y1418912D02*
X2218564D01*
Y1781129*
X1782485*
Y1418912*
X1927859Y1567335D02*
X1932859Y1572335D01*
X1970359Y1459835D02*
Y1463585D01*
X2028359Y1671085D02*
Y1674835D01*
Y1649835D02*
Y1653585D01*
X1978359Y1649835D02*
Y1653585D01*
X2058552Y1671046D02*
Y1674796D01*
X1928359Y1671085D02*
Y1674835D01*
Y1649835D02*
Y1653585D01*
X1877918Y1656992D02*
Y1660742D01*
Y1678242D02*
Y1681992D01*
G54D53*
X1894768Y1640878D02*
Y1647473D01*
X1945950*
Y1611832*
X1847820Y1465593D02*
G03X1847820I-3600J0D01*
G01X1849220D02*
G03X1849220I-5000J0D01*
G01X1785888Y1732187D02*
Y1701336D01*
X2042974Y1632593D02*
X2043773D01*
X2043868Y1632690*
X2043069*
X2042974Y1632593*
X2043773*
X2043868Y1632690*
X2043069*
X2042974Y1632593*
X2050168D02*
X2051514D01*
X2051522Y1632690*
X2050968*
X2050962Y1632612*
X2050886Y1632690*
X2050075*
X2050168Y1632593*
X2042864Y1632480D02*
X2043663D01*
X2043758Y1632578*
X2042959*
X2042864Y1632480*
X2043663*
X2043758Y1632578*
X2042959*
X2042864Y1632480*
X2050277D02*
X2051505D01*
X2051513Y1632578*
X2050183*
X2050277Y1632480*
X2051505*
X2051513Y1632578*
X2050183*
X2050277Y1632480*
X2042755Y1632367D02*
X2043658D01*
X2043650Y1632465*
X2042849*
X2042755Y1632367*
X2043658*
X2043650Y1632465*
X2042849*
X2042755Y1632367*
X2050385D02*
X2051496D01*
X2051504Y1632465*
X2050292*
X2050385Y1632367*
X2051496*
X2051504Y1632465*
X2050292*
X2050385Y1632367*
X2042645Y1632254D02*
X2043667D01*
X2043659Y1632352*
X2042739*
X2042645Y1632254*
X2043667*
X2043659Y1632352*
X2042739*
X2042645Y1632254*
X2050494D02*
X2051486D01*
X2051494Y1632352*
X2050400*
X2050494Y1632254*
X2051486*
X2051494Y1632352*
X2050400*
X2050494Y1632254*
X2042535Y1632141D02*
X2043677D01*
X2043669Y1632239*
X2042630*
X2042535Y1632141*
X2043677*
X2043669Y1632239*
X2042630*
X2042535Y1632141*
X2050602D02*
X2051477D01*
X2051485Y1632239*
X2050509*
X2050602Y1632141*
X2051477*
X2051485Y1632239*
X2050509*
X2050602Y1632141*
X2042425Y1632029D02*
X2043686D01*
X2043678Y1632126*
X2042520*
X2042425Y1632029*
X2043686*
X2043678Y1632126*
X2042520*
X2042425Y1632029*
X2050711D02*
X2051523D01*
X2051472Y1632081*
X2051476Y1632126*
X2050617*
X2050711Y1632029*
X2042315Y1631916D02*
X2043113D01*
X2043198Y1632003*
X2043206Y1631916*
X2043696*
X2043696D02*
X2043687Y1632013D01*
X2042410*
X2042315Y1631916*
X2050819D02*
X2051632D01*
X2051538Y1632013*
X2050726*
X2050819Y1631916*
X2051632*
X2051538Y1632013*
X2050726*
X2050819Y1631916*
X2042205Y1631803D02*
X2043003D01*
X2043098Y1631900*
X2042300*
X2042205Y1631803*
X2043003*
X2043098Y1631900*
X2042300*
X2042205Y1631803*
X2043215D02*
X2043705D01*
X2043697Y1631900*
X2043207*
X2043215Y1631803*
X2043705*
X2043697Y1631900*
X2043207*
X2043215Y1631803*
X2050894D02*
X2051740D01*
X2051647Y1631900*
X2050834*
X2050897Y1631835*
X2050894Y1631803*
X2042096Y1631690D02*
X2042893D01*
X2042988Y1631787*
X2042190*
X2042096Y1631690*
X2042893*
X2042988Y1631787*
X2042190*
X2042096Y1631690*
X2043225D02*
X2043714D01*
X2043706Y1631787*
X2043217*
X2043225Y1631690*
X2043714*
X2043706Y1631787*
X2043217*
X2043225Y1631690*
X2050885D02*
X2051849D01*
X2051755Y1631787*
X2050893*
X2050885Y1631690*
X2050885D02*
X2051849D01*
X2051755Y1631787*
X2050893*
X2050885Y1631690*
X2041986Y1631577D02*
X2042783D01*
X2042878Y1631674*
X2042081*
X2041986Y1631577*
X2042783*
X2042878Y1631674*
X2042081*
X2041986Y1631577*
X2043235D02*
X2043724D01*
X2043715Y1631674*
X2043226*
X2043235Y1631577*
X2043724*
X2043715Y1631674*
X2043226*
X2043235Y1631577*
X2050875D02*
X2051958D01*
X2051864Y1631674*
X2050883*
X2050875Y1631577*
X2051958*
X2051864Y1631674*
X2050883*
X2050875Y1631577*
X2041876Y1631464D02*
X2042673D01*
X2042768Y1631561*
X2041971*
X2041876Y1631464*
X2042673*
X2042768Y1631561*
X2041971*
X2041876Y1631464*
X2043244D02*
X2043733D01*
X2043725Y1631561*
X2043236*
X2043244Y1631464*
X2043733*
X2043725Y1631561*
X2043236*
X2043244Y1631464*
X2050866D02*
X2052067D01*
X2051973Y1631561*
X2050874*
X2050866Y1631464*
X2052067*
X2051973Y1631561*
X2050874*
X2050866Y1631464*
X2041766Y1631351D02*
X2042563D01*
X2042658Y1631449*
X2041861*
X2041766Y1631351*
X2042563*
X2042658Y1631449*
X2041861*
X2041766Y1631351*
X2043254D02*
X2043742D01*
X2043734Y1631449*
X2043246*
X2043254Y1631351*
X2043742*
X2043734Y1631449*
X2043246*
X2043254Y1631351*
X2050856D02*
X2052175D01*
X2052081Y1631449*
X2050864*
X2050856Y1631351*
X2052175*
X2052081Y1631449*
X2050864*
X2050856Y1631351*
X2041656Y1631238D02*
X2042453D01*
X2042547Y1631336*
X2041751*
X2041656Y1631238*
X2042453*
X2042547Y1631336*
X2041751*
X2041656Y1631238*
X2043264D02*
X2043752D01*
X2043744Y1631336*
X2043256*
X2043264Y1631238*
X2043752*
X2043744Y1631336*
X2043256*
X2043264Y1631238*
X2050847D02*
X2051404D01*
X2051409Y1631302*
X2051470Y1631238*
X2052284*
X2052190Y1631336*
X2050855*
X2050847Y1631238*
X2041546Y1631125D02*
X2042342D01*
X2042437Y1631223*
X2041641*
X2041546Y1631125*
X2042342*
X2042437Y1631223*
X2041641*
X2041546Y1631125*
X2043274D02*
X2043761D01*
X2043753Y1631223*
X2043265*
X2043274Y1631125*
X2043761*
X2043753Y1631223*
X2043265*
X2043274Y1631125*
X2050837D02*
X2051394D01*
X2051402Y1631223*
X2050845*
X2050837Y1631125*
X2051394*
X2051402Y1631223*
X2050845*
X2050837Y1631125*
X2051578D02*
X2052393D01*
X2052299Y1631223*
X2051485*
X2051578Y1631125*
X2052393*
X2052299Y1631223*
X2051485*
X2051578Y1631125*
X2041437Y1631012D02*
X2042232D01*
X2042327Y1631110*
X2041531*
X2041437Y1631012*
X2042232*
X2042327Y1631110*
X2041531*
X2041437Y1631012*
X2043283D02*
X2043770D01*
X2043762Y1631110*
X2043275*
X2043283Y1631012*
X2043770*
X2043762Y1631110*
X2043275*
X2043283Y1631012*
X2049908D02*
X2051385D01*
X2051393Y1631110*
X2050836*
X2050835Y1631094*
X2050791Y1631100*
X2050746Y1631106*
X2050702Y1631110*
X2050370*
X2050212Y1631090*
X2050058Y1631057*
X2049908Y1631012*
X2051687D02*
X2052501D01*
X2052408Y1631110*
X2051593*
X2051687Y1631012*
X2052501*
X2052408Y1631110*
X2051593*
X2051687Y1631012*
X2050835Y1631094D02*
X2050847Y1631092D01*
X2050859Y1631090*
X2050872Y1631088*
X2050859Y1631090*
X2050847Y1631092*
X2050835Y1631094*
X2050924Y1631078D02*
X2050938Y1631075D01*
X2050953Y1631072*
X2050967Y1631068*
X2050953Y1631072*
X2050938Y1631075*
X2050924Y1631078*
X2050977Y1631066D02*
X2050990Y1631063D01*
X2051003Y1631060*
X2051016Y1631057*
X2051003Y1631060*
X2050990Y1631063*
X2050977Y1631066*
X2051017Y1631056D02*
X2051032Y1631052D01*
X2051047Y1631048*
X2051061Y1631044*
X2051047Y1631048*
X2051032Y1631052*
X2051017Y1631056*
X2051064Y1631044D02*
X2051078Y1631039D01*
X2051092Y1631035*
X2051106Y1631031*
X2051092Y1631035*
X2051078Y1631039*
X2051064Y1631044*
X2050924Y1631078D02*
X2050909Y1631081D01*
X2050895Y1631083*
X2050895D02*
X2050880Y1631086D01*
X2050924Y1631078*
X2050909Y1631081*
X2050895Y1631083*
X2050895D02*
X2050880Y1631086D01*
X2050924Y1631078*
X2041327Y1630900D02*
X2042122D01*
X2042217Y1630997*
X2041422*
X2041327Y1630900*
X2042122*
X2042217Y1630997*
X2041422*
X2041327Y1630900*
X2043293D02*
X2043780D01*
X2043772Y1630997*
X2043285*
X2043293Y1630900*
X2043780*
X2043772Y1630997*
X2043285*
X2043293Y1630900*
X2049646D02*
X2051425D01*
X2051409Y1630908*
X2051394Y1630916*
X2051378Y1630923*
X2051384Y1630997*
X2051206*
X2051217Y1630993*
X2051227Y1630989*
X2051237Y1630985*
X2051227Y1630989*
X2051217Y1630993*
X2051206Y1630997*
X2049865*
X2049790Y1630967*
X2049717Y1630935*
X2049646Y1630900*
X2051795D02*
X2052610D01*
X2052516Y1630997*
X2051702*
X2051795Y1630900*
X2052610*
X2052516Y1630997*
X2051702*
X2051795Y1630900*
X2051248Y1630981D02*
X2051259Y1630976D01*
X2051270Y1630972*
X2051281Y1630967*
X2051270Y1630972*
X2051259Y1630976*
X2051248Y1630981*
X2041217Y1630787D02*
X2042012D01*
X2042107Y1630884*
X2041312*
X2041217Y1630787*
X2042012*
X2042107Y1630884*
X2041312*
X2041217Y1630787*
X2043303D02*
X2043789D01*
X2043781Y1630884*
X2043295*
X2043303Y1630787*
X2043789*
X2043781Y1630884*
X2043295*
X2043303Y1630787*
X2049456D02*
X2051614D01*
X2051562Y1630821*
X2051509Y1630853*
X2051454Y1630884*
X2049616*
X2049562Y1630853*
X2049508Y1630821*
X2049456Y1630787*
X2051904D02*
X2052719D01*
X2052625Y1630884*
X2051810*
X2051904Y1630787*
X2052719*
X2052625Y1630884*
X2051810*
X2051904Y1630787*
X2041107Y1630674D02*
X2041902D01*
X2041997Y1630771*
X2041202*
X2041107Y1630674*
X2041902*
X2041997Y1630771*
X2041202*
X2041107Y1630674*
X2043313D02*
X2043798D01*
X2043790Y1630771*
X2043304*
X2043313Y1630674*
X2043798*
X2043790Y1630771*
X2043304*
X2043313Y1630674*
X2049306D02*
X2051765D01*
X2051723Y1630707*
X2051681Y1630740*
X2051637Y1630771*
X2049434*
X2049390Y1630740*
X2049348Y1630707*
X2049306Y1630674*
X2052012D02*
X2052827D01*
X2052734Y1630771*
X2051919*
X2052012Y1630674*
X2052827*
X2052734Y1630771*
X2051919*
X2052012Y1630674*
X2040997Y1630561D02*
X2041792D01*
X2041887Y1630658*
X2041092*
X2040997Y1630561*
X2041792*
X2041887Y1630658*
X2041092*
X2040997Y1630561*
X2043322D02*
X2043808D01*
X2043800Y1630658*
X2043314*
X2043322Y1630561*
X2043808*
X2043800Y1630658*
X2043314*
X2043322Y1630561*
X2049181D02*
X2051890D01*
X2051855Y1630594*
X2051819Y1630627*
X2051783Y1630658*
X2049288*
X2049251Y1630627*
X2049216Y1630594*
X2049181Y1630561*
X2052121D02*
X2052936D01*
X2052842Y1630658*
X2052027*
X2052121Y1630561*
X2052936*
X2052842Y1630658*
X2052027*
X2052121Y1630561*
X2040887Y1630448D02*
X2041682D01*
X2041777Y1630545*
X2040982*
X2040887Y1630448*
X2041682*
X2041777Y1630545*
X2040982*
X2040887Y1630448*
X2043332D02*
X2043817D01*
X2043809Y1630545*
X2043324*
X2043332Y1630448*
X2043817*
X2043809Y1630545*
X2043324*
X2043332Y1630448*
X2049076D02*
X2051995D01*
X2051966Y1630481*
X2051936Y1630514*
X2051905Y1630545*
X2049166*
X2049135Y1630514*
X2049105Y1630481*
X2049076Y1630448*
X2052229D02*
X2053045D01*
X2052951Y1630545*
X2052136*
X2052229Y1630448*
X2053045*
X2052951Y1630545*
X2052136*
X2052229Y1630448*
X2040778Y1630335D02*
X2041572D01*
X2041667Y1630432*
X2040872*
X2040778Y1630335*
X2041572*
X2041667Y1630432*
X2040872*
X2040778Y1630335*
X2043342D02*
X2043826D01*
X2043818Y1630432*
X2043333*
X2043342Y1630335*
X2043826*
X2043818Y1630432*
X2043333*
X2043342Y1630335*
X2048985D02*
X2052085D01*
X2052060Y1630368*
X2052035Y1630401*
X2052008Y1630432*
X2049063*
X2049036Y1630401*
X2049010Y1630368*
X2048985Y1630335*
X2052338D02*
X2053153D01*
X2053060Y1630432*
X2052244*
X2052338Y1630335*
X2053153*
X2053060Y1630432*
X2052244*
X2052338Y1630335*
X2040668Y1630222D02*
X2041462D01*
X2041557Y1630320*
X2040763*
X2040668Y1630222*
X2041462*
X2041557Y1630320*
X2040763*
X2040668Y1630222*
X2043352D02*
X2043836D01*
X2043828Y1630320*
X2043343*
X2043352Y1630222*
X2043836*
X2043828Y1630320*
X2043343*
X2043352Y1630222*
X2048908D02*
X2050207D01*
X2050313Y1630250*
X2050422Y1630267*
X2050535Y1630273*
X2050648Y1630267*
X2050758Y1630250*
X2050864Y1630222*
X2052163*
X2052141Y1630255*
X2052119Y1630288*
X2052097Y1630320*
X2048974*
X2048951Y1630288*
X2048929Y1630255*
X2048908Y1630222*
X2052446D02*
X2053262D01*
X2053168Y1630320*
X2052352*
X2052352D02*
X2052446Y1630222D01*
X2053262*
X2053168Y1630320*
X2052352*
X2052352D02*
X2052446Y1630222D01*
X2040558Y1630109D02*
X2041352D01*
X2041447Y1630207*
X2040653*
X2040558Y1630109*
X2041352*
X2041447Y1630207*
X2040653*
X2040558Y1630109*
X2043361D02*
X2043845D01*
X2043837Y1630207*
X2043353*
X2043361Y1630109*
X2043845*
X2043837Y1630207*
X2043353*
X2043361Y1630109*
X2048841D02*
X2049963D01*
X2050027Y1630146*
X2050093Y1630179*
X2050162Y1630207*
X2048898*
X2048879Y1630175*
X2048860Y1630142*
X2048841Y1630109*
X2051108D02*
X2052229D01*
X2052211Y1630142*
X2052192Y1630175*
X2052173Y1630207*
X2050909*
X2050978Y1630179*
X2051044Y1630146*
X2051108Y1630109*
X2052555D02*
X2053371D01*
X2053277Y1630207*
X2052461*
X2052555Y1630109*
X2053371*
X2053277Y1630207*
X2052461*
X2052555Y1630109*
X2040448Y1629996D02*
X2041242D01*
X2041337Y1630094*
X2040543*
X2040448Y1629996*
X2041242*
X2041337Y1630094*
X2040543*
X2040448Y1629996*
X2043371D02*
X2043854D01*
X2043846Y1630094*
X2043363*
X2043371Y1629996*
X2043854*
X2043846Y1630094*
X2043363*
X2043371Y1629996*
X2048785D02*
X2049813D01*
X2049853Y1630031*
X2049895Y1630063*
X2049939Y1630094*
X2048833*
X2048816Y1630062*
X2048800Y1630029*
X2048785Y1629996*
X2051258D02*
X2052286D01*
X2052271Y1630029*
X2052254Y1630062*
X2052238Y1630094*
X2051132*
X2051176Y1630063*
X2051218Y1630031*
X2051258Y1629996*
X2052663D02*
X2053480D01*
X2053386Y1630094*
X2052569*
X2052663Y1629996*
X2053480*
X2053386Y1630094*
X2052569*
X2052663Y1629996*
X2040338Y1629883D02*
X2041132D01*
X2041227Y1629981*
X2040433*
X2040338Y1629883*
X2041132*
X2041227Y1629981*
X2040433*
X2040338Y1629883*
X2043381D02*
X2043864D01*
X2043856Y1629981*
X2043372*
X2043381Y1629883*
X2043864*
X2043856Y1629981*
X2043372*
X2043381Y1629883*
X2048737D02*
X2049704D01*
X2049733Y1629917*
X2049764Y1629950*
X2049796Y1629981*
X2048778*
X2048763Y1629949*
X2048750Y1629916*
X2048737Y1629883*
X2051367D02*
X2052334D01*
X2052321Y1629916*
X2052307Y1629949*
X2052293Y1629981*
X2051275*
X2051307Y1629950*
X2051338Y1629917*
X2051367Y1629883*
X2052771D02*
X2053588D01*
X2053494Y1629981*
X2052678*
X2052771Y1629883*
X2053588*
X2053494Y1629981*
X2052678*
X2052771Y1629883*
X2040229Y1629771D02*
X2041022D01*
X2041117Y1629868*
X2040323*
X2040229Y1629771*
X2041022*
X2041117Y1629868*
X2040323*
X2040229Y1629771*
X2043391D02*
X2043873D01*
X2043865Y1629868*
X2043382*
X2043391Y1629771*
X2043873*
X2043865Y1629868*
X2043382*
X2043391Y1629771*
X2048697D02*
X2049621D01*
X2049643Y1629804*
X2049666Y1629836*
X2049691Y1629868*
X2048731*
X2048719Y1629836*
X2048708Y1629803*
X2048697Y1629771*
X2051450D02*
X2052374D01*
X2052363Y1629803*
X2052352Y1629836*
X2052340Y1629868*
X2051380*
X2051404Y1629836*
X2051428Y1629804*
X2051450Y1629771*
X2052880D02*
X2053697D01*
X2053603Y1629868*
X2052786*
X2052880Y1629771*
X2053697*
X2053603Y1629868*
X2052786*
X2052880Y1629771*
X2040119Y1629658D02*
X2040912D01*
X2041007Y1629755*
X2040213*
X2040119Y1629658*
X2040912*
X2041007Y1629755*
X2040213*
X2040119Y1629658*
X2043400D02*
X2043882D01*
X2043874Y1629755*
X2043392*
X2043400Y1629658*
X2043882*
X2043874Y1629755*
X2043392*
X2043400Y1629658*
X2048665D02*
X2049558D01*
X2049575Y1629691*
X2049593Y1629723*
X2049611Y1629755*
X2048692*
X2048683Y1629723*
X2048674Y1629690*
X2048665Y1629658*
X2051513D02*
X2052405D01*
X2052397Y1629690*
X2052388Y1629723*
X2052378Y1629755*
X2051459*
X2051478Y1629723*
X2051496Y1629691*
X2051513Y1629658*
X2052988D02*
X2053806D01*
X2053712Y1629755*
X2052895*
X2052988Y1629658*
X2053806*
X2053712Y1629755*
X2052895*
X2052988Y1629658*
X2040009Y1629545D02*
X2040802D01*
X2040896Y1629642*
X2040104*
X2040009Y1629545*
X2040802*
X2040896Y1629642*
X2040104*
X2040009Y1629545*
X2043410D02*
X2043892D01*
X2043884Y1629642*
X2043402*
X2043410Y1629545*
X2043892*
X2043884Y1629642*
X2043402*
X2043410Y1629545*
X2048641D02*
X2049512D01*
X2049524Y1629578*
X2049537Y1629610*
X2049551Y1629642*
X2048662*
X2048654Y1629610*
X2048647Y1629577*
X2048641Y1629545*
X2051559D02*
X2052430D01*
X2052424Y1629577*
X2052417Y1629610*
X2052409Y1629642*
X2051520*
X2051534Y1629610*
X2051547Y1629578*
X2051559Y1629545*
X2053097D02*
X2053914D01*
X2053821Y1629642*
X2053003*
X2053097Y1629545*
X2053914*
X2053821Y1629642*
X2053003*
X2053097Y1629545*
X2039899Y1629432D02*
X2040691D01*
X2040786Y1629529*
X2039994*
X2039899Y1629432*
X2040691*
X2040786Y1629529*
X2039994*
X2039899Y1629432*
X2043420D02*
X2043901D01*
X2043893Y1629529*
X2043411*
X2043420Y1629432*
X2043901*
X2043893Y1629529*
X2043411*
X2043420Y1629432*
X2048623D02*
X2049479D01*
X2049487Y1629465*
X2049496Y1629497*
X2049496D02*
X2049507Y1629529D01*
X2048638*
X2048632Y1629497*
X2048628Y1629465*
X2048623Y1629432*
X2051591D02*
X2052448D01*
X2052443Y1629465*
X2052438Y1629497*
X2052433Y1629529*
X2051564*
X2051574Y1629497*
X2051583Y1629465*
X2051591Y1629432*
X2053205D02*
X2054023D01*
X2053929Y1629529*
X2053112*
X2053205Y1629432*
X2054023*
X2053929Y1629529*
X2053112*
X2053205Y1629432*
X2039789Y1629319D02*
X2040581D01*
X2040676Y1629416*
X2039884*
X2039789Y1629319*
X2040581*
X2040676Y1629416*
X2039884*
X2039789Y1629319*
X2043430D02*
X2043910D01*
X2043902Y1629416*
X2043421*
X2043430Y1629319*
X2043910*
X2043902Y1629416*
X2043421*
X2043430Y1629319*
X2048612D02*
X2049460D01*
X2049464Y1629352*
X2049470Y1629384*
X2049476Y1629416*
X2048621*
X2048618Y1629384*
X2048615Y1629352*
X2048612Y1629319*
X2051611D02*
X2052458D01*
X2052456Y1629352*
X2052453Y1629384*
X2052449Y1629416*
X2051595*
X2051601Y1629384*
X2051607Y1629352*
X2051611Y1629319*
X2053314D02*
X2054132D01*
X2054038Y1629416*
X2053220*
X2053314Y1629319*
X2054132*
X2054038Y1629416*
X2053220*
X2053314Y1629319*
X2039679Y1629206D02*
X2040471D01*
X2040566Y1629303*
X2039774*
X2039679Y1629206*
X2040471*
X2040566Y1629303*
X2039774*
X2039679Y1629206*
X2043439D02*
X2043920D01*
X2043912Y1629303*
X2043431*
X2043439Y1629206*
X2043920*
X2043912Y1629303*
X2043431*
X2043439Y1629206*
X2048608D02*
X2049452D01*
X2049453Y1629239*
X2049455Y1629271*
X2049458Y1629303*
X2048612*
X2048612D02*
X2048610Y1629271D01*
X2048609Y1629239*
X2048608Y1629206*
X2051618D02*
X2052463D01*
X2052462Y1629239*
X2052461Y1629271*
X2052459Y1629303*
X2051613*
X2051616Y1629271*
X2051617Y1629239*
X2051618Y1629206*
X2053422D02*
X2054240D01*
X2054147Y1629303*
X2053329*
X2053422Y1629206*
X2054240*
X2054147Y1629303*
X2053329*
X2053422Y1629206*
X2039570Y1629093D02*
X2040361D01*
X2040456Y1629191*
X2039664*
X2039570Y1629093*
X2040361*
X2040456Y1629191*
X2039664*
X2039570Y1629093*
X2043449D02*
X2046016D01*
X2043928Y1629108*
X2043921Y1629191*
X2043441*
X2043449Y1629093*
X2048611D02*
X2049456D01*
X2049454Y1629125*
X2049453Y1629157*
X2049452Y1629190*
X2049452*
X2049452*
Y1629191*
X2048608*
Y1629190*
X2048608*
X2048608*
Y1629157*
X2048609Y1629125*
X2048611Y1629093*
X2051614D02*
X2052460D01*
X2052462Y1629125*
Y1629157*
X2052463Y1629190*
X2052463*
X2052463*
Y1629191*
X2051619*
Y1629190*
X2051619*
X2051619*
X2051618Y1629157*
X2051617Y1629125*
X2051614Y1629093*
X2053531D02*
X2054349D01*
X2054255Y1629191*
X2053437*
X2053531Y1629093*
X2054349*
X2054255Y1629191*
X2053437*
X2053531Y1629093*
X2039460Y1628980D02*
X2040251D01*
X2040346Y1629078*
X2039555*
X2039460Y1628980*
X2040251*
X2040346Y1629078*
X2039555*
X2039460Y1628980*
X2043459D02*
X2049472D01*
X2049467Y1629012*
X2049462Y1629045*
X2049458Y1629078*
X2048611*
X2048612Y1629069*
X2048613Y1629060*
Y1629051*
X2048611Y1629075*
X2048230Y1629078*
X2043450*
X2043459Y1628980*
X2051598D02*
X2052451D01*
X2052455Y1629013*
X2052457Y1629045*
X2052459Y1629078*
X2051613*
X2051609Y1629045*
X2051604Y1629012*
X2051598Y1628980*
X2053639D02*
X2054458D01*
X2054364Y1629078*
X2053546*
X2053639Y1628980*
X2054458*
X2054364Y1629078*
X2053546*
X2053639Y1628980*
X2039350Y1628867D02*
X2040141D01*
X2040236Y1628965*
X2039445*
X2039350Y1628867*
X2040141*
X2040236Y1628965*
X2039445*
X2039350Y1628867*
X2043469D02*
X2049501D01*
X2049491Y1628899*
X2049483Y1628932*
X2049476Y1628965*
X2043460*
X2043469Y1628867*
X2051570D02*
X2052436D01*
X2052441Y1628900*
X2052445Y1628932*
X2052450Y1628965*
X2051595*
X2051588Y1628932*
X2051579Y1628899*
X2051570Y1628867*
X2053748D02*
X2054567D01*
X2054473Y1628965*
X2053654*
X2053748Y1628867*
X2054567*
X2054473Y1628965*
X2053654*
X2053748Y1628867*
X2039240Y1628754D02*
X2040031D01*
X2040126Y1628852*
X2039335*
X2039240Y1628754*
X2040031*
X2040126Y1628852*
X2039335*
X2039240Y1628754*
X2043492D02*
X2049543D01*
X2049530Y1628786*
X2049517Y1628819*
X2049506Y1628852*
X2043470*
X2043474Y1628818*
X2043482Y1628786*
X2043492Y1628754*
X2051528D02*
X2052413D01*
X2052421Y1628787*
X2052427Y1628819*
X2052433Y1628852*
X2051565*
X2051553Y1628819*
X2051541Y1628786*
X2051528Y1628754*
X2053856D02*
X2054675D01*
X2054581Y1628852*
X2053762*
X2053856Y1628754*
X2054675*
X2054581Y1628852*
X2053762*
X2053856Y1628754*
X2039130Y1628642D02*
X2039921D01*
X2040016Y1628739*
X2039225*
X2039130Y1628642*
X2039921*
X2040016Y1628739*
X2039225*
X2039130Y1628642*
X2043561D02*
X2049601D01*
X2049583Y1628673*
X2049566Y1628706*
X2049550Y1628739*
X2043498*
X2043515Y1628704*
X2043536Y1628671*
X2043561Y1628642*
X2051470D02*
X2052383D01*
X2052393Y1628674*
X2052401Y1628706*
X2052410Y1628739*
X2051521*
X2051505Y1628706*
X2051488Y1628673*
X2051470Y1628642*
X2053964D02*
X2054784D01*
X2054690Y1628739*
X2053871*
X2053964Y1628642*
X2054784*
X2054690Y1628739*
X2053871*
X2053964Y1628642*
X2039020Y1628529D02*
X2039811D01*
X2039906Y1628626*
X2039115*
X2039020Y1628529*
X2039811*
X2039906Y1628626*
X2039115*
X2039020Y1628529*
X2043726D02*
X2044279D01*
Y1628535*
X2044451*
Y1628529*
X2044940*
Y1628552*
X2048716*
X2048711Y1628568*
X2048715Y1628555*
X2048720Y1628542*
X2048725Y1628529*
X2049677*
X2049654Y1628560*
X2049631Y1628593*
X2049610Y1628626*
X2048692*
X2048700Y1628602*
X2048697Y1628610*
X2048694Y1628618*
X2048692Y1628626*
X2043576*
X2043621Y1628592*
X2043671Y1628568*
X2043726Y1628554*
Y1628529*
X2051394D02*
X2052346D01*
X2052358Y1628561*
X2052369Y1628593*
X2052379Y1628626*
X2051461*
X2051439Y1628593*
X2051417Y1628560*
X2051394Y1628529*
X2054073D02*
X2054893D01*
X2054799Y1628626*
X2053979*
X2054073Y1628529*
X2054893*
X2054799Y1628626*
X2053979*
X2054073Y1628529*
X2038911Y1628416D02*
X2039701D01*
X2039796Y1628513*
X2039005*
X2038911Y1628416*
X2039701*
X2039796Y1628513*
X2039005*
X2038911Y1628416*
X2043726D02*
X2044279D01*
Y1628513*
X2043726*
Y1628416*
X2044279*
Y1628513*
X2043726*
Y1628416*
X2044451D02*
X2044940D01*
Y1628513*
X2044451*
Y1628416*
X2044940*
Y1628513*
X2044451*
Y1628416*
X2048770D02*
X2049778D01*
X2049747Y1628447*
X2049718Y1628480*
X2049718D02*
X2049689Y1628513D01*
X2048730*
X2048743Y1628480*
X2048756Y1628448*
X2048770Y1628416*
X2051293D02*
X2052301D01*
X2052315Y1628448*
X2052328Y1628480*
X2052340Y1628513*
X2051381*
X2051353Y1628480*
X2051324Y1628447*
X2051293Y1628416*
X2054181D02*
X2055001D01*
X2054908Y1628513*
X2054088*
X2054181Y1628416*
X2055001*
X2054908Y1628513*
X2054088*
X2054181Y1628416*
X2038801Y1628303D02*
X2039591D01*
X2039686Y1628400*
X2038896*
X2038801Y1628303*
X2039591*
X2039686Y1628400*
X2038896*
X2038801Y1628303*
X2043726D02*
X2044279D01*
Y1628400*
X2043726*
Y1628303*
X2044279*
Y1628400*
X2043726*
Y1628303*
X2044451D02*
X2044940D01*
Y1628400*
X2044451*
Y1628303*
X2044940*
Y1628400*
X2044451*
Y1628303*
X2048824D02*
X2049913D01*
X2049872Y1628333*
X2049832Y1628366*
X2049794Y1628400*
X2048777*
X2048792Y1628367*
X2048808Y1628335*
X2048824Y1628303*
X2051158D02*
X2052247D01*
X2052263Y1628335*
X2052279Y1628367*
X2052294Y1628400*
X2051277*
X2051239Y1628366*
X2051199Y1628333*
X2051158Y1628303*
X2054290D02*
X2055110D01*
X2055016Y1628400*
X2054196*
X2054290Y1628303*
X2055110*
X2055016Y1628400*
X2054196*
X2054290Y1628303*
X2038691Y1628190D02*
X2039481D01*
X2039576Y1628287*
X2038786*
X2038691Y1628190*
X2039481*
X2039576Y1628287*
X2038786*
X2038691Y1628190*
X2043726D02*
X2044279D01*
Y1628287*
X2043726*
Y1628190*
X2044279*
Y1628287*
X2043726*
Y1628190*
X2044451D02*
X2044940D01*
Y1628287*
X2044451*
Y1628190*
X2044940*
Y1628287*
X2044451*
Y1628190*
X2048888D02*
X2050118D01*
X2050055Y1628219*
X2049994Y1628251*
X2049936Y1628287*
X2048832*
X2048850Y1628255*
X2048869Y1628222*
X2048888Y1628190*
X2050953D02*
X2052183D01*
X2052202Y1628222*
X2052221Y1628255*
X2052239Y1628287*
X2051135*
X2051077Y1628251*
X2051016Y1628219*
X2050953Y1628190*
X2054398D02*
X2055219D01*
X2055125Y1628287*
X2054305*
X2054398Y1628190*
X2055219*
X2055125Y1628287*
X2054305*
X2054398Y1628190*
X2038581Y1628077D02*
X2039371D01*
X2039466Y1628174*
X2038676*
X2038581Y1628077*
X2039371*
X2039466Y1628174*
X2038676*
X2038581Y1628077*
X2043726D02*
X2044279D01*
Y1628174*
X2043726*
Y1628077*
X2044279*
Y1628174*
X2043726*
Y1628077*
X2044451D02*
X2044940D01*
Y1628174*
X2044451*
Y1628077*
X2044940*
Y1628174*
X2044451*
Y1628077*
X2048962D02*
X2052109D01*
X2052131Y1628109*
X2052153Y1628142*
X2052174Y1628174*
X2050914*
X2050793Y1628137*
X2050667Y1628114*
X2050535Y1628106*
X2050404Y1628114*
X2050278Y1628137*
X2050157Y1628174*
X2048897*
X2048918Y1628142*
X2048940Y1628109*
X2048962Y1628077*
X2054507D02*
X2055327D01*
X2055234Y1628174*
X2054413*
X2054507Y1628077*
X2055327*
X2055234Y1628174*
X2054413*
X2054507Y1628077*
X2038471Y1627964D02*
X2039261D01*
X2039356Y1628062*
X2038566*
X2038471Y1627964*
X2039261*
X2039356Y1628062*
X2038566*
X2038471Y1627964*
X2043726D02*
X2044279D01*
Y1628062*
X2043726*
Y1627964*
X2044279*
Y1628062*
X2043726*
Y1627964*
X2044451D02*
X2044940D01*
Y1628062*
X2044451*
Y1627964*
X2044940*
Y1628062*
X2044451*
Y1627964*
X2049048D02*
X2052023D01*
X2052049Y1627996*
X2052074Y1628029*
X2052098Y1628062*
X2048973*
X2048997Y1628029*
X2049022Y1627996*
X2049048Y1627964*
X2054615D02*
X2055436D01*
X2055342Y1628062*
X2054522*
X2054615Y1627964*
X2055436*
X2055342Y1628062*
X2054522*
X2054615Y1627964*
X2038361Y1627851D02*
X2039151D01*
X2039246Y1627949*
X2038456*
X2038361Y1627851*
X2039151*
X2039246Y1627949*
X2038456*
X2038361Y1627851*
X2043726D02*
X2044279D01*
Y1627949*
X2043726*
Y1627851*
X2044279*
Y1627949*
X2043726*
Y1627851*
X2044451D02*
X2044940D01*
Y1627949*
X2044451*
Y1627851*
X2044940*
Y1627949*
X2044451*
Y1627851*
X2049149D02*
X2051922D01*
X2051952Y1627883*
X2051981Y1627916*
X2052010Y1627949*
X2049061*
X2049090Y1627916*
X2049119Y1627883*
X2049149Y1627851*
X2054724D02*
X2055545D01*
X2055451Y1627949*
X2054630*
X2054724Y1627851*
X2055545*
X2055451Y1627949*
X2054630*
X2054724Y1627851*
X2038252Y1627738D02*
X2039040D01*
X2039135Y1627836*
X2038346*
X2038252Y1627738*
X2039040*
X2039135Y1627836*
X2038346*
X2038252Y1627738*
X2043726D02*
X2044940D01*
Y1627836*
X2044451*
Y1627784*
X2044279*
Y1627836*
X2043726*
Y1627738*
X2049268D02*
X2051803D01*
X2051839Y1627770*
X2051873Y1627802*
X2051907Y1627836*
X2049164*
X2049198Y1627802*
X2049232Y1627770*
X2049268Y1627738*
X2054832D02*
X2055654D01*
X2055560Y1627836*
X2054739*
X2054832Y1627738*
X2055654*
X2055560Y1627836*
X2054739*
X2054832Y1627738*
X2038142Y1627625D02*
X2038930D01*
X2039025Y1627723*
X2038237*
X2038142Y1627625*
X2038930*
X2039025Y1627723*
X2038237*
X2038142Y1627625*
X2043726D02*
X2044940D01*
Y1627723*
X2043726*
Y1627625*
X2044940*
Y1627723*
X2043726*
Y1627625*
X2049409D02*
X2051661D01*
X2051704Y1627657*
X2051745Y1627689*
X2051785Y1627723*
X2049285*
X2049326Y1627689*
X2049367Y1627657*
X2049409Y1627625*
X2054941D02*
X2055762D01*
X2055668Y1627723*
X2054847*
X2054941Y1627625*
X2055762*
X2055668Y1627723*
X2054847*
X2054941Y1627625*
X2038032Y1627513D02*
X2038820D01*
X2038915Y1627610*
X2038127*
X2038032Y1627513*
X2038820*
X2038915Y1627610*
X2038127*
X2038032Y1627513*
X2043726D02*
X2044940D01*
Y1627610*
X2043726*
Y1627513*
X2044940*
Y1627610*
X2043726*
Y1627513*
X2049585D02*
X2051486D01*
X2051538Y1627543*
X2051589Y1627576*
X2051640Y1627610*
X2049431*
X2049481Y1627576*
X2049533Y1627543*
X2049585Y1627513*
X2055049D02*
X2055871D01*
X2055777Y1627610*
X2054955*
X2055049Y1627513*
X2055871*
X2055777Y1627610*
X2054955*
X2055049Y1627513*
X2037922Y1627400D02*
X2038710D01*
X2038805Y1627497*
X2038017*
X2037922Y1627400*
X2038710*
X2038805Y1627497*
X2038017*
X2037922Y1627400*
X2043726D02*
X2044940D01*
Y1627497*
X2043726*
Y1627400*
X2044940*
Y1627497*
X2043726*
Y1627400*
X2049820D02*
X2051251D01*
X2051321Y1627430*
X2051390Y1627462*
X2051458Y1627497*
X2049613*
X2049680Y1627462*
X2049749Y1627430*
X2049820Y1627400*
X2055158D02*
X2055980D01*
X2055886Y1627497*
X2055064*
X2055158Y1627400*
X2055980*
X2055886Y1627497*
X2055064*
X2055158Y1627400*
X2037812Y1627287D02*
X2038600D01*
X2038695Y1627384*
X2037907*
X2037812Y1627287*
X2038600*
X2038695Y1627384*
X2037907*
X2037812Y1627287*
X2043726D02*
X2044940D01*
Y1627384*
X2043726*
Y1627287*
X2044940*
Y1627384*
X2043726*
Y1627287*
X2050228D02*
X2050843D01*
X2050969Y1627311*
X2051091Y1627344*
X2051211Y1627384*
X2049860*
X2049979Y1627344*
X2050102Y1627311*
X2050228Y1627287*
X2055266D02*
X2056088D01*
X2055995Y1627384*
X2055172*
X2055266Y1627287*
X2056088*
X2055995Y1627384*
X2055172*
X2055266Y1627287*
X2037703Y1627174D02*
X2038490D01*
X2038585Y1627271*
X2037797*
X2037703Y1627174*
X2038490*
X2038585Y1627271*
X2037797*
X2037703Y1627174*
X2055374D02*
X2056197D01*
X2056103Y1627271*
X2055281*
X2055374Y1627174*
X2056197*
X2056103Y1627271*
X2055281*
X2055374Y1627174*
X2050722Y1627271D02*
X2050349D01*
X2050410Y1627266*
X2050473Y1627263*
X2050535Y1627262*
X2050598Y1627263*
X2050660Y1627266*
X2050722Y1627271*
X2044940D02*
X2043726D01*
Y1627258*
X2044940*
Y1627271*
X2043726*
Y1627258*
X2044940*
Y1627271*
X2037593Y1627061D02*
X2038380D01*
X2038475Y1627158*
X2037687*
X2037593Y1627061*
X2038380*
X2038475Y1627158*
X2037687*
X2037593Y1627061*
X2055483D02*
X2056306D01*
X2056212Y1627158*
X2055389*
X2055483Y1627061*
X2056306*
X2056212Y1627158*
X2055389*
X2055483Y1627061*
X2037483Y1626948D02*
X2038270D01*
X2038365Y1627046*
X2037578*
X2037483Y1626948*
X2038270*
X2038365Y1627046*
X2037578*
X2037483Y1626948*
X2055591D02*
X2056414D01*
X2056321Y1627046*
X2055498*
X2055591Y1626948*
X2056414*
X2056321Y1627046*
X2055498*
X2055591Y1626948*
X2037373Y1626835D02*
X2038160D01*
X2038255Y1626933*
X2037468*
X2037373Y1626835*
X2038160*
X2038255Y1626933*
X2037468*
X2037373Y1626835*
X2055700D02*
X2056523D01*
X2056429Y1626933*
X2055606*
X2055700Y1626835*
X2056523*
X2056429Y1626933*
X2055606*
X2055700Y1626835*
X2037361Y1626722D02*
X2038050D01*
X2038145Y1626820*
X2037358*
X2037311Y1626772*
X2037361Y1626722*
X2055808D02*
X2056532D01*
X2056583Y1626773*
X2056538Y1626820*
X2055715*
X2055808Y1626722*
X2037475Y1626609D02*
X2037940D01*
X2038035Y1626707*
X2037377*
X2037475Y1626609*
X2037940*
X2038035Y1626707*
X2037377*
X2037475Y1626609*
X2055917D02*
X2056416D01*
X2056516Y1626707*
X2055823*
X2055917Y1626609*
X2056416*
X2056516Y1626707*
X2055823*
X2055917Y1626609*
X2037589Y1626497D02*
X2037830D01*
X2037925Y1626594*
X2037491*
X2037589Y1626497*
X2037830*
X2037925Y1626594*
X2037491*
X2037589Y1626497*
X2056025D02*
X2056301D01*
X2056400Y1626594*
X2055932*
X2056025Y1626497*
X2056301*
X2056400Y1626594*
X2055932*
X2056025Y1626497*
X2037703Y1626384D02*
X2037720D01*
X2037815Y1626481*
X2037605*
X2037703Y1626384*
X2037720*
X2037815Y1626481*
X2037605*
X2037703Y1626384*
X2056134D02*
X2056185D01*
X2056285Y1626481*
X2056040*
X2056134Y1626384*
X2056185*
X2056285Y1626481*
X2056040*
X2056134Y1626384*
X2056169Y1626368D02*
X2056149D01*
X2056159Y1626358*
X2056169Y1626368*
X2056149*
X2056159Y1626358*
X2056169Y1626368*
X2043097Y1632720D02*
X2043897D01*
X2043992Y1632817*
X2043128*
X2043133Y1632756*
X2043097Y1632720*
X2050047D02*
X2050858D01*
X2050764Y1632817*
X2049953*
X2050047Y1632720*
X2050858*
X2050764Y1632817*
X2049953*
X2050047Y1632720*
X2050971D02*
X2051524D01*
X2051532Y1632817*
X2050979*
X2050971Y1632720*
X2051524*
X2051532Y1632817*
X2050979*
X2050971Y1632720*
X2043125Y1632846D02*
X2044020D01*
X2044115Y1632943*
X2043117*
X2043125Y1632846*
X2044020*
X2044115Y1632943*
X2043117*
X2043125Y1632846*
X2049925D02*
X2050736D01*
X2050642Y1632943*
X2049832*
X2049925Y1632846*
X2050736*
X2050642Y1632943*
X2049832*
X2049925Y1632846*
X2050981D02*
X2051535D01*
X2051543Y1632943*
X2050990*
X2050981Y1632846*
X2051535*
X2051543Y1632943*
X2050990*
X2050981Y1632846*
X2043114Y1632973D02*
X2044143D01*
X2044238Y1633070*
X2043106*
X2043114Y1632973*
X2044143*
X2044238Y1633070*
X2043106*
X2043114Y1632973*
X2049804D02*
X2050614D01*
X2050520Y1633070*
X2049710*
X2049804Y1632973*
X2050614*
X2050520Y1633070*
X2049710*
X2049804Y1632973*
X2050992D02*
X2051545D01*
X2051553Y1633070*
X2051000*
X2050992Y1632973*
X2051545*
X2051553Y1633070*
X2051000*
X2050992Y1632973*
X2043103Y1633099D02*
X2044267D01*
X2044362Y1633197*
X2043095*
X2043103Y1633099*
X2044267*
X2044362Y1633197*
X2043095*
X2043103Y1633099*
X2049682D02*
X2050492D01*
X2050399Y1633197*
X2049589*
X2049682Y1633099*
X2050492*
X2050399Y1633197*
X2049589*
X2049682Y1633099*
X2051003D02*
X2051555D01*
X2051563Y1633197*
X2051011*
X2051003Y1633099*
X2051555*
X2051563Y1633197*
X2051011*
X2051003Y1633099*
X2043093Y1633226D02*
X2043587D01*
X2043579Y1633323*
X2043084*
X2043093Y1633226*
X2043093D02*
X2043587D01*
X2043579Y1633323*
X2043084*
X2043093Y1633226*
X2043590D02*
X2044390D01*
X2044485Y1633323*
X2043684*
X2043590Y1633226*
X2044390*
X2044485Y1633323*
X2043684*
X2043590Y1633226*
X2049561D02*
X2050370D01*
X2050277Y1633323*
X2049467*
X2049561Y1633226*
X2050370*
X2050277Y1633323*
X2049467*
X2049561Y1633226*
X2051013D02*
X2051566D01*
X2051574Y1633323*
X2051021*
X2051013Y1633226*
X2051566*
X2051574Y1633323*
X2051021*
X2051013Y1633226*
X2043082Y1633352D02*
X2043577D01*
X2043569Y1633450*
X2043073*
X2043082Y1633352*
X2043577*
X2043569Y1633450*
X2043073*
X2043082Y1633352*
X2043713D02*
X2044513D01*
X2044608Y1633450*
X2043807*
X2043713Y1633352*
X2044513*
X2044608Y1633450*
X2043807*
X2043713Y1633352*
X2049439D02*
X2050249D01*
X2050155Y1633450*
X2049346*
X2049439Y1633352*
X2050249*
X2050155Y1633450*
X2049346*
X2049439Y1633352*
X2051024D02*
X2051576D01*
X2051584Y1633450*
X2051032*
X2051024Y1633352*
X2051576*
X2051584Y1633450*
X2051032*
X2051024Y1633352*
X2043071Y1633479D02*
X2043566D01*
X2043558Y1633576*
X2043062*
X2043071Y1633479*
X2043566*
X2043558Y1633576*
X2043062*
X2043071Y1633479*
X2043836D02*
X2044637D01*
X2044732Y1633576*
X2043931*
X2043836Y1633479*
X2044637*
X2044732Y1633576*
X2043931*
X2043836Y1633479*
X2049318D02*
X2050127D01*
X2050033Y1633576*
X2049224*
X2049318Y1633479*
X2050127*
X2050033Y1633576*
X2049224*
X2049318Y1633479*
X2051034D02*
X2051586D01*
X2051594Y1633576*
X2051043*
X2051034Y1633479*
X2051586*
X2051594Y1633576*
X2051043*
X2051034Y1633479*
X2043060Y1633605D02*
X2043556D01*
X2043548Y1633703*
X2043051*
X2043060Y1633605*
X2043556*
X2043548Y1633703*
X2043051*
X2043060Y1633605*
X2043959D02*
X2044760D01*
X2044855Y1633703*
X2044054*
X2043959Y1633605*
X2044760*
X2044855Y1633703*
X2044054*
X2043959Y1633605*
X2049196D02*
X2050005D01*
X2049911Y1633703*
X2049102*
X2049196Y1633605*
X2050005*
X2049911Y1633703*
X2049102*
X2049196Y1633605*
X2051045D02*
X2051597D01*
X2051605Y1633703*
X2051053*
X2051045Y1633605*
X2051597*
X2051605Y1633703*
X2051053*
X2051045Y1633605*
X2043049Y1633732D02*
X2043545D01*
X2043537Y1633829*
X2043040*
X2043049Y1633732*
X2043545*
X2043537Y1633829*
X2043040*
X2043049Y1633732*
X2044082D02*
X2044884D01*
X2044978Y1633829*
X2044177*
X2044082Y1633732*
X2044884*
X2044978Y1633829*
X2044177*
X2044082Y1633732*
X2049075D02*
X2049883D01*
X2049789Y1633829*
X2048981*
X2049075Y1633732*
X2049883*
X2049789Y1633829*
X2048981*
X2049075Y1633732*
X2051056D02*
X2051607D01*
X2051615Y1633829*
X2051064*
X2051056Y1633732*
X2051607*
X2051615Y1633829*
X2051064*
X2051056Y1633732*
X2043038Y1633858D02*
X2043535D01*
X2043527Y1633956*
X2043030*
X2043038Y1633858*
X2043535*
X2043527Y1633956*
X2043030*
X2043038Y1633858*
X2044205D02*
X2045007D01*
X2045102Y1633956*
X2044300*
X2044205Y1633858*
X2045007*
X2045102Y1633956*
X2044300*
X2044205Y1633858*
X2048953D02*
X2049761D01*
X2049668Y1633956*
X2048859*
X2048953Y1633858*
X2049761*
X2049668Y1633956*
X2048859*
X2048953Y1633858*
X2051066D02*
X2051617D01*
X2051625Y1633956*
X2051074*
X2051066Y1633858*
X2051617*
X2051625Y1633956*
X2051074*
X2051066Y1633858*
X2043027Y1633985D02*
X2043524D01*
X2043516Y1634082*
X2043019*
X2043027Y1633985*
X2043524*
X2043516Y1634082*
X2043019*
X2043027Y1633985*
X2044328D02*
X2045130D01*
X2045225Y1634082*
X2044423*
X2044328Y1633985*
X2045130*
X2045225Y1634082*
X2044423*
X2044328Y1633985*
X2048831D02*
X2049640D01*
X2049546Y1634082*
X2048738*
X2048831Y1633985*
X2049640*
X2049546Y1634082*
X2048738*
X2048831Y1633985*
X2051077D02*
X2051628D01*
X2051636Y1634082*
X2051085*
X2051077Y1633985*
X2051628*
X2051636Y1634082*
X2051085*
X2051077Y1633985*
X2043016Y1634111D02*
X2043514D01*
X2043506Y1634209*
X2043008*
X2043016Y1634111*
X2043514*
X2043506Y1634209*
X2043008*
X2043016Y1634111*
X2044451D02*
X2045254D01*
X2045349Y1634209*
X2044546*
X2044451Y1634111*
X2045254*
X2045349Y1634209*
X2044546*
X2044451Y1634111*
X2048710D02*
X2049518D01*
X2049424Y1634209*
X2048616*
X2048710Y1634111*
X2049518*
X2049424Y1634209*
X2048616*
X2048710Y1634111*
X2051087D02*
X2051638D01*
X2051646Y1634209*
X2051096*
X2051087Y1634111*
X2051638*
X2051646Y1634209*
X2051096*
X2051087Y1634111*
X2043005Y1634238D02*
X2043503D01*
X2043495Y1634335*
X2042997*
X2043005Y1634238*
X2043503*
X2043495Y1634335*
X2042997*
X2043005Y1634238*
X2044574D02*
X2045377D01*
X2045472Y1634335*
X2044669*
X2044574Y1634238*
X2045377*
X2045472Y1634335*
X2044669*
X2044574Y1634238*
X2048588D02*
X2049396D01*
X2049302Y1634335*
X2048495*
X2048588Y1634238*
X2049396*
X2049302Y1634335*
X2048495*
X2048588Y1634238*
X2051098D02*
X2051648D01*
X2051656Y1634335*
X2051106*
X2051098Y1634238*
X2051648*
X2051656Y1634335*
X2051106*
X2051098Y1634238*
X2042994Y1634364D02*
X2043493D01*
X2043485Y1634462*
X2042986*
X2042994Y1634364*
X2043493*
X2043485Y1634462*
X2042986*
X2042994Y1634364*
X2044697D02*
X2045500D01*
X2045595Y1634462*
X2044792*
X2044697Y1634364*
X2045500*
X2045595Y1634462*
X2044792*
X2044697Y1634364*
X2048467D02*
X2049274D01*
X2049180Y1634462*
X2048373*
X2048467Y1634364*
X2049274*
X2049180Y1634462*
X2048373*
X2048467Y1634364*
X2051109D02*
X2051659D01*
X2051667Y1634462*
X2051117*
X2051109Y1634364*
X2051659*
X2051667Y1634462*
X2051117*
X2051109Y1634364*
X2042983Y1634491D02*
X2043482D01*
X2043474Y1634588*
X2042975*
X2042983Y1634491*
X2043482*
X2043474Y1634588*
X2042975*
X2042983Y1634491*
X2044820D02*
X2045624D01*
X2045719Y1634588*
X2044915*
X2044820Y1634491*
X2045624*
X2045719Y1634588*
X2044915*
X2044820Y1634491*
X2048345D02*
X2049152D01*
X2049059Y1634588*
X2048252*
X2048345Y1634491*
X2049152*
X2049059Y1634588*
X2048252*
X2048345Y1634491*
X2051119D02*
X2051669D01*
X2051677Y1634588*
X2051127*
X2051119Y1634491*
X2051669*
X2051677Y1634588*
X2051127*
X2051119Y1634491*
X2042972Y1634617D02*
X2043472D01*
X2043464Y1634715*
X2042964*
X2042972Y1634617*
X2043472*
X2043464Y1634715*
X2042964*
X2042972Y1634617*
X2044944D02*
X2045747D01*
X2045842Y1634715*
X2045038*
X2044944Y1634617*
X2045747*
X2045842Y1634715*
X2045038*
X2044944Y1634617*
X2048224D02*
X2049030D01*
X2048937Y1634715*
X2048130*
X2048224Y1634617*
X2049030*
X2048937Y1634715*
X2048130*
X2048224Y1634617*
X2051130D02*
X2051679D01*
X2051687Y1634715*
X2051138*
X2051130Y1634617*
X2051679*
X2051687Y1634715*
X2051138*
X2051130Y1634617*
X2042962Y1634744D02*
X2043461D01*
X2043453Y1634841*
X2042953*
X2042962Y1634744*
X2043461*
X2043453Y1634841*
X2042953*
X2042962Y1634744*
X2045067D02*
X2045870D01*
X2045965Y1634841*
X2045161*
X2045067Y1634744*
X2045870*
X2045965Y1634841*
X2045161*
X2045067Y1634744*
X2048102D02*
X2048909D01*
X2048815Y1634841*
X2048009*
X2048102Y1634744*
X2048909*
X2048815Y1634841*
X2048009*
X2048102Y1634744*
X2051140D02*
X2051690D01*
X2051698Y1634841*
X2051149*
X2051140Y1634744*
X2051690*
X2051698Y1634841*
X2051149*
X2051140Y1634744*
X2042951Y1634871D02*
X2043451D01*
X2043443Y1634968*
X2042942*
X2042951Y1634871*
X2043451*
X2043443Y1634968*
X2042942*
X2042951Y1634871*
X2045190D02*
X2045994D01*
X2046089Y1634968*
X2045284*
X2045190Y1634871*
X2045994*
X2046089Y1634968*
X2045284*
X2045190Y1634871*
X2047981D02*
X2048787D01*
X2048693Y1634968*
X2047887*
X2047981Y1634871*
X2048787*
X2048693Y1634968*
X2047887*
X2047981Y1634871*
X2051151D02*
X2051700D01*
X2051708Y1634968*
X2051159*
X2051151Y1634871*
X2051700*
X2051708Y1634968*
X2051159*
X2051151Y1634871*
X2042940Y1634997D02*
X2043440D01*
X2043432Y1635094*
X2042931*
X2042940Y1634997*
X2043440*
X2043432Y1635094*
X2042931*
X2042940Y1634997*
X2045313D02*
X2046117D01*
X2046212Y1635094*
X2045408*
X2045313Y1634997*
X2046117*
X2046212Y1635094*
X2045408*
X2045313Y1634997*
X2047859D02*
X2048665D01*
X2048571Y1635094*
X2047765*
X2047859Y1634997*
X2048665*
X2048571Y1635094*
X2047765*
X2047859Y1634997*
X2051162D02*
X2051710D01*
X2051718Y1635094*
X2051170*
X2051162Y1634997*
X2051710*
X2051718Y1635094*
X2051170*
X2051162Y1634997*
X2042929Y1635124D02*
X2043430D01*
X2043422Y1635221*
X2042920*
X2042929Y1635124*
X2043430*
X2043422Y1635221*
X2042920*
X2042929Y1635124*
X2045436D02*
X2046240D01*
X2046335Y1635221*
X2045531*
X2045436Y1635124*
X2046240*
X2046335Y1635221*
X2045531*
X2045436Y1635124*
X2047737D02*
X2048543D01*
X2048449Y1635221*
X2047644*
X2047737Y1635124*
X2048543*
X2048449Y1635221*
X2047644*
X2047737Y1635124*
X2051172D02*
X2051721D01*
X2051729Y1635221*
X2051180*
X2051172Y1635124*
X2051721*
X2051729Y1635221*
X2051180*
X2051172Y1635124*
X2042918Y1635250D02*
X2043419D01*
X2043411Y1635347*
X2043411D02*
X2042909D01*
X2042909D02*
X2042918Y1635250D01*
X2043419*
X2043411Y1635347*
X2043411D02*
X2042909D01*
X2042909D02*
X2042918Y1635250D01*
X2045559D02*
X2046364D01*
X2046459Y1635347*
X2046459D02*
X2045654D01*
X2045654D02*
X2045559Y1635250D01*
X2046364*
X2046459Y1635347*
X2046459D02*
X2045654D01*
X2045654D02*
X2045559Y1635250D01*
X2047616D02*
X2048421D01*
X2048328Y1635347*
X2048328D02*
X2047522D01*
X2047522D02*
X2047616Y1635250D01*
X2048421*
X2048328Y1635347*
X2048328D02*
X2047522D01*
X2047522D02*
X2047616Y1635250D01*
X2051183D02*
X2051731D01*
X2051739Y1635347*
X2051739D02*
X2051191D01*
X2051191D02*
X2051183Y1635250D01*
X2051731*
X2051739Y1635347*
X2051739D02*
X2051191D01*
X2051191D02*
X2051183Y1635250D01*
X2042907Y1635377D02*
X2043409D01*
X2043401Y1635474*
X2042899*
X2042907Y1635377*
X2043409*
X2043401Y1635474*
X2042899*
X2042907Y1635377*
X2045682D02*
X2046487D01*
X2046582Y1635474*
X2045777*
X2045682Y1635377*
X2046487*
X2046582Y1635474*
X2045777*
X2045682Y1635377*
X2047494D02*
X2048300D01*
X2048206Y1635474*
X2047401*
X2047494Y1635377*
X2048300*
X2048206Y1635474*
X2047401*
X2047494Y1635377*
X2051193D02*
X2051741D01*
X2051749Y1635474*
X2051202*
X2051193Y1635377*
X2051741*
X2051749Y1635474*
X2051202*
X2051193Y1635377*
X2042896Y1635503D02*
X2043399D01*
X2043390Y1635601*
X2042888*
X2042896Y1635503*
X2043399*
X2043390Y1635601*
X2042888*
X2042896Y1635503*
X2045805D02*
X2046610D01*
X2046705Y1635601*
X2045900*
X2045805Y1635503*
X2046610*
X2046705Y1635601*
X2045900*
X2045805Y1635503*
X2047373D02*
X2048178D01*
X2048084Y1635601*
X2047279*
X2047373Y1635503*
X2048178*
X2048084Y1635601*
X2047279*
X2047373Y1635503*
X2051204D02*
X2051752D01*
X2051760Y1635601*
X2051212*
X2051204Y1635503*
X2051752*
X2051760Y1635601*
X2051212*
X2051204Y1635503*
X2042885Y1635630D02*
X2043388D01*
X2043380Y1635727*
X2042877*
X2042885Y1635630*
X2043388*
X2043380Y1635727*
X2042877*
X2042885Y1635630*
X2045928D02*
X2046734D01*
X2046829Y1635727*
X2046023*
X2045928Y1635630*
X2046734*
X2046829Y1635727*
X2046023*
X2045928Y1635630*
X2047251D02*
X2048056D01*
X2047962Y1635727*
X2047158*
X2047251Y1635630*
X2048056*
X2047962Y1635727*
X2047158*
X2047251Y1635630*
X2051215D02*
X2051762D01*
X2051770Y1635727*
X2051223*
X2051215Y1635630*
X2051762*
X2051770Y1635727*
X2051223*
X2051215Y1635630*
X2042874Y1635756D02*
X2043378D01*
X2043370Y1635854*
X2042866*
X2042874Y1635756*
X2043378*
X2043370Y1635854*
X2042866*
X2042874Y1635756*
X2046051D02*
X2046857D01*
X2046952Y1635854*
X2046146*
X2046051Y1635756*
X2046857*
X2046952Y1635854*
X2046146*
X2046051Y1635756*
X2047130D02*
X2047934D01*
X2047840Y1635854*
X2047036*
X2047130Y1635756*
X2047934*
X2047840Y1635854*
X2047036*
X2047130Y1635756*
X2051225D02*
X2051772D01*
X2051780Y1635854*
X2051233*
X2051225Y1635756*
X2051772*
X2051780Y1635854*
X2051233*
X2051225Y1635756*
X2042863Y1635883D02*
X2043367D01*
X2043359Y1635980*
X2042855*
X2042863Y1635883*
X2043367*
X2043359Y1635980*
X2042855*
X2042863Y1635883*
X2046174D02*
X2046981D01*
X2046994Y1635897*
X2047008Y1635883*
X2047812*
X2047718Y1635980*
X2046269*
X2046174Y1635883*
X2051236D02*
X2051783D01*
X2051791Y1635980*
X2051244*
X2051236Y1635883*
X2051783*
X2051791Y1635980*
X2051244*
X2051236Y1635883*
X2042852Y1636009D02*
X2043357D01*
X2043349Y1636107*
X2042844*
X2042852Y1636009*
X2043357*
X2043349Y1636107*
X2042844*
X2042852Y1636009*
X2046297D02*
X2047690D01*
X2047597Y1636107*
X2046392*
X2046297Y1636009*
X2047690*
X2047597Y1636107*
X2046392*
X2046297Y1636009*
X2051246D02*
X2051793D01*
X2051801Y1636107*
X2051255*
X2051246Y1636009*
X2051793*
X2051801Y1636107*
X2051255*
X2051246Y1636009*
X2042841Y1636136D02*
X2043346D01*
X2043338Y1636233*
X2042833*
X2042841Y1636136*
X2043346*
X2043338Y1636233*
X2042833*
X2042841Y1636136*
X2046421D02*
X2047569D01*
X2047475Y1636233*
X2046515*
X2046421Y1636136*
X2047569*
X2047475Y1636233*
X2046515*
X2046421Y1636136*
X2051257D02*
X2051803D01*
X2051811Y1636233*
X2051265*
X2051257Y1636136*
X2051803*
X2051811Y1636233*
X2051265*
X2051257Y1636136*
X2042831Y1636262D02*
X2043336D01*
X2043328Y1636360*
X2042822*
X2042831Y1636262*
X2043336*
X2043328Y1636360*
X2042822*
X2042831Y1636262*
X2046544D02*
X2047447D01*
X2047399Y1636312*
X2047446Y1636360*
X2046550*
X2046594Y1636314*
X2046544Y1636262*
X2051268D02*
X2051814D01*
X2051821Y1636360*
X2051276*
X2051268Y1636262*
X2051814*
X2051821Y1636360*
X2051276*
X2051268Y1636262*
X2042820Y1636389D02*
X2043325D01*
X2043317Y1636486*
X2042811*
X2042820Y1636389*
X2043325*
X2043317Y1636486*
X2042811*
X2042820Y1636389*
X2046522D02*
X2047474D01*
X2047569Y1636486*
X2046428*
X2046522Y1636389*
X2047474*
X2047569Y1636486*
X2046428*
X2046522Y1636389*
X2051278D02*
X2051824D01*
X2051832Y1636486*
X2051286*
X2051278Y1636389*
X2051824*
X2051832Y1636486*
X2051286*
X2051278Y1636389*
X2042809Y1636515D02*
X2043315D01*
X2043307Y1636613*
X2042800*
X2042809Y1636515*
X2043315*
X2043307Y1636613*
X2042800*
X2042809Y1636515*
X2046400D02*
X2047597D01*
X2047692Y1636613*
X2046307*
X2046400Y1636515*
X2047597*
X2047692Y1636613*
X2046307*
X2046400Y1636515*
X2051289D02*
X2051834D01*
X2051842Y1636613*
X2051297*
X2051289Y1636515*
X2051834*
X2051842Y1636613*
X2051297*
X2051289Y1636515*
X2042798Y1636642D02*
X2043304D01*
X2043296Y1636739*
X2042789*
X2042798Y1636642*
X2043304*
X2043296Y1636739*
X2042789*
X2042798Y1636642*
X2046279D02*
X2047721D01*
X2047816Y1636739*
X2047008*
X2046998Y1636729*
X2046988Y1636739*
X2046185*
X2046279Y1636642*
X2051299D02*
X2051845D01*
X2051852Y1636739*
X2051308*
X2051299Y1636642*
X2051845*
X2051852Y1636739*
X2051308*
X2051299Y1636642*
X2042787Y1636768D02*
X2043294D01*
X2043286Y1636866*
X2042778*
X2042787Y1636768*
X2043294*
X2043286Y1636866*
X2042778*
X2042787Y1636768*
X2046157D02*
X2046960D01*
X2046866Y1636866*
X2046064*
X2046157Y1636768*
X2046960*
X2046866Y1636866*
X2046064*
X2046157Y1636768*
X2047036D02*
X2047844D01*
X2047939Y1636866*
X2047131*
X2047036Y1636768*
X2047844*
X2047939Y1636866*
X2047131*
X2047036Y1636768*
X2051310D02*
X2051855D01*
X2051863Y1636866*
X2051318*
X2051310Y1636768*
X2051855*
X2051863Y1636866*
X2051318*
X2051310Y1636768*
X2042776Y1636895D02*
X2043283D01*
X2043275Y1636992*
X2042768*
X2042776Y1636895*
X2043283*
X2043275Y1636992*
X2042768*
X2042776Y1636895*
X2046036D02*
X2046838D01*
X2046744Y1636992*
X2045942*
X2046036Y1636895*
X2046838*
X2046744Y1636992*
X2045942*
X2046036Y1636895*
X2047159D02*
X2047967D01*
X2048062Y1636992*
X2047254*
X2047159Y1636895*
X2047967*
X2048062Y1636992*
X2047254*
X2047159Y1636895*
X2051321D02*
X2051865D01*
X2051873Y1636992*
X2051329*
X2051321Y1636895*
X2051865*
X2051873Y1636992*
X2051329*
X2051321Y1636895*
X2042765Y1637021D02*
X2043273D01*
X2043265Y1637119*
X2042757*
X2042765Y1637021*
X2043273*
X2043265Y1637119*
X2042757*
X2042765Y1637021*
X2045914D02*
X2046716D01*
X2046622Y1637119*
X2045821*
X2045914Y1637021*
X2046716*
X2046622Y1637119*
X2045821*
X2045914Y1637021*
X2047282D02*
X2048091D01*
X2048186Y1637119*
X2047377*
X2047282Y1637021*
X2048091*
X2048186Y1637119*
X2047377*
X2047282Y1637021*
X2051331D02*
X2051875D01*
X2051883Y1637119*
X2051339*
X2051331Y1637021*
X2051875*
X2051883Y1637119*
X2051339*
X2051331Y1637021*
X2042754Y1637148D02*
X2043262D01*
X2043254Y1637245*
X2042746*
X2042754Y1637148*
X2043262*
X2043254Y1637245*
X2042746*
X2042754Y1637148*
X2045793D02*
X2046594D01*
X2046500Y1637245*
X2045699*
X2045793Y1637148*
X2046594*
X2046500Y1637245*
X2045699*
X2045793Y1637148*
X2047405D02*
X2048214D01*
X2048309Y1637245*
X2047500*
X2047405Y1637148*
X2048214*
X2048309Y1637245*
X2047500*
X2047405Y1637148*
X2051342D02*
X2051886D01*
X2051894Y1637245*
X2051350*
X2051342Y1637148*
X2051886*
X2051894Y1637245*
X2051350*
X2051342Y1637148*
X2042743Y1637275D02*
X2043252D01*
X2043244Y1637372*
X2042735*
X2042743Y1637275*
X2043252*
X2043244Y1637372*
X2042735*
X2042743Y1637275*
X2045671D02*
X2046472D01*
X2046378Y1637372*
X2045577*
X2045671Y1637275*
X2046472*
X2046378Y1637372*
X2045577*
X2045671Y1637275*
X2047528D02*
X2048337D01*
X2048432Y1637372*
X2047623*
X2047528Y1637275*
X2048337*
X2048432Y1637372*
X2047623*
X2047528Y1637275*
X2051352D02*
X2051896D01*
X2051904Y1637372*
X2051361*
X2051352Y1637275*
X2051896*
X2051904Y1637372*
X2051361*
X2051352Y1637275*
X2042732Y1637401D02*
X2043241D01*
X2043233Y1637498*
X2042724*
X2042732Y1637401*
X2043241*
X2043233Y1637498*
X2042724*
X2042732Y1637401*
X2045550D02*
X2046350D01*
X2046257Y1637498*
X2045456*
X2045550Y1637401*
X2046350*
X2046257Y1637498*
X2045456*
X2045550Y1637401*
X2047651D02*
X2048461D01*
X2048556Y1637498*
X2047746*
X2047651Y1637401*
X2048461*
X2048556Y1637498*
X2047746*
X2047651Y1637401*
X2051363D02*
X2051906D01*
X2051914Y1637498*
X2051371*
X2051363Y1637401*
X2051906*
X2051914Y1637498*
X2051371*
X2051363Y1637401*
X2042721Y1637528D02*
X2043231D01*
X2043223Y1637625*
X2042713*
X2042721Y1637528*
X2043231*
X2043223Y1637625*
X2042713*
X2042721Y1637528*
X2045428D02*
X2046229D01*
X2046135Y1637625*
X2045334*
X2045428Y1637528*
X2046229*
X2046135Y1637625*
X2045334*
X2045428Y1637528*
X2047774D02*
X2048584D01*
X2048679Y1637625*
X2047869*
X2047774Y1637528*
X2048584*
X2048679Y1637625*
X2047869*
X2047774Y1637528*
X2051374D02*
X2051917D01*
X2051925Y1637625*
X2051382*
X2051374Y1637528*
X2051917*
X2051925Y1637625*
X2051382*
X2051374Y1637528*
X2042710Y1637654D02*
X2043220D01*
X2043212Y1637752*
X2042702*
X2042710Y1637654*
X2043220*
X2043212Y1637752*
X2042702*
X2042710Y1637654*
X2045306D02*
X2046107D01*
X2046013Y1637752*
X2045213*
X2045306Y1637654*
X2046107*
X2046013Y1637752*
X2045213*
X2045306Y1637654*
X2047898D02*
X2048707D01*
X2048802Y1637752*
X2047992*
X2047898Y1637654*
X2048707*
X2048802Y1637752*
X2047992*
X2047898Y1637654*
X2051384D02*
X2051927D01*
X2051935Y1637752*
X2051392*
X2051384Y1637654*
X2051927*
X2051935Y1637752*
X2051392*
X2051384Y1637654*
X2042700Y1637781D02*
X2043210D01*
X2043202Y1637878*
X2042691*
X2042700Y1637781*
X2043210*
X2043202Y1637878*
X2042691*
X2042700Y1637781*
X2045185D02*
X2045985D01*
X2045891Y1637878*
X2045091*
X2045185Y1637781*
X2045985*
X2045891Y1637878*
X2045091*
X2045185Y1637781*
X2048021D02*
X2048831D01*
X2048926Y1637878*
X2048115*
X2048021Y1637781*
X2048831*
X2048926Y1637878*
X2048115*
X2048021Y1637781*
X2051395D02*
X2051937D01*
X2051945Y1637878*
X2051403*
X2051395Y1637781*
X2051937*
X2051945Y1637878*
X2051403*
X2051395Y1637781*
X2042689Y1637907D02*
X2043200D01*
X2043191Y1638005*
X2042680*
X2042689Y1637907*
X2043200*
X2043191Y1638005*
X2042680*
X2042689Y1637907*
X2045063D02*
X2045863D01*
X2045769Y1638005*
X2044970*
X2045063Y1637907*
X2045863*
X2045769Y1638005*
X2044970*
X2045063Y1637907*
X2048144D02*
X2048954D01*
X2049049Y1638005*
X2048239*
X2048239D02*
X2048144Y1637907D01*
X2048954*
X2049049Y1638005*
X2048239*
X2048239D02*
X2048144Y1637907D01*
X2051405D02*
X2051948D01*
X2051956Y1638005*
X2051414*
X2051405Y1637907*
X2051948*
X2051956Y1638005*
X2051414*
X2051405Y1637907*
X2042678Y1638034D02*
X2043189D01*
X2043181Y1638131*
X2042669*
X2042678Y1638034*
X2043189*
X2043181Y1638131*
X2042669*
X2042678Y1638034*
X2044942D02*
X2045741D01*
X2045648Y1638131*
X2044848*
X2044942Y1638034*
X2045741*
X2045648Y1638131*
X2044848*
X2044942Y1638034*
X2048267D02*
X2049078D01*
X2049173Y1638131*
X2048362*
X2048267Y1638034*
X2049078*
X2049173Y1638131*
X2048362*
X2048267Y1638034*
X2051416D02*
X2051958D01*
X2051966Y1638131*
X2051424*
X2051416Y1638034*
X2051958*
X2051966Y1638131*
X2051424*
X2051416Y1638034*
X2042667Y1638160D02*
X2043179D01*
X2043171Y1638258*
X2042658*
X2042667Y1638160*
X2043179*
X2043171Y1638258*
X2042658*
X2042667Y1638160*
X2044820D02*
X2045620D01*
X2045526Y1638258*
X2044727*
X2044820Y1638160*
X2045620*
X2045526Y1638258*
X2044727*
X2044820Y1638160*
X2048390D02*
X2049201D01*
X2049296Y1638258*
X2048485*
X2048390Y1638160*
X2049201*
X2049296Y1638258*
X2048485*
X2048390Y1638160*
X2051427D02*
X2051968D01*
X2051976Y1638258*
X2051435*
X2051427Y1638160*
X2051968*
X2051976Y1638258*
X2051435*
X2051427Y1638160*
X2042656Y1638287D02*
X2043168D01*
X2043160Y1638384*
X2042647*
X2042656Y1638287*
X2043168*
X2043160Y1638384*
X2042647*
X2042656Y1638287*
X2044699D02*
X2045498D01*
X2045404Y1638384*
X2044605*
X2044699Y1638287*
X2045498*
X2045404Y1638384*
X2044605*
X2044699Y1638287*
X2048513D02*
X2049324D01*
X2049419Y1638384*
X2048608*
X2048513Y1638287*
X2049324*
X2049419Y1638384*
X2048608*
X2048513Y1638287*
X2051437D02*
X2051979D01*
X2051987Y1638384*
X2051445*
X2051437Y1638287*
X2051979*
X2051987Y1638384*
X2051445*
X2051437Y1638287*
X2042645Y1638413D02*
X2043158D01*
X2043150Y1638511*
X2042637*
X2042645Y1638413*
X2043158*
X2043150Y1638511*
X2042637*
X2042645Y1638413*
X2044577D02*
X2045376D01*
X2045282Y1638511*
X2044484*
X2044577Y1638413*
X2045376*
X2045282Y1638511*
X2044484*
X2044577Y1638413*
X2048636D02*
X2049448D01*
X2049543Y1638511*
X2048731*
X2048636Y1638413*
X2049448*
X2049543Y1638511*
X2048731*
X2048636Y1638413*
X2051448D02*
X2051989D01*
X2051997Y1638511*
X2051456*
X2051448Y1638413*
X2051989*
X2051997Y1638511*
X2051456*
X2051448Y1638413*
X2042634Y1638540D02*
X2043147D01*
X2043139Y1638637*
X2042626*
X2042634Y1638540*
X2043147*
X2043139Y1638637*
X2042626*
X2042634Y1638540*
X2044456D02*
X2045254D01*
X2045160Y1638637*
X2044362*
X2044456Y1638540*
X2045254*
X2045160Y1638637*
X2044362*
X2044456Y1638540*
X2048759D02*
X2049571D01*
X2049666Y1638637*
X2048854*
X2048759Y1638540*
X2049571*
X2049666Y1638637*
X2048854*
X2048759Y1638540*
X2051458D02*
X2051999D01*
X2052007Y1638637*
X2051467*
X2051458Y1638540*
X2051999*
X2052007Y1638637*
X2051467*
X2051458Y1638540*
X2042623Y1638666D02*
X2043137D01*
X2043129Y1638764*
X2042615*
X2042623Y1638666*
X2043137*
X2043129Y1638764*
X2042615*
X2042623Y1638666*
X2044334D02*
X2045132D01*
X2045038Y1638764*
X2044240*
X2044334Y1638666*
X2045132*
X2045038Y1638764*
X2044240*
X2044334Y1638666*
X2046094D02*
X2050033D01*
Y1638764*
X2046094*
Y1638666*
X2050033*
Y1638764*
X2046094*
Y1638666*
X2051469D02*
X2052010D01*
X2052018Y1638764*
X2051477*
X2051469Y1638666*
X2052010*
X2052018Y1638764*
X2051477*
X2051469Y1638666*
X2042612Y1638793D02*
X2043126D01*
X2043118Y1638890*
X2042604*
X2042612Y1638793*
X2043126*
X2043118Y1638890*
X2042604*
X2042612Y1638793*
X2044212D02*
X2045010D01*
X2044917Y1638890*
X2044119*
X2044212Y1638793*
X2045010*
X2044917Y1638890*
X2044119*
X2044212Y1638793*
X2046094D02*
X2050033D01*
Y1638890*
X2046094*
Y1638793*
X2050033*
Y1638890*
X2046094*
Y1638793*
X2051480D02*
X2052020D01*
X2052028Y1638890*
X2051488*
X2051480Y1638793*
X2052020*
X2052028Y1638890*
X2051488*
X2051480Y1638793*
X2042601Y1638919D02*
X2043116D01*
X2043108Y1639017*
X2042593*
X2042601Y1638919*
X2043116*
X2043108Y1639017*
X2042593*
X2042601Y1638919*
X2044091D02*
X2044889D01*
X2044795Y1639017*
X2043997*
X2044091Y1638919*
X2044889*
X2044795Y1639017*
X2043997*
X2044091Y1638919*
X2046094D02*
X2050033D01*
Y1639014*
X2050036Y1639017*
X2046094*
Y1638919*
X2051490D02*
X2052030D01*
X2052038Y1639017*
X2051498*
X2051490Y1638919*
X2052030*
X2052038Y1639017*
X2051498*
X2051490Y1638919*
X2042590Y1639046D02*
X2043105D01*
X2043097Y1639143*
X2042582*
X2042590Y1639046*
X2043105*
X2043097Y1639143*
X2042582*
X2042590Y1639046*
X2043969D02*
X2044767D01*
X2044673Y1639143*
X2043876*
X2043969Y1639046*
X2044767*
X2044673Y1639143*
X2043876*
X2043969Y1639046*
X2046094D02*
X2050064D01*
X2050159Y1639143*
X2046094*
Y1639046*
X2050064*
X2050159Y1639143*
X2046094*
Y1639046*
X2051501D02*
X2052041D01*
X2052049Y1639143*
X2051509*
X2051501Y1639046*
X2052041*
X2052049Y1639143*
X2051509*
X2051501Y1639046*
X2042579Y1639172D02*
X2043095D01*
X2043087Y1639270*
X2042571*
X2042579Y1639172*
X2043095*
X2043087Y1639270*
X2042571*
X2042579Y1639172*
X2043848D02*
X2044645D01*
X2044551Y1639270*
X2043754*
X2043848Y1639172*
X2044645*
X2044551Y1639270*
X2043754*
X2043848Y1639172*
X2046094D02*
X2050188D01*
X2050283Y1639270*
X2049473*
X2049403Y1639183*
X2046642*
Y1639270*
X2046094*
Y1639172*
X2051511D02*
X2052051D01*
X2052059Y1639270*
X2051520*
X2051511Y1639172*
X2052051*
X2052059Y1639270*
X2051520*
X2051511Y1639172*
X2042569Y1639299D02*
X2043084D01*
X2043076Y1639396*
X2042560*
X2042569Y1639299*
X2043084*
X2043076Y1639396*
X2042560*
X2042569Y1639299*
X2043726D02*
X2044523D01*
X2044429Y1639396*
X2043633*
X2043726Y1639299*
X2044523*
X2044429Y1639396*
X2043633*
X2043726Y1639299*
X2046094D02*
X2050311D01*
X2050406Y1639396*
X2046094*
Y1639299*
X2050311*
X2050406Y1639396*
X2046094*
Y1639299*
X2051522D02*
X2052061D01*
X2052069Y1639396*
X2051530*
X2051522Y1639299*
X2052061*
X2052069Y1639396*
X2051530*
X2051522Y1639299*
X2042558Y1639425D02*
X2043074D01*
X2043074D02*
X2043066Y1639523D01*
X2042549*
X2042558Y1639425*
X2042558D02*
X2043074D01*
X2043074D02*
X2043066Y1639523D01*
X2042549*
X2042558Y1639425*
X2043605D02*
X2044401D01*
X2044401D02*
X2044308Y1639523D01*
X2043511*
X2043605Y1639425*
X2043605D02*
X2044401D01*
X2044401D02*
X2044308Y1639523D01*
X2043511*
X2043605Y1639425*
X2046094D02*
X2050434D01*
X2050434D02*
X2050529Y1639523D01*
X2046094*
Y1639425*
X2046094D02*
X2050434D01*
X2050434D02*
X2050529Y1639523D01*
X2046094*
Y1639425*
X2051533D02*
X2052072D01*
X2052072D02*
X2052080Y1639523D01*
X2051541*
X2051533Y1639425*
X2051533D02*
X2052072D01*
X2052072D02*
X2052080Y1639523D01*
X2051541*
X2051533Y1639425*
X2042547Y1639552D02*
X2043063D01*
X2043055Y1639649*
X2042538*
X2042547Y1639552*
X2043063*
X2043055Y1639649*
X2042538*
X2042547Y1639552*
X2043483D02*
X2044280D01*
X2044186Y1639649*
X2043390*
X2043483Y1639552*
X2044280*
X2044186Y1639649*
X2043390*
X2043483Y1639552*
X2046094D02*
X2050558D01*
X2050653Y1639649*
X2046094*
Y1639552*
X2050558*
X2050653Y1639649*
X2046094*
Y1639552*
X2051543D02*
X2052082D01*
X2052090Y1639649*
X2051551*
X2051543Y1639552*
X2052082*
X2052090Y1639649*
X2051551*
X2051543Y1639552*
X2042536Y1639679D02*
X2043053D01*
X2043045Y1639776*
X2042527*
X2042536Y1639679*
X2043053*
X2043045Y1639776*
X2042527*
X2042536Y1639679*
X2043362D02*
X2044158D01*
X2044064Y1639776*
X2043268*
X2043362Y1639679*
X2044158*
X2044064Y1639776*
X2043268*
X2043362Y1639679*
X2046094D02*
X2050681D01*
X2050776Y1639776*
X2046094*
Y1639679*
X2050681*
X2050776Y1639776*
X2046094*
Y1639679*
X2051554D02*
X2052092D01*
X2052100Y1639776*
X2051562*
X2051554Y1639679*
X2052092*
X2052100Y1639776*
X2051562*
X2051554Y1639679*
X2042525Y1639805D02*
X2043042D01*
X2043034Y1639902*
X2042517*
X2042525Y1639805*
X2043042*
X2043034Y1639902*
X2042517*
X2042525Y1639805*
X2043240D02*
X2044036D01*
X2043942Y1639902*
X2043146*
X2043240Y1639805*
X2044036*
X2043942Y1639902*
X2043146*
X2043240Y1639805*
X2046094D02*
X2050804D01*
X2050804D02*
X2050899Y1639902D01*
X2050085*
X2050033Y1639849*
Y1639855*
X2046094*
Y1639805*
X2051564D02*
X2052103D01*
X2052111Y1639902*
X2051573*
X2051564Y1639805*
X2052103*
X2052111Y1639902*
X2051573*
X2051564Y1639805*
X2042514Y1639932D02*
X2043032D01*
X2043024Y1640029*
X2042506*
X2042514Y1639932*
X2043032*
X2043024Y1640029*
X2042506*
X2042514Y1639932*
X2043119D02*
X2043914D01*
X2043820Y1640029*
X2043025*
X2043119Y1639932*
X2043914*
X2043820Y1640029*
X2043025*
X2043119Y1639932*
X2050113D02*
X2050928D01*
X2051023Y1640029*
X2050208*
X2050113Y1639932*
X2050928*
X2051023Y1640029*
X2050208*
X2050113Y1639932*
X2051575D02*
X2052113D01*
X2052121Y1640029*
X2051583*
X2051575Y1639932*
X2052113*
X2052121Y1640029*
X2051583*
X2051575Y1639932*
X2042503Y1640058D02*
X2043792D01*
X2043698Y1640156*
X2042495*
X2042503Y1640058*
X2043792*
X2043698Y1640156*
X2042495*
X2042503Y1640058*
X2050236D02*
X2051051D01*
X2051146Y1640156*
X2050331*
X2050236Y1640058*
X2051051*
X2051146Y1640156*
X2050331*
X2050236Y1640058*
X2051586D02*
X2052123D01*
X2052131Y1640156*
X2051594*
X2051586Y1640058*
X2052123*
X2052131Y1640156*
X2051594*
X2051586Y1640058*
X2042492Y1640185D02*
X2043670D01*
X2043577Y1640282*
X2042484*
X2042492Y1640185*
X2043670*
X2043577Y1640282*
X2042484*
X2042492Y1640185*
X2050359D02*
X2051175D01*
X2051270Y1640282*
X2050454*
X2050359Y1640185*
X2051175*
X2051270Y1640282*
X2050454*
X2050359Y1640185*
X2051481D02*
X2053607D01*
Y1640282*
X2051481*
Y1640185*
X2053607*
Y1640282*
X2051481*
Y1640185*
X2042481Y1640311D02*
X2043549D01*
X2043455Y1640409*
X2042473*
X2042481Y1640311*
X2043549*
X2043455Y1640409*
X2042473*
X2042481Y1640311*
X2050482D02*
X2051298D01*
X2051393Y1640409*
X2050577*
X2050482Y1640311*
X2051298*
X2051393Y1640409*
X2050577*
X2050482Y1640311*
X2051481D02*
X2053607D01*
Y1640409*
X2051481*
Y1640311*
X2053607*
Y1640409*
X2051481*
Y1640311*
X2042470Y1640438D02*
X2043427D01*
X2043333Y1640535*
X2042462*
X2042470Y1640438*
X2043427*
X2043333Y1640535*
X2042462*
X2042470Y1640438*
X2050605D02*
X2051421D01*
X2051481Y1640499*
Y1640438*
X2053607*
Y1640535*
X2050700*
X2050605Y1640438*
X2042459Y1640564D02*
X2043305D01*
X2043211Y1640662*
X2042417*
X2042454Y1640623*
X2042459Y1640564*
X2050729D02*
X2053607D01*
Y1640662*
X2050823*
X2050729Y1640564*
X2053607*
Y1640662*
X2050823*
X2050729Y1640564*
X2042389Y1640691D02*
X2043183D01*
X2043089Y1640788*
X2042296*
X2042389Y1640691*
X2043183*
X2043089Y1640788*
X2042296*
X2042389Y1640691*
X2050852D02*
X2053607D01*
Y1640788*
X2053069*
Y1640728*
X2052178*
X2052183Y1640788*
X2050946*
X2050852Y1640691*
X2042268Y1640817D02*
X2043061D01*
X2042968Y1640915*
X2042174*
X2042268Y1640817*
X2043061*
X2042968Y1640915*
X2042174*
X2042268Y1640817*
X2050975D02*
X2052185D01*
X2052191Y1640891*
X2052194Y1640915*
X2051069*
X2050975Y1640817*
X2053069D02*
X2053607D01*
Y1640915*
X2053069*
Y1640817*
X2053607*
Y1640915*
X2053069*
Y1640817*
X2042146Y1640944D02*
X2042948D01*
X2042940Y1641041*
X2042053*
X2042146Y1640944*
X2042948*
X2042940Y1641041*
X2042053*
X2042146Y1640944*
X2051098D02*
X2052197D01*
X2052207Y1641041*
X2051193*
X2051098Y1640944*
X2052197*
X2052207Y1641041*
X2051193*
X2051098Y1640944*
X2053069D02*
X2053607D01*
Y1641041*
X2053069*
Y1640944*
X2053607*
Y1641041*
X2053069*
Y1640944*
X2042025Y1641070D02*
X2042938D01*
X2042930Y1641168*
X2041931*
X2042025Y1641070*
X2042938*
X2042930Y1641168*
X2041931*
X2042025Y1641070*
X2051221D02*
X2052209D01*
X2052209D02*
X2052219Y1641168D01*
X2051316*
X2051221Y1641070*
X2052209*
X2052209D02*
X2052219Y1641168D01*
X2051316*
X2051221Y1641070*
X2053069D02*
X2053607D01*
Y1641168*
X2053069*
Y1641070*
X2053607*
Y1641168*
X2053069*
Y1641070*
X2041903Y1641197D02*
X2042927D01*
X2042919Y1641294*
X2041809*
X2041903Y1641197*
X2042927*
X2042919Y1641294*
X2041809*
X2041903Y1641197*
X2051344D02*
X2052222D01*
X2052228Y1641251*
X2052269Y1641294*
X2051439*
X2051344Y1641197*
X2053069D02*
X2053607D01*
Y1641294*
X2053069*
Y1641197*
X2053607*
Y1641294*
X2053069*
Y1641197*
X2041781Y1641323D02*
X2042917D01*
X2042909Y1641421*
X2041688*
X2041781Y1641323*
X2042917*
X2042909Y1641421*
X2041688*
X2041781Y1641323*
X2051467D02*
X2052297D01*
X2052389Y1641421*
X2051481*
Y1641337*
X2051467Y1641323*
X2053069D02*
X2053607D01*
Y1641421*
X2053069*
Y1641323*
X2053607*
Y1641421*
X2053069*
Y1641323*
X2041660Y1641450D02*
X2042906D01*
X2042898Y1641547*
X2042375*
X2042376Y1641529*
X2042358Y1641547*
X2041566*
X2041660Y1641450*
X2051481D02*
X2052417D01*
X2052510Y1641547*
X2051481*
Y1641450*
X2052417*
X2052510Y1641547*
X2051481*
Y1641450*
X2053069D02*
X2053607D01*
Y1641547*
X2053069*
Y1641450*
X2053607*
Y1641547*
X2053069*
Y1641450*
X2041538Y1641576D02*
X2042330D01*
X2042237Y1641674*
X2041445*
X2041538Y1641576*
X2042330*
X2042237Y1641674*
X2041445*
X2041538Y1641576*
X2042372D02*
X2042896D01*
X2042888Y1641674*
X2042364*
X2042372Y1641576*
X2042896*
X2042888Y1641674*
X2042364*
X2042372Y1641576*
X2051481D02*
X2052537D01*
X2052630Y1641674*
X2051481*
Y1641576*
X2052537*
X2052630Y1641674*
X2051481*
Y1641576*
X2053069D02*
X2053607D01*
Y1641674*
X2053069*
Y1641576*
X2053607*
Y1641674*
X2053069*
Y1641576*
X2041417Y1641703D02*
X2042209D01*
X2042115Y1641800*
X2041323*
X2041417Y1641703*
X2042209*
X2042115Y1641800*
X2041323*
X2041417Y1641703*
X2042361D02*
X2042885D01*
X2042877Y1641800*
X2042353*
X2042361Y1641703*
X2042885*
X2042877Y1641800*
X2042353*
X2042361Y1641703*
X2051481D02*
X2052658D01*
X2052725Y1641774*
X2053069*
Y1641703*
X2053607*
Y1641800*
X2051481*
Y1641703*
X2041396Y1641724D02*
X2042188D01*
X2042094Y1641822*
X2041303*
X2041396Y1641724*
X2042188*
X2042094Y1641822*
X2041303*
X2041396Y1641724*
X2042359D02*
X2042884D01*
X2042876Y1641822*
X2042351*
X2042359Y1641724*
X2042884*
X2042876Y1641822*
X2042351*
X2042359Y1641724*
X2051481D02*
X2052678D01*
X2052725Y1641774*
X2053069*
Y1641724*
X2053607*
Y1641822*
X2051481*
Y1641724*
X2041376Y1641745D02*
X2042168D01*
X2042074Y1641843*
X2041283*
X2041376Y1641745*
X2042168*
X2042074Y1641843*
X2041283*
X2041376Y1641745*
X2042358D02*
X2042882D01*
X2042874Y1641843*
X2042349*
X2042358Y1641745*
X2042358D02*
X2042882D01*
X2042874Y1641843*
X2042349*
X2042358Y1641745*
X2051481D02*
X2052698D01*
X2052725Y1641774*
X2053069*
Y1641745*
X2053607*
Y1641843*
X2051481*
Y1641745*
X2041262Y1641864D02*
X2042054D01*
X2041960Y1641961*
X2041169*
X2041262Y1641864*
X2042054*
X2041960Y1641961*
X2041169*
X2041262Y1641864*
X2042347D02*
X2042872D01*
X2042864Y1641961*
X2042339*
X2042347Y1641864*
X2042872*
X2042864Y1641961*
X2042339*
X2042347Y1641864*
X2051481D02*
X2053607D01*
Y1641961*
X2051481*
Y1641864*
X2053607*
Y1641961*
X2051481*
Y1641864*
X2041133Y1641998D02*
X2041924D01*
X2041830Y1642096*
X2041039*
X2041133Y1641998*
X2041924*
X2041830Y1642096*
X2041039*
X2041133Y1641998*
X2042336D02*
X2042861D01*
X2042853Y1642096*
X2042327*
X2042336Y1641998*
X2042861*
X2042853Y1642096*
X2042327*
X2042336Y1641998*
X2051481D02*
X2053607D01*
Y1642096*
X2051481*
Y1641998*
X2053607*
Y1642096*
X2051481*
Y1641998*
X2041004Y1642133D02*
X2041795D01*
X2041701Y1642230*
X2040910*
X2041004Y1642133*
X2041795*
X2041701Y1642230*
X2040910*
X2041004Y1642133*
X2042324D02*
X2042850D01*
X2042842Y1642230*
X2042316*
X2042324Y1642133*
X2042850*
X2042842Y1642230*
X2042316*
X2042324Y1642133*
X2051481D02*
X2053607D01*
Y1642230*
X2051481*
Y1642133*
X2053607*
Y1642230*
X2051481*
Y1642133*
X2040875Y1642267D02*
X2041665D01*
X2041572Y1642365*
X2040781*
X2040875Y1642267*
X2041665*
X2041572Y1642365*
X2040781*
X2040875Y1642267*
X2042312D02*
X2042839D01*
X2042831Y1642365*
X2042304*
X2042312Y1642267*
X2042839*
X2042831Y1642365*
X2042304*
X2042312Y1642267*
X2051481D02*
X2053607D01*
Y1642337*
X2053273*
X2053300Y1642365*
X2052480*
X2052453Y1642337*
X2052309*
X2052312Y1642365*
X2051779*
X2051777Y1642337*
X2051481*
Y1642267*
X2040746Y1642401D02*
X2041536D01*
X2041442Y1642499*
X2040652*
X2040746Y1642401*
X2041536*
X2041442Y1642499*
X2040652*
X2040746Y1642401*
X2042301D02*
X2042828D01*
X2042819Y1642499*
X2042292*
X2042301Y1642401*
X2042828*
X2042819Y1642499*
X2042292*
X2042301Y1642401*
X2051782D02*
X2052315D01*
X2052322Y1642499*
X2051790*
X2051782Y1642401*
X2052315*
X2052322Y1642499*
X2051790*
X2051782Y1642401*
X2052516D02*
X2053336D01*
X2053431Y1642499*
X2052611*
X2052516Y1642401*
X2053336*
X2053431Y1642499*
X2052611*
X2052516Y1642401*
X2040617Y1642536D02*
X2041407D01*
X2041313Y1642633*
X2040523*
X2040617Y1642536*
X2041407*
X2041313Y1642633*
X2040523*
X2040617Y1642536*
X2042289D02*
X2042816D01*
X2042808Y1642633*
X2042281*
X2042289Y1642536*
X2042816*
X2042808Y1642633*
X2042281*
X2042289Y1642536*
X2051793D02*
X2052325D01*
X2052333Y1642633*
X2051801*
X2051793Y1642536*
X2052325*
X2052333Y1642633*
X2051801*
X2051793Y1642536*
X2052647D02*
X2053467D01*
X2053562Y1642633*
X2052741*
X2052647Y1642536*
X2052647D02*
X2053467D01*
X2053562Y1642633*
X2052741*
X2052647Y1642536*
X2040488Y1642670D02*
X2041277D01*
X2041184Y1642768*
X2040394*
X2040488Y1642670*
X2041277*
X2041184Y1642768*
X2040394*
X2040488Y1642670*
X2042278D02*
X2042805D01*
X2042797Y1642768*
X2042269*
X2042278Y1642670*
X2042805*
X2042797Y1642768*
X2042269*
X2042278Y1642670*
X2051804D02*
X2052336D01*
X2052344Y1642768*
X2051813*
X2051804Y1642670*
X2052336*
X2052344Y1642768*
X2051813*
X2051804Y1642670*
X2052777D02*
X2053598D01*
X2053693Y1642768*
X2052872*
X2052777Y1642670*
X2053598*
X2053693Y1642768*
X2052872*
X2052777Y1642670*
X2040359Y1642805D02*
X2041148D01*
X2041054Y1642902*
X2040265*
X2040359Y1642805*
X2041148*
X2041054Y1642902*
X2040265*
X2040359Y1642805*
X2042266D02*
X2042794D01*
X2042793Y1642820*
X2051817*
X2051816Y1642805*
X2052347*
X2052349Y1642820*
X2052922*
X2052908Y1642805*
X2053729*
X2053824Y1642902*
X2041332*
Y1642820*
X2042265*
X2042266Y1642805*
X2040229Y1642939D02*
X2041019D01*
X2040925Y1643036*
X2040136*
X2040229Y1642939*
X2041019*
X2040925Y1643036*
X2040136*
X2040229Y1642939*
X2041332D02*
X2053860D01*
X2053955Y1643036*
X2053133*
X2053058Y1642958*
X2053058D02*
Y1643036D01*
X2041332*
Y1642939*
X2040100Y1643073D02*
X2040889D01*
X2040795Y1643171*
X2040007*
X2040100Y1643073*
X2040889*
X2040795Y1643171*
X2040007*
X2040100Y1643073*
X2041332D02*
X2053058D01*
Y1643171*
X2041332*
Y1643073*
X2053058*
Y1643171*
X2041332*
Y1643073*
X2053169D02*
X2053991D01*
X2054086Y1643171*
X2053264*
X2053169Y1643073*
X2053991*
X2054086Y1643171*
X2053264*
X2053169Y1643073*
X2039971Y1643208D02*
X2040760D01*
X2040666Y1643305*
X2039878*
X2039971Y1643208*
X2040760*
X2040666Y1643305*
X2039878*
X2039971Y1643208*
X2041332D02*
X2053058D01*
Y1643239*
X2053096Y1643259*
X2053132Y1643281*
X2053168Y1643305*
X2041332*
Y1643208*
X2053300D02*
X2054122D01*
X2054217Y1643305*
X2053395*
X2053300Y1643208*
X2054122*
X2054217Y1643305*
X2053395*
X2053300Y1643208*
X2039842Y1643342D02*
X2040631D01*
X2040537Y1643440*
X2039749*
X2039842Y1643342*
X2040631*
X2040537Y1643440*
X2039749*
X2039842Y1643342*
X2041332D02*
X2053216D01*
X2053250Y1643373*
X2053283Y1643405*
X2053314Y1643440*
X2041332*
Y1643342*
X2053431D02*
X2054253D01*
X2054348Y1643440*
X2053526*
X2053431Y1643342*
X2054253*
X2054348Y1643440*
X2053526*
X2053431Y1643342*
X2039713Y1643476D02*
X2040501D01*
X2040407Y1643574*
X2039620*
X2039713Y1643476*
X2040501*
X2040407Y1643574*
X2039620*
X2039713Y1643476*
X2041332D02*
X2053344D01*
X2053366Y1643508*
X2053387Y1643540*
X2053407Y1643574*
X2041332*
Y1643476*
X2053562D02*
X2054384D01*
X2054479Y1643574*
X2053656*
X2053562Y1643476*
X2054384*
X2054479Y1643574*
X2053656*
X2053562Y1643476*
X2039584Y1643611D02*
X2040372D01*
X2040278Y1643708*
X2039490*
X2039584Y1643611*
X2040372*
X2040278Y1643708*
X2039490*
X2039584Y1643611*
X2041332D02*
X2053426D01*
X2053440Y1643643*
X2053453Y1643675*
X2053465Y1643708*
X2041332*
Y1643611*
X2053692D02*
X2054515D01*
X2054610Y1643708*
X2053787*
X2053692Y1643611*
X2054515*
X2054610Y1643708*
X2053787*
X2053692Y1643611*
X2039455Y1643745D02*
X2040242D01*
X2040149Y1643843*
X2039361*
X2039455Y1643745*
X2040242*
X2040149Y1643843*
X2039361*
X2039455Y1643745*
X2041332D02*
X2053476D01*
X2053484Y1643777*
X2053491Y1643810*
X2053496Y1643843*
X2051910*
X2051914Y1643818*
X2051919Y1643793*
X2051919D02*
X2051924Y1643769D01*
X2051923Y1643764*
X2051921Y1643759*
X2051920Y1643753*
X2044628*
Y1643843*
X2043425*
Y1643753*
X2042621*
X2042614Y1643776*
X2042610Y1643799*
X2042609Y1643823*
Y1643829*
Y1643836*
X2042610Y1643843*
X2042020*
X2042022Y1643812*
X2042027Y1643783*
X2042035Y1643753*
X2041332*
Y1643745*
X2053823D02*
X2054646D01*
X2054741Y1643843*
X2053918*
X2053823Y1643745*
X2054646*
X2054741Y1643843*
X2053918*
X2053823Y1643745*
X2039326Y1643880D02*
X2040113D01*
X2040019Y1643977*
X2039232*
X2039326Y1643880*
X2040113*
X2040019Y1643977*
X2039232*
X2039326Y1643880*
X2042021D02*
X2042616D01*
X2042627Y1643912*
X2042642Y1643944*
X2042662Y1643977*
X2042041*
X2042031Y1643944*
X2042025Y1643912*
X2042021Y1643880*
X2043425D02*
X2044628D01*
Y1643977*
X2043425*
Y1643880*
X2044628*
Y1643977*
X2043425*
Y1643880*
X2051905D02*
X2053501D01*
X2053503Y1643906*
X2053504Y1643932*
X2053505Y1643958*
Y1643965*
Y1643971*
Y1643977*
X2051880*
X2051888Y1643964*
X2051895Y1643952*
X2051902Y1643939*
Y1643919*
X2051904Y1643899*
X2051905Y1643880*
X2053954D02*
X2054777D01*
X2054872Y1643977*
X2054048*
X2053954Y1643880*
X2054777*
X2054872Y1643977*
X2054048*
X2053954Y1643880*
X2039197Y1644014D02*
X2039984D01*
X2039890Y1644111*
X2039103*
X2039197Y1644014*
X2039984*
X2039890Y1644111*
X2039103*
X2039197Y1644014*
X2042055D02*
X2042689D01*
X2042717Y1644046*
X2042750Y1644079*
X2042786Y1644111*
X2042108*
X2042088Y1644079*
X2042070Y1644046*
X2042055Y1644014*
X2043425D02*
X2044628D01*
Y1644111*
X2043425*
Y1644014*
X2044628*
Y1644111*
X2043425*
Y1644014*
X2051854D02*
X2053503D01*
X2053500Y1644047*
X2053496Y1644079*
X2053490Y1644111*
X2051761*
X2051796Y1644079*
X2051827Y1644046*
X2051854Y1644014*
X2054084D02*
X2054908D01*
X2055003Y1644111*
X2054179*
X2054084Y1644014*
X2054908*
X2055003Y1644111*
X2054179*
X2054084Y1644014*
X2039068Y1644148D02*
X2039854D01*
X2039761Y1644246*
X2038974*
X2039068Y1644148*
X2039854*
X2039761Y1644246*
X2038974*
X2039068Y1644148*
X2042134D02*
X2042832D01*
X2042878Y1644181*
X2042926Y1644213*
X2042979Y1644246*
X2042217*
X2042187Y1644213*
X2042159Y1644181*
X2042134Y1644148*
X2043425D02*
X2044628D01*
Y1644246*
X2043425*
Y1644148*
X2044628*
Y1644246*
X2043425*
Y1644148*
X2051716D02*
X2053482D01*
X2053473Y1644181*
X2053463Y1644214*
X2053452Y1644246*
X2051575*
X2051626Y1644213*
X2051673Y1644181*
X2051716Y1644148*
X2054215D02*
X2055039D01*
X2055134Y1644246*
X2054310*
X2054215Y1644148*
X2055039*
X2055134Y1644246*
X2054310*
X2054215Y1644148*
X2038939Y1644283D02*
X2039725D01*
X2039631Y1644380*
X2038845*
X2038939Y1644283*
X2039725*
X2039631Y1644380*
X2038845*
X2038939Y1644283*
X2042255D02*
X2043044D01*
X2043106Y1644315*
X2043172Y1644348*
X2043241Y1644380*
X2042367*
X2042327Y1644348*
X2042290Y1644315*
X2042255Y1644283*
X2043425D02*
X2043940D01*
Y1644380*
X2043425*
Y1644283*
X2043940*
Y1644380*
X2043425*
Y1644283*
X2044117D02*
X2044628D01*
Y1644380*
X2044117*
Y1644283*
X2044628*
Y1644380*
X2044117*
Y1644283*
X2051512D02*
X2053436D01*
X2053421Y1644316*
X2053404Y1644349*
X2053385Y1644380*
X2051322*
X2051389Y1644348*
X2051452Y1644315*
X2051512Y1644283*
X2054346D02*
X2055170D01*
X2055265Y1644380*
X2054441*
X2054346Y1644283*
X2055170*
X2055265Y1644380*
X2054441*
X2054346Y1644283*
X2038809Y1644417D02*
X2039596D01*
X2039502Y1644514*
X2038716*
X2038809Y1644417*
X2039596*
X2039502Y1644514*
X2038716*
X2038809Y1644417*
X2042415D02*
X2043326D01*
X2043359Y1644431*
X2043392Y1644444*
X2043425Y1644457*
Y1644417*
X2043940*
Y1644514*
X2042557*
X2042508Y1644482*
X2042460Y1644450*
X2042415Y1644417*
X2044117D02*
X2044628D01*
Y1644514*
X2044117*
Y1644417*
X2044628*
Y1644514*
X2044117*
Y1644417*
X2051240D02*
X2053361D01*
X2053336Y1644451*
X2053309Y1644483*
X2053280Y1644514*
X2052126*
X2052119Y1644508*
X2052113Y1644501*
X2052107Y1644494*
X2052097Y1644501*
X2052087Y1644508*
X2052077Y1644514*
X2050995*
X2051080Y1644482*
X2051162Y1644450*
X2051240Y1644417*
X2054477D02*
X2055301D01*
X2055396Y1644514*
X2054571*
X2054477Y1644417*
X2055301*
X2055396Y1644514*
X2054571*
X2054477Y1644417*
X2038680Y1644551D02*
X2039466D01*
X2039372Y1644649*
X2038587*
X2038680Y1644551*
X2039466*
X2039372Y1644649*
X2038587*
X2038680Y1644551*
X2042616D02*
X2043940D01*
Y1644649*
X2042788*
X2042728Y1644617*
X2042671Y1644584*
X2042616Y1644551*
X2044117D02*
X2044628D01*
Y1644649*
X2044117*
Y1644551*
X2044628*
Y1644649*
X2044117*
Y1644551*
X2050891D02*
X2052020D01*
X2051967Y1644584*
X2051912Y1644617*
X2051855Y1644649*
X2050580*
X2050687Y1644617*
X2050791Y1644585*
X2050891Y1644551*
X2052164D02*
X2053242D01*
X2053201Y1644587*
X2053157Y1644619*
X2053110Y1644649*
X2052296*
X2052249Y1644619*
X2052205Y1644587*
X2052164Y1644551*
X2054607D02*
X2055432D01*
X2055527Y1644649*
X2054702*
X2054607Y1644551*
X2055432*
X2055527Y1644649*
X2054702*
X2054607Y1644551*
X2049203Y1644649D02*
X2046195D01*
Y1644553*
X2049203*
Y1644649*
X2046195*
Y1644553*
X2049203*
Y1644649*
X2038551Y1644686D02*
X2039337D01*
X2039243Y1644783*
X2038458*
X2038551Y1644686*
X2039337*
X2039243Y1644783*
X2038458*
X2038551Y1644686*
X2042859D02*
X2043940D01*
Y1644783*
X2043063*
X2042993Y1644751*
X2042925Y1644719*
X2042859Y1644686*
X2044117D02*
X2044628D01*
Y1644783*
X2044117*
Y1644686*
X2044628*
Y1644783*
X2044117*
Y1644686*
X2046195D02*
X2049203D01*
Y1644783*
X2046195*
Y1644686*
X2049203*
Y1644783*
X2046195*
Y1644686*
X2050446D02*
X2051787D01*
X2051723Y1644719*
X2051658Y1644751*
X2051590Y1644783*
X2050043*
X2050182Y1644752*
X2050316Y1644719*
X2050446Y1644686*
X2052366D02*
X2053040D01*
X2052934Y1644726*
X2052821Y1644751*
X2052703Y1644760*
X2052585Y1644751*
X2052472Y1644726*
X2052366Y1644686*
X2054738D02*
X2055563D01*
X2055658Y1644783*
X2054833*
X2054738Y1644686*
X2055563*
X2055658Y1644783*
X2054833*
X2054738Y1644686*
X2038422Y1644820D02*
X2039207D01*
X2039114Y1644918*
X2038329*
X2038422Y1644820*
X2039207*
X2039114Y1644918*
X2038329*
X2038422Y1644820*
X2043147D02*
X2043940D01*
Y1644918*
X2043388*
X2043306Y1644886*
X2043225Y1644853*
X2043147Y1644820*
X2044117D02*
X2044738D01*
X2044926Y1644855*
X2045119Y1644887*
X2045317Y1644918*
X2044117*
Y1644820*
X2046195D02*
X2049203D01*
Y1644918*
X2046195*
Y1644820*
X2049203*
Y1644918*
X2046195*
Y1644820*
X2049865D02*
X2051509D01*
X2051433Y1644853*
X2051355Y1644886*
X2051275Y1644918*
X2049297*
X2049492Y1644887*
X2049682Y1644855*
X2049865Y1644820*
X2054869D02*
X2055694D01*
X2055789Y1644918*
X2054963*
X2054869Y1644820*
X2055694*
X2055789Y1644918*
X2054963*
X2054869Y1644820*
X2038293Y1644955D02*
X2039078D01*
X2038984Y1645052*
X2038200*
X2038293Y1644955*
X2039078*
X2038984Y1645052*
X2038200*
X2038293Y1644955*
X2043425D02*
X2043940D01*
Y1645052*
X2043425*
Y1644955*
X2043940*
Y1645052*
X2043425*
Y1644955*
X2044117D02*
X2045595D01*
X2045791Y1644977*
X2045991Y1644997*
X2046195Y1645014*
Y1644955*
X2051179*
X2051089Y1644988*
X2050996Y1645020*
X2050902Y1645052*
X2044117*
Y1644955*
X2054999D02*
X2055825D01*
X2055920Y1645052*
X2055094*
X2054999Y1644955*
X2055825*
X2055920Y1645052*
X2055094*
X2054999Y1644955*
X2038164Y1645089D02*
X2038949D01*
X2038855Y1645186*
X2038070*
X2038164Y1645089*
X2038949*
X2038855Y1645186*
X2038070*
X2038164Y1645089*
X2043425D02*
X2046748D01*
Y1645186*
X2043425*
Y1645089*
X2046748*
Y1645186*
X2043425*
Y1645089*
X2048688D02*
X2050786D01*
X2050677Y1645122*
X2050565Y1645155*
X2050450Y1645186*
X2048688*
Y1645089*
X2055130D02*
X2055956D01*
X2056051Y1645186*
X2055225*
X2055130Y1645089*
X2055956*
X2056051Y1645186*
X2055225*
X2055130Y1645089*
X2038035Y1645223D02*
X2038819D01*
X2038726Y1645321*
X2037941*
X2038035Y1645223*
X2038819*
X2038726Y1645321*
X2037941*
X2038035Y1645223*
X2043425D02*
X2046748D01*
Y1645321*
X2044819*
X2044755Y1645308*
X2044691Y1645294*
X2044628Y1645280*
Y1645321*
X2043425*
Y1645223*
X2048688D02*
X2050308D01*
X2050169Y1645257*
X2050027Y1645290*
X2049883Y1645321*
X2048688*
Y1645223*
X2055261D02*
X2056087D01*
X2056182Y1645321*
X2055356*
X2055261Y1645223*
X2056087*
X2056182Y1645321*
X2055356*
X2055261Y1645223*
X2037906Y1645358D02*
X2038690D01*
X2038596Y1645455*
X2037812*
X2037906Y1645358*
X2038690*
X2038596Y1645455*
X2037812*
X2037906Y1645358*
X2043425D02*
X2044628D01*
Y1645455*
X2043425*
Y1645358*
X2044628*
Y1645455*
X2043425*
Y1645358*
X2045009D02*
X2049696D01*
X2049535Y1645387*
X2049370Y1645414*
X2049203Y1645440*
Y1645455*
X2045622*
X2045413Y1645426*
X2045209Y1645393*
X2045009Y1645358*
X2055392D02*
X2056218D01*
X2056313Y1645455*
X2055486*
X2055392Y1645358*
X2056218*
X2056313Y1645455*
X2055486*
X2055392Y1645358*
X2037777Y1645492D02*
X2038561D01*
X2038467Y1645589*
X2037683*
X2037777Y1645492*
X2038561*
X2038467Y1645589*
X2037683*
X2037777Y1645492*
X2043425D02*
X2044628D01*
Y1645581*
X2043425*
Y1645492*
X2044628*
Y1645581*
X2043425*
Y1645492*
X2045926D02*
X2049203D01*
Y1645589*
X2046195*
Y1645519*
X2046104Y1645510*
X2046015Y1645501*
X2045926Y1645492*
X2055522D02*
X2056349D01*
X2056444Y1645589*
X2055617*
X2055522Y1645492*
X2056349*
X2056444Y1645589*
X2055617*
X2055522Y1645492*
X2037648Y1645626D02*
X2038431D01*
X2038337Y1645724*
X2037554*
X2037648Y1645626*
X2038431*
X2038337Y1645724*
X2037554*
X2037648Y1645626*
X2046195D02*
X2049203D01*
Y1645724*
X2046195*
Y1645626*
X2049203*
Y1645724*
X2046195*
Y1645626*
X2055653D02*
X2056480D01*
X2056575Y1645724*
X2055748*
X2055653Y1645626*
X2056480*
X2056575Y1645724*
X2055748*
X2055653Y1645626*
X2037519Y1645761D02*
X2038302D01*
X2038208Y1645858*
X2037425*
X2037519Y1645761*
X2038302*
X2038208Y1645858*
X2037425*
X2037519Y1645761*
X2046195D02*
X2049203D01*
Y1645858*
X2046195*
Y1645761*
X2049203*
Y1645858*
X2046195*
Y1645761*
X2055784D02*
X2056611D01*
X2056706Y1645858*
X2055878*
X2055784Y1645761*
X2056611*
X2056706Y1645858*
X2055878*
X2055784Y1645761*
X2037390Y1645895D02*
X2038172D01*
X2038079Y1645993*
X2037296*
X2037390Y1645895*
X2038172*
X2038079Y1645993*
X2037296*
X2037390Y1645895*
X2055914D02*
X2056742D01*
X2056837Y1645993*
X2056009*
X2055914Y1645895*
X2056742*
X2056837Y1645993*
X2056009*
X2055914Y1645895*
X2037260Y1646030D02*
X2038043D01*
X2037949Y1646127*
X2037167*
X2037260Y1646030*
X2038043*
X2037949Y1646127*
X2037167*
X2037260Y1646030*
X2056045D02*
X2056873D01*
X2056968Y1646127*
X2056140*
X2056045Y1646030*
X2056873*
X2056968Y1646127*
X2056140*
X2056045Y1646030*
X2037131Y1646164D02*
X2037914D01*
X2037820Y1646261*
X2037038*
X2037131Y1646164*
X2037914*
X2037820Y1646261*
X2037038*
X2037131Y1646164*
X2056176D02*
X2057004D01*
X2057099Y1646261*
X2056271*
X2056176Y1646164*
X2057004*
X2057099Y1646261*
X2056271*
X2056176Y1646164*
X2037002Y1646298D02*
X2037784D01*
X2037691Y1646396*
X2036973*
X2036939Y1646364*
X2037002Y1646298*
X2056307D02*
X2057135D01*
X2057181Y1646346*
X2057129Y1646396*
X2056401*
X2056307Y1646298*
X2037012Y1646433D02*
X2037655D01*
X2037561Y1646530*
X2037115*
X2037012Y1646433*
X2037655*
X2037561Y1646530*
X2037115*
X2037012Y1646433*
X2056437D02*
X2057091D01*
X2056989Y1646530*
X2056532*
X2056437Y1646433*
X2057091*
X2056989Y1646530*
X2056532*
X2056437Y1646433*
X2037154Y1646567D02*
X2037526D01*
X2037432Y1646664*
X2037258*
X2037154Y1646567*
X2037526*
X2037432Y1646664*
X2037258*
X2037154Y1646567*
X2056568D02*
X2056950D01*
X2056848Y1646664*
X2056663*
X2056568Y1646567*
X2056950*
X2056848Y1646664*
X2056663*
X2056568Y1646567*
X2037297Y1646701D02*
X2037396D01*
X2037349Y1646751*
X2037297Y1646701*
X2037396*
X2037349Y1646751*
X2037297Y1646701*
X2056699D02*
X2056809D01*
X2056752Y1646756*
X2056699Y1646701*
X2056809*
X2056752Y1646756*
X2056699Y1646701*
X2050535Y1631117D02*
X2050636Y1631114D01*
X2050636D02*
X2050736Y1631107D01*
X2050835Y1631094*
X2050897Y1631835*
X2046994Y1635897*
X2043650Y1632466*
X2043928Y1629108*
X2048611Y1629075*
X2048613Y1629051*
X2048610Y1629097*
X2048609Y1629143*
X2048608Y1629190*
X2048616Y1629365*
X2048639Y1629536*
X2048677Y1629702*
X2048729Y1629862*
X2048794Y1630016*
X2048871Y1630162*
X2048961Y1630301*
X2049061Y1630431*
X2049173Y1630552*
X2049294Y1630664*
X2049424Y1630764*
X2049563Y1630854*
X2049709Y1630931*
X2049863Y1630996*
X2050023Y1631048*
X2050189Y1631086*
X2050360Y1631109*
X2050535Y1631117*
X2044279Y1628535D02*
X2044451D01*
Y1627784*
X2044279*
Y1628535*
X2044940Y1628552D02*
Y1627258D01*
X2043726*
Y1628554*
X2043599Y1628607*
X2043510Y1628713*
X2043470Y1628854*
X2043198Y1632003*
X2037712Y1626375*
X2037311Y1626772*
X2043133Y1632756*
X2042454Y1640623*
X2036939Y1646364*
X2037349Y1646751*
X2042376Y1641529*
X2042265Y1642820*
X2041332*
Y1643753*
X2042035*
X2042027Y1643786*
X2042021Y1643819*
X2042020Y1643853*
X2042036Y1643960*
X2042082Y1644069*
X2042159Y1644180*
X2042264Y1644291*
X2042396Y1644403*
X2042555Y1644513*
X2042738Y1644622*
X2042945Y1644728*
X2043175Y1644832*
X2043425Y1644932*
Y1645581*
X2044628*
Y1645280*
X2044811Y1645319*
X2044997Y1645355*
X2045188Y1645389*
X2045382Y1645421*
X2045580Y1645449*
X2045782Y1645475*
X2045987Y1645499*
X2046195Y1645519*
Y1645888*
X2049203*
Y1645440*
X2049442Y1645403*
X2049675Y1645362*
X2049901Y1645317*
X2050121Y1645269*
X2050333Y1645217*
X2050538Y1645162*
X2050735Y1645105*
X2050924Y1645044*
X2051105Y1644982*
X2051277Y1644917*
X2051440Y1644850*
X2051593Y1644782*
X2051737Y1644712*
X2051871Y1644640*
X2051994Y1644568*
X2052107Y1644494*
X2052274Y1644636*
X2052476Y1644727*
X2052703Y1644760*
X2052916Y1644731*
X2053108Y1644651*
X2053270Y1644525*
X2053395Y1644363*
X2053476Y1644171*
X2053505Y1643958*
X2053472Y1643731*
X2053381Y1643530*
X2053239Y1643363*
X2053058Y1643239*
Y1642958*
X2053058D02*
X2056752Y1646756D01*
X2057181Y1646346*
X2053273Y1642337*
X2053607*
Y1640183*
X2052134*
X2051472Y1632081*
X2056583Y1626773*
X2056159Y1626358*
X2051409Y1631302*
X2051378Y1630923*
X2051534Y1630838*
X2051681Y1630739*
X2051818Y1630628*
X2051944Y1630504*
X2051944D02*
X2052059Y1630370D01*
X2052161Y1630225*
X2052250Y1630071*
X2052324Y1629908*
X2052384Y1629738*
X2052427Y1629561*
X2052454Y1629378*
X2052463Y1629190*
X2052455Y1629014*
X2052432Y1628843*
X2052394Y1628677*
X2052342Y1628517*
X2052277Y1628364*
X2052200Y1628217*
X2052110Y1628078*
X2052009Y1627948*
X2051898Y1627827*
X2051777Y1627716*
X2051647Y1627615*
X2051508Y1627525*
X2051361Y1627448*
X2051208Y1627383*
X2051048Y1627331*
X2050882Y1627293*
X2050711Y1627270*
X2050535Y1627262*
X2050342Y1627272*
X2050155Y1627300*
X2049974Y1627345*
X2049800Y1627408*
X2049634Y1627486*
X2049477Y1627579*
X2049331Y1627686*
X2049331D02*
X2049195Y1627805D01*
X2049071Y1627937*
X2048959Y1628080*
X2048862Y1628234*
X2048778Y1628397*
X2048711Y1628568*
X2048716Y1628552*
X2044940*
X2050835Y1631094D02*
X2050847Y1631092D01*
X2050859Y1631090*
X2050872Y1631088*
X2050859Y1631090*
X2050847Y1631092*
X2050835Y1631094*
X2050924Y1631078D02*
X2050938Y1631075D01*
X2050953Y1631072*
X2050967Y1631068*
X2050953Y1631072*
X2050938Y1631075*
X2050924Y1631078*
X2050977Y1631066D02*
X2050990Y1631063D01*
X2051003Y1631060*
X2051016Y1631057*
X2051003Y1631060*
X2050990Y1631063*
X2050977Y1631066*
X2051017Y1631056D02*
X2051032Y1631052D01*
X2051047Y1631048*
X2051061Y1631044*
X2051047Y1631048*
X2051032Y1631052*
X2051017Y1631056*
X2051064Y1631044D02*
X2051078Y1631039D01*
X2051092Y1631035*
X2051106Y1631031*
X2051092Y1631035*
X2051078Y1631039*
X2051064Y1631044*
X2051200Y1630999D02*
X2051213Y1630995D01*
X2051225Y1630990*
X2051237Y1630985*
X2051225Y1630990*
X2051213Y1630995*
X2051200Y1630999*
X2051248Y1630981D02*
X2051259Y1630976D01*
X2051270Y1630972*
X2051281Y1630967*
X2051270Y1630972*
X2051259Y1630976*
X2051248Y1630981*
X2048700Y1628602D02*
X2048691Y1628628D01*
X2048694Y1628620*
X2048697Y1628611*
X2048700Y1628602*
X2050924Y1631078D02*
X2050909Y1631081D01*
X2050895Y1631083*
X2050895D02*
X2050880Y1631086D01*
X2051596Y1640183*
X2051481*
Y1640499*
X2050033Y1639014*
Y1638644*
X2049673*
X2047399Y1636312*
X2050962Y1632612*
X2051596Y1640183*
X2050924Y1631078*
X2043587Y1633223D02*
X2046594Y1636314D01*
X2043024Y1640030*
X2043587Y1633223*
X2042949Y1640934D02*
X2046998Y1636729D01*
X2048861Y1638644*
X2046094*
Y1639855*
X2050033*
Y1639849*
X2051481Y1641337*
Y1642337*
X2051777*
X2051817Y1642820*
X2042793*
X2042949Y1640934*
X2052309Y1642337D02*
X2052453D01*
X2052922Y1642820*
X2052349*
X2052309Y1642337*
X2052191Y1640891D02*
X2052178Y1640728D01*
X2053069*
Y1641774*
X2052725*
X2052228Y1641251*
X2052191Y1640891*
X2046642Y1639297D02*
X2049494D01*
X2049403Y1639183*
X2046642*
Y1639297*
X2051924Y1643769D02*
X2051913Y1643825D01*
X2051905Y1643881*
X2051902Y1643939*
X2051857Y1644010*
X2051793Y1644082*
X2051709Y1644154*
X2051608Y1644225*
X2051489Y1644296*
X2051353Y1644366*
X2051200Y1644434*
X2051032Y1644501*
X2050849Y1644566*
X2050651Y1644628*
X2050440Y1644687*
X2050216Y1644744*
X2049980Y1644797*
X2049731Y1644846*
X2049472Y1644891*
X2049203Y1644931*
Y1644553*
X2046195*
Y1645014*
X2045983Y1644996*
X2045776Y1644975*
X2045573Y1644952*
X2045374Y1644926*
X2045180Y1644897*
X2044991Y1644866*
X2044807Y1644833*
X2044628Y1644798*
Y1643753*
X2051920*
X2051921Y1643759*
X2051923Y1643764*
X2051924Y1643769*
X2043425Y1643753D02*
Y1644457D01*
X2043143Y1644334*
X2042916Y1644207*
X2042748Y1644078*
X2042644Y1643949*
X2042609Y1643823*
X2042610Y1643799*
X2042614Y1643776*
X2042621Y1643753*
X2043425*
X2046748Y1645058D02*
Y1645325D01*
X2048688*
Y1645058*
X2046748*
X2043940Y1645074D02*
X2044117D01*
Y1644260*
X2043940*
Y1645074*
X2050535Y1630273D02*
X2050730Y1630255D01*
X2050913Y1630205*
X2051082Y1630125*
X2051233Y1630018*
X2051364Y1629888*
X2051471Y1629736*
X2051551Y1629568*
X2051601Y1629384*
X2051619Y1629190*
X2051601Y1628995*
X2051551Y1628812*
X2051471Y1628643*
X2051364Y1628492*
X2051233Y1628361*
X2051082Y1628254*
X2050913Y1628174*
X2050730Y1628124*
X2050535Y1628106*
X2050341Y1628124*
X2050157Y1628174*
X2049989Y1628254*
X2049838Y1628361*
X2049707Y1628492*
X2049600Y1628643*
X2049520Y1628812*
X2049470Y1628995*
X2049452Y1629190*
X2049470Y1629384*
X2049520Y1629568*
X2049600Y1629736*
X2049707Y1629888*
X2049838Y1630018*
X2049989Y1630125*
X2050157Y1630205*
X2050341Y1630255*
X2050535Y1630273*
X2050195Y1629658D02*
X2050876D01*
X2050810Y1629699*
X2050738Y1629732*
X2050662Y1629755*
X2050409*
X2050333Y1629732*
X2050261Y1629699*
X2050195Y1629658*
X2050078Y1629545D02*
X2050993D01*
X2050963Y1629580*
X2050931Y1629612*
X2050896Y1629642*
X2050174*
X2050140Y1629612*
X2050108Y1629580*
X2050078Y1629545*
X2050009Y1629432D02*
X2051061D01*
X2051044Y1629466*
X2051025Y1629498*
X2051004Y1629529*
X2050067*
X2050045Y1629498*
X2050026Y1629466*
X2050009Y1629432*
X2049971Y1629319D02*
X2051100D01*
X2051091Y1629352*
X2051081Y1629385*
X2051068Y1629416*
X2050002*
X2049990Y1629385*
X2049979Y1629352*
X2049971Y1629319*
X2049956Y1629206D02*
X2051115D01*
X2051113Y1629239*
X2051109Y1629272*
X2051103Y1629303*
X2049967*
X2049962Y1629272*
X2049958Y1629239*
X2049956Y1629206*
X2049964Y1629093D02*
X2051107D01*
X2051111Y1629125*
X2051114Y1629157*
X2051115Y1629190*
X2051115*
X2051115*
Y1629191*
X2049956*
Y1629190*
X2049956*
X2049956*
X2049957Y1629157*
X2049960Y1629125*
X2049964Y1629093*
X2049995Y1628980D02*
X2051076D01*
X2051076D02*
X2051087Y1629012D01*
X2051096Y1629044*
X2051104Y1629078*
X2049967*
X2049975Y1629044*
X2049984Y1629012*
X2049995Y1628980*
X2050054Y1628867D02*
X2051016D01*
X2051036Y1628899*
X2051054Y1628931*
X2051069Y1628965*
X2050002*
X2050017Y1628931*
X2050035Y1628899*
X2050054Y1628867*
X2050154Y1628754D02*
X2050917D01*
X2050949Y1628785*
X2050979Y1628817*
X2051006Y1628852*
X2050065*
X2050092Y1628817*
X2050122Y1628785*
X2050154Y1628754*
X2050348Y1628642D02*
X2050723D01*
X2050786Y1628667*
X2050844Y1628700*
X2050899Y1628739*
X2050172*
X2050226Y1628700*
X2050285Y1628667*
X2050348Y1628642*
X2050670Y1628626D02*
X2050401D01*
X2050445Y1628617*
X2050490Y1628612*
X2050535Y1628610*
X2050581Y1628612*
X2050626Y1628617*
X2050670Y1628626*
X2050535Y1629769D02*
X2050761Y1629723D01*
X2050945Y1629599*
X2051069Y1629415*
X2051115Y1629190*
X2051069Y1628964*
X2050945Y1628780*
X2050761Y1628656*
X2050535Y1628610*
X2050310Y1628656*
X2050126Y1628780*
X2050002Y1628964*
X2049956Y1629190*
X2050002Y1629415*
X2050126Y1629599*
X2050310Y1629723*
X2050535Y1629769*
X2037001Y1622319D02*
X2056960D01*
Y1622328*
X2037001*
Y1622319*
X2056960*
Y1622328*
X2037001*
Y1622319*
Y1622206D02*
X2056960D01*
Y1622304*
X2037001*
Y1622206*
X2056960*
Y1622304*
X2037001*
Y1622206*
Y1622093D02*
X2056960D01*
Y1622191*
X2037001*
Y1622093*
X2056960*
Y1622191*
X2037001*
Y1622093*
Y1621981D02*
X2056960D01*
Y1622078*
X2037001*
Y1621981*
X2056960*
Y1622078*
X2037001*
Y1621981*
Y1621868D02*
X2056960D01*
Y1621965*
X2037001*
Y1621868*
X2056960*
Y1621965*
X2037001*
Y1621868*
Y1621755D02*
X2056960D01*
Y1621852*
X2037001*
Y1621755*
X2056960*
Y1621852*
X2037001*
Y1621755*
Y1621642D02*
X2056960D01*
Y1621739*
X2037001*
Y1621642*
X2056960*
Y1621739*
X2037001*
Y1621642*
Y1621529D02*
X2056960D01*
Y1621626*
X2037001*
Y1621529*
X2056960*
Y1621626*
X2037001*
Y1621529*
Y1621416D02*
X2056960D01*
Y1621513*
X2037001*
Y1621416*
X2056960*
Y1621513*
X2037001*
Y1621416*
Y1621303D02*
X2056960D01*
Y1621401*
X2037001*
Y1621303*
X2056960*
Y1621401*
X2037001*
Y1621303*
Y1621190D02*
X2056960D01*
Y1621288*
X2037001*
Y1621190*
X2056960*
Y1621288*
X2037001*
Y1621190*
Y1621077D02*
X2056960D01*
Y1621175*
X2037001*
Y1621077*
X2056960*
Y1621175*
X2037001*
Y1621077*
Y1620964D02*
X2056960D01*
Y1621062*
X2037001*
Y1620964*
X2056960*
Y1621062*
X2037001*
Y1620964*
Y1620852D02*
X2056960D01*
Y1620949*
X2037001*
Y1620852*
X2056960*
Y1620949*
X2037001*
Y1620852*
Y1620739D02*
X2056960D01*
Y1620836*
X2037001*
Y1620739*
X2056960*
Y1620836*
X2037001*
Y1620739*
Y1620626D02*
X2056960D01*
Y1620723*
X2037001*
Y1620626*
X2056960*
Y1620723*
X2037001*
Y1620626*
Y1620513D02*
X2056960D01*
Y1620610*
X2037001*
Y1620513*
X2056960*
Y1620610*
X2037001*
Y1620513*
Y1620400D02*
X2056960D01*
Y1620497*
X2037001*
Y1620400*
X2056960*
Y1620497*
X2037001*
Y1620400*
Y1620287D02*
X2056960D01*
Y1620385*
X2037001*
Y1620287*
X2056960*
Y1620385*
X2037001*
Y1620287*
Y1620174D02*
X2056960D01*
Y1620272*
X2037001*
Y1620174*
X2056960*
Y1620272*
X2037001*
Y1620174*
Y1620061D02*
X2056960D01*
Y1620159*
X2037001*
Y1620061*
X2056960*
Y1620159*
X2037001*
Y1620061*
Y1619948D02*
X2056960D01*
Y1620046*
X2037001*
Y1619948*
X2056960*
Y1620046*
X2037001*
Y1619948*
Y1619836D02*
X2056960D01*
Y1619933*
X2037001*
Y1619836*
X2056960*
Y1619933*
X2037001*
Y1619836*
Y1619723D02*
X2056960D01*
Y1619820*
X2037001*
Y1619723*
X2056960*
Y1619820*
X2037001*
Y1619723*
Y1619610D02*
X2056960D01*
Y1619707*
X2037001*
Y1619610*
X2056960*
Y1619707*
X2037001*
Y1619610*
Y1619497D02*
X2056960D01*
Y1619594*
X2037001*
Y1619497*
X2056960*
Y1619594*
X2037001*
Y1619497*
Y1619384D02*
X2056960D01*
Y1619481*
X2037001*
Y1619384*
X2056960*
Y1619481*
X2037001*
Y1619384*
Y1619271D02*
X2056960D01*
Y1619368*
X2037001*
Y1619271*
X2056960*
Y1619368*
X2037001*
Y1619271*
Y1619158D02*
X2056960D01*
Y1619256*
X2037001*
Y1619158*
X2056960*
Y1619256*
X2037001*
Y1619158*
Y1619045D02*
X2056960D01*
Y1619143*
X2037001*
Y1619045*
X2056960*
Y1619143*
X2037001*
Y1619045*
Y1618932D02*
X2056960D01*
Y1619030*
X2037001*
Y1618932*
X2056960*
Y1619030*
X2037001*
Y1618932*
Y1618819D02*
X2056960D01*
Y1618917*
X2037001*
Y1618819*
X2056960*
Y1618917*
X2037001*
Y1618819*
Y1618707D02*
X2056960D01*
Y1618804*
X2037001*
Y1618707*
X2056960*
Y1618804*
X2037001*
Y1618707*
Y1618594D02*
X2056960D01*
Y1618691*
X2037001*
Y1618594*
X2056960*
Y1618691*
X2037001*
Y1618594*
Y1618481D02*
X2056960D01*
Y1618578*
X2037001*
Y1618481*
X2056960*
Y1618578*
X2037001*
Y1618481*
X2056960Y1618465D02*
X2037001D01*
Y1618405*
X2056960*
Y1618465*
X2037001*
Y1618405*
X2056960*
Y1618465*
X2037001Y1622328D02*
X2056960D01*
Y1618405*
X2037001*
Y1622328*
G54D64*
X1790359Y1616673D02*
Y1614835D01*
Y1616673D02*
X1790932D01*
X1791123Y1616585*
X1791186Y1616498*
X1791250Y1616323*
Y1616060*
X1791186Y1615885*
X1791123Y1615798*
X1790932Y1615710*
X1790359*
X1792205Y1616673D02*
X1792077Y1616585D01*
X1791950Y1616410*
X1791886Y1616235*
X1791823Y1615973*
Y1615535*
X1791886Y1615273*
X1791950Y1615098*
X1792077Y1614923*
X1792205Y1614835*
X1792459*
X1792586Y1614923*
X1792714Y1615098*
X1792777Y1615273*
X1792841Y1615535*
Y1615973*
X1792777Y1616235*
X1792714Y1616410*
X1792586Y1616585*
X1792459Y1616673*
X1792205*
X1793414D02*
X1793732Y1614835D01*
X1794050Y1616673D02*
X1793732Y1614835D01*
X1794050Y1616673D02*
X1794368Y1614835D01*
X1794686Y1616673D02*
X1794368Y1614835D01*
X1795259Y1616673D02*
Y1614835D01*
Y1616673D02*
X1796086D01*
X1795259Y1615798D02*
X1795768D01*
X1795259Y1614835D02*
X1796086D01*
X1796659Y1616673D02*
Y1614835D01*
Y1616673D02*
X1797232D01*
X1797423Y1616585*
X1797486Y1616498*
X1797550Y1616323*
Y1616148*
X1797486Y1615973*
X1797423Y1615885*
X1797232Y1615798*
X1796659*
X1797105D02*
X1797550Y1614835D01*
X1789859Y1671173D02*
Y1669335D01*
Y1671173D02*
X1790432D01*
X1790623Y1671085*
X1790686Y1670998*
X1790750Y1670823*
Y1670648*
X1790686Y1670473*
X1790623Y1670385*
X1790432Y1670298*
X1789859*
X1790305D02*
X1790750Y1669335D01*
X1791323Y1671173D02*
Y1669335D01*
Y1671173D02*
X1792150D01*
X1791323Y1670298D02*
X1791832D01*
X1791323Y1669335D02*
X1792150D01*
X1793614Y1670910D02*
X1793486Y1671085D01*
X1793296Y1671173*
X1793041*
X1792850Y1671085*
X1792723Y1670910*
Y1670735*
X1792786Y1670560*
X1792850Y1670473*
X1792977Y1670385*
X1793359Y1670210*
X1793486Y1670123*
X1793550Y1670035*
X1793614Y1669860*
Y1669598*
X1793486Y1669423*
X1793296Y1669335*
X1793041*
X1792850Y1669423*
X1792723Y1669598*
X1794186Y1671173D02*
Y1669335D01*
Y1671173D02*
X1795014D01*
X1794186Y1670298D02*
X1794696D01*
X1794186Y1669335D02*
X1795014D01*
X1796032Y1671173D02*
Y1669335D01*
X1795586Y1671173D02*
X1796477D01*
G54D65*
X2039359Y1582335D02*
G03X2039359I-1500J0D01*
G01X2034927Y1586627D02*
G03X2033427Y1588127I-1500J0D01*
X2031927Y1586627I0J-1500*
X2033427Y1585127I1500J0*
X2034526Y1585606I0J1500*
G01X2034525Y1585605D02*
X2034864Y1586197D01*
Y1586196D02*
G03X2034927Y1586627I-1437J431D01*
G01X2125650Y1477489D02*
Y1461512D01*
X2117246Y1461517D02*
G03X2125649Y1461510I4204J3405D01*
G01X2117250Y1461512D02*
Y1477489D01*
X2125653Y1477485D02*
G03X2117253Y1477492I-4203J-3344D01*
G01X1958944Y1632912D02*
Y1633131D01*
X1959103Y1633568*
X1959262Y1633787*
X1959581Y1634006*
X1960217*
X1960535Y1633787*
X1960694Y1633568*
X1960853Y1633131*
Y1632693*
X1960694Y1632256*
X1960376Y1631600*
X1958785Y1629412*
X1961012*
X1963399Y1634006D02*
X1962922Y1633787D01*
X1962603Y1633131*
X1962444Y1632037*
Y1631381*
X1962603Y1630287*
X1962922Y1629631*
X1963399Y1629412*
X1963717*
X1964194Y1629631*
X1964512Y1630287*
X1964672Y1631381*
Y1632037*
X1964512Y1633131*
X1964194Y1633787*
X1963717Y1634006*
X1963399*
X1966103Y1633131D02*
X1966422Y1633350D01*
X1966899Y1634006*
Y1629412*
X1969922Y1634006D02*
X1968331Y1630943D01*
X1970717*
X1969922Y1634006D02*
Y1629412D01*
X1972149Y1631381D02*
X1975012D01*
X1976444Y1633131D02*
X1976762Y1633350D01*
X1977240Y1634006*
Y1629412*
X1978672Y1633131D02*
X1978990Y1633350D01*
X1979467Y1634006*
Y1629412*
X1980899Y1631381D02*
X1983762D01*
X1985194Y1633131D02*
X1985512Y1633350D01*
X1985990Y1634006*
Y1629412*
X1989490Y1632475D02*
X1989331Y1631818D01*
X1989012Y1631381*
X1988535Y1631162*
X1988376*
X1987899Y1631381*
X1987581Y1631818*
X1987422Y1632475*
Y1632693*
X1987581Y1633350*
X1987899Y1633787*
X1988376Y1634006*
X1988535*
X1989012Y1633787*
X1989331Y1633350*
X1989490Y1632475*
Y1631381*
X1989331Y1630287*
X1989012Y1629631*
X1988535Y1629412*
X1988217*
X1987740Y1629631*
X1987581Y1630068*
G54D66*
X1819864Y1684675D02*
X1782984D01*
X1783020Y1684638*
X1781838Y1686642D02*
G03X1783020Y1684638I1595J-409D01*
G01X1781838Y1686644D02*
Y1689793D01*
X1782984*
Y1630738*
X1781814*
Y1633888*
X1782938Y1635830D02*
G03X1781814Y1633888I411J-1534D01*
G01X1782938Y1635830D02*
X1782964Y1635856D01*
X1819864*
X1794312Y1669213D02*
Y1674940D01*
X1792136Y1669566D02*
Y1674588D01*
X1791330Y1669696D02*
Y1674457D01*
X1787995Y1673801D02*
Y1670352D01*
X1788630Y1670133*
X1808236Y1666959*
Y1666171*
X1786582Y1669678*
Y1674476*
X1808236Y1677982*
Y1677195*
X1788551Y1674005*
Y1670148*
X1786582Y1650854D02*
X1808236Y1654360D01*
Y1653573*
X1788630Y1650398*
X1787995Y1650179*
Y1646730*
X1788630Y1646511*
X1808236Y1643337*
Y1642549*
X1786582Y1646056*
Y1650854*
X1794312Y1645591D02*
Y1651318D01*
X1792136Y1645944D02*
Y1650966D01*
X1791330Y1646074D02*
Y1650835D01*
X1788551Y1646526D02*
Y1650383D01*
X1781909Y1638809D02*
X1782961D01*
X1782973Y1637628D02*
X1781838D01*
Y1682903*
X1782719*
X1781862Y1631919D02*
X1782949D01*
X1781884Y1688612D02*
X1783012D01*
X1781884Y1681722D02*
X1782854D01*
X1788630Y1674020D02*
G03X1787996Y1673802I314J-1943D01*
G01Y1670352D02*
G03X1788630Y1670133I948J1725D01*
G01Y1650398D02*
G03X1787996Y1650180I314J-1943D01*
G01Y1646730D02*
G03X1788630Y1646511I948J1725D01*
G01X1820064Y1686872D02*
X1782086D01*
X1819864Y1633872D02*
X1781850D01*
X2031631Y1485145D02*
Y1484645D01*
X2032631Y1483645*
X2033231*
X2033073Y1494881D02*
X2031673D01*
Y1493681*
X2031823Y1482974D02*
G03X2031823I-707J0D01*
G01X2042963Y1493754D02*
Y1494954D01*
X2041663*
X2043263Y1484880D02*
Y1483580D01*
X2041763*
X2132689Y1743632D02*
G03X2132689I-1396J0D01*
G01Y1704632D02*
G03X2132689I-1396J0D01*
G01Y1672632D02*
G03X2132689I-1396J0D01*
G01X2136462Y1481401D02*
Y1493213D01*
X2156293*
Y1481401*
X2136462*
X2177742Y1685543D02*
Y1725543D01*
X2219474*
Y1685543*
X2177742*
X2217794Y1686310D02*
Y1725320D01*
X2219206Y1720447D02*
X2208538Y1718119D01*
Y1712157*
X2219018Y1710441*
X2219118Y1700432D02*
X2208595Y1698546D01*
Y1692583*
X2219221Y1690569*
X2177742Y1630425D02*
Y1670425D01*
X2219474*
Y1630425*
X2177742*
X2217794Y1631192D02*
Y1670202D01*
X2219206Y1665329D02*
X2208538Y1663001D01*
Y1657039*
X2219018Y1655323*
X2219118Y1645314D02*
X2208595Y1643428D01*
Y1637464*
X2219221Y1635451*
X2168993Y1537198D02*
Y1617198D01*
X2218319*
Y1537198*
X2168993*
X2206133Y1537765D02*
Y1616963D01*
X2209342Y1554974D02*
G03Y1539223I12314J-7876D01*
G01X2209306Y1574260D02*
G03Y1558509I12314J-7876D01*
G01X2209378Y1594750D02*
G03Y1579000I12315J-7875D01*
G01X2209452Y1614803D02*
G03Y1599052I12314J-7875D01*
G01X2215977Y1599017D02*
G03Y1614768I-12314J7875D01*
G01X2216012Y1579731D02*
G03Y1595481I-12314J7875D01*
G01X2215940Y1559240D02*
G03Y1574991I-12314J7875D01*
G01X2215867Y1539188D02*
G03Y1554938I-12315J7875D01*
G01X2177741Y1735307D02*
Y1775307D01*
X2219473*
Y1735307*
X2177741*
X2217794Y1736073D02*
Y1775084D01*
X2219206Y1770211D02*
X2208538Y1767883D01*
Y1761921*
X2219018Y1760205*
X2219118Y1750195D02*
X2208594Y1748310D01*
Y1742346*
X2219220Y1740333*
G54D341*
X2003542Y1621688D02*
X2003416Y1622556D01*
X2003206Y1623991*
X2001911Y1625146*
Y1627519*
X2001827Y1628163*
X2002023Y1628296*
X2001176Y1627708*
X2001309Y1626693*
Y1624313*
X2002597Y1623165*
X2002835Y1621548*
X2004634*
Y1621674*
X2003374*
X2003101Y1621646*
X2004634Y1621695*
X2003542Y1621688*
X2007119Y1622787D02*
X2006055Y1623214D01*
X2005103Y1622157*
X2005075Y1621247*
X2005782Y1620869*
X2006762Y1621604*
X2007119Y1622787*
G54D413*
X1846827Y1625863D02*
G03X1851158Y1621531I4054J-277D01*
G01X1851370Y1621525*
X1860032*
X1860317Y1621504*
G03X1864648Y1625836I276J4055*
G01X1851208Y1637245D02*
G03X1846877Y1632914I-355J-3976D01*
G01X1851208Y1637245D02*
X1851370Y1637273D01*
X1859638*
X1864792Y1632604D02*
G03X1860068Y1637328I-4527J197D01*
G01X1783866Y1463653D02*
Y1461028D01*
Y1463653D02*
X1784684D01*
X1784957Y1463528*
X1785048Y1463403*
X1785139Y1463153*
Y1462778*
X1785048Y1462528*
X1784957Y1462403*
X1784684Y1462278*
X1783866*
X1785957Y1463653D02*
X1786412Y1461028D01*
X1786866Y1463653D02*
X1786412Y1461028D01*
X1786866Y1463653D02*
X1787321Y1461028D01*
X1787775Y1463653D02*
X1787321Y1461028D01*
X1788593Y1463653D02*
Y1461028D01*
Y1463653D02*
X1789412D01*
X1789684Y1463528*
X1789775Y1463403*
X1789866Y1463153*
Y1462903*
X1789775Y1462653*
X1789684Y1462528*
X1789412Y1462403*
X1788593*
X1789230D02*
X1789866Y1461028D01*
X1785546Y1457129D02*
X1784637D01*
X1784546Y1456004*
X1784637Y1456129*
X1784910Y1456254*
X1785182*
X1785455Y1456129*
X1785637Y1455879*
X1785728Y1455504*
X1785637Y1455254*
X1785546Y1454879*
X1785364Y1454629*
X1785091Y1454504*
X1784819*
X1784546Y1454629*
X1784455Y1454754*
X1784364Y1455004*
X1786546Y1457129D02*
X1787273Y1454504D01*
X1788001Y1457129D02*
X1787273Y1454504D01*
X1784637Y1470313D02*
X1785637D01*
X1785092Y1469313*
X1785364*
X1785546Y1469188*
X1785637Y1469063*
X1785728Y1468688*
Y1468438*
X1785637Y1468063*
X1785455Y1467813*
X1785182Y1467688*
X1784910*
X1784637Y1467813*
X1784546Y1467938*
X1784455Y1468188*
X1786546Y1470313D02*
X1787273Y1467688D01*
X1788001Y1470313D02*
X1787273Y1467688D01*
X1789001Y1470313D02*
X1790001D01*
X1789455Y1469313*
X1789728*
X1789910Y1469188*
X1790001Y1469063*
X1790092Y1468688*
Y1468438*
X1790001Y1468063*
X1789819Y1467813*
X1789546Y1467688*
X1789273*
X1789001Y1467813*
X1788910Y1467938*
X1788819Y1468188*
X1860760Y1458954D02*
Y1456329D01*
Y1458954D02*
X1861578D01*
X1861851Y1458829*
X1861942Y1458704*
X1862033Y1458454*
Y1458204*
X1861942Y1457954*
X1861851Y1457829*
X1861578Y1457704*
X1860760*
X1861397D02*
X1862033Y1456329D01*
X1862851Y1458954D02*
Y1456329D01*
Y1458954D02*
X1864033D01*
X1862851Y1457704D02*
X1863578D01*
X1862851Y1456329D02*
X1864033D01*
X1866124Y1458579D02*
X1865942Y1458829D01*
X1865669Y1458954*
X1865306*
X1865033Y1458829*
X1864851Y1458579*
Y1458329*
X1864942Y1458079*
X1865033Y1457954*
X1865215Y1457829*
X1865760Y1457579*
X1865942Y1457454*
X1866033Y1457329*
X1866124Y1457079*
Y1456704*
X1865942Y1456454*
X1865669Y1456329*
X1865306*
X1865033Y1456454*
X1864851Y1456704*
X1866942Y1458954D02*
Y1456329D01*
Y1458954D02*
X1868124D01*
X1866942Y1457704D02*
X1867669D01*
X1866942Y1456329D02*
X1868124D01*
X1869578Y1458954D02*
Y1456329D01*
X1868942Y1458954D02*
X1870215D01*
X2113743Y1727974D02*
X1903499D01*
G54D768*
X1783001Y1532343D02*
X1785363Y1529978D01*
Y1488246*
X1783001Y1485881*
Y1481187*
G54D769*
X1990586Y1607960D02*
X1989859Y1605335D01*
X1990586Y1607960D02*
X1991314Y1605335D01*
X1990132Y1606210D02*
X1991041D01*
X1992132Y1607960D02*
Y1605335D01*
Y1607960D02*
X1992859Y1605335D01*
X1993586Y1607960D02*
X1992859Y1605335D01*
X1993586Y1607960D02*
Y1605335D01*
X1994586Y1607960D02*
X1995586D01*
X1995041Y1606960*
X1995314*
X1995496Y1606835*
X1995586Y1606710*
X1995677Y1606335*
Y1606085*
X1995586Y1605710*
X1995405Y1605460*
X1995132Y1605335*
X1994859*
X1994586Y1605460*
X1994496Y1605585*
X1994405Y1605835*
X1996677Y1607960D02*
X1997677D01*
X1997132Y1606960*
X1997405*
X1997586Y1606835*
X1997677Y1606710*
X1997768Y1606335*
Y1606085*
X1997677Y1605710*
X1997496Y1605460*
X1997223Y1605335*
X1996950*
X1996677Y1605460*
X1996586Y1605585*
X1996496Y1605835*
X1999768Y1607960D02*
X1998859D01*
X1998768Y1606835*
X1998859Y1606960*
X1999132Y1607085*
X1999405*
X1999677Y1606960*
X1999859Y1606710*
X1999950Y1606335*
X1999859Y1606085*
X1999768Y1605710*
X1999586Y1605460*
X1999314Y1605335*
X1999041*
X1998768Y1605460*
X1998677Y1605585*
X1998586Y1605835*
X2000768Y1607085D02*
X2001768Y1605335D01*
Y1607085D02*
X2000768Y1605335D01*
X1869579Y1575506D02*
X1869454Y1575688D01*
X1869079Y1575961*
X1871704*
X1869079Y1577324D02*
X1869204Y1577051D01*
X1869579Y1576870*
X1870204Y1576779*
X1870579*
X1871204Y1576870*
X1871579Y1577051*
X1871704Y1577324*
Y1577506*
X1871579Y1577779*
X1871204Y1577961*
X1870579Y1578051*
X1870204*
X1869579Y1577961*
X1869204Y1577779*
X1869079Y1577506*
Y1577324*
X1868579Y1580506D02*
X1872579Y1578870D01*
X1869579Y1581324D02*
X1869454Y1581506D01*
X1869079Y1581779*
X1871704*
X1869079Y1583142D02*
X1869204Y1582870D01*
X1869579Y1582688*
X1870204Y1582597*
X1870579*
X1871204Y1582688*
X1871579Y1582870*
X1871704Y1583142*
Y1583324*
X1871579Y1583597*
X1871204Y1583779*
X1870579Y1583870*
X1870204*
X1869579Y1583779*
X1869204Y1583597*
X1869079Y1583324*
Y1583142*
Y1585233D02*
X1869204Y1584961D01*
X1869579Y1584779*
X1870204Y1584688*
X1870579*
X1871204Y1584779*
X1871579Y1584961*
X1871704Y1585233*
Y1585415*
X1871579Y1585688*
X1871204Y1585870*
X1870579Y1585961*
X1870204*
X1869579Y1585870*
X1869204Y1585688*
X1869079Y1585415*
Y1585233*
Y1588870D02*
X1871704D01*
X1869079D02*
Y1590051D01*
X1870329Y1588870D02*
Y1589597D01*
X1871704Y1588870D02*
Y1590051D01*
X1869079Y1591142D02*
X1871204D01*
X1871579Y1591233*
X1871704Y1591415*
Y1591597*
X1869954Y1590870D02*
Y1591506D01*
X1869079Y1592415D02*
X1871704D01*
X1870454D02*
X1870079Y1592688D01*
X1869954Y1592870*
Y1593142*
X1870079Y1593324*
X1870454Y1593415*
X1871704*
X1870704Y1594233D02*
Y1595324D01*
X1870454*
X1870204Y1595233*
X1870079Y1595142*
X1869954Y1594961*
Y1594688*
X1870079Y1594506*
X1870329Y1594324*
X1870704Y1594233*
X1870954*
X1871329Y1594324*
X1871579Y1594506*
X1871704Y1594688*
Y1594961*
X1871579Y1595142*
X1871329Y1595324*
X1869954Y1596142D02*
X1871704D01*
X1870704D02*
X1870329Y1596233D01*
X1870079Y1596415*
X1869954Y1596597*
Y1596870*
Y1597688D02*
X1871704D01*
X1870454D02*
X1870079Y1597961D01*
X1869954Y1598142*
Y1598415*
X1870079Y1598597*
X1870454Y1598688*
X1871704*
X1870704Y1599506D02*
Y1600597D01*
X1870454*
X1870204Y1600506*
X1870079Y1600415*
X1869954Y1600233*
Y1599961*
X1870079Y1599779*
X1870329Y1599597*
X1870704Y1599506*
X1870954*
X1871329Y1599597*
X1871579Y1599779*
X1871704Y1599961*
Y1600233*
X1871579Y1600415*
X1871329Y1600597*
X1869079Y1601688D02*
X1871204D01*
X1871579Y1601779*
X1871704Y1601961*
Y1602142*
X1869954Y1601415D02*
Y1602051D01*
X1849588Y1499861D02*
X1851338D01*
X1850088D02*
X1849713Y1500134D01*
X1849588Y1500316*
Y1500588*
X1849713Y1500770*
X1850088Y1500861*
X1851338*
X1850088D02*
X1849713Y1501134D01*
X1849588Y1501316*
Y1501588*
X1849713Y1501770*
X1850088Y1501861*
X1851338*
X1848713Y1502679D02*
X1848838Y1502770D01*
X1848713Y1502861*
X1848588Y1502770*
X1848713Y1502679*
X1849588Y1502770D02*
X1851338D01*
X1849963Y1504770D02*
X1849713Y1504588D01*
X1849588Y1504406*
Y1504134*
X1849713Y1503952*
X1849963Y1503770*
X1850338Y1503679*
X1850588*
X1850963Y1503770*
X1851213Y1503952*
X1851338Y1504134*
Y1504406*
X1851213Y1504588*
X1850963Y1504770*
X1849588Y1505588D02*
X1851338D01*
X1850338D02*
X1849963Y1505679D01*
X1849713Y1505861*
X1849588Y1506043*
Y1506316*
Y1507588D02*
X1849713Y1507406D01*
X1849963Y1507225*
X1850338Y1507134*
X1850588*
X1850963Y1507225*
X1851213Y1507406*
X1851338Y1507588*
Y1507861*
X1851213Y1508043*
X1850963Y1508225*
X1850588Y1508316*
X1850338*
X1849963Y1508225*
X1849713Y1508043*
X1849588Y1507861*
Y1507588*
X1849088Y1510406D02*
X1848838Y1510225D01*
X1848713Y1509952*
Y1509588*
X1848838Y1509316*
X1849088Y1509134*
X1849338*
X1849588Y1509225*
X1849713Y1509316*
X1849838Y1509497*
X1850088Y1510043*
X1850213Y1510225*
X1850338Y1510316*
X1850588Y1510406*
X1850963*
X1851213Y1510225*
X1851338Y1509952*
Y1509588*
X1851213Y1509316*
X1850963Y1509134*
X1848713Y1511225D02*
X1851338D01*
X1848713D02*
Y1511861D01*
X1848838Y1512134*
X1849088Y1512316*
X1849338Y1512406*
X1849713Y1512497*
X1850338*
X1850713Y1512406*
X1850963Y1512316*
X1851213Y1512134*
X1851338Y1511861*
Y1511225*
X1849338Y1516770D02*
X1849088Y1516679D01*
X1848838Y1516497*
X1848713Y1516316*
Y1515952*
X1848838Y1515770*
X1849088Y1515588*
X1849338Y1515497*
X1849713Y1515406*
X1850338*
X1850713Y1515497*
X1850963Y1515588*
X1851213Y1515770*
X1851338Y1515952*
Y1516316*
X1851213Y1516497*
X1850963Y1516679*
X1850713Y1516770*
X1849588Y1518679D02*
X1851338D01*
X1849963D02*
X1849713Y1518497D01*
X1849588Y1518316*
Y1518043*
X1849713Y1517861*
X1849963Y1517679*
X1850338Y1517588*
X1850588*
X1850963Y1517679*
X1851213Y1517861*
X1851338Y1518043*
Y1518316*
X1851213Y1518497*
X1850963Y1518679*
X1849588Y1519497D02*
X1851338D01*
X1850338D02*
X1849963Y1519588D01*
X1849713Y1519770*
X1849588Y1519952*
Y1520225*
X1848713Y1522134D02*
X1851338D01*
X1849963D02*
X1849713Y1521952D01*
X1849588Y1521770*
Y1521497*
X1849713Y1521316*
X1849963Y1521134*
X1850338Y1521043*
X1850588*
X1850963Y1521134*
X1851213Y1521316*
X1851338Y1521497*
Y1521770*
X1851213Y1521952*
X1850963Y1522134*
G54D770*
X2000385Y1631985D02*
X2000252D01*
X2000357D02*
X2000336Y1631943D01*
X2008890Y1624390D02*
X2008855D01*
X2000350Y1631964D02*
X2000301D01*
X2013720Y1631887D02*
X2013685D01*
X2013734Y1631866D02*
X2013664D01*
X2002562Y1627995D02*
X2002520D01*
X2001351Y1620813D02*
X1990291D01*
X2015554Y1628751D02*
X2011151D01*
X2016926Y1626399D02*
X2010073D01*
X1989199Y1618951D02*
X2018452D01*
X2018319Y1619028*
X1989283Y1619098*
X2018193*
X2018060Y1619175*
X1989339Y1619196*
X2017976Y1619224*
X1989395Y1619294*
X2017850*
X2017759Y1619343*
X1989409Y1619322*
X2017808*
X2017633Y1619420*
X1989486Y1619441*
X2017591*
X2017290Y1619616*
X1989598Y1619637*
X2017248*
X2017115Y1619714*
X1989612Y1619665*
X2017199*
X2017416Y1619539*
X1989514Y1619490*
X2017507*
X1996843Y1631250D02*
X1996444Y1631299D01*
X1996710Y1631327*
X1996458*
X1996521Y1631432*
X1988968Y1618559*
X2019138*
X2019012Y1618636*
X1989010*
X1989066Y1618734*
X2018837*
X2018669Y1618832*
X1989136Y1618853*
X2018620*
X2018410Y1618979*
X1989213*
X1989150Y1618881*
X2018578*
X2018753Y1618783*
X1989094*
X1988954Y1618538*
X2019187Y1618531*
X2008841Y1624369*
X2008932*
X2009023Y1624320*
X2008813*
X2008862Y1624411*
X2007420Y1621737*
X2005845Y1620253*
X1989927Y1620204*
X2016296Y1620176*
X1989885Y1620127*
X2016471Y1620078*
X1989815Y1620008*
X2016597*
X2016429Y1620106*
X1989871*
X2015435Y1620666D02*
X2006272Y1620645D01*
X2015477*
X2015568Y1620596*
X2006174Y1620547*
X2015694Y1620519*
X2006097Y1620470*
X2015827Y1620449*
X2006020Y1620400*
X2015995Y1620351*
X2005964*
X2005859Y1620246*
X2004634Y1620743*
X2001673*
X2002933Y1620890D02*
X2004634Y1620813D01*
X2002478*
X2002751Y1620841*
X2004634Y1620792*
X2002212*
X2001939Y1620764*
X2004634Y1620722*
X2004669Y1622332*
X2003458Y1622283*
X2004634*
X2005859Y1624110*
X2006769Y1625601*
X2002520Y1628016*
Y1626077*
X2003822Y1624859*
X2006314*
X2006181Y1624635*
X2003857Y1624614*
X2006167*
X2006076Y1624467*
X2003878*
X2003850Y1624663*
X2006237Y1624733*
X2003829Y1624782*
X2006272*
X2006209Y1624684*
X2003843*
X2003871Y1624516*
X2006104*
X2006013Y1624369*
X2003899Y1624320*
X2005985*
X2004060Y1623214D02*
X2005306Y1623291D01*
X2004046Y1623312*
X2005327*
X2005208Y1623144*
X2004074*
X2004088Y1623018*
X2005110Y1622997*
X2004095*
X2004130Y1622752*
X2004949*
X2005012Y1622850*
X2004123Y1622801*
X2004984*
X2004851Y1622605*
X2003962*
X2004151Y1622619*
X2003780Y1624957*
X2006391Y1624978*
X2003724Y1625006*
X2006447Y1625076*
X2003640*
X2003479Y1625223*
X2006538*
X2004151Y1622619D02*
X2003416Y1622556D01*
X2003689Y1622577*
X2004837*
X2004935Y1622724*
X2004130*
X2004151Y1622619*
X2002695Y1622486D02*
X2003416Y1622528D01*
X2004788Y1622507*
X2003430Y1622458*
X2004753*
X2004634Y1622185*
X2003479Y1622115*
X2004634Y1622038*
X2003493*
X2003507Y1621919*
X2004634Y1621968*
X2003500*
X2003521Y1621842*
X2004634Y1621772*
X2003542Y1621688*
X2002828Y1621625*
X2002940Y1620855*
X2001442Y1620722*
X1999139Y1623095*
X1998117Y1627638*
X1999237Y1629808*
X1995569*
X1995709Y1630053*
X1999034Y1630004*
X1995639Y1629927*
X1999160*
X1999195Y1629731*
X1995555Y1629780*
X1999223*
X1999111Y1629563*
X1995422*
X1995352Y1629437*
X1999069Y1629486*
X1995380*
X1995485Y1629661*
X1999188Y1629710*
X1995513*
X1995611Y1629878*
X1999265Y1629871*
X1996514Y1631425*
X1996542*
X1996472Y1631348*
X1996668*
X1996794Y1631278*
X1996388Y1631201*
X1997011Y1631152*
X1996332Y1631103*
X1997095*
X1997186Y1631054*
X1996290Y1631033*
X1997228*
X1997396Y1630935*
X1996213Y1630907*
X1997445*
X2014924Y1629829D02*
X2011865D01*
X2011802Y1629731*
X2014980*
X2014847Y1629955*
X2011935Y1629927*
X2014861*
X2014924Y1629829*
X2017031Y1619763D02*
X1989682Y1619784D01*
X2016989*
X2016898Y1619833*
X1989717*
X1989801Y1619980*
X2016639*
X2016772Y1619910*
X1989745Y1619882*
X2016814*
X2017031Y1619763*
X2006041Y1620421D02*
X2015869D01*
X2016037Y1620323*
X2005915Y1620302*
X2016128Y1620274*
X2005887*
X2005656Y1620323*
X1989976Y1620274*
X2005866Y1620253*
X2016212Y1620225*
X1989941*
X1990074Y1620449*
X2005341*
X2005593Y1620351*
X1990060Y1620421*
X2005404*
X2005215Y1620498*
X1990088Y1620470*
X2005278*
X2005026Y1620568*
X1990130Y1620547*
X2005152Y1620519*
X1990158Y1620596*
X2004963*
X2004711Y1620694*
X1990249Y1620743*
X2001400Y1620764*
X1990277Y1620792*
X2001379*
X2001232Y1620939*
X1990319Y1620862*
X2001302*
X2001162Y1621009*
X1990417Y1621037*
X2001113Y1621058*
X1990459Y1621107*
X2001022Y1621156*
X1990508Y1621184*
X2000994*
X2000875Y1621303*
X1990564Y1621282*
X2000903*
X2000735Y1621450*
X1990662*
X1990536Y1621233*
X2000945*
X2019537Y1621009D02*
X2020048Y1621058D01*
X2019362Y1621107*
X2020020*
X2020111Y1620960*
X2019663Y1620939*
X2020167Y1620862*
X2019789*
X2019964Y1620764*
X2020223*
X2020307Y1620617*
X2020223*
X2020349Y1620547*
X2009940Y1626476*
X2010948Y1628457*
X2012579Y1630900*
X2013706Y1631908*
X2020321Y1620596*
X2020181Y1620645*
X2020265Y1620694*
X2020090*
X2019880Y1620813*
X2020181Y1620841*
X2019838*
X2019908Y1621303D02*
X2019019D01*
X2019236Y1621184*
X2019992Y1621156*
X2019278*
X2019187Y1621205*
X2019950Y1621233*
X2019061Y1621282*
X2019894Y1621331*
X2018977*
X2018844Y1621401*
X2019852*
X2019761Y1621548*
X2018543Y1621576*
X2019719Y1621625*
X2018417Y1621646*
X2019677Y1621695*
X2018333*
X2018200Y1621772*
X2019663Y1621723*
X2018284*
X2018074Y1621842*
X2019593*
X2019509Y1621989*
X2017815*
X2018032Y1621870*
X2019565Y1621891*
X2017983*
X2017731Y1622038*
X2019523Y1621968*
X2017857*
X2017640Y1622087*
X2019418Y1622136*
X2017472Y1622185*
X2019376Y1622213*
X2017430*
X2019362Y1622234D02*
X2017381D01*
X2017171Y1622360*
X2019320Y1622311*
X2017297Y1622283*
X2019362Y1622234*
X2019250Y1622430D02*
X2016996Y1622458D01*
X2019236*
X2019159Y1622577*
X2016695Y1622626*
X2019117Y1622654*
X2016653*
X2016870Y1622528*
X2019173Y1622556*
X2016821*
X2016611Y1622675*
X2019075Y1622724*
X2016478Y1622752*
X2019033Y1622801*
X2016394*
X2016177Y1622920*
X2018977Y1622899*
X2016268Y1622871*
X2018991*
X2015967Y1623046D02*
X2018921Y1622997D01*
X2016051*
X2015876Y1623095*
X2018816Y1623165*
X2015708Y1623193*
X2018774Y1623242*
X2015617*
X2015407Y1623361*
X2018718Y1623340*
X2015533Y1623291*
X2018746*
X2018620Y1623508*
X2015148*
X2015274Y1623438*
X2018662*
X2018592Y1623557D02*
X2015064D01*
X2014889Y1623655*
X2018515Y1623683*
X2014847*
X2015015Y1623585*
X2018592Y1623557*
X2018473Y1623753D02*
X2014714D01*
X2014588Y1623830*
X2018445Y1623802*
X2014630*
X2014462Y1623900*
X2018389*
X2018473Y1623753*
X2014070Y1624124D02*
X2018256D01*
X2018361Y1623949*
X2014371*
X2014245Y1624026*
X2018305Y1624047*
X2014161Y1624075*
X2018291*
X2018228Y1624173*
X2013902Y1624222*
X2018158Y1624292*
X2013685Y1624341*
X2018116Y1624369*
X2013601Y1624390*
X2018060Y1624467*
X2013426Y1624488*
X2018032Y1624516*
X2013384*
X2013258Y1624586*
X2017976Y1624614*
X2013209*
X2013083Y1624684*
X2017927*
X2017857Y1624810*
X2012866*
X2012698Y1624908*
X2017801*
X2017871Y1624782*
X2012824Y1624831*
X2017829Y1624859*
X2012782*
X2017759Y1624978D02*
X2012523Y1625006D01*
X2017703Y1625076*
X2012348Y1625104*
X2017717Y1625055*
X2012439*
X2012222Y1625174*
X2017626Y1625202*
X2012180*
X2012047Y1625272*
X2017556Y1625321*
X2011921Y1625349*
X2017542*
X2011837Y1625398D02*
X2017472Y1625468D01*
X2011704*
X2011795Y1625419*
X2017500*
X2017444Y1625517*
X2011620*
X2011361Y1625664*
X2017388Y1625615*
X2011445*
X2015393Y1620694D02*
X2006328D01*
X2006405Y1620764*
X2015267*
X2015092Y1620862*
X2006503*
X2006580Y1620939*
X2014966*
X2015134Y1620841*
X2006426Y1620792*
X2015225*
X2015393Y1620694*
X2013587Y1621723D02*
X2007350Y1621674D01*
X2013671*
X2013804Y1621597*
X2007224Y1621548*
X2013930Y1621527*
X2007147Y1621478*
X2014014*
X2014189Y1621380*
X2007070Y1621401*
X2014147*
X2014056Y1621450*
X2007119*
X2006965Y1621303*
X2014364Y1621282*
X2006888Y1621233*
X2014532Y1621184*
X2006839*
X2006762Y1621107*
X2014665*
X2014875Y1620988*
X2006706Y1621058*
X2014749*
X2017339Y1625692D02*
X2011319D01*
X2011193Y1625762*
X2017283Y1625790*
X2011060Y1625839*
X2017241Y1625860*
X2011018*
X2011235Y1625741*
X2017339Y1625692*
X2010934Y1625909D02*
X2017199Y1625937D01*
X2010892*
X2016744Y1626721D02*
X2010101Y1626791D01*
X2016667Y1626840*
X2010129*
X2010052Y1626693*
X2016786Y1626644*
X2010003Y1626595*
X2016814*
X2016884Y1626476*
X2009989Y1626448*
X2016912Y1626427*
X2010031*
X2010157Y1626350*
X2016982Y1626301*
X2010241*
X2010332Y1626252*
X2017045Y1626203*
X2010416*
X2010633Y1626084*
X2017157Y1626007*
X2010675Y1626056*
X2017101Y1626105*
X2010591*
X2010500Y1626154*
X2017059Y1626182*
X2010458*
X2016583Y1626987D02*
X2010213Y1627015D01*
X2016569*
X2016408Y1627281*
X2010374Y1627330*
X2016352Y1627379*
X2010402*
X2010311Y1627211*
X2016485Y1627162*
X2010290*
X2010241Y1627064*
X2016583Y1626987*
X2016107Y1627799D02*
X2010612D01*
X2010689Y1627946*
X2016051Y1627897*
X2010661*
X2010752Y1628065*
X2015953*
X2015869Y1628212*
X2010850Y1628261*
X2015792Y1628338*
X2010892*
X2010801Y1628163*
X2015897*
X2015981Y1628016*
X2010724*
X2010640Y1627848*
X2016079*
X2016198Y1627652*
X2010577Y1627722*
X2016156*
X2016212Y1627624*
X2010500Y1627575*
X2016282Y1627505*
X2010451Y1627477*
X2016338Y1627407*
X2010416*
X2010479Y1627526*
X2016268*
X2010927Y1628408D02*
X2015736Y1628436D01*
X2010969Y1628485*
X2015680Y1628534*
X2011004*
X2011102Y1628681*
X2015624Y1628632*
X2011053Y1628604*
X2015638*
X2015491Y1628849*
X2011228Y1628877*
X2015463Y1628898*
X2011263Y1628926*
X2015435Y1628947*
X2011277*
X2011788Y1629710D02*
X2014994D01*
X2015078Y1629563*
X2011690*
X2011753Y1629661*
X2015022*
X2015106Y1629514*
X2011606Y1629437*
X2015134Y1629465*
X2011571Y1629388*
X2015211Y1629339*
X2011543*
X2011445Y1629192*
X2015323Y1629143*
X2011410*
X2011494Y1629269*
X2015253*
X2015379Y1629045*
X2011361Y1629073*
X2015365*
X2011963Y1629976D02*
X2014833D01*
X2014777Y1630074*
X2012033*
X2012096Y1630172*
X2014693Y1630221*
X2012131*
X2012257Y1630417*
X2014532Y1630494*
X2012355Y1630564*
X2014490*
X2014637Y1630319*
X2012243Y1630396*
X2014595*
X2014679Y1630249*
X2012145*
X2012278Y1630445*
X2014560*
X2014476Y1630592*
X2012425Y1630662*
X2014406Y1630711*
X2012488Y1630760*
X2014378*
X2014245Y1630984*
X2012621Y1630935*
X2014280*
X2004900Y1620617D02*
X1990186Y1620645D01*
X2004774Y1620666*
X1990228Y1620715*
X2004648*
X2000826Y1621352D02*
X1990606D01*
X1990690Y1621499*
X2000707Y1621478*
X1990648Y1621429*
X2000756*
X2000826Y1621352*
X2004634Y1621058D02*
X2002905D01*
X2002891Y1621184*
X2004634Y1621205*
X2002884*
X2002863Y1621352*
X2004634*
X2002856Y1621401D02*
X2004634Y1621478D01*
X2002849*
X2005376Y1623389D02*
X2004025Y1623459D01*
X2005439Y1623487*
X2004004Y1623585*
X2005502*
X2005572Y1623683*
X2003997Y1623634*
X2005537*
X2005684Y1623851*
X2003976Y1623781*
X2005600Y1623732*
X2003983*
X2003955Y1623949*
X2005747*
X2005894Y1624173*
X2003920*
X2005782Y1623998D02*
X2003948D01*
X2003906Y1624271*
X2005957*
X2005831Y1624075*
X2003941Y1624047*
X2005782Y1623998*
X2006482Y1625125D02*
X2003584D01*
X2003423Y1625272*
X2006587Y1625300*
X2003395*
X2003528Y1625174*
X2006482Y1625125*
X2006664Y1625419D02*
X2003255D01*
X2003122Y1625545*
X2006741Y1625615*
X2002982Y1625664*
X2006650*
X2006692Y1625468*
X2003227Y1625447*
X2006664Y1625419*
X2006608Y1625692D02*
X2002926Y1625713D01*
X2006524Y1625741*
X2002898*
X2002821Y1625811*
X2006349Y1625839*
X2002793*
X2002681Y1625937*
X2006097Y1625986*
X2002597Y1626007*
X2006048*
X2005880Y1626105*
X2002569Y1626035*
X2005964Y1626056*
X2002541*
X2002520Y1626182*
X2005705Y1626203*
X2002520Y1626301*
X2005621Y1626252*
X2002520Y1626350*
X2005362Y1626399*
X2002520*
X2006265Y1625888D02*
X2002709Y1625909D01*
X2006223*
X2005278Y1626448D02*
X2002520Y1626497D01*
X2005103Y1626546*
X2002520*
Y1626693*
X2004928Y1626644*
X2002520Y1626595*
X2005019*
X2005278Y1626448*
X2004417Y1626938D02*
X2002520Y1626840D01*
X2004585*
X2004802Y1626721*
X2002520Y1626770*
X2004676Y1626791*
X2002520Y1626889*
X2004501*
X2004326Y1626987*
X2002520Y1627036*
X2004200Y1627064*
X2002520Y1627085*
X2004158*
X2004067Y1627134*
X2002520*
Y1627281*
X2003815*
X2003941Y1627211*
X2002520Y1627260*
X2003857*
X2003766Y1627309*
X2002520Y1627330*
X2003724*
X2003598Y1627407*
X2002520Y1627456*
X2003507*
X2003297Y1627575D02*
X2002520Y1627624D01*
X2003206*
X2003423Y1627505*
X2002520Y1627554*
X2003339*
X2003164Y1627652*
X2002520Y1627722*
X2003038*
X2002821Y1627848*
X2002520Y1627897*
X2002737*
X2002604Y1627967*
X2002520Y1627918*
X2002695*
X2002863Y1627820*
X2002520Y1627799*
X2002905*
X2014231Y1631005D02*
X2012705D01*
X2012950Y1631229*
X2014091Y1631250*
X2012978*
X2012838Y1631131*
X2014161*
X2014231Y1631005*
X2013167Y1631425D02*
X2014021Y1631376D01*
X2013055Y1631327*
X2014063Y1631299*
X2013027*
X2013195Y1631446*
X2013930Y1631523*
X2013279*
X2013468Y1631691*
X2013874Y1631621*
X2013384*
X2013307Y1631544*
X2013916*
X2013356Y1631593D02*
X2013888D01*
X2013804Y1631740*
X2013580Y1631789*
X2013776*
X2007476Y1621842D02*
X2013454Y1621793D01*
X2007448*
X2013244Y1621919D02*
X2007532Y1621940D01*
X2013195*
X2013027Y1622038*
X2007553Y1621989*
X2013111*
X2013244Y1621919*
X2012852Y1622136D02*
X2007651Y1622164D01*
X2012894Y1622115*
X2007623*
X2007672Y1622213*
X2012726*
X2012635Y1622262*
X2007714Y1622283*
X2012509Y1622332*
X2007742*
X2007847Y1622528*
X2012166*
X2012033Y1622605*
X2007910Y1622654*
X2011949*
X2011823Y1622724*
X2007924Y1622675*
X2011907*
X2011732Y1622773*
X2008008Y1622822*
X2011648*
X2012425Y1622381D02*
X2007784Y1622409D01*
X2012383*
X2012292Y1622458*
X2007819Y1622479*
X2012250*
X2012425Y1622381*
X2011606Y1622850D02*
X2008043Y1622899D01*
X2011522*
X2011431Y1622948*
X2008085Y1622969*
X2011389*
X2011606Y1622850*
X2011305Y1623018D02*
X2008141Y1623067D01*
X2011214*
X2011088Y1623144*
X2008155Y1623095*
X2011172*
X2011004Y1623193*
X2008232Y1623242*
X2010871Y1623263*
X2008246*
X2010227Y1623634D02*
X2008442D01*
X2008379Y1623508*
X2010486Y1623487*
X2008323Y1623410*
X2010612*
X2010829Y1623291*
X2008281Y1623340*
X2010745*
X2008393Y1623536D02*
X2010402D01*
X2010311Y1623585*
X2008428Y1623606*
X2010185Y1623655*
X2008484Y1623704*
X2010052Y1623732*
X2008533Y1623802*
X2010010Y1623753*
X2008512*
X2008561Y1623851*
X2009842*
X2009625Y1623977*
X2008631*
X2008680Y1624075*
X2009450*
X2009667Y1623949*
X2008603Y1623928*
X2009709*
X2009583Y1623998*
X2008638*
X2008694Y1624096*
X2009366Y1624124*
X2008708*
X2008799Y1624292*
X2009149Y1624243*
X2008750Y1624194*
X2009240*
X2003521Y1632426D02*
X1999440Y1632454D01*
X2003696*
X2003871Y1632475*
X1999307Y1632524*
X2004221*
X2004046Y1632503*
X1999349*
X1999524Y1632405*
X2003346*
X2003171Y1632377*
X1999608Y1632356*
X2003003*
X2002828Y1632328*
X1999650*
X1999741Y1632279*
X2002478*
X2002653Y1632307*
X1999692*
X1999783Y1632258*
X2002303*
X2002128Y1632230*
X1999867Y1632209*
X2001953*
X2001778Y1632181*
X1999951Y1632160*
X2001603*
X2004396Y1632552D02*
X1999223Y1632573D01*
X2004571*
X2005649Y1633063D02*
X1998446Y1633014D01*
X2005551*
X2005404Y1632944*
X1998579*
X1998789Y1632818*
X2005110Y1632797*
X1998831*
X1999048Y1632671*
X2004865*
X2004718Y1632601*
X1999181*
X1998922Y1632748*
X2004963Y1632720*
X1998880Y1632769*
X2005061*
X2005208Y1632846*
X1998705Y1632867*
X2005257*
X2005355Y1632916*
X1998621*
X2005698Y1633091D02*
X1998278Y1633112D01*
X2005796Y1633140*
X1998229*
X1998061Y1633238*
X2005943Y1633210*
X1998187Y1633161*
X2005845*
X2005698Y1633091*
X2006188Y1633336D02*
X1997970Y1633287D01*
X2006041Y1633259*
X1998019*
X1997802Y1633385*
X2006286*
X2006384Y1633434*
X1997690Y1633448*
X2005243Y1646349*
X2011354Y1635919*
X2004704Y1632594*
X2000336Y1631943*
X1997704Y1633483*
X2006482*
X2006580Y1633532*
X1997732*
X2000560Y1632013D02*
X2000168Y1632034D01*
X2000735*
X2000910Y1632062*
X2000084Y1632083*
X2001085*
X2000042Y1632111D02*
X2001253D01*
X2001428Y1632132*
X2000000*
X2006825Y1633651D02*
X1997781Y1633602D01*
X2006678Y1633581*
X1997767*
X1997823Y1633679*
X2006923Y1633700*
X1997865Y1633749*
X2007070Y1633777*
X1997879*
X1997949Y1633896*
X2007315*
X2007413Y1633945*
X1998019Y1634022*
X2007560*
X2007462Y1633973*
X1997991*
X1998054Y1634071*
X2007658*
X2007756Y1634120*
X1998096Y1634141*
X2007805*
X2007903Y1634190*
X1998166Y1634267*
X2008099Y1634288*
X1998208Y1634337*
X2008197*
X2007168Y1633826D02*
X1997935Y1633875D01*
X2007266*
X2010374Y1637599D02*
X2000105Y1637571D01*
X2010388*
X2010304Y1637718*
X2000217Y1637767*
X2010318Y1637697*
X2000175*
X2000063Y1637501*
X2010444Y1637473*
X2000042*
X1999944Y1637305*
X2010549*
X2010458Y1637452*
X1999986Y1637375*
X2010500*
X2010591Y1637228*
X1999902*
X1999846Y1637130*
X2010661Y1637109*
X1999832*
X1999727Y1636934*
X2010801Y1636864*
X1999685*
X1999587Y1636689*
X2010906*
X2011004Y1636521*
X1999517Y1636570*
X2010934Y1636640*
X1999545Y1636619*
X2010948*
X2011060Y1636423*
X1999426*
X2008295Y1634386D02*
X1998264Y1634435D01*
X2008442Y1634463*
X1998292Y1634484*
X2008491*
X2008295Y1634386*
X1998369Y1634610D02*
X2008736D01*
X2008589Y1634533*
X1998320*
X1998411Y1634680*
X2008883*
X2008785Y1634631*
X1998425Y1634708*
X2008981Y1634729*
X1998467Y1634778*
X2009079*
X2009177Y1634827*
X1998509Y1634855*
X2009226*
X2009324Y1634904*
X1998565Y1634953*
X2009422*
X2009520Y1635002*
X1998628Y1635051*
X2009569Y1635023*
X1998607*
X2009716Y1635100D02*
X1998656D01*
X1998712Y1635198*
X2009912*
X2010059Y1635268*
X1998740Y1635247*
X2010010*
X2009716Y1635100*
X2010157Y1635317D02*
X1998810Y1635366D01*
X2010304Y1635394*
X1998824*
X1998915Y1635541*
X2010647Y1635562*
X1998957Y1635611*
X2010745*
X2010500Y1635492*
X1998866Y1635464*
X2010451*
X2010843Y1635660D02*
X1999013Y1635709D01*
X2010990Y1635737*
X1999069Y1635807*
X2011137*
X2011235Y1635856*
X1999139Y1635933*
X2011305Y1636003*
X1999181*
X1999328Y1636248*
X2011165*
X2011263Y1636080*
X1999258Y1636129*
X2011235*
X2011074Y1636395*
X1999412*
X1999356Y1636297*
X2011137*
X2011207Y1636178*
X1999286*
X1999216Y1636052*
X2011277*
X2011284Y1635884*
X1999125Y1635905*
X2011333*
X1999755Y1636983D02*
X2010731D01*
X2010822Y1636836*
X1999671*
X1999790Y1637032*
X2010703*
X2010248Y1637816D02*
X2000245D01*
X2000350Y1637991*
X2010157Y1637963*
X2000378Y1638040*
X2010115*
X2010017Y1638208*
X2000476*
X2000420Y1638110*
X2010101Y1638061*
X2000392*
X2000301Y1637914*
X2010185*
X2010248Y1637816*
X2009856Y1638481D02*
X2000637D01*
X2000504Y1638257*
X2010003Y1638236*
X2000490*
X2000546Y1638334*
X2009898Y1638404*
X2000588*
X2000651Y1638502*
X2009814Y1638551*
X2000679*
X2009800Y1638579D02*
X2000735Y1638649D01*
X2009758*
X2009653Y1638824*
X2000791Y1638747*
X2009702*
X2009800Y1638579*
X2009268Y1639482D02*
X2001176Y1639412D01*
X2009310*
X2009401Y1639265*
X2001064Y1639216*
X2009443Y1639188*
X2001022Y1639139*
X2009513Y1639069*
X2000966Y1639041*
X2009527*
X2009639Y1638845*
X2000847*
X2000938Y1638992*
X2009597Y1638922*
X2000889*
X2001253Y1639531D02*
X2009198Y1639608D01*
X2001337Y1639678*
X2009114Y1639755*
X2001351Y1639706*
X2009142*
X2009037Y1639874*
X2001421Y1639825*
X2009065*
X2000616Y1621576D02*
X1990767Y1621625D01*
X2000518Y1621674*
X1990795*
X1990879Y1621821*
X2000378*
X2000469Y1621723*
X1990823*
X2000308Y1621891D02*
X1990921D01*
X1991040Y1622087*
X2000112*
X2000189Y1622017*
X1990963Y1621968*
X2000231*
X2000308Y1621891*
X1999685Y1622528D02*
X1991264Y1622479D01*
X1999734*
X1999902Y1622311*
X1991208Y1622381*
X1999853Y1622360*
X1991194*
X1999636Y1622577D02*
X1991369Y1622654D01*
X1999496Y1622724*
X1991411*
X1991544Y1622948*
X1999279*
X1999426Y1622801*
X1991481Y1622850*
X1999377*
X1999209Y1623018*
X1991614Y1623067*
X1999160*
X1999118Y1623193*
X1991712Y1623242*
X1999097Y1623263*
X1991754Y1623312*
X1999090*
X1999132Y1623116*
X1991642*
X1991558Y1622969*
X1999328Y1622899*
X1991509*
X1991425Y1622752*
X1999468*
X1999636Y1622577*
X1991796Y1623389D02*
X1999062Y1623410D01*
X1991817*
X1991873Y1623508*
X1999041Y1623536*
X1991915Y1623585*
X1999027*
X1999006Y1623683*
X1991971*
X1992076Y1623851*
X1998950Y1623928*
X1992132Y1623949*
X1998929Y1624026*
X1992216Y1624096*
X1998901Y1624145*
X1992230Y1624124*
X1998908*
X1998873Y1624271*
X1992314*
X1992377Y1624369*
X1998852*
X1998985Y1623753D02*
X1992055Y1623830D01*
X1998971*
X1992391Y1624390D02*
X1998838Y1624439D01*
X1992419*
X1998817Y1624516D02*
X1992489Y1624565D01*
X1998796Y1624614*
X1992517*
X1992636Y1624810*
X1998754*
X1998817Y1624516*
X1992559Y1624684D02*
X1998782D01*
X1998747Y1624831*
X1992650*
X1992748Y1625006*
X1998698Y1625055*
X1992776*
X1992867Y1625202*
X1998663*
X1998635Y1625321*
X1992965Y1625370*
X1998628*
X1998691Y1625076D02*
X1992804Y1625104D01*
X1998684*
X1992993Y1625419D02*
X1998607Y1625468D01*
X1993049Y1625517*
X1998579Y1625594*
X1993091*
X1993154Y1625692*
X1998544Y1625741*
X1993224Y1625811*
X1998516Y1625860*
X1993266Y1625888*
X1998509*
X1998488Y1625986*
X1993350Y1626035*
X1998467Y1626084*
X1993427Y1626154*
X1998446Y1626182*
X1993483Y1626252*
X1998418Y1626301*
X1993511*
X1998537Y1628457D02*
X1994736Y1628387D01*
X1998474Y1628338*
X1994708*
X1994631Y1628212*
X1998425Y1628240*
X1994694Y1628310*
X1998467*
X1998348Y1628093*
X1994519Y1628016*
X1998271Y1627946*
X1994477*
X1994358Y1627750*
X1998208Y1627820*
X1994400*
X1994344Y1627722*
X1998159*
X1998145Y1627526*
X1994232*
X1994176Y1627428*
X1998166*
X1998124Y1627624*
X1994288*
X1994113Y1627330*
X1998201Y1627281*
X1994085*
X1994029Y1627183*
X1998222*
X1998299Y1626840*
X1993784Y1626770*
X1998313*
X1998341Y1626644*
X1993700Y1626623*
X1998348*
X1998376Y1626476*
X1993644Y1626525*
X1998362Y1626546*
X1993658*
X1993882Y1626938D02*
X1998285Y1626889D01*
X1993854*
X1993987Y1627113*
X1998236*
X1994932Y1628730D02*
X1998677D01*
X1998579Y1628534*
X1994848Y1628583*
X1998628Y1628632*
X1994876*
X1994953Y1628751*
X1998691*
X1998705Y1628779D02*
X1994967D01*
X1995093Y1628996*
X1998796Y1628947*
X1995065*
X1995009Y1628849*
X1998705Y1628779*
X1998845Y1629045D02*
X1995149Y1629094D01*
X1998866*
X1998957Y1629269*
X1995254*
X1995324Y1629388*
X1999020*
X1998971Y1629290*
X1995226Y1629220*
X1998929*
X1998845Y1629045*
X1997788Y1630711D02*
X1996143Y1630788D01*
X1997613Y1630809*
X1996157*
X1996087Y1630690*
X1997830*
X1997998Y1630592*
X1996031*
X1995968Y1630494*
X1998089Y1630543*
X1996003*
X1995926Y1630417*
X1998257Y1630445*
X1995954Y1630466*
X1998215*
X1998390Y1630368*
X1995884Y1630347*
X1998432*
X1998649Y1630221*
X1995772Y1630151*
X1998775*
X1998901Y1630074*
X1995723*
X1995856Y1630298*
X1998558Y1630270*
X1995828Y1630249*
X1998600*
X1996185Y1630858D02*
X1997487Y1630886D01*
X1996199*
X2003770Y1643721D02*
X2006773Y1643644D01*
X2003721*
X2003910Y1643966*
X2006577Y1643987*
X2003924*
X2004036Y1644183*
X2006472Y1644162*
X2004022*
X2003966Y1644064*
X2006528*
X2006619Y1643917*
X2003868Y1643889*
X2006661Y1643840*
X2003840*
X2003707Y1643623*
X2006787*
X2006850Y1643525*
X2003637Y1643497*
X2006906Y1643427*
X2003595*
X2006563Y1644015D02*
X2003938D01*
X2004008Y1644134*
X2006486*
X2006402Y1644281*
X2004099*
X2004155Y1644379*
X2006346*
X2006290Y1644477*
X2004183Y1644428*
X2006318*
X2006241Y1644554*
X2004239Y1644526*
X2006262*
X2008082Y1641418D02*
X2002405Y1641390D01*
X2008138Y1641320*
X2002363*
X2002461Y1641488*
X2008040*
X2007984Y1641586*
X2002559Y1641663*
X2007935*
X2007879Y1641761*
X2002622*
X2002489Y1641537*
X2008012*
X2008082Y1641418*
X2007970Y1641614D02*
X2002531D01*
X2002587Y1641712*
X2007907*
X2007851Y1641810*
X2002650*
X2002748Y1641978*
X2007781Y1641929*
X2002692Y1641880*
X2007809*
X2007970Y1641614*
X2002706Y1641908D02*
X2007795D01*
X2007739Y1642006*
X2002790Y1642055*
X2007711*
X2007648Y1642153*
X2002846*
X2002965Y1642349*
X2007536*
X2007592Y1642251*
X2002923Y1642272*
X2007578*
X2007494Y1642419*
X2003007*
X2003077Y1642545*
X2007452Y1642496*
X2003035Y1642468*
X2007466*
X2007375Y1642615D02*
X2003161Y1642692D01*
X2007319Y1642713*
X2003175*
X2003238Y1642811*
X2007249Y1642839*
X2003252*
X2003308Y1642937*
X2007165Y1642986*
X2003294Y1642909*
X2007207*
X2007375Y1642615*
X2007179Y1642958D02*
X2003322D01*
X2003420Y1643133*
X2007109Y1643084*
X2003364Y1643035*
X2007179Y1642958*
X2007018Y1643231D02*
X2003483D01*
X2003581Y1643399*
X2006920*
X2006976Y1643301*
X2003511Y1643280*
X2007018Y1643231*
X2001502Y1639850D02*
X2008971Y1639899D01*
X2001530*
X2001642Y1640095*
X2008901Y1640018*
X2001558Y1639948*
X2008943*
X2008845Y1640116*
X2001698Y1640193*
X2008782Y1640214*
X2001754Y1640291*
X2008698Y1640361*
X2001803*
X2008670Y1640410D02*
X2001859Y1640459D01*
X2008628Y1640487*
X2001901Y1640536*
X2008600*
X2008481Y1640732*
X2001971Y1640655*
X2008544Y1640634*
X2001929Y1640585*
X2008572*
X2008670Y1640410*
X2008397Y1640879D02*
X2002118Y1640900D01*
X2008369Y1640928*
X2002132*
X2002216Y1641075*
X2008257Y1641124*
X2002286Y1641194*
X2008208*
X2008327Y1640998*
X2002202Y1641047*
X2008299*
X2008397Y1640879*
X2005989Y1644995D02*
X2004512D01*
X2004596Y1645142*
X2005898*
X2006031Y1644918*
X2004470*
X2004386Y1644771*
X2006115*
X2006213Y1644603*
X2004281*
X2004442Y1644869*
X2006059*
X2006003Y1644967*
X2004526Y1645016*
X2005926Y1645093*
X2004568*
X2004673Y1645261*
X2005828*
X2005758Y1645387*
X2004771Y1645436*
X2005688Y1645506*
X2004827Y1645534*
X2005667*
X2005786Y1645338*
X2004715*
X2004869Y1645604*
X2005611Y1645632*
X2004883*
X2005016Y1645849*
X2005485*
X2005380Y1646024*
X2005100Y1645996*
X2005401*
X2005555Y1645730*
X2004946*
X2005030Y1645877*
X2005429Y1645947*
X2005072*
X2005156Y1646094*
X2005310Y1646143*
X2005184*
X2005128Y1646045*
X2005366*
G74*
X0Y0D02*
M02*
