*
*
G04 PADS 9.5 Build Number: 522968 generated Gerber (RS-274-X) file*
G04 PC Version=2.1*
*
%IN "3DP_V10-1116.pcb"*%
*
%MOIN*%
*
%FSLAX35Y35*%
*
*
*
*
G04 PC Standard Apertures*
*
*
G04 Thermal Relief Aperture macro.*
%AMTER*
1,1,$1,0,0*
1,0,$1-$2,0,0*
21,0,$3,$4,0,0,45*
21,0,$3,$4,0,0,135*
%
*
*
G04 Annular Aperture macro.*
%AMANN*
1,1,$1,0,0*
1,0,$2,0,0*
%
*
*
G04 Odd Aperture macro.*
%AMODD*
1,1,$1,0,0*
1,0,$1-0.005,0,0*
%
*
*
G04 PC Custom Aperture Macros*
*
*
*
*
*
*
G04 PC Aperture Table*
*
%ADD016C,0.01*%
%ADD035C,0.01181*%
%ADD044C,0.005*%
%ADD052C,0.015*%
%ADD053C,0.001*%
%ADD080C,0.07*%
%ADD349C,0.095*%
%ADD459C,0.019*%
%ADD463C,0.035*%
%ADD468R,0.065X0.065*%
%ADD469C,0.065*%
%ADD484C,0.10343*%
%ADD488C,0.12311*%
%ADD492R,0.05224X0.05224*%
%ADD572C,0.045*%
%ADD745R,0.04X0.025*%
%ADD771R,0.025X0.025*%
%ADD772R,0.08X0.05*%
%ADD773O,0.14X0.085*%
%ADD774R,0.05X0.055*%
%ADD775R,0.055X0.08*%
%ADD776R,0.075X0.09*%
%ADD777R,0.04043X0.02075*%
%ADD778O,0.015X0.038*%
%ADD779R,0.015X0.038*%
%ADD780O,0.038X0.015*%
%ADD781R,0.038X0.015*%
%ADD782R,0.139X0.139*%
%ADD783R,0.0365X0.01287*%
%ADD784R,0.01287X0.0365*%
%ADD785R,0.16445X0.16445*%
%ADD786C,0.18*%
%ADD787R,0.065X0.065*%
%ADD788R,0.023X0.041*%
%ADD789R,0.084X0.04*%
%ADD790R,0.065X0.049*%
%ADD791R,0.048X0.052*%
%ADD792O,0.021X0.065*%
%ADD793R,0.085X0.085*%
%ADD794R,0.04437X0.016*%
%ADD795R,0.08374X0.07193*%
%ADD796O,0.01681X0.04437*%
%ADD797O,0.04437X0.01681*%
%ADD798O,0.017X0.06406*%
%ADD799R,0.20185X0.12705*%
%ADD800R,0.12311X0.23335*%
%ADD801O,0.085X0.12311*%
%ADD802R,0.06012X0.01681*%
%ADD803R,0.12311X0.08374*%
%ADD804R,0.12311X0.11524*%
%ADD805R,0.0365X0.0365*%
%ADD806R,0.032X0.013*%
%ADD807R,0.032X0.0207*%
%ADD808R,0.07X0.125*%
%ADD809R,0.04X0.037*%
%ADD810R,0.125X0.07*%
%ADD811R,0.03X0.045*%
%ADD812R,0.06012X0.03256*%
%ADD813R,0.045X0.03*%
%ADD814O,0.06012X0.15067*%
%ADD815R,0.05815X0.02075*%
%ADD816O,0.0424X0.05028*%
%ADD817O,0.0798X0.0424*%
%ADD818O,0.07X0.017*%
%ADD819R,0.12311X0.12311*%
%ADD820C,0.115*%
%ADD821R,0.076X0.055*%
*
*
*
*
G04 PC Circuitry*
G04 Layer Name 3DP_V10-1116.pcb - circuitry*
%LPD*%
*
*
G04 PC Custom Flashes*
G04 Layer Name 3DP_V10-1116.pcb - flashes*
%LPD*%
*
*
G04 PC Circuitry*
G04 Layer Name 3DP_V10-1116.pcb - circuitry*
%LPD*%
*
G54D16*
G01X1873718Y1492728D02*
X1870571D01*
X1869718Y1491874*
Y1489081*
X1870571Y1488228*
X1873718*
Y1492728*
X1869972Y1488828D02*
Y1492128D01*
X1870472Y1488328D02*
Y1492628D01*
X1870972Y1488228D02*
Y1492728D01*
X1871472Y1488228D02*
Y1492728D01*
X1871972Y1488228D02*
Y1492728D01*
X1872472Y1488228D02*
Y1492728D01*
X1872972Y1488228D02*
Y1492728D01*
X1873472Y1488228D02*
Y1492728D01*
X1881218Y1491874D02*
X1880364Y1492728D01*
X1877218*
Y1488228*
X1880364*
X1881218Y1489081*
Y1491874*
X1877472Y1488228D02*
Y1492728D01*
X1877972Y1488228D02*
Y1492728D01*
X1878472Y1488228D02*
Y1492728D01*
X1878972Y1488228D02*
Y1492728D01*
X1879472Y1488228D02*
Y1492728D01*
X1879972Y1488228D02*
Y1492728D01*
X1880472Y1488335D02*
Y1492620D01*
X1880972Y1488835D02*
Y1492120D01*
X1900605Y1479608D02*
X1903752D01*
X1904605Y1480462*
Y1483255*
X1903752Y1484108*
X1900605*
Y1479608*
X1900852D02*
Y1484108D01*
X1901352Y1479608D02*
Y1484108D01*
X1901852Y1479608D02*
Y1484108D01*
X1902352Y1479608D02*
Y1484108D01*
X1902852Y1479608D02*
Y1484108D01*
X1903352Y1479608D02*
Y1484108D01*
X1903852Y1479708D02*
Y1484008D01*
X1904352Y1480208D02*
Y1483508D01*
X1893105Y1480462D02*
X1893959Y1479608D01*
X1897105*
Y1484108*
X1893959*
X1893105Y1483255*
Y1480462*
X1893352Y1480216D02*
Y1483501D01*
X1893852Y1479716D02*
Y1484001D01*
X1894352Y1479608D02*
Y1484108D01*
X1894852Y1479608D02*
Y1484108D01*
X1895352Y1479608D02*
Y1484108D01*
X1895852Y1479608D02*
Y1484108D01*
X1896352Y1479608D02*
Y1484108D01*
X1896852Y1479608D02*
Y1484108D01*
X2124616Y1700536D02*
X2127763D01*
X2128616Y1701390*
Y1704183*
X2127763Y1705036*
X2124616*
Y1700536*
X2124863D02*
Y1705036D01*
X2125363Y1700536D02*
Y1705036D01*
X2125863Y1700536D02*
Y1705036D01*
X2126363Y1700536D02*
Y1705036D01*
X2126863Y1700536D02*
Y1705036D01*
X2127363Y1700536D02*
Y1705036D01*
X2127863Y1700636D02*
Y1704936D01*
X2128363Y1701136D02*
Y1704436D01*
X2117116Y1701390D02*
X2117970Y1700536D01*
X2121116*
Y1705036*
X2117970*
X2117116Y1704183*
Y1701390*
X2117363Y1701144D02*
Y1704429D01*
X2117863Y1700644D02*
Y1704929D01*
X2118363Y1700536D02*
Y1705036D01*
X2118863Y1700536D02*
Y1705036D01*
X2119363Y1700536D02*
Y1705036D01*
X2119863Y1700536D02*
Y1705036D01*
X2120363Y1700536D02*
Y1705036D01*
X2120863Y1700536D02*
Y1705036D01*
X2124616Y1663036D02*
X2127763D01*
X2128616Y1663890*
Y1666683*
X2127763Y1667536*
X2124616*
Y1663036*
X2124863D02*
Y1667536D01*
X2125363Y1663036D02*
Y1667536D01*
X2125863Y1663036D02*
Y1667536D01*
X2126363Y1663036D02*
Y1667536D01*
X2126863Y1663036D02*
Y1667536D01*
X2127363Y1663036D02*
Y1667536D01*
X2127863Y1663136D02*
Y1667436D01*
X2128363Y1663636D02*
Y1666936D01*
X2117116Y1663890D02*
X2117970Y1663036D01*
X2121116*
Y1667536*
X2117970*
X2117116Y1666683*
Y1663890*
X2117363Y1663644D02*
Y1666929D01*
X2117863Y1663144D02*
Y1667429D01*
X2118363Y1663036D02*
Y1667536D01*
X2118863Y1663036D02*
Y1667536D01*
X2119363Y1663036D02*
Y1667536D01*
X2119863Y1663036D02*
Y1667536D01*
X2120363Y1663036D02*
Y1667536D01*
X2120863Y1663036D02*
Y1667536D01*
X2055923Y1484226D02*
X2059070D01*
X2059923Y1485080*
Y1487873*
X2059070Y1488726*
X2055923*
Y1484226*
X2056170D02*
Y1488726D01*
X2056670Y1484226D02*
Y1488726D01*
X2057170Y1484226D02*
Y1488726D01*
X2057670Y1484226D02*
Y1488726D01*
X2058170Y1484226D02*
Y1488726D01*
X2058670Y1484226D02*
Y1488726D01*
X2059170Y1484326D02*
Y1488626D01*
X2059670Y1484826D02*
Y1488126D01*
X2048423Y1485080D02*
X2049277Y1484226D01*
X2052423*
Y1488726*
X2049277*
X2048423Y1487873*
Y1485080*
X2048670Y1484834D02*
Y1488119D01*
X2049170Y1484334D02*
Y1488619D01*
X2049670Y1484226D02*
Y1488726D01*
X2050170Y1484226D02*
Y1488726D01*
X2050670Y1484226D02*
Y1488726D01*
X2051170Y1484226D02*
Y1488726D01*
X2051670Y1484226D02*
Y1488726D01*
X2052170Y1484226D02*
Y1488726D01*
X2055940Y1476242D02*
X2059087D01*
X2059940Y1477096*
Y1479889*
X2059087Y1480742*
X2055940*
Y1476242*
X2056187D02*
Y1480742D01*
X2056687Y1476242D02*
Y1480742D01*
X2057187Y1476242D02*
Y1480742D01*
X2057687Y1476242D02*
Y1480742D01*
X2058187Y1476242D02*
Y1480742D01*
X2058687Y1476242D02*
Y1480742D01*
X2059187Y1476342D02*
Y1480642D01*
X2059687Y1476842D02*
Y1480142D01*
X2048440Y1477096D02*
X2049294Y1476242D01*
X2052440*
Y1480742*
X2049294*
X2048440Y1479889*
Y1477096*
X2048687Y1476850D02*
Y1480135D01*
X2049187Y1476350D02*
Y1480635D01*
X2049687Y1476242D02*
Y1480742D01*
X2050187Y1476242D02*
Y1480742D01*
X2050687Y1476242D02*
Y1480742D01*
X2051187Y1476242D02*
Y1480742D01*
X2051687Y1476242D02*
Y1480742D01*
X2052187Y1476242D02*
Y1480742D01*
X2124640Y1742389D02*
X2127787D01*
X2128640Y1743243*
Y1746036*
X2127787Y1746889*
X2124640*
Y1742389*
X2124887D02*
Y1746889D01*
X2125387Y1742389D02*
Y1746889D01*
X2125887Y1742389D02*
Y1746889D01*
X2126387Y1742389D02*
Y1746889D01*
X2126887Y1742389D02*
Y1746889D01*
X2127387Y1742389D02*
Y1746889D01*
X2127887Y1742489D02*
Y1746789D01*
X2128387Y1742989D02*
Y1746289D01*
X2117140Y1743243D02*
X2117994Y1742389D01*
X2121140*
Y1746889*
X2117994*
X2117140Y1746036*
Y1743243*
X2117387Y1742997D02*
Y1746282D01*
X2117887Y1742497D02*
Y1746782D01*
X2118387Y1742389D02*
Y1746889D01*
X2118887Y1742389D02*
Y1746889D01*
X2119387Y1742389D02*
Y1746889D01*
X2119887Y1742389D02*
Y1746889D01*
X2120387Y1742389D02*
Y1746889D01*
X2120887Y1742389D02*
Y1746889D01*
X1873661Y1504724D02*
X1870514D01*
X1869661Y1503870*
Y1501077*
X1870514Y1500224*
X1873661*
Y1504724*
X1869915Y1500824D02*
Y1504124D01*
X1870415Y1500324D02*
Y1504624D01*
X1870915Y1500224D02*
Y1504724D01*
X1871415Y1500224D02*
Y1504724D01*
X1871915Y1500224D02*
Y1504724D01*
X1872415Y1500224D02*
Y1504724D01*
X1872915Y1500224D02*
Y1504724D01*
X1873415Y1500224D02*
Y1504724D01*
X1881161Y1503870D02*
X1880307Y1504724D01*
X1877161*
Y1500224*
X1880307*
X1881161Y1501077*
Y1503870*
X1877415Y1500224D02*
Y1504724D01*
X1877915Y1500224D02*
Y1504724D01*
X1878415Y1500224D02*
Y1504724D01*
X1878915Y1500224D02*
Y1504724D01*
X1879415Y1500224D02*
Y1504724D01*
X1879915Y1500224D02*
Y1504724D01*
X1880415Y1500331D02*
Y1504616D01*
X1880915Y1500831D02*
Y1504116D01*
X1929909Y1546937D02*
X1926762D01*
X1925909Y1546083*
Y1543290*
X1926762Y1542437*
X1929909*
Y1546937*
X1926163Y1543037D02*
Y1546337D01*
X1926663Y1542537D02*
Y1546837D01*
X1927163Y1542437D02*
Y1546937D01*
X1927663Y1542437D02*
Y1546937D01*
X1928163Y1542437D02*
Y1546937D01*
X1928663Y1542437D02*
Y1546937D01*
X1929163Y1542437D02*
Y1546937D01*
X1929663Y1542437D02*
Y1546937D01*
X1937409Y1546083D02*
X1936555Y1546937D01*
X1933409*
Y1542437*
X1936555*
X1937409Y1543290*
Y1546083*
X1933663Y1542437D02*
Y1546937D01*
X1934163Y1542437D02*
Y1546937D01*
X1934663Y1542437D02*
Y1546937D01*
X1935163Y1542437D02*
Y1546937D01*
X1935663Y1542437D02*
Y1546937D01*
X1936163Y1542437D02*
Y1546937D01*
X1936663Y1542544D02*
Y1546829D01*
X1937163Y1543044D02*
Y1546329D01*
X1913581Y1484065D02*
X1910434D01*
X1909581Y1483211*
Y1480418*
X1910434Y1479565*
X1913581*
Y1484065*
X1909835Y1480165D02*
Y1483465D01*
X1910335Y1479665D02*
Y1483965D01*
X1910835Y1479565D02*
Y1484065D01*
X1911335Y1479565D02*
Y1484065D01*
X1911835Y1479565D02*
Y1484065D01*
X1912335Y1479565D02*
Y1484065D01*
X1912835Y1479565D02*
Y1484065D01*
X1913335Y1479565D02*
Y1484065D01*
X1921081Y1483211D02*
X1920227Y1484065D01*
X1917081*
Y1479565*
X1920227*
X1921081Y1480418*
Y1483211*
X1917335Y1479565D02*
Y1484065D01*
X1917835Y1479565D02*
Y1484065D01*
X1918335Y1479565D02*
Y1484065D01*
X1918835Y1479565D02*
Y1484065D01*
X1919335Y1479565D02*
Y1484065D01*
X1919835Y1479565D02*
Y1484065D01*
X1920335Y1479672D02*
Y1483957D01*
X1920835Y1480172D02*
Y1483457D01*
X1871057Y1636679D02*
X1867910D01*
X1867057Y1635825*
Y1633032*
X1867910Y1632179*
X1871057*
Y1636679*
X1867311Y1632779D02*
Y1636079D01*
X1867811Y1632279D02*
Y1636579D01*
X1868311Y1632179D02*
Y1636679D01*
X1868811Y1632179D02*
Y1636679D01*
X1869311Y1632179D02*
Y1636679D01*
X1869811Y1632179D02*
Y1636679D01*
X1870311Y1632179D02*
Y1636679D01*
X1870811Y1632179D02*
Y1636679D01*
X1878557Y1635825D02*
X1877703Y1636679D01*
X1874557*
Y1632179*
X1877703*
X1878557Y1633032*
Y1635825*
X1874811Y1632179D02*
Y1636679D01*
X1875311Y1632179D02*
Y1636679D01*
X1875811Y1632179D02*
Y1636679D01*
X1876311Y1632179D02*
Y1636679D01*
X1876811Y1632179D02*
Y1636679D01*
X1877311Y1632179D02*
Y1636679D01*
X1877811Y1632286D02*
Y1636571D01*
X1878311Y1632786D02*
Y1636071D01*
G54D35*
X2158116Y1727559D02*
Y1745033D01*
X2142589*
Y1727559*
X2158116*
X2142949D02*
Y1745033D01*
X2143540Y1727559D02*
Y1745033D01*
X2144130Y1727559D02*
Y1745033D01*
X2144721Y1727559D02*
Y1745033D01*
X2145311Y1727559D02*
Y1745033D01*
X2145902Y1727559D02*
Y1745033D01*
X2146492Y1727559D02*
Y1745033D01*
X2147083Y1727559D02*
Y1745033D01*
X2147674Y1727559D02*
Y1745033D01*
X2148264Y1727559D02*
Y1745033D01*
X2148855Y1727559D02*
Y1745033D01*
X2149445Y1727559D02*
Y1745033D01*
X2150036Y1727559D02*
Y1745033D01*
X2150626Y1727559D02*
Y1745033D01*
X2151217Y1727559D02*
Y1745033D01*
X2151807Y1727559D02*
Y1745033D01*
X2152398Y1727559D02*
Y1745033D01*
X2152988Y1727559D02*
Y1745033D01*
X2153579Y1727559D02*
Y1745033D01*
X2154170Y1727559D02*
Y1745033D01*
X2154760Y1727559D02*
Y1745033D01*
X2155351Y1727559D02*
Y1745033D01*
X2155941Y1727559D02*
Y1745033D01*
X2156532Y1727559D02*
Y1745033D01*
X2157122Y1727559D02*
Y1745033D01*
X2157713Y1727559D02*
Y1745033D01*
X2158116Y1688559D02*
Y1706033D01*
X2142589*
Y1688559*
X2158116*
X2142949D02*
Y1706033D01*
X2143540Y1688559D02*
Y1706033D01*
X2144130Y1688559D02*
Y1706033D01*
X2144721Y1688559D02*
Y1706033D01*
X2145311Y1688559D02*
Y1706033D01*
X2145902Y1688559D02*
Y1706033D01*
X2146492Y1688559D02*
Y1706033D01*
X2147083Y1688559D02*
Y1706033D01*
X2147674Y1688559D02*
Y1706033D01*
X2148264Y1688559D02*
Y1706033D01*
X2148855Y1688559D02*
Y1706033D01*
X2149445Y1688559D02*
Y1706033D01*
X2150036Y1688559D02*
Y1706033D01*
X2150626Y1688559D02*
Y1706033D01*
X2151217Y1688559D02*
Y1706033D01*
X2151807Y1688559D02*
Y1706033D01*
X2152398Y1688559D02*
Y1706033D01*
X2152988Y1688559D02*
Y1706033D01*
X2153579Y1688559D02*
Y1706033D01*
X2154170Y1688559D02*
Y1706033D01*
X2154760Y1688559D02*
Y1706033D01*
X2155351Y1688559D02*
Y1706033D01*
X2155941Y1688559D02*
Y1706033D01*
X2156532Y1688559D02*
Y1706033D01*
X2157122Y1688559D02*
Y1706033D01*
X2157713Y1688559D02*
Y1706033D01*
X2158116Y1656559D02*
Y1674033D01*
X2142589*
Y1656559*
X2158116*
X2142949D02*
Y1674033D01*
X2143540Y1656559D02*
Y1674033D01*
X2144130Y1656559D02*
Y1674033D01*
X2144721Y1656559D02*
Y1674033D01*
X2145311Y1656559D02*
Y1674033D01*
X2145902Y1656559D02*
Y1674033D01*
X2146492Y1656559D02*
Y1674033D01*
X2147083Y1656559D02*
Y1674033D01*
X2147674Y1656559D02*
Y1674033D01*
X2148264Y1656559D02*
Y1674033D01*
X2148855Y1656559D02*
Y1674033D01*
X2149445Y1656559D02*
Y1674033D01*
X2150036Y1656559D02*
Y1674033D01*
X2150626Y1656559D02*
Y1674033D01*
X2151217Y1656559D02*
Y1674033D01*
X2151807Y1656559D02*
Y1674033D01*
X2152398Y1656559D02*
Y1674033D01*
X2152988Y1656559D02*
Y1674033D01*
X2153579Y1656559D02*
Y1674033D01*
X2154170Y1656559D02*
Y1674033D01*
X2154760Y1656559D02*
Y1674033D01*
X2155351Y1656559D02*
Y1674033D01*
X2155941Y1656559D02*
Y1674033D01*
X2156532Y1656559D02*
Y1674033D01*
X2157122Y1656559D02*
Y1674033D01*
X2157713Y1656559D02*
Y1674033D01*
G54D44*
X1781961Y1418892D02*
X2218040D01*
X2218040D02*
Y1781108D01*
X2218040D02*
X1781961D01*
X1781961D02*
Y1418892D01*
G54D52*
X1932630Y1637609D03*
Y1635641D03*
Y1633672D03*
Y1631704D03*
Y1629735D03*
Y1627767D03*
Y1625798D03*
Y1623830D03*
Y1621861D03*
Y1619893D03*
Y1617924D03*
Y1615956D03*
Y1613987D03*
Y1612019D03*
X1930662Y1637609D03*
Y1635641D03*
Y1633672D03*
Y1631704D03*
Y1629735D03*
Y1627767D03*
Y1625798D03*
Y1623830D03*
Y1621861D03*
Y1619893D03*
Y1617924D03*
Y1615956D03*
Y1613987D03*
Y1612019D03*
X1928692Y1637609D03*
Y1635641D03*
Y1633672D03*
Y1631704D03*
Y1629735D03*
Y1627767D03*
Y1625798D03*
Y1623830D03*
Y1621861D03*
Y1619893D03*
Y1617924D03*
Y1615956D03*
Y1613987D03*
Y1612019D03*
X1926724Y1637609D03*
Y1635641D03*
Y1633672D03*
Y1631704D03*
Y1615956D03*
Y1613987D03*
Y1612019D03*
X1924756Y1637609D03*
Y1635641D03*
Y1633672D03*
Y1629735D03*
Y1627767D03*
Y1625798D03*
Y1623830D03*
Y1621861D03*
Y1619893D03*
Y1615956D03*
Y1613987D03*
Y1612019D03*
X1922788Y1637609D03*
Y1635641D03*
Y1633672D03*
Y1629735D03*
Y1619893D03*
Y1615956D03*
Y1613987D03*
Y1612019D03*
X1920819Y1637609D03*
Y1635641D03*
Y1633672D03*
Y1629735D03*
Y1619893D03*
Y1615956D03*
Y1613987D03*
Y1612019D03*
X1918851Y1637609D03*
Y1635641D03*
Y1633672D03*
Y1629735D03*
Y1619893D03*
Y1615956D03*
Y1613987D03*
Y1612019D03*
X1916882Y1637609D03*
Y1635641D03*
Y1633672D03*
Y1629735D03*
Y1619893D03*
Y1615956D03*
Y1613987D03*
Y1612019D03*
X1914914Y1637609D03*
Y1635641D03*
Y1633672D03*
Y1629735D03*
Y1627767D03*
Y1625798D03*
Y1623830D03*
Y1621861D03*
Y1619893D03*
Y1615956D03*
Y1613987D03*
Y1612019D03*
X1912945Y1637609D03*
Y1635641D03*
Y1633672D03*
Y1615956D03*
Y1613987D03*
Y1612019D03*
X1910977Y1637609D03*
Y1635641D03*
Y1633672D03*
Y1631704D03*
Y1629735D03*
Y1627767D03*
Y1625798D03*
Y1623830D03*
Y1621861D03*
Y1619893D03*
Y1617924D03*
Y1615956D03*
Y1613987D03*
Y1612019D03*
X1909008Y1637609D03*
Y1635641D03*
Y1633672D03*
Y1631704D03*
Y1629735D03*
Y1627767D03*
Y1625798D03*
Y1623830D03*
Y1621861D03*
Y1619893D03*
Y1617924D03*
Y1615956D03*
Y1613987D03*
Y1612019D03*
X1907040Y1637609D03*
Y1635641D03*
Y1633672D03*
Y1631704D03*
Y1629735D03*
Y1627767D03*
Y1625798D03*
Y1623830D03*
Y1621861D03*
Y1619893D03*
Y1617924D03*
Y1615956D03*
Y1613987D03*
Y1612019D03*
X1783012Y1779642D02*
X2216612D01*
X2216612D02*
Y1420342D01*
X2216612D02*
X1783312D01*
X1783312D02*
Y1778642D01*
G54D53*
G54D80*
X1832432Y1673996D03*
Y1664156D03*
Y1656276D03*
Y1646436D03*
G54D349*
X1834902Y1615149D03*
Y1553149D03*
G54D459*
X2039735Y1580939D03*
X2042885D03*
X2046035D03*
X2058635D03*
X2061785D03*
X2064935D03*
X2039735Y1577789D03*
X2042885D03*
X2046035D03*
X2058635D03*
X2061785D03*
X2064935D03*
X2039735Y1574639D03*
X2042885D03*
X2046035D03*
X2058635D03*
X2061785D03*
X2064935D03*
X2039735Y1571489D03*
X2042885D03*
X2046035D03*
X2058635D03*
X2061785D03*
X2064935D03*
X2039735Y1568339D03*
X2042885D03*
X2046035D03*
X2058635D03*
X2061785D03*
X2064935D03*
X2039735Y1565189D03*
X2042885D03*
X2046035D03*
X2058635D03*
X2061785D03*
X2064935D03*
X2039735Y1562039D03*
X2042885D03*
X2046035D03*
X2058635D03*
X2061785D03*
X2064935D03*
X2039735Y1558889D03*
X2042885D03*
X2046035D03*
X2058635D03*
X2061785D03*
X2064935D03*
X2039735Y1555739D03*
X2042885D03*
X2046035D03*
X2058635D03*
X2061785D03*
X2064935D03*
X2039735Y1552589D03*
X2042885D03*
X2046035D03*
X2058635D03*
X2061785D03*
X2064935D03*
X2039735Y1549439D03*
X2042885D03*
X2046035D03*
X2058635D03*
X2061785D03*
X2064935D03*
X2039735Y1546289D03*
X2042885D03*
X2046035D03*
X2058635D03*
X2061785D03*
X2064935D03*
X2039735Y1543139D03*
X2042885D03*
X2046035D03*
X2058635D03*
X2061785D03*
X2064935D03*
X2039735Y1539989D03*
X2042885D03*
X2046035D03*
X2058635D03*
X2061785D03*
X2064935D03*
X2039735Y1536839D03*
X2042885D03*
X2046035D03*
X2058635D03*
X2061785D03*
X2064935D03*
X2039735Y1533689D03*
X2042885D03*
X2046035D03*
X2058635D03*
X2061785D03*
X2064935D03*
X2009106Y1548042D03*
X2005956D03*
X2002806D03*
X1999657D03*
X1996507D03*
X1993358D03*
X1990208D03*
X1987058D03*
X1983910D03*
X1980760D03*
X1977611D03*
X1974461D03*
X1971311D03*
X1968162D03*
X1965012D03*
X1961863D03*
X1958713D03*
X1955563D03*
X2009106Y1551192D03*
X2005956D03*
X2002806D03*
X1999657D03*
X1996507D03*
X1993358D03*
X1990208D03*
X1987058D03*
X1983910D03*
X1980760D03*
X1977611D03*
X1974461D03*
X1971311D03*
X1968162D03*
X1965012D03*
X1961863D03*
X1958713D03*
X1955563D03*
X2009106Y1554342D03*
X2005956D03*
X2002806D03*
X1999657D03*
X1996507D03*
X1993358D03*
X1990208D03*
X1987058D03*
X1983910D03*
X1980760D03*
X1977611D03*
X1974461D03*
X1971311D03*
X1968162D03*
X1965012D03*
X1961863D03*
X1958713D03*
X1955563D03*
X2009106Y1557492D03*
X2005956D03*
X2002806D03*
X1999657D03*
X1996507D03*
X1993358D03*
X1990208D03*
X1987058D03*
X1983910D03*
X1980760D03*
X1977611D03*
X1974461D03*
X1971311D03*
X1968162D03*
X1965012D03*
X1961863D03*
X1958713D03*
X1955563D03*
X2009106Y1560642D03*
X2005956D03*
X2002806D03*
X1999657D03*
X1996507D03*
X1993358D03*
X1990208D03*
X1987058D03*
X1983910D03*
X1980760D03*
X1977611D03*
X1974461D03*
X1971311D03*
X1968162D03*
X1965012D03*
X1961863D03*
X1958713D03*
X1955563D03*
X2009106Y1563791D03*
X2005956D03*
X2002806D03*
X1999657D03*
X1996507D03*
X1993358D03*
X1990208D03*
X1987058D03*
X1983910D03*
X1980760D03*
X1977611D03*
X1974461D03*
X1971311D03*
X1968162D03*
X1965012D03*
X1961863D03*
X1958713D03*
X1955563D03*
X2009106Y1566941D03*
X2005956D03*
X2002806D03*
X1999657D03*
X1996507D03*
X1993358D03*
X1990208D03*
X1987058D03*
X1983910D03*
X1980760D03*
X1977611D03*
X1974461D03*
X1971311D03*
X1968162D03*
X1965012D03*
X1961863D03*
X1958713D03*
X1955563D03*
X2009106Y1570091D03*
X2005956D03*
X2002806D03*
X1999657D03*
X1996507D03*
X1993358D03*
X1990208D03*
X1987058D03*
X1983910D03*
X1980760D03*
X1977611D03*
X1974461D03*
X1971311D03*
X1968162D03*
X1965012D03*
X1961863D03*
X1958713D03*
X1955563D03*
X2009106Y1573239D03*
X2005956D03*
X2002806D03*
X1999657D03*
X1996507D03*
X1993358D03*
X1990208D03*
X1987058D03*
X1983910D03*
X1980760D03*
X1977611D03*
X1974461D03*
X1971311D03*
X1968162D03*
X1965012D03*
X1961863D03*
X1958713D03*
X1955563D03*
X2009106Y1576389D03*
X2005956D03*
X2002806D03*
X1999657D03*
X1996507D03*
X1993358D03*
X1990208D03*
X1987058D03*
X1983910D03*
X1980760D03*
X1977611D03*
X1974461D03*
X1971311D03*
X1968162D03*
X1965012D03*
X1961863D03*
X1958713D03*
X1955563D03*
X2009106Y1579538D03*
X2005956D03*
X2002806D03*
X1999657D03*
X1996507D03*
X1993358D03*
X1990208D03*
X1987058D03*
X1983910D03*
X1980760D03*
X1977611D03*
X1974461D03*
X1971311D03*
X1968162D03*
X1965012D03*
X1961863D03*
X1958713D03*
X1955563D03*
X2009106Y1582688D03*
X2005956D03*
X2002806D03*
X1999657D03*
X1996507D03*
X1993358D03*
X1990208D03*
X1987058D03*
X1983910D03*
X1980760D03*
X1977611D03*
X1974461D03*
X1971311D03*
X1968162D03*
X1965012D03*
X1961863D03*
X1958713D03*
X1955563D03*
X2009106Y1585838D03*
X2005956D03*
X2002806D03*
X1999657D03*
X1996507D03*
X1993358D03*
X1990208D03*
X1987058D03*
X1983910D03*
X1980760D03*
X1977611D03*
X1974461D03*
X1971311D03*
X1968162D03*
X1965012D03*
X1961863D03*
X1958713D03*
X1955563D03*
X2009106Y1588987D03*
X2005956D03*
X2002806D03*
X1999657D03*
X1996507D03*
X1993358D03*
X1990208D03*
X1987058D03*
X1983910D03*
X1980760D03*
X1977611D03*
X1974461D03*
X1971311D03*
X1968162D03*
X1965012D03*
X1961863D03*
X1958713D03*
X1955563D03*
X2009106Y1592137D03*
X2005956D03*
X2002806D03*
X1999657D03*
X1996507D03*
X1993358D03*
X1990208D03*
X1987058D03*
X1983910D03*
X1980760D03*
X1977611D03*
X1974461D03*
X1971311D03*
X1968162D03*
X1965012D03*
X1961863D03*
X1958713D03*
X1955563D03*
X2009106Y1595286D03*
X2005956D03*
X2002806D03*
X1999657D03*
X1996507D03*
X1993358D03*
X1990208D03*
X1987058D03*
X1983910D03*
X1980760D03*
X1977611D03*
X1974461D03*
X1971311D03*
X1968162D03*
X1965012D03*
X1961863D03*
X1958713D03*
X1955563D03*
X2009106Y1598436D03*
X2005956D03*
X2002806D03*
X1999657D03*
X1996507D03*
X1993358D03*
X1990208D03*
X1987058D03*
X1983910D03*
X1980760D03*
X1977611D03*
X1974461D03*
X1971311D03*
X1968162D03*
X1965012D03*
X1961863D03*
X1958713D03*
X1955563D03*
X2009106Y1601586D03*
X2005956D03*
X2002806D03*
X1999657D03*
X1996507D03*
X1993358D03*
X1990208D03*
X1987058D03*
X1983910D03*
X1980760D03*
X1977611D03*
X1974461D03*
X1971311D03*
X1968162D03*
X1965012D03*
X1961863D03*
X1958713D03*
X1955563D03*
G54D463*
X2004316Y1536526D03*
X2003263Y1540786D03*
X1888601Y1481322D03*
X1919178Y1490203D03*
X1929091Y1497533D03*
X1918459Y1529001D03*
X1887538Y1528038D03*
X1883585Y1516385D03*
G54D468*
X2149863Y1487286D03*
X1968537Y1465175D03*
X1847863Y1766286D03*
X2120926Y1474491D03*
Y1464491D03*
X1874863Y1766286D03*
X2044717Y1766322D03*
X1931738Y1766295D03*
X1987893Y1766311D03*
X2100863Y1766286D03*
X2204470Y1520995D03*
Y1481625D03*
Y1442255D03*
X2142863Y1432286D03*
X2177863D03*
X1907863D03*
X1975863D03*
X1941863D03*
X1873863D03*
X1839863D03*
X1805863D03*
X2107863D03*
X2063863D03*
X2019863D03*
G54D469*
X1857902Y1596649D03*
X1847902Y1591649D03*
X1857902Y1586649D03*
X1847902Y1581649D03*
X1857902Y1576649D03*
X1847902Y1571649D03*
X1857902Y1566649D03*
X1803602Y1609049D03*
X1809602Y1599049D03*
X1803602Y1569249D03*
X1809602Y1559249D03*
X1843696Y1465573D03*
X2141988Y1487286D03*
X1978537Y1465175D03*
X1988537D03*
X1837863Y1766286D03*
X1884863D03*
X1894863D03*
X1904863D03*
X2054717Y1766322D03*
X2064717D03*
X2074717D03*
X1941738Y1766295D03*
X1951738D03*
X1961738D03*
X1997893Y1766311D03*
X2007893D03*
X2017893D03*
X2110863Y1766286D03*
X2120863D03*
X2130863D03*
X2204470Y1510995D03*
Y1471625D03*
Y1432255D03*
X2132863Y1432286D03*
X2167863D03*
X1897863D03*
X1965863D03*
X1931863D03*
X1863863D03*
X1829863D03*
X1795863D03*
X2097863D03*
X2087863D03*
X2053863D03*
X2043863D03*
X2009863D03*
X1999863D03*
G54D484*
X2198083Y1695523D03*
Y1715523D03*
Y1640405D03*
Y1660405D03*
Y1745286D03*
Y1765286D03*
G54D488*
X2174488Y1567178D03*
Y1587178D03*
Y1607178D03*
G54D492*
X2036748Y1489270D03*
G54D572*
X1822902Y1561649D03*
Y1606649D03*
X1871968Y1490478D03*
X1878968D03*
X1902355Y1481858D03*
X1895355D03*
X2126366Y1702786D03*
X2119366D03*
X2126366Y1665286D03*
X2119366D03*
X2057673Y1486476D03*
X2050673D03*
X2057690Y1478492D03*
X2050690D03*
X2126390Y1744639D03*
X2119390D03*
X1871911Y1502474D03*
X1878911D03*
X1928159Y1544687D03*
X1935159D03*
X1911831Y1481815D03*
X1918831D03*
X1869307Y1634429D03*
X1876307D03*
G54D745*
X1840564Y1496019D03*
Y1534405D03*
G54D771*
X1912125Y1451309D03*
X1908125D03*
X1880075Y1516336D03*
X1876075D03*
X1948466Y1475499D03*
X1952466D03*
X1948522Y1449216D03*
X1952522D03*
X1876096Y1524564D03*
X1880096D03*
X1865359Y1674430D03*
Y1670430D03*
X1880182Y1520440D03*
X1876182D03*
X2065851Y1503286D03*
X2061851D03*
X2154942Y1678899D03*
X2150942D03*
X1869492Y1623513D03*
X1873492D03*
X1873468Y1627513D03*
X1869468D03*
X1981471Y1531717D03*
Y1527717D03*
X1936333Y1538773D03*
X1932333D03*
X1973471Y1531717D03*
Y1527717D03*
X2098875Y1507286D03*
X2102875D03*
X2098875Y1498286D03*
X2102875D03*
X2143851Y1683286D03*
X2139851D03*
X2019662Y1481739D03*
X2023662D03*
X2147851Y1719286D03*
X2143851D03*
X1828894Y1723605D03*
X1832894D03*
X1945841Y1531128D03*
Y1535128D03*
X1879795Y1651130D03*
Y1647130D03*
X1924323Y1569814D03*
X1920323D03*
X1924323Y1565814D03*
X1920323D03*
X1924323Y1592314D03*
X1920323D03*
X1920347Y1562314D03*
X1924347D03*
X1952565Y1457314D03*
X1948565D03*
X1851929Y1657507D03*
X1847929D03*
X2056527Y1591455D03*
X2060527D03*
X2111851Y1493286D03*
X2107851D03*
X2117351Y1671786D03*
X2113351D03*
X2098875Y1502786D03*
X2102875D03*
X2023638Y1486239D03*
X2019638D03*
X1939322Y1569314D03*
X1935322D03*
X2118351Y1633786D03*
X2114351D03*
X2100771Y1453401D03*
X2104771D03*
X2055599D03*
X2059599D03*
X2006493D03*
X2002493D03*
X2095747D03*
X2091747D03*
X2169989Y1767492D03*
Y1771492D03*
X2050644Y1492200D03*
X2054644D03*
X2050858Y1501114D03*
X2054858D03*
X2152875Y1719286D03*
X2156875D03*
X1908022Y1459716D03*
X1912022D03*
X1952480Y1465708D03*
X1948480D03*
X1979948Y1536064D03*
X1975948D03*
X2011517Y1453401D03*
X2015517D03*
X2169857Y1679098D03*
Y1683098D03*
X2169863Y1669298D03*
Y1673298D03*
X2144623Y1445993D03*
X2148623D03*
X2157863Y1554298D03*
Y1558298D03*
X2111851Y1498286D03*
X2107851D03*
X2125851Y1671786D03*
X2121851D03*
X2051575Y1453401D03*
X2047575D03*
X1856799Y1657507D03*
X1860799D03*
X1861322Y1515814D03*
X1857322D03*
X1880128Y1510806D03*
X1876128D03*
X1857314Y1520191D03*
X1861314D03*
X1882899Y1569836D03*
X1878899D03*
X1924323Y1588314D03*
X1920323D03*
X2126851Y1633786D03*
X2122851D03*
X2150875Y1683286D03*
X2154875D03*
X2102851Y1493286D03*
X2098851D03*
X2178349Y1445992D03*
X2182349D03*
X1810896Y1462434D03*
X1806896D03*
X1952506Y1471332D03*
X1948506D03*
X1908022Y1455716D03*
X1912022D03*
X2116351Y1713286D03*
X2112351D03*
X2125851D03*
X2121851D03*
X1943492Y1734026D03*
X1947492D03*
X1939468D03*
X1935468D03*
X2064886Y1733893D03*
X2068886D03*
X1984036Y1733932D03*
X1988036D03*
X2060862Y1733893D03*
X2056862D03*
X2105709Y1733879D03*
X2109709D03*
X2024357Y1733849D03*
X2028357D03*
X2101685Y1733879D03*
X2097685D03*
X2020333Y1733849D03*
X2016333D03*
X1815894Y1723634D03*
X1819894D03*
X1980012Y1733932D03*
X1976012D03*
X1977471Y1531717D03*
Y1527717D03*
X1906798Y1528255D03*
X1902798D03*
X2156851Y1714286D03*
X2152851D03*
X1952559Y1453138D03*
X1948559D03*
X1924323Y1573314D03*
X1920323D03*
X1878747Y1591739D03*
X1882747D03*
X1924323Y1584814D03*
X1920323D03*
X1969471Y1531717D03*
Y1527717D03*
X1861119Y1511216D03*
X1857119D03*
X1908022Y1463716D03*
X1912022D03*
X1924323Y1577314D03*
X1920323D03*
X1924323Y1580814D03*
X1920323D03*
X1979293Y1616945D03*
Y1620945D03*
X2056495Y1595870D03*
X2060495D03*
X2065566Y1595822D03*
X2069566D03*
X2065584Y1591370D03*
X2069584D03*
X2145103Y1499202D03*
X2149103D03*
X1810796Y1455271D03*
X1806796D03*
X1948512Y1461484D03*
X1952512D03*
X2116875Y1498286D03*
X2120875D03*
X1810889Y1469559D03*
X1806889D03*
X2054686Y1496669D03*
X2050686D03*
G54D772*
X1925939Y1514125D03*
Y1505125D03*
G54D773*
X1821763Y1686086D03*
Y1634346D03*
G54D774*
X1857838Y1679057D03*
X1850338D03*
X1871213Y1687428D03*
X1878713D03*
X1848833Y1737682D03*
X1841333D03*
X1858099Y1687656D03*
X1850599D03*
G54D775*
X1995441Y1509644D03*
X2017091D03*
Y1522244D03*
X1995441D03*
G54D776*
X1907544Y1561108D03*
X1892584D03*
G54D777*
X1934809Y1470031D03*
Y1472590D03*
Y1475149D03*
X1926148D03*
Y1470031D03*
G54D778*
X1894175Y1572371D03*
X1907965D03*
Y1592171D03*
X1894175D03*
G54D779*
X1896145Y1572371D03*
X1898115D03*
X1900085D03*
X1902055D03*
X1904025D03*
X1905995D03*
Y1592171D03*
X1904025D03*
X1902055D03*
X1900085D03*
X1898115D03*
X1896145D03*
G54D780*
X1910970Y1575376D03*
Y1589166D03*
X1891170D03*
Y1575376D03*
G54D781*
X1910970Y1577346D03*
Y1579316D03*
Y1581286D03*
Y1583256D03*
Y1585226D03*
Y1587196D03*
X1891170D03*
Y1585226D03*
Y1583256D03*
Y1581286D03*
Y1579316D03*
Y1577346D03*
G54D782*
X1901070Y1582271D03*
G54D783*
X1892229Y1516975D03*
Y1515401D03*
Y1513826D03*
Y1512251D03*
Y1510676D03*
Y1509101D03*
Y1507527D03*
Y1505952D03*
Y1504377D03*
Y1502802D03*
Y1501227D03*
Y1499653D03*
X1916440D03*
Y1501227D03*
Y1502802D03*
Y1504377D03*
Y1505952D03*
Y1507527D03*
Y1509101D03*
Y1510676D03*
Y1512251D03*
Y1513826D03*
Y1515401D03*
Y1516975D03*
G54D784*
X1895674Y1496209D03*
X1897248D03*
X1898823D03*
X1900398D03*
X1901973D03*
X1903548D03*
X1905121D03*
X1906696D03*
X1908271D03*
X1909846D03*
X1911421D03*
X1912995D03*
Y1520420D03*
X1911421D03*
X1909846D03*
X1908271D03*
X1906696D03*
X1905121D03*
X1903548D03*
X1901973D03*
X1900398D03*
X1898823D03*
X1897248D03*
X1895674D03*
G54D785*
X1904334Y1508314D03*
G54D786*
X1826100Y1459104D03*
X2146914D03*
X2153863Y1761286D03*
X1826100Y1740262D03*
G54D787*
X1847902Y1601649D03*
G54D788*
X1801236Y1539453D03*
X1798480D03*
X1795724D03*
X1792968D03*
Y1482309D03*
X1795724D03*
X1798480D03*
X1801236D03*
G54D789*
X1831295Y1539424D03*
X1826176Y1482338D03*
G54D790*
X1787988Y1539213D03*
Y1482549D03*
G54D791*
X1842526Y1524365D03*
Y1500744D03*
G54D792*
X1871890Y1660402D03*
X1874450D03*
X1877009D03*
X1879569D03*
Y1678602D03*
X1877009D03*
X1874450D03*
X1871890D03*
G54D793*
X1875730Y1669502D03*
G54D794*
X2072112Y1503958D03*
Y1501990D03*
Y1500021D03*
Y1498052D03*
Y1496084D03*
X2091797D03*
Y1498052D03*
Y1500021D03*
Y1501990D03*
Y1503958D03*
G54D795*
X2081954Y1500021D03*
G54D796*
X2033795Y1483365D03*
X2035764D03*
X2037732D03*
X2039701D03*
Y1495176D03*
X2037732D03*
X2035764D03*
X2033795D03*
G54D797*
X2042653Y1486317D03*
Y1488286D03*
Y1490254D03*
Y1492223D03*
X2030842D03*
Y1490254D03*
Y1488286D03*
Y1486317D03*
G54D798*
X2052474Y1686386D03*
X2049915D03*
X2047356D03*
X2044797D03*
X2042238D03*
X2039679D03*
X2037120D03*
X2034561D03*
Y1660401D03*
X2037120D03*
X2039679D03*
X2042238D03*
X2044797D03*
X2047356D03*
X2049915D03*
X2052474D03*
X2063508Y1724886D03*
X2060949D03*
X2058390D03*
X2055831D03*
X2053272D03*
X2050713D03*
X2048154D03*
X2045595D03*
X2043036D03*
X2040477D03*
X2037918D03*
X2035359D03*
X2032800D03*
X2030241D03*
Y1698901D03*
X2032800D03*
X2035359D03*
X2037918D03*
X2040477D03*
X2043036D03*
X2045595D03*
X2048154D03*
X2050713D03*
X2053272D03*
X2055831D03*
X2058390D03*
X2060949D03*
X2063508D03*
X1942114Y1725019D03*
X1939555D03*
X1936996D03*
X1934437D03*
X1931878D03*
X1929319D03*
X1926760D03*
X1924201D03*
X1921642D03*
X1919083D03*
X1916524D03*
X1913965D03*
X1911406D03*
X1908847D03*
Y1699034D03*
X1911406D03*
X1913965D03*
X1916524D03*
X1919083D03*
X1921642D03*
X1924201D03*
X1926760D03*
X1929319D03*
X1931878D03*
X1934437D03*
X1936996D03*
X1939555D03*
X1942114D03*
X1931080Y1686519D03*
X1928521D03*
X1925962D03*
X1923403D03*
X1920844D03*
X1918285D03*
X1915726D03*
X1913167D03*
Y1660534D03*
X1915726D03*
X1918285D03*
X1920844D03*
X1923403D03*
X1925962D03*
X1928521D03*
X1931080D03*
X1982658Y1724925D03*
X1980099D03*
X1977540D03*
X1974981D03*
X1972422D03*
X1969863D03*
X1967304D03*
X1964745D03*
X1962186D03*
X1959627D03*
X1957068D03*
X1954509D03*
X1951950D03*
X1949391D03*
Y1698940D03*
X1951950D03*
X1954509D03*
X1957068D03*
X1959627D03*
X1962186D03*
X1964745D03*
X1967304D03*
X1969863D03*
X1972422D03*
X1974981D03*
X1977540D03*
X1980099D03*
X1982658D03*
X1971624Y1686425D03*
X1969065D03*
X1966506D03*
X1963947D03*
X1961388D03*
X1958829D03*
X1956270D03*
X1953711D03*
Y1660440D03*
X1956270D03*
X1958829D03*
X1961388D03*
X1963947D03*
X1966506D03*
X1969065D03*
X1971624D03*
X2104331Y1724872D03*
X2101772D03*
X2099213D03*
X2096654D03*
X2094095D03*
X2091536D03*
X2088977D03*
X2086418D03*
X2083859D03*
X2081300D03*
X2078741D03*
X2076182D03*
X2073623D03*
X2071064D03*
Y1698887D03*
X2073623D03*
X2076182D03*
X2078741D03*
X2081300D03*
X2083859D03*
X2086418D03*
X2088977D03*
X2091536D03*
X2094095D03*
X2096654D03*
X2099213D03*
X2101772D03*
X2104331D03*
X2022979Y1724842D03*
X2020420D03*
X2017861D03*
X2015302D03*
X2012743D03*
X2010184D03*
X2007625D03*
X2005066D03*
X2002507D03*
X1999948D03*
X1997389D03*
X1994830D03*
X1992271D03*
X1989712D03*
Y1698857D03*
X1992271D03*
X1994830D03*
X1997389D03*
X1999948D03*
X2002507D03*
X2005066D03*
X2007625D03*
X2010184D03*
X2012743D03*
X2015302D03*
X2017861D03*
X2020420D03*
X2022979D03*
X2011945Y1686342D03*
X2009386D03*
X2006827D03*
X2004268D03*
X2001709D03*
X1999150D03*
X1996591D03*
X1994032D03*
Y1660357D03*
X1996591D03*
X1999150D03*
X2001709D03*
X2004268D03*
X2006827D03*
X2009386D03*
X2011945D03*
X2093297Y1686372D03*
X2090738D03*
X2088179D03*
X2085620D03*
X2083061D03*
X2080502D03*
X2077943D03*
X2075384D03*
Y1660387D03*
X2077943D03*
X2080502D03*
X2083061D03*
X2085620D03*
X2088179D03*
X2090738D03*
X2093297D03*
G54D799*
X2046874Y1711893D03*
X1925480Y1712026D03*
X1966024Y1711932D03*
X2087697Y1711879D03*
X2006345Y1711849D03*
G54D800*
X2085792Y1474825D03*
X2105477D03*
G54D801*
X2023618Y1467785D03*
X2044878D03*
G54D802*
X2079540Y1644206D03*
Y1642238D03*
Y1640269D03*
Y1638301D03*
Y1636332D03*
Y1634364D03*
Y1632395D03*
Y1630427D03*
Y1628458D03*
Y1626490D03*
Y1624521D03*
Y1622553D03*
Y1620584D03*
Y1618616D03*
Y1616647D03*
Y1614679D03*
Y1612710D03*
Y1610742D03*
Y1608773D03*
Y1606805D03*
Y1604836D03*
Y1602868D03*
Y1600899D03*
Y1598931D03*
Y1596962D03*
Y1594994D03*
Y1593025D03*
Y1591057D03*
Y1589088D03*
Y1587120D03*
Y1585151D03*
Y1583183D03*
Y1581214D03*
Y1579246D03*
Y1577277D03*
Y1575309D03*
Y1573340D03*
Y1571372D03*
Y1569403D03*
Y1567435D03*
Y1565466D03*
Y1563498D03*
Y1561529D03*
Y1559561D03*
Y1557592D03*
Y1555624D03*
Y1553655D03*
Y1551687D03*
Y1549718D03*
Y1547750D03*
G54D803*
X2090169Y1650545D03*
Y1541096D03*
G54D804*
X2070006Y1467012D03*
Y1486697D03*
G54D805*
X2164197Y1445993D03*
X2170693D03*
X2131275D03*
X2137771D03*
X2169863Y1704038D03*
Y1710535D03*
X1801154Y1462434D03*
X1794657D03*
X2169782Y1656075D03*
Y1662572D03*
X2169863Y1754038D03*
Y1760535D03*
X2157863Y1569038D03*
Y1575535D03*
X1801054Y1455271D03*
X1794557D03*
X1801147Y1469559D03*
X1794650D03*
X2121012Y1489890D03*
Y1483393D03*
G54D806*
X1850401Y1671431D03*
Y1669464D03*
Y1665525D03*
Y1663557D03*
X1853844D03*
Y1665525D03*
Y1669464D03*
Y1671431D03*
X1815524Y1720301D03*
Y1718333D03*
Y1714395D03*
Y1712427D03*
X1818968D03*
Y1714395D03*
Y1718333D03*
Y1720301D03*
G54D807*
X1850401Y1667435D03*
X1853844D03*
X1815524Y1716305D03*
X1818968D03*
G54D808*
X2158455Y1623261D03*
Y1643761D03*
G54D809*
X2043994Y1447642D03*
X2050194D03*
X2063194D03*
X2056994D03*
X2088166D03*
X2094366D03*
X2107366D03*
X2101166D03*
X1999912D03*
X2006112D03*
X2019112D03*
X2012912D03*
X1868817Y1641614D03*
X1875017D03*
X2119763Y1658286D03*
X2125963D03*
X2119763Y1737786D03*
X2125963D03*
X2119763Y1695786D03*
X2125963D03*
G54D810*
X1849848Y1706138D03*
X1829348D03*
G54D811*
X2123113Y1650886D03*
X2119363D03*
X2115613D03*
Y1640686D03*
X2123113D03*
Y1688386D03*
X2119363D03*
X2115613D03*
Y1678186D03*
X2123113D03*
Y1730386D03*
X2119363D03*
X2115613D03*
Y1720186D03*
X2123113D03*
G54D812*
X2135863Y1743964D03*
Y1738846D03*
Y1733727D03*
Y1728609D03*
X2160666D03*
Y1733727D03*
Y1738846D03*
Y1743964D03*
X2135863Y1704964D03*
Y1699846D03*
Y1694727D03*
Y1689609D03*
X2160666D03*
Y1694727D03*
Y1699846D03*
Y1704964D03*
X2135863Y1672964D03*
Y1667846D03*
Y1662727D03*
Y1657609D03*
X2160666D03*
Y1662727D03*
Y1667846D03*
Y1672964D03*
G54D813*
X1848997Y1650571D03*
Y1646821D03*
Y1643071D03*
X1859197D03*
Y1650571D03*
G54D814*
X1860491Y1629378D03*
X1849862D03*
G54D815*
X1802194Y1722120D03*
Y1719561D03*
Y1717002D03*
Y1714443D03*
Y1711884D03*
G54D816*
X1802096Y1707455D03*
Y1726549D03*
G54D817*
X1791663Y1702927D03*
Y1731077D03*
G54D818*
X1941573Y1455847D03*
Y1458406D03*
Y1460965D03*
Y1463524D03*
X1919526D03*
Y1460965D03*
Y1458406D03*
Y1455847D03*
G54D819*
X2174488Y1547178D03*
G54D820*
X2121834Y1529802D03*
X1885614Y1726652D03*
G54D821*
X1899647Y1464929D03*
Y1450363D03*
X1875237D03*
Y1464929D03*
X1793423Y1755887D03*
Y1770453D03*
X1817833D03*
Y1755887D03*
X0Y0D02*
M02*
